#N canvas 255 152 1216 799 10;
#X obj 47 74 ctlin 1;
#X floatatom 47 124 5 0 0 0 - - -;
#X obj 47 201 line;
#X obj 47 245 vsl 15 128 0 127 0 0 empty empty empty 0 -9 0 10 -262144
-1 -1 0 1;
#X floatatom 111 124 5 0 0 0 - - -;
#X obj 111 201 line;
#X obj 111 245 vsl 15 128 0 127 0 0 empty empty empty 0 -9 0 10 -262144
-1 -1 0 1;
#X obj 111 74 ctlin 2;
#X floatatom 172 124 5 0 0 0 - - -;
#X obj 172 201 line;
#X obj 172 245 vsl 15 128 0 127 0 0 empty empty empty 0 -9 0 10 -262144
-1 -1 200 1;
#X floatatom 236 124 5 0 0 0 - - -;
#X obj 236 201 line;
#X obj 236 245 vsl 15 128 0 127 0 0 empty empty empty 0 -9 0 10 -262144
-1 -1 300 1;
#X obj 172 74 ctlin 3;
#X obj 236 74 ctlin 4;
#X floatatom 298 124 5 0 0 0 - - -;
#X obj 298 201 line;
#X obj 298 245 vsl 15 128 0 127 0 0 empty empty empty 0 -9 0 10 -262144
-1 -1 0 1;
#X floatatom 362 124 5 0 0 0 - - -;
#X obj 362 201 line;
#X obj 362 245 vsl 15 128 0 127 0 0 empty empty empty 0 -9 0 10 -262144
-1 -1 300 1;
#X floatatom 423 124 5 0 0 0 - - -;
#X obj 423 201 line;
#X obj 423 245 vsl 15 128 0 127 0 0 empty empty empty 0 -9 0 10 -262144
-1 -1 1500 1;
#X floatatom 487 124 5 0 0 0 - - -;
#X obj 487 201 line;
#X obj 487 245 vsl 15 128 0 127 0 0 empty empty empty 0 -9 0 10 -262144
-1 -1 0 1;
#X obj 298 74 ctlin 5;
#X obj 362 74 ctlin 6;
#X obj 423 74 ctlin 7;
#X obj 487 74 ctlin 8;
#X floatatom 560 124 5 0 0 0 - - -;
#X obj 560 201 line;
#X obj 560 246 vsl 15 128 0 127 0 0 empty empty empty 0 -9 0 10 -262144
-1 -1 0 1;
#X floatatom 621 124 5 0 0 0 - - -;
#X obj 621 201 line;
#X obj 621 245 vsl 15 128 0 127 0 0 empty empty empty 0 -9 0 10 -262144
-1 -1 200 1;
#X floatatom 685 124 5 0 0 0 - - -;
#X obj 685 201 line;
#X obj 685 245 vsl 15 128 0 127 0 0 empty empty empty 0 -9 0 10 -262144
-1 -1 1100 1;
#X obj 560 74 ctlin 9;
#X obj 621 74 ctlin 10;
#X obj 685 74 ctlin 11;
#X msg 111 154 \$1 10;
#X msg 172 154 \$1 10;
#X msg 236 154 \$1 10;
#X msg 298 154 \$1 10;
#X msg 362 154 \$1 10;
#X msg 423 154 \$1 10;
#X msg 487 154 \$1 10;
#X msg 560 154 \$1 10;
#X msg 621 154 \$1 10;
#X msg 685 154 \$1 10;
#X msg 47 154 \$1 100;
#X connect 0 0 1 0;
#X connect 1 0 54 0;
#X connect 2 0 3 0;
#X connect 4 0 44 0;
#X connect 5 0 6 0;
#X connect 7 0 4 0;
#X connect 8 0 45 0;
#X connect 9 0 10 0;
#X connect 11 0 46 0;
#X connect 12 0 13 0;
#X connect 14 0 8 0;
#X connect 15 0 11 0;
#X connect 16 0 47 0;
#X connect 17 0 18 0;
#X connect 19 0 48 0;
#X connect 20 0 21 0;
#X connect 22 0 49 0;
#X connect 23 0 24 0;
#X connect 25 0 50 0;
#X connect 26 0 27 0;
#X connect 28 0 16 0;
#X connect 29 0 19 0;
#X connect 30 0 22 0;
#X connect 31 0 25 0;
#X connect 32 0 51 0;
#X connect 33 0 34 0;
#X connect 35 0 52 0;
#X connect 36 0 37 0;
#X connect 38 0 53 0;
#X connect 39 0 40 0;
#X connect 41 0 32 0;
#X connect 42 0 35 0;
#X connect 43 0 38 0;
#X connect 44 0 5 0;
#X connect 45 0 9 0;
#X connect 46 0 12 0;
#X connect 47 0 17 0;
#X connect 48 0 20 0;
#X connect 49 0 23 0;
#X connect 50 0 26 0;
#X connect 51 0 33 0;
#X connect 52 0 36 0;
#X connect 53 0 39 0;
#X connect 54 0 2 0;
