#N canvas 320 23 1298 868 10;
#X obj 220 611 dac~;
#X msg 81 517 \; pd dsp \$1;
#X obj 81 494 tgl 15 0 empty empty empty 17 7 0 10 -262144 -1 -1 0
1;
#X text 103 490 <- turn on sound;
#X obj 288 279 expr 44100 / $f1;
#X floatatom 288 316 10 0 0 0 - - -;
#X obj 288 375 phasor~;
#X obj 220 408 *~;
#X obj 220 547 *~ 0.7;
#X floatatom 259 520 5 0 1 0 - - -;
#X obj 344 219 bng 15 250 50 0 empty empty empty 17 7 0 10 -262144
-1 -1;
#X text 367 217 <- reset normal speed;
#X text 368 315 <- playback speed;
#X text 361 120 Use a [phasor~] to loop sound files.;
#X obj 288 252 f;
#X obj 646 140 hsl 128 15 -2 2 0 0 empty empty -2_to_+2 20 -8 0 10
-262144 -1 -1 7937 1;
#X floatatom 643 164 5 0 0 0 - - -;
#X text 665 64 <- reset normal speed;
#X obj 643 88 f;
#X obj 643 65 bng 15 250 50 0 empty empty empty 17 7 0 10 -262144 -1
-1;
#X floatatom 217 375 10 0 0 0 - - -;
#N canvas 0 22 450 300 (subpatch) 0;
#X array voicer 88200 float 2;
#X coords 0 1 88199 -1 400 140 1;
#X restore 641 266 graph;
#X obj 659 488 adc~;
#X obj 605 491 bng 15 250 50 0 empty empty empty 17 7 0 10 -262144
-1 -1;
#X msg 287 185 88200;
#X obj 287 141 loadbang;
#X obj 220 441 tabread4~ voicer;
#X msg 498 541 \; voicer normalize;
#X obj 659 541 tabwrite~ voicer;
#X connect 2 0 1 0;
#X connect 4 0 5 0;
#X connect 4 0 18 1;
#X connect 5 0 6 0;
#X connect 6 0 7 0;
#X connect 7 0 26 0;
#X connect 8 0 0 0;
#X connect 8 0 0 1;
#X connect 9 0 8 1;
#X connect 10 0 14 0;
#X connect 14 0 4 0;
#X connect 14 0 20 0;
#X connect 15 0 16 0;
#X connect 16 0 5 0;
#X connect 18 0 15 0;
#X connect 19 0 18 0;
#X connect 20 0 7 1;
#X connect 22 0 28 0;
#X connect 23 0 28 0;
#X connect 24 0 14 0;
#X connect 25 0 24 0;
#X connect 26 0 8 0;
