#N canvas 185 23 1393 669 10;
#N canvas 0 22 450 300 (subpatch) 0;
#X array largetable1 441000 float 2;
#X coords 0 1 441000 -1 200 140 1;
#X restore 654 183 graph;
#X text 357 548 sampling from the microphone;
#X obj 82 550 dac~;
#X obj 29 60 tgl 15 0 empty empty empty 0 -6 0 8 -262144 -1 -1 0 1
;
#X floatatom 84 171 10 0 0 2 looplength looplength -, f 10;
#X floatatom 152 171 10 0 0 2 start - -, f 10;
#X obj 535 494 adc~;
#X obj 359 525 tabwrite~ largetable1;
#N canvas 0 22 450 300 (subpatch) 0;
#X array largetable2 441000 float 2;
#X coords 0 1 441000 -1 200 140 1;
#X restore 656 351 graph;
#X obj 525 524 tabwrite~ largetable2;
#X obj 360 472 bng 15 250 50 0 empty empty empty 17 7 0 10 -262144
-1 -1;
#X obj 526 473 bng 15 250 50 0 empty empty empty 17 7 0 10 -262144
-1 -1;
#X msg 401 199 \; largetable1 normalize \; largetable2 normalize;
#X obj 369 494 adc~;
#X obj 229 246 mtof;
#X floatatom 229 226 5 0 0 0 - - -, f 5;
#X floatatom 229 269 5 0 0 0 - - -, f 5;
#X obj 229 171 loadbang;
#X obj 302 213 mtof;
#X floatatom 302 171 5 0 0 2 pitch - -, f 5;
#X floatatom 302 236 5 0 0 0 - - -, f 5;
#X obj 228 300 /;
#X obj 300 254 t b f;
#X msg 229 203 60;
#X obj 231 21 hsl 500 15 0 1 0 0 empty empty empty -2 -8 0 10 -262144
-1 -1 35600 1;
#X obj 228 41 * 10000;
#X obj 227 70 pack f 60;
#X obj 228 95 line;
#X msg 211 394 set largetable2;
#X msg 210 366 set largetable1;
#N canvas 813 119 381 480 ola 0;
#N canvas 724 211 517 614 bliplay 0;
#X obj 35 196 pack f f;
#X obj 34 75 t b b;
#X obj 50 237 vline~;
#X obj 106 196 pack f 0;
#X obj 109 116 float;
#X obj 42 141 +;
#X obj 168 80 * 44.1;
#X floatatom 248 78 5 0 0 2 pitch_divisor - -, f 5;
#X msg 35 112 441000;
#X obj 247 101 * 10000;
#X obj 49 362 clip~ 2 440998;
#X obj 52 398 tabread4~ largetable1;
#X obj 182 321 cos~;
#X obj 183 345 *~ -0.5;
#X obj 183 366 +~ 0.5;
#X obj 133 428 *~;
#X obj 199 240 vline~;
#X msg 283 215 0 0;
#X obj 196 213 pack 1 f;
#X obj 36 34 inlet;
#X obj 153 36 inlet;
#X obj 253 36 inlet;
#X obj 125 481 outlet~;
#X obj 211 39 inlet;
#X obj 349 36 inlet;
#X connect 0 0 2 0;
#X connect 1 0 8 0;
#X connect 1 0 18 0;
#X connect 1 1 4 0;
#X connect 1 1 17 0;
#X connect 2 0 10 0;
#X connect 3 0 2 0;
#X connect 4 0 3 0;
#X connect 4 0 5 1;
#X connect 5 0 0 0;
#X connect 6 0 4 1;
#X connect 7 0 9 0;
#X connect 8 0 5 0;
#X connect 9 0 0 1;
#X connect 10 0 11 0;
#X connect 11 0 15 0;
#X connect 12 0 13 0;
#X connect 13 0 14 0;
#X connect 14 0 15 1;
#X connect 15 0 22 0;
#X connect 16 0 12 0;
#X connect 17 0 16 0;
#X connect 18 0 16 0;
#X connect 19 0 1 0;
#X connect 20 0 6 0;
#X connect 21 0 7 0;
#X connect 23 0 18 1;
#X connect 24 0 11 0;
#X restore 103 286 pd bliplay;
#N canvas 724 211 517 614 bliplay 0;
#X obj 35 196 pack f f;
#X obj 34 75 t b b;
#X obj 50 237 vline~;
#X obj 106 196 pack f 0;
#X obj 109 116 float;
#X obj 42 141 +;
#X obj 168 80 * 44.1;
#X floatatom 248 78 5 0 0 2 pitch_divisor - -, f 5;
#X msg 35 112 441000;
#X obj 247 101 * 10000;
#X obj 49 362 clip~ 2 440998;
#X obj 52 398 tabread4~ largetable1;
#X obj 182 321 cos~;
#X obj 183 345 *~ -0.5;
#X obj 183 366 +~ 0.5;
#X obj 133 428 *~;
#X obj 199 240 vline~;
#X msg 283 215 0 0;
#X obj 196 213 pack 1 f;
#X obj 36 34 inlet;
#X obj 153 36 inlet;
#X obj 253 36 inlet;
#X obj 125 481 outlet~;
#X obj 211 39 inlet;
#X obj 349 36 inlet;
#X connect 0 0 2 0;
#X connect 1 0 8 0;
#X connect 1 0 18 0;
#X connect 1 1 4 0;
#X connect 1 1 17 0;
#X connect 2 0 10 0;
#X connect 3 0 2 0;
#X connect 4 0 3 0;
#X connect 4 0 5 1;
#X connect 5 0 0 0;
#X connect 6 0 4 1;
#X connect 7 0 9 0;
#X connect 8 0 5 0;
#X connect 9 0 0 1;
#X connect 10 0 11 0;
#X connect 11 0 15 0;
#X connect 12 0 13 0;
#X connect 13 0 14 0;
#X connect 14 0 15 1;
#X connect 15 0 22 0;
#X connect 16 0 12 0;
#X connect 17 0 16 0;
#X connect 18 0 16 0;
#X connect 19 0 1 0;
#X connect 20 0 6 0;
#X connect 21 0 7 0;
#X connect 23 0 18 1;
#X connect 24 0 11 0;
#X restore 21 285 pd bliplay;
#X obj 28 169 bng 15 250 50 0 empty empty play 17 7 0 10 -262144 -1
-1;
#X obj 27 128 metro 200;
#X obj 94 217 delay;
#X obj 162 133 * 0.5;
#X obj 52 74 inlet;
#X obj 140 74 inlet;
#X obj 202 76 inlet;
#X obj 263 76 inlet;
#X obj 311 75 inlet;
#X obj 25 345 +~;
#X obj 24 379 outlet~;
#X connect 0 0 11 1;
#X connect 1 0 11 0;
#X connect 2 0 4 0;
#X connect 2 0 1 0;
#X connect 3 0 2 0;
#X connect 4 0 0 0;
#X connect 5 0 4 1;
#X connect 6 0 3 0;
#X connect 7 0 3 1;
#X connect 7 0 5 0;
#X connect 7 0 0 2;
#X connect 7 0 1 2;
#X connect 8 0 1 1;
#X connect 8 0 0 1;
#X connect 9 0 0 3;
#X connect 9 0 1 3;
#X connect 10 0 1 4;
#X connect 10 0 0 4;
#X connect 11 0 12 0;
#X restore 82 417 pd ola;
#X text 10 4 sample looping: Tom Erbe example;
#X connect 3 0 30 0;
#X connect 4 0 30 1;
#X connect 5 0 30 2;
#X connect 6 0 9 0;
#X connect 10 0 7 0;
#X connect 11 0 9 0;
#X connect 13 0 7 0;
#X connect 14 0 16 0;
#X connect 15 0 14 0;
#X connect 16 0 21 0;
#X connect 17 0 23 0;
#X connect 18 0 20 0;
#X connect 19 0 18 0;
#X connect 20 0 22 0;
#X connect 21 0 30 3;
#X connect 22 0 21 0;
#X connect 22 1 21 1;
#X connect 23 0 15 0;
#X connect 23 0 19 0;
#X connect 24 0 25 0;
#X connect 25 0 26 0;
#X connect 26 0 27 0;
#X connect 27 0 5 0;
#X connect 28 0 30 4;
#X connect 29 0 30 4;
#X connect 30 0 2 0;
#X connect 30 0 2 1;
