#N canvas 283 23 938 624 10;
#N canvas 0 22 450 300 (subpatch) 0;
#X array largetable1 441000 float 2;
#X coords 0 1 441000 -1 200 140 1;
#X restore 656 212 graph;
#X text 355 567 sampling from the microphone;
#X obj 84 579 dac~;
#X obj 31 89 tgl 15 0 empty empty empty 0 -6 0 8 -262144 -1 -1 0 1
;
#X obj 533 513 adc~;
#X obj 357 544 tabwrite~ largetable1;
#N canvas 0 22 450 300 (subpatch) 0;
#X array largetable2 441000 float 2;
#X coords 0 1 441000 -1 200 140 1;
#X restore 658 380 graph;
#X obj 523 543 tabwrite~ largetable2;
#X obj 358 491 bng 15 250 50 0 empty empty empty 17 7 0 10 -262144
-1 -1;
#X obj 524 492 bng 15 250 50 0 empty empty empty 17 7 0 10 -262144
-1 -1;
#X msg 403 342 \; largetable1 normalize \; largetable2 normalize;
#X obj 367 513 adc~;
#X obj 467 237 mtof;
#X floatatom 467 217 5 0 0 0 - - -, f 5;
#X floatatom 467 260 5 0 0 0 - - -, f 5;
#X obj 467 171 loadbang;
#X obj 540 204 mtof;
#X floatatom 540 227 5 0 0 0 - - -, f 5;
#X obj 466 291 /;
#X obj 538 245 t b f;
#X msg 467 194 60;
#X msg 403 423 set largetable2;
#X msg 402 395 set largetable1;
#X floatatom 585 80 5 0 0 1 start(0-1) - -, f 5;
#X floatatom 407 80 5 0 1 0 randomness - -, f 5;
#X obj 410 58 hsl 128 15 0 1 0 0 empty empty empty -2 -8 0 10 -262144
-1 -1 0 1;
#X obj 588 58 hsl 128 15 0 1 0 0 empty empty empty -2 -8 0 10 -262144
-1 -1 0 1;
#X obj 256 58 hsl 128 15 0 1 0 0 empty empty empty -2 -8 0 10 -262144
-1 -1 0 1;
#X obj 253 80 * 10000;
#X floatatom 253 104 10 0 0 0 looplength - -, f 10;
#X text 29 10 brassage or time shuffling: adapted from Tom Erbe example
;
#X obj 543 156 hsl 128 15 0 127 0 0 empty empty empty -2 -8 0 10 -262144
-1 -1 0 1;
#X floatatom 540 180 5 0 0 1 pitch - -, f 5;
#N canvas 813 119 381 480 ola__________________________ 0;
#N canvas 724 211 517 614 bliplay 0;
#X obj 35 196 pack f f;
#X obj 34 75 t b b;
#X obj 50 237 vline~;
#X obj 106 196 pack f 0;
#X obj 109 116 float;
#X obj 42 141 +;
#X obj 168 80 * 44.1;
#X floatatom 248 78 5 0 0 2 pitch_divisor - -, f 5;
#X msg 35 112 441000;
#X obj 247 101 * 10000;
#X obj 49 362 clip~ 2 440998;
#X obj 52 398 tabread4~ largetable1;
#X obj 182 321 cos~;
#X obj 183 345 *~ -0.5;
#X obj 183 366 +~ 0.5;
#X obj 133 428 *~;
#X obj 199 240 vline~;
#X msg 283 215 0 0;
#X obj 196 213 pack 1 f;
#X obj 36 34 inlet;
#X obj 153 36 inlet;
#X obj 253 36 inlet;
#X obj 125 481 outlet~;
#X obj 211 39 inlet;
#X obj 349 36 inlet;
#X connect 0 0 2 0;
#X connect 1 0 8 0;
#X connect 1 0 18 0;
#X connect 1 1 4 0;
#X connect 1 1 17 0;
#X connect 2 0 10 0;
#X connect 3 0 2 0;
#X connect 4 0 3 0;
#X connect 4 0 5 1;
#X connect 5 0 0 0;
#X connect 6 0 4 1;
#X connect 7 0 9 0;
#X connect 8 0 5 0;
#X connect 9 0 0 1;
#X connect 10 0 11 0;
#X connect 11 0 15 0;
#X connect 12 0 13 0;
#X connect 13 0 14 0;
#X connect 14 0 15 1;
#X connect 15 0 22 0;
#X connect 16 0 12 0;
#X connect 17 0 16 0;
#X connect 18 0 16 0;
#X connect 19 0 1 0;
#X connect 20 0 6 0;
#X connect 21 0 7 0;
#X connect 23 0 18 1;
#X connect 24 0 11 0;
#X restore 103 286 pd bliplay;
#N canvas 724 211 517 614 bliplay 0;
#X obj 35 196 pack f f;
#X obj 34 75 t b b;
#X obj 50 237 vline~;
#X obj 106 196 pack f 0;
#X obj 109 116 float;
#X obj 42 141 +;
#X obj 168 80 * 44.1;
#X floatatom 248 78 5 0 0 2 pitch_divisor - -, f 5;
#X msg 35 112 441000;
#X obj 247 101 * 10000;
#X obj 49 362 clip~ 2 440998;
#X obj 52 398 tabread4~ largetable1;
#X obj 182 321 cos~;
#X obj 183 345 *~ -0.5;
#X obj 183 366 +~ 0.5;
#X obj 133 428 *~;
#X obj 199 240 vline~;
#X msg 283 215 0 0;
#X obj 196 213 pack 1 f;
#X obj 36 34 inlet;
#X obj 153 36 inlet;
#X obj 253 36 inlet;
#X obj 125 481 outlet~;
#X obj 211 39 inlet;
#X obj 349 36 inlet;
#X connect 0 0 2 0;
#X connect 1 0 8 0;
#X connect 1 0 18 0;
#X connect 1 1 4 0;
#X connect 1 1 17 0;
#X connect 2 0 10 0;
#X connect 3 0 2 0;
#X connect 4 0 3 0;
#X connect 4 0 5 1;
#X connect 5 0 0 0;
#X connect 6 0 4 1;
#X connect 7 0 9 0;
#X connect 8 0 5 0;
#X connect 9 0 0 1;
#X connect 10 0 11 0;
#X connect 11 0 15 0;
#X connect 12 0 13 0;
#X connect 13 0 14 0;
#X connect 14 0 15 1;
#X connect 15 0 22 0;
#X connect 16 0 12 0;
#X connect 17 0 16 0;
#X connect 18 0 16 0;
#X connect 19 0 1 0;
#X connect 20 0 6 0;
#X connect 21 0 7 0;
#X connect 23 0 18 1;
#X connect 24 0 11 0;
#X restore 21 285 pd bliplay;
#X obj 28 169 bng 15 250 50 0 empty empty play 17 7 0 10 -262144 -1
-1;
#X obj 27 128 metro 200;
#X obj 94 217 delay;
#X obj 162 133 * 0.5;
#X obj 52 74 inlet;
#X obj 140 74 inlet;
#X obj 202 76 inlet;
#X obj 263 76 inlet;
#X obj 311 75 inlet;
#X obj 25 345 +~;
#X obj 24 379 outlet~;
#X connect 0 0 11 1;
#X connect 1 0 11 0;
#X connect 2 0 4 0;
#X connect 2 0 1 0;
#X connect 3 0 2 0;
#X connect 4 0 0 0;
#X connect 5 0 4 1;
#X connect 6 0 3 0;
#X connect 7 0 3 1;
#X connect 7 0 5 0;
#X connect 7 0 0 2;
#X connect 7 0 1 2;
#X connect 8 0 1 1;
#X connect 8 0 0 1;
#X connect 9 0 0 3;
#X connect 9 0 1 3;
#X connect 10 0 1 4;
#X connect 10 0 0 4;
#X connect 11 0 12 0;
#X restore 31 446 pd ola__________________________;
#N canvas 680 470 499 454 shufflingTime 0;
#X floatatom 135 308 5 0 0 1 start - -, f 5;
#X obj 135 273 * 10000;
#X obj 136 120 random 10000;
#X obj 135 145 * 0.0002;
#X obj 135 169 - 1;
#X floatatom 135 195 5 0 0 0 - - -, f 5;
#X obj 135 225 *;
#X obj 135 248 +;
#X obj 136 93 metro;
#X obj 163 67 * 0.5;
#X obj 87 23 inlet;
#X obj 163 23 inlet;
#X obj 239 25 inlet;
#X obj 315 25 inlet;
#X obj 135 375 outlet;
#X connect 0 0 14 0;
#X connect 1 0 0 0;
#X connect 2 0 3 0;
#X connect 3 0 4 0;
#X connect 4 0 5 0;
#X connect 5 0 6 0;
#X connect 6 0 7 0;
#X connect 7 0 1 0;
#X connect 8 0 2 0;
#X connect 9 0 8 1;
#X connect 10 0 8 0;
#X connect 11 0 9 0;
#X connect 12 0 6 1;
#X connect 13 0 7 1;
#X restore 125 400 pd shufflingTime;
#X connect 3 0 33 0;
#X connect 3 0 34 0;
#X connect 4 0 7 0;
#X connect 8 0 5 0;
#X connect 9 0 7 0;
#X connect 11 0 5 0;
#X connect 12 0 14 0;
#X connect 13 0 12 0;
#X connect 14 0 18 0;
#X connect 15 0 20 0;
#X connect 16 0 17 0;
#X connect 17 0 19 0;
#X connect 18 0 33 3;
#X connect 19 0 18 0;
#X connect 19 1 18 1;
#X connect 20 0 13 0;
#X connect 21 0 33 4;
#X connect 22 0 33 4;
#X connect 23 0 34 3;
#X connect 24 0 34 2;
#X connect 25 0 24 0;
#X connect 26 0 23 0;
#X connect 27 0 28 0;
#X connect 28 0 29 0;
#X connect 29 0 33 1;
#X connect 29 0 34 1;
#X connect 31 0 32 0;
#X connect 32 0 16 0;
#X connect 33 0 2 0;
#X connect 33 0 2 1;
#X connect 34 0 33 2;
