#N canvas 353 85 1109 930 10;
#X text 709 556 modulation frequency;
#X obj 648 624 line~;
#X floatatom 648 559 5 0 0 0 - - -;
#X obj 648 592 pack f 200;
#X obj 647 664 osc~;
#X msg 591 490 0;
#X obj 591 307 * 10;
#X floatatom 591 351 5 0 0 0 - - -;
#X obj 590 370 int;
#X floatatom 590 390 5 0 0 0 - - -;
#X obj 590 409 change;
#X obj 591 284 / 127;
#X msg 626 493 1;
#X msg 665 493 2;
#X msg 697 493 4;
#X msg 729 493 8;
#X msg 759 493 16;
#X msg 795 489 32;
#X text 682 324 FM;
#X obj 241 380 line~;
#X obj 241 432 +~;
#X text 379 197 carrier frequency;
#X obj 241 323 pack f 10;
#X floatatom 305 199 10 0 0 0 - - -;
#X obj 241 265 f;
#X obj 240 199 select 1;
#X obj 239 47 inlet;
#X obj 304 47 inlet;
#X obj 277 768 outlet~;
#X floatatom 591 248 5 0 0 0 - - -;
#X text 338 384 modulation index;
#X obj 591 329 + 0;
#X obj 591 435 sel 0 1 2 3 4 5 6 7 8 9;
#X floatatom 303 286 5 0 0 0 - - -;
#X text 358 284 glide;
#X obj 275 697 *~ 0.8;
#N canvas 129 62 337 327 squareWave 0;
#X obj 50 230 outlet~;
#X obj 50 46 inlet~;
#X obj 50 137 expr~ $v1 > 0.5;
#X obj 50 173 expr~ $v1 * 2 - 1;
#X connect 1 0 2 0;
#X connect 2 0 3 0;
#X connect 3 0 0 0;
#X restore 216 529 pd squareWave;
#N canvas 0 23 769 642 sawWave 0;
#X obj 452 351 *~ 2;
#X obj 452 394 -~ 1;
#X obj 457 271 inlet~;
#X obj 453 492 outlet~;
#X connect 0 0 1 0;
#X connect 1 0 3 0;
#X connect 2 0 0 0;
#X restore 119 537 pd sawWave;
#N canvas 0 23 447 379 crossfade 0;
#X obj 158 33 inlet~;
#X obj 202 33 inlet;
#X obj 161 255 *~;
#X text 203 14 crossfade;
#X obj 70 33 inlet~;
#X obj 73 255 *~;
#X obj 146 284 +~;
#X obj 146 313 outlet~;
#X obj 177 187 sin;
#X obj 84 185 cos;
#X text 68 15 1;
#X text 159 14 2;
#X obj 202 58 * 2;
#X obj 202 124 / 4;
#X obj 202 146 * 3.14159;
#X floatatom 202 168 5 0 0 0 - - -;
#X msg 176 208 \$1 60;
#X obj 176 230 line~;
#X msg 84 208 \$1 60;
#X obj 85 232 line~;
#X connect 0 0 2 0;
#X connect 1 0 12 0;
#X connect 2 0 6 1;
#X connect 4 0 5 0;
#X connect 5 0 6 0;
#X connect 6 0 7 0;
#X connect 8 0 16 0;
#X connect 9 0 18 0;
#X connect 12 0 13 0;
#X connect 13 0 14 0;
#X connect 14 0 15 0;
#X connect 15 0 8 0;
#X connect 15 0 9 0;
#X connect 16 0 17 0;
#X connect 17 0 2 1;
#X connect 18 0 19 0;
#X connect 19 0 5 1;
#X restore 238 628 pd crossfade;
#X floatatom 311 602 5 0 0 0 - - -;
#X obj 182 464 phasor~;
#X obj 24 56 hsl 100 15 0 127 0 0 empty empty timbre 20 8 0 10 -204800
-4160 -1 1200 1;
#X obj 54 256 / 127;
#X obj 149 326 line;
#X msg 159 283 \$1 50;
#X obj 24 76 hsl 100 15 0 127 0 0 empty empty glide 20 8 0 10 -204800
-4160 -1 3200 1;
#X obj 179 158 / 127;
#X obj 172 213 line;
#X msg 174 181 \$1 50;
#X obj 392 231 * 500;
#X obj 404 266 + 10;
#X obj 286 382 *~ 2;
#X obj 155 17 loadbang;
#X msg 155 71 0;
#X msg 187 71 0;
#X obj 155 40 t b b b;
#X obj 588 50 inlet;
#X obj 713 42 r \$1;
#X connect 1 0 4 0;
#X connect 2 0 3 0;
#X connect 3 0 1 0;
#X connect 4 0 51 0;
#X connect 5 0 2 0;
#X connect 6 0 31 0;
#X connect 7 0 8 0;
#X connect 8 0 9 0;
#X connect 9 0 10 0;
#X connect 10 0 32 0;
#X connect 11 0 6 0;
#X connect 12 0 2 0;
#X connect 13 0 2 0;
#X connect 14 0 2 0;
#X connect 15 0 2 0;
#X connect 16 0 2 0;
#X connect 17 0 2 0;
#X connect 19 0 20 0;
#X connect 20 0 40 0;
#X connect 22 0 19 0;
#X connect 23 0 24 1;
#X connect 24 0 22 0;
#X connect 25 0 24 0;
#X connect 26 0 25 0;
#X connect 27 0 23 0;
#X connect 29 0 11 0;
#X connect 31 0 7 0;
#X connect 32 0 5 0;
#X connect 32 1 5 0;
#X connect 32 2 5 0;
#X connect 32 3 5 0;
#X connect 32 4 12 0;
#X connect 32 5 13 0;
#X connect 32 6 14 0;
#X connect 32 7 15 0;
#X connect 32 8 15 0;
#X connect 32 9 15 0;
#X connect 33 0 22 1;
#X connect 35 0 28 0;
#X connect 36 0 38 1;
#X connect 37 0 38 0;
#X connect 38 0 35 0;
#X connect 39 0 38 2;
#X connect 40 0 36 0;
#X connect 40 0 37 0;
#X connect 41 0 42 0;
#X connect 42 0 44 0;
#X connect 43 0 39 0;
#X connect 44 0 43 0;
#X connect 45 0 46 0;
#X connect 46 0 48 0;
#X connect 47 0 49 0;
#X connect 48 0 47 0;
#X connect 49 0 50 0;
#X connect 50 0 33 0;
#X connect 51 0 20 1;
#X connect 52 0 55 0;
#X connect 53 0 41 0;
#X connect 54 0 45 0;
#X connect 55 0 53 0;
#X connect 55 1 54 0;
#X connect 56 0 29 0;
#X coords 0 -1 1 1 130 80 1 10 20;
