#N canvas 526 221 1130 694 10;
#X floatatom 356 305 5 0 0 0 - - -;
#X obj 356 417 outlet;
#X obj 356 279 route 1;
#X floatatom 395 258 5 0 0 0 - - -;
#X obj 17 39 vsl 15 100 0 127 0 0 empty empty pressure 18 12 0 10 -262130
-260097 -1 0 1;
#X obj 565 57 route /chan-in;
#X text 356 72 light;
#X obj 357 93 ctlin 14;
#X obj 565 25 receive \$1;
#X obj 358 182 pack 0 0;
#X obj 358 139 swap, f 7;
#X obj 356 359 line;
#X msg 356 335 \$1 10;
#X obj 38 181 > 40;
#X obj 38 207 change;
#X floatatom 36 76 5 0 0 1 trigger_val - -;
#X obj 38 415 outlet;
#X obj 254 61 loadbang;
#X msg 254 90 40;
#X connect 0 0 12 0;
#X connect 2 0 0 0;
#X connect 3 0 2 1;
#X connect 4 0 13 0;
#X connect 5 0 3 0;
#X connect 7 0 10 0;
#X connect 7 1 10 1;
#X connect 8 0 5 0;
#X connect 9 0 2 0;
#X connect 10 0 9 0;
#X connect 10 1 9 1;
#X connect 11 0 1 0;
#X connect 11 0 4 0;
#X connect 12 0 11 0;
#X connect 13 0 14 0;
#X connect 14 0 16 0;
#X connect 15 0 13 1;
#X connect 17 0 18 0;
#X connect 18 0 15 0;
#X coords 0 -1 1 1 130 130 1 10 20;
