#N canvas 178 23 1401 699 10;
#X obj 83 19 notein;
#X obj 83 67 pack f f;
#X floatatom 230 89 5 0 0 0 - - -;
#X floatatom 271 89 5 0 0 0 - - -;
#X text 280 141 starting to build a polyphonic synth;
#X obj 82 346 mtof;
#X obj 81 403 line~;
#X obj 82 375 pack f 50;
#X obj 81 488 *~;
#X obj 322 657 dac~;
#X obj 325 604 *~ 0.2;
#X obj 142 434 ps.adsr~ e1;
#X floatatom 82 316 5 0 0 0 - - -;
#X msg 360 38 \; e1 /attack 10 \; e1 /decay 20 \; e1 /sustain 50 \;
e1 /release 400 \;;
#X obj 81 433 ps.tri~;
#X obj 251 349 mtof;
#X obj 250 406 line~;
#X obj 251 378 pack f 50;
#X obj 250 491 *~;
#X obj 312 437 ps.adsr~ e1;
#X floatatom 251 319 5 0 0 0 - - -;
#X obj 250 436 ps.tri~;
#X obj 417 350 mtof;
#X obj 416 407 line~;
#X obj 417 379 pack f 50;
#X obj 416 492 *~;
#X obj 478 438 ps.adsr~ e1;
#X floatatom 417 320 5 0 0 0 - - -;
#X obj 416 437 ps.tri~;
#X obj 586 353 mtof;
#X obj 585 410 line~;
#X obj 586 382 pack f 50;
#X obj 585 495 *~;
#X obj 648 441 ps.adsr~ e1;
#X floatatom 586 323 5 0 0 0 - - -;
#X obj 585 440 ps.tri~;
#X obj 359 11 loadbang;
#X obj 83 136 pack f f f;
#X obj 83 165 route 1 2 3 4;
#X obj 83 112 poly 4 1;
#X obj 83 198 unpack f f;
#X floatatom 83 237 5 0 0 0 - - -;
#X floatatom 140 237 5 0 0 0 - - -;
#X obj 249 198 unpack f f;
#X floatatom 249 237 5 0 0 0 - - -;
#X floatatom 306 237 5 0 0 0 - - -;
#X obj 417 198 unpack f f;
#X floatatom 417 237 5 0 0 0 - - -;
#X floatatom 474 237 5 0 0 0 - - -;
#X obj 584 198 unpack f f;
#X floatatom 584 237 5 0 0 0 - - -;
#X floatatom 641 237 5 0 0 0 - - -;
#X obj 140 259 / 127;
#X obj 306 259 / 127;
#X obj 474 259 / 127;
#X obj 641 259 / 127;
#X msg 744 228 \; e1 /attack \$1;
#X floatatom 744 201 5 0 0 0 - - -;
#X obj 744 134 / 127;
#X obj 744 179 + 10;
#X obj 747 109 hsl 128 15 0 127 0 0 empty empty empty -2 -8 0 10 -262144
-1 -1 0 1;
#X floatatom 885 201 5 0 0 0 - - -;
#X obj 885 134 / 127;
#X obj 885 179 + 10;
#X obj 888 109 hsl 128 15 0 127 0 0 empty empty empty -2 -8 0 10 -262144
-1 -1 0 1;
#X msg 885 228 \; e1 /decay \$1;
#X floatatom 1033 201 5 0 0 0 - - -;
#X obj 1033 134 / 127;
#X obj 1033 179 + 10;
#X obj 1036 109 hsl 128 15 0 127 0 0 empty empty empty -2 -8 0 10 -262144
-1 -1 0 1;
#X msg 1033 228 \; e1 /sustain \$1;
#X obj 1033 156 * 90;
#X floatatom 1174 201 5 0 0 0 - - -;
#X obj 1174 134 / 127;
#X obj 1177 109 hsl 128 15 0 127 0 0 empty empty empty -2 -8 0 10 -262144
-1 -1 0 1;
#X msg 1174 228 \; e1 /release \$1;
#X obj 744 156 * 490;
#X obj 885 156 * 90;
#X obj 1174 179 + 10;
#X obj 1174 156 * 990;
#X obj 744 75 ctlin 2;
#X obj 885 75 ctlin 3;
#X obj 1033 75 ctlin 4;
#X obj 1174 75 ctlin 5;
#X floatatom 714 320 5 0 0 1 glide - -;
#X text 825 336 MIDI note and control in: First \, you'll need to make
sure your MIDI device is recognized and set in Pd. Go to the Pd menu
\, then Preferences -> MIDI Settings. Select your INPUT and OUTPUT
devices appropriately.;
#X connect 0 0 1 0;
#X connect 0 0 2 0;
#X connect 0 1 1 1;
#X connect 0 1 3 0;
#X connect 1 0 39 0;
#X connect 5 0 7 0;
#X connect 6 0 14 0;
#X connect 7 0 6 0;
#X connect 8 0 10 0;
#X connect 10 0 9 0;
#X connect 10 0 9 1;
#X connect 11 0 8 1;
#X connect 12 0 5 0;
#X connect 14 0 8 0;
#X connect 15 0 17 0;
#X connect 16 0 21 0;
#X connect 17 0 16 0;
#X connect 18 0 10 0;
#X connect 19 0 18 1;
#X connect 20 0 15 0;
#X connect 21 0 18 0;
#X connect 22 0 24 0;
#X connect 23 0 28 0;
#X connect 24 0 23 0;
#X connect 25 0 10 0;
#X connect 26 0 25 1;
#X connect 27 0 22 0;
#X connect 28 0 25 0;
#X connect 29 0 31 0;
#X connect 30 0 35 0;
#X connect 31 0 30 0;
#X connect 32 0 10 0;
#X connect 33 0 32 1;
#X connect 34 0 29 0;
#X connect 35 0 32 0;
#X connect 36 0 13 0;
#X connect 37 0 38 0;
#X connect 38 0 40 0;
#X connect 38 1 43 0;
#X connect 38 2 46 0;
#X connect 38 3 49 0;
#X connect 39 0 37 0;
#X connect 39 1 37 1;
#X connect 39 2 37 2;
#X connect 40 0 41 0;
#X connect 40 1 42 0;
#X connect 41 0 12 0;
#X connect 42 0 52 0;
#X connect 43 0 44 0;
#X connect 43 1 45 0;
#X connect 44 0 20 0;
#X connect 45 0 53 0;
#X connect 46 0 47 0;
#X connect 46 1 48 0;
#X connect 47 0 27 0;
#X connect 48 0 54 0;
#X connect 49 0 50 0;
#X connect 49 1 51 0;
#X connect 50 0 34 0;
#X connect 51 0 55 0;
#X connect 52 0 11 0;
#X connect 53 0 19 0;
#X connect 54 0 26 0;
#X connect 55 0 33 0;
#X connect 57 0 56 0;
#X connect 58 0 76 0;
#X connect 59 0 57 0;
#X connect 60 0 58 0;
#X connect 61 0 65 0;
#X connect 62 0 77 0;
#X connect 63 0 61 0;
#X connect 64 0 62 0;
#X connect 66 0 70 0;
#X connect 67 0 71 0;
#X connect 68 0 66 0;
#X connect 69 0 67 0;
#X connect 71 0 68 0;
#X connect 72 0 75 0;
#X connect 73 0 79 0;
#X connect 74 0 73 0;
#X connect 76 0 59 0;
#X connect 77 0 63 0;
#X connect 78 0 72 0;
#X connect 79 0 78 0;
#X connect 80 0 60 0;
#X connect 81 0 64 0;
#X connect 82 0 69 0;
#X connect 83 0 74 0;
#X connect 84 0 31 1;
#X connect 84 0 24 1;
#X connect 84 0 17 1;
#X connect 84 0 7 1;
