#N canvas 277 121 890 699 10;
#X obj 113 152 ctlin;
#X floatatom 151 184 5 0 0 0 - - -;
#X floatatom 113 184 5 0 0 0 - - -;
#X floatatom 98 299 5 0 0 0 - - -;
#X obj 98 332 vsl 15 128 0 127 0 0 empty empty empty 0 -9 0 10 -262144
-1 -1 100 1;
#X floatatom 147 299 5 0 0 0 - - -;
#X obj 147 267 ctlin 1;
#X obj 147 332 vsl 15 128 0 127 0 0 empty empty empty 0 -9 0 10 -262144
-1 -1 1200 1;
#X floatatom 196 299 5 0 0 0 - - -;
#X obj 196 332 vsl 15 128 0 127 0 0 empty empty empty 0 -9 0 10 -262144
-1 -1 1200 1;
#X floatatom 245 299 5 0 0 0 - - -;
#X obj 245 332 vsl 15 128 0 127 0 0 empty empty empty 0 -9 0 10 -262144
-1 -1 1000 1;
#X floatatom 294 299 5 0 0 0 - - -;
#X obj 294 332 vsl 15 128 0 127 0 0 empty empty empty 0 -9 0 10 -262144
-1 -1 3300 1;
#X floatatom 343 299 5 0 0 0 - - -;
#X obj 343 332 vsl 15 128 0 127 0 0 empty empty empty 0 -9 0 10 -262144
-1 -1 5900 1;
#X floatatom 392 299 5 0 0 0 - - -;
#X obj 392 332 vsl 15 128 0 127 0 0 empty empty empty 0 -9 0 10 -262144
-1 -1 1100 1;
#X floatatom 441 299 5 0 0 0 - - -;
#X obj 441 332 vsl 15 128 0 127 0 0 empty empty empty 0 -9 0 10 -262144
-1 -1 3900 1;
#X obj 98 267 ctlin 0;
#X obj 196 267 ctlin 2;
#X obj 245 267 ctlin 3;
#X obj 294 267 ctlin 4;
#X obj 343 267 ctlin 5;
#X obj 392 267 ctlin 6;
#X obj 441 267 ctlin 7;
#X text 221 152 <- ctlin without an argument reports all controller
activity. With an argument (as below) it only reports the particular
controller number assigned.;
#X msg 98 571 \; pd dsp 0;
#X msg 98 533 \; pd dsp 1 \;;
#X obj 583 554 *~;
#X floatatom 598 502 5 0 0 0 - - -;
#X obj 598 476 * 0.0078;
#X obj 580 628 dac~;
#N canvas 212 24 705 643 fbosc--------------------- 0;
#X obj 108 283 +~;
#X obj 110 167 sig~;
#X obj 108 382 *~;
#X obj 109 411 +~;
#X obj 400 170 sig~;
#X obj 309 168 sig~;
#X obj 108 443 osc~;
#X obj 125 254 *~;
#X obj 186 167 sig~;
#X obj 148 205 *~;
#X floatatom 110 145 5 0 0 0 - - -;
#X floatatom 309 146 5 0 0 0 - - -;
#X obj 177 205 delread~ del2 2;
#X obj 290 482 delwrite~ del2 2;
#X obj 108 349 *~;
#X obj 109 313 osc~;
#X floatatom 110 76 5 0 0 0 - - -;
#X floatatom 309 78 5 0 0 0 - - -;
#X floatatom 186 76 5 0 0 0 - - -;
#X floatatom 400 78 5 0 0 0 - - -;
#X floatatom 186 145 5 0 0 0 - - -;
#X floatatom 400 148 5 0 0 0 - - -;
#X obj 110 122 + 1;
#X obj 186 122 + 1;
#X obj 400 125 + 1;
#X obj 110 99 * 12.5;
#X obj 309 100 * 22.5;
#X obj 400 102 * 2.5;
#X obj 186 99 * 5.5;
#X obj 401 528 outlet~;
#X floatatom 318 309 5 0 0 0 - - -;
#X floatatom 318 263 5 0 0 0 - - -;
#X obj 401 505 clip~ -1 1;
#X obj 318 285 * 0.05;
#X obj 400 482 *~;
#X obj 318 331 + 0.8;
#X obj 309 123 + 20;
#X obj 456 375 cos~;
#X obj 499 353 +~ -0.25;
#X obj 499 376 cos~;
#X obj 291 420 *~;
#X obj 357 420 *~;
#X obj 290 444 -~;
#X floatatom 456 304 5 0 0 0 - - -;
#X text 506 305 <-- shift frequency;
#X obj 456 329 phasor~;
#X obj 291 382 hilbert~;
#X floatatom 456 213 5 0 0 0 - - -;
#X obj 456 237 * 5;
#X obj 456 260 - 200;
#X obj 108 283 +~;
#X obj 110 53 inlet;
#X obj 186 53 inlet;
#X obj 309 55 inlet;
#X obj 400 55 inlet;
#X obj 550 69 inlet;
#X obj 594 68 inlet;
#X connect 0 0 15 0;
#X connect 1 0 0 0;
#X connect 1 0 9 0;
#X connect 2 0 3 0;
#X connect 3 0 6 0;
#X connect 4 0 14 1;
#X connect 5 0 2 1;
#X connect 5 0 3 1;
#X connect 6 0 46 0;
#X connect 7 0 0 1;
#X connect 8 0 9 1;
#X connect 9 0 7 0;
#X connect 10 0 1 0;
#X connect 11 0 5 0;
#X connect 12 0 7 1;
#X connect 14 0 2 0;
#X connect 15 0 14 0;
#X connect 16 0 25 0;
#X connect 17 0 26 0;
#X connect 18 0 28 0;
#X connect 19 0 27 0;
#X connect 20 0 8 0;
#X connect 21 0 4 0;
#X connect 22 0 10 0;
#X connect 23 0 20 0;
#X connect 24 0 21 0;
#X connect 25 0 22 0;
#X connect 26 0 36 0;
#X connect 27 0 24 0;
#X connect 28 0 23 0;
#X connect 30 0 35 0;
#X connect 31 0 33 0;
#X connect 32 0 29 0;
#X connect 33 0 30 0;
#X connect 34 0 32 0;
#X connect 35 0 34 1;
#X connect 36 0 11 0;
#X connect 37 0 40 1;
#X connect 38 0 39 0;
#X connect 39 0 41 1;
#X connect 40 0 42 0;
#X connect 41 0 42 1;
#X connect 42 0 34 0;
#X connect 42 0 13 0;
#X connect 43 0 45 0;
#X connect 45 0 38 0;
#X connect 45 0 37 0;
#X connect 46 0 40 0;
#X connect 46 1 41 0;
#X connect 47 0 48 0;
#X connect 48 0 49 0;
#X connect 49 0 43 0;
#X connect 51 0 16 0;
#X connect 52 0 18 0;
#X connect 53 0 17 0;
#X connect 54 0 19 0;
#X connect 55 0 31 0;
#X connect 56 0 47 0;
#X coords 0 0 1 1 85 60 0;
#X restore 98 480 pd fbosc---------------------;
#X text 287 479 <- try controlling this feedback synthesizer;
#X text 149 47 MIDI control in: First \, you'll need to make sure your
MIDI device is recognized and set in Pd. Go to the Pd menu \, then
Preferences -> MIDI Settings. Select your INPUT and OUTPUT devices
appropriately.;
#X connect 0 0 2 0;
#X connect 0 1 1 0;
#X connect 3 0 4 0;
#X connect 4 0 34 0;
#X connect 5 0 7 0;
#X connect 6 0 5 0;
#X connect 7 0 34 1;
#X connect 8 0 9 0;
#X connect 9 0 34 2;
#X connect 10 0 11 0;
#X connect 11 0 34 3;
#X connect 12 0 13 0;
#X connect 13 0 34 4;
#X connect 14 0 15 0;
#X connect 15 0 34 5;
#X connect 16 0 17 0;
#X connect 18 0 19 0;
#X connect 19 0 32 0;
#X connect 20 0 3 0;
#X connect 21 0 8 0;
#X connect 22 0 10 0;
#X connect 23 0 12 0;
#X connect 24 0 14 0;
#X connect 25 0 16 0;
#X connect 26 0 18 0;
#X connect 30 0 33 0;
#X connect 30 0 33 1;
#X connect 31 0 30 1;
#X connect 32 0 31 0;
#X connect 34 0 30 0;
