#N canvas 0 158 1680 870 10;
#X obj 241 28 keyname, f 8;
#X obj 242 159 route q w e r t y u, f 48;
#X obj 242 110 pack s f;
#X obj 242 134 list trim;
#X obj 242 80 symbol, f 8;
#X obj 242 53 t b f;
#X floatatom 242 188 5 0 0 0 - - -;
#X text 362 31 starting to build a polyphonic synth;
#X floatatom 282 188 5 0 0 0 - - -;
#X floatatom 323 188 5 0 0 0 - - -;
#X floatatom 364 188 5 0 0 0 - - -;
#X floatatom 404 189 5 0 0 0 - - -;
#X floatatom 445 189 5 0 0 0 - - -;
#X floatatom 486 189 5 0 0 0 - - -;
#X obj 242 240 pack f 60;
#X obj 411 240 pack f 61;
#X obj 578 240 pack f 62;
#X obj 746 240 pack f 63;
#X obj 1002 240 pack f 64;
#X obj 1167 240 pack f 65;
#X obj 1337 240 pack f 66;
#X obj 238 344 mtof;
#X obj 237 401 line~;
#X obj 238 373 pack f 50;
#X obj 237 486 *~;
#X obj 639 736 dac~;
#X obj 642 683 *~ 0.2;
#X obj 242 271 unpack f f;
#X obj 317 432 ps.adsr~ e1;
#X floatatom 238 314 5 0 0 0 - - -;
#X msg 1055 48 \; e1 /attack 10 \; e1 /decay 20 \; e1 /sustain 50 \;
e1 /release 400 \;;
#X obj 237 431 ps.tri~;
#X obj 407 347 mtof;
#X obj 406 404 line~;
#X obj 407 376 pack f 50;
#X obj 406 489 *~;
#X obj 411 274 unpack f f;
#X obj 486 435 ps.adsr~ e1;
#X floatatom 407 317 5 0 0 0 - - -;
#X obj 406 434 ps.tri~;
#X obj 573 348 mtof;
#X obj 572 405 line~;
#X obj 573 377 pack f 50;
#X obj 572 490 *~;
#X obj 577 275 unpack f f;
#X obj 652 436 ps.adsr~ e1;
#X floatatom 573 318 5 0 0 0 - - -;
#X obj 572 435 ps.tri~;
#X obj 742 351 mtof;
#X obj 741 408 line~;
#X obj 742 380 pack f 50;
#X obj 741 493 *~;
#X obj 746 278 unpack f f;
#X obj 821 439 ps.adsr~ e1;
#X floatatom 742 321 5 0 0 0 - - -;
#X obj 741 438 ps.tri~;
#X obj 998 347 mtof;
#X obj 997 404 line~;
#X obj 998 376 pack f 50;
#X obj 997 489 *~;
#X obj 1002 274 unpack f f;
#X obj 1077 435 ps.adsr~ e1;
#X floatatom 998 317 5 0 0 0 - - -;
#X obj 997 434 ps.tri~;
#X obj 1164 348 mtof;
#X obj 1163 405 line~;
#X obj 1164 377 pack f 50;
#X obj 1163 490 *~;
#X obj 1168 275 unpack f f;
#X obj 1243 436 ps.adsr~ e1;
#X floatatom 1164 318 5 0 0 0 - - -;
#X obj 1163 435 ps.tri~;
#X obj 1333 351 mtof;
#X obj 1332 408 line~;
#X obj 1333 380 pack f 50;
#X obj 1332 493 *~;
#X obj 1337 278 unpack f f;
#X obj 1412 439 ps.adsr~ e1;
#X floatatom 1333 321 5 0 0 0 - - -;
#X obj 1332 438 ps.tri~;
#X obj 1054 21 loadbang;
#X text 453 72 strategy: each key with it's own ocillator;
#X connect 0 0 5 0;
#X connect 0 1 4 1;
#X connect 1 0 6 0;
#X connect 1 1 8 0;
#X connect 1 2 9 0;
#X connect 1 3 10 0;
#X connect 1 4 11 0;
#X connect 1 5 12 0;
#X connect 1 6 13 0;
#X connect 2 0 3 0;
#X connect 3 0 1 0;
#X connect 4 0 2 0;
#X connect 5 0 4 0;
#X connect 5 1 2 1;
#X connect 6 0 14 0;
#X connect 8 0 15 0;
#X connect 9 0 16 0;
#X connect 10 0 17 0;
#X connect 11 0 18 0;
#X connect 12 0 19 0;
#X connect 13 0 20 0;
#X connect 14 0 27 0;
#X connect 15 0 36 0;
#X connect 16 0 44 0;
#X connect 17 0 52 0;
#X connect 18 0 60 0;
#X connect 19 0 68 0;
#X connect 20 0 76 0;
#X connect 21 0 23 0;
#X connect 22 0 31 0;
#X connect 23 0 22 0;
#X connect 24 0 26 0;
#X connect 26 0 25 0;
#X connect 26 0 25 1;
#X connect 27 0 28 0;
#X connect 27 1 29 0;
#X connect 28 0 24 1;
#X connect 29 0 21 0;
#X connect 31 0 24 0;
#X connect 32 0 34 0;
#X connect 33 0 39 0;
#X connect 34 0 33 0;
#X connect 35 0 26 0;
#X connect 36 0 37 0;
#X connect 36 1 38 0;
#X connect 37 0 35 1;
#X connect 38 0 32 0;
#X connect 39 0 35 0;
#X connect 40 0 42 0;
#X connect 41 0 47 0;
#X connect 42 0 41 0;
#X connect 43 0 26 0;
#X connect 44 0 45 0;
#X connect 44 1 46 0;
#X connect 45 0 43 1;
#X connect 46 0 40 0;
#X connect 47 0 43 0;
#X connect 48 0 50 0;
#X connect 49 0 55 0;
#X connect 50 0 49 0;
#X connect 51 0 26 0;
#X connect 52 0 53 0;
#X connect 52 1 54 0;
#X connect 53 0 51 1;
#X connect 54 0 48 0;
#X connect 55 0 51 0;
#X connect 56 0 58 0;
#X connect 57 0 63 0;
#X connect 58 0 57 0;
#X connect 59 0 26 0;
#X connect 60 0 61 0;
#X connect 60 1 62 0;
#X connect 61 0 59 1;
#X connect 62 0 56 0;
#X connect 63 0 59 0;
#X connect 64 0 66 0;
#X connect 65 0 71 0;
#X connect 66 0 65 0;
#X connect 67 0 26 0;
#X connect 68 0 69 0;
#X connect 68 1 70 0;
#X connect 69 0 67 1;
#X connect 70 0 64 0;
#X connect 71 0 67 0;
#X connect 72 0 74 0;
#X connect 73 0 79 0;
#X connect 74 0 73 0;
#X connect 75 0 26 0;
#X connect 76 0 77 0;
#X connect 76 1 78 0;
#X connect 77 0 75 1;
#X connect 78 0 72 0;
#X connect 79 0 75 0;
#X connect 80 0 30 0;
