#N canvas 0 23 1680 870 10;
#X obj 241 7 keyname, f 8;
#X obj 242 138 route q w e r t y u, f 81;
#X obj 242 89 pack s f;
#X obj 242 113 list trim;
#X obj 242 59 symbol, f 8;
#X obj 242 32 t b f;
#X floatatom 242 167 5 0 0 0 - - -;
#X text 451 22 starting to build a polyphonic synth;
#X floatatom 311 167 5 0 0 0 - - -;
#X floatatom 379 167 5 0 0 0 - - -;
#X floatatom 448 167 5 0 0 0 - - -;
#X floatatom 522 167 5 0 0 0 - - -;
#X floatatom 597 167 5 0 0 0 - - -;
#X floatatom 675 167 5 0 0 0 - - -;
#X obj 242 222 pack f 60;
#X obj 310 219 pack f 61;
#X obj 379 218 pack f 62;
#X obj 448 216 pack f 63;
#X obj 241 563 mtof;
#X obj 240 620 line~;
#X obj 241 592 pack f 50;
#X obj 240 705 *~;
#X obj 238 806 dac~;
#X obj 241 753 *~ 0.2;
#X obj 242 246 unpack f f;
#X obj 320 651 ps.adsr~ e1;
#X floatatom 241 533 5 0 0 0 - - -;
#X msg 1055 48 \; e1 /attack 10 \; e1 /decay 20 \; e1 /sustain 50 \;
e1 /release 400 \;;
#X obj 240 650 ps.tri~;
#X obj 410 566 mtof;
#X obj 409 623 line~;
#X obj 410 595 pack f 50;
#X obj 409 708 *~;
#X obj 310 246 unpack f f;
#X obj 489 654 ps.adsr~ e1;
#X floatatom 410 536 5 0 0 0 - - -;
#X obj 409 653 ps.tri~;
#X obj 576 567 mtof;
#X obj 575 624 line~;
#X obj 576 596 pack f 50;
#X obj 575 709 *~;
#X obj 379 246 unpack f f;
#X obj 655 655 ps.adsr~ e1;
#X floatatom 576 537 5 0 0 0 - - -;
#X obj 575 654 ps.tri~;
#X obj 745 570 mtof;
#X obj 744 627 line~;
#X obj 745 599 pack f 50;
#X obj 744 712 *~;
#X obj 448 247 unpack f f;
#X obj 824 658 ps.adsr~ e1;
#X floatatom 745 540 5 0 0 0 - - -;
#X obj 744 657 ps.tri~;
#X obj 1054 21 loadbang;
#X obj 242 353 pack f f f;
#X obj 242 382 route 1 2 3 4;
#X obj 242 329 poly 4 1;
#X obj 242 415 unpack f f;
#X floatatom 242 454 5 0 0 0 - - -;
#X floatatom 299 454 5 0 0 0 - - -;
#X obj 357 415 unpack f f;
#X floatatom 357 454 5 0 0 0 - - -;
#X floatatom 414 454 5 0 0 0 - - -;
#X obj 464 415 unpack f f;
#X floatatom 464 454 5 0 0 0 - - -;
#X floatatom 521 454 5 0 0 0 - - -;
#X obj 579 415 unpack f f;
#X floatatom 579 454 5 0 0 0 - - -;
#X floatatom 636 454 5 0 0 0 - - -;
#X obj 242 271 swap;
#X obj 310 268 swap;
#X obj 379 267 swap;
#X obj 449 265 swap;
#X obj 242 297 pack f f;
#X obj 309 294 pack f f;
#X obj 378 293 pack f f;
#X obj 448 291 pack f f;
#X obj 242 192 change;
#X obj 310 189 change;
#X obj 379 188 change;
#X obj 448 186 change;
#X text 453 51 strategy: using [poly] which then reduces the need for
many oscillators;
#X obj 522 242 unpack f f;
#X obj 597 246 unpack f f;
#X obj 675 249 unpack f f;
#X obj 522 267 swap;
#X obj 597 268 swap;
#X obj 675 270 swap;
#X obj 522 293 pack f f;
#X obj 596 294 pack f f;
#X obj 674 296 pack f f;
#X obj 522 188 change;
#X obj 597 189 change;
#X obj 675 191 change;
#X obj 522 218 pack f 64;
#X obj 597 219 pack f 65;
#X obj 675 221 pack f 66;
#X text 452 88 this has a bug due to how keyname works (notice what
happens when a key is held down);
#X connect 0 0 5 0;
#X connect 0 1 4 1;
#X connect 1 0 6 0;
#X connect 1 1 8 0;
#X connect 1 2 9 0;
#X connect 1 3 10 0;
#X connect 1 4 11 0;
#X connect 1 5 12 0;
#X connect 1 6 13 0;
#X connect 2 0 3 0;
#X connect 3 0 1 0;
#X connect 4 0 2 0;
#X connect 5 0 4 0;
#X connect 5 1 2 1;
#X connect 6 0 77 0;
#X connect 8 0 78 0;
#X connect 9 0 79 0;
#X connect 10 0 80 0;
#X connect 11 0 91 0;
#X connect 12 0 92 0;
#X connect 13 0 93 0;
#X connect 14 0 24 0;
#X connect 15 0 33 0;
#X connect 16 0 41 0;
#X connect 17 0 49 0;
#X connect 18 0 20 0;
#X connect 19 0 28 0;
#X connect 20 0 19 0;
#X connect 21 0 23 0;
#X connect 23 0 22 0;
#X connect 23 0 22 1;
#X connect 24 0 69 0;
#X connect 24 1 69 1;
#X connect 25 0 21 1;
#X connect 26 0 18 0;
#X connect 28 0 21 0;
#X connect 29 0 31 0;
#X connect 30 0 36 0;
#X connect 31 0 30 0;
#X connect 32 0 23 0;
#X connect 33 0 70 0;
#X connect 33 1 70 1;
#X connect 34 0 32 1;
#X connect 35 0 29 0;
#X connect 36 0 32 0;
#X connect 37 0 39 0;
#X connect 38 0 44 0;
#X connect 39 0 38 0;
#X connect 40 0 23 0;
#X connect 41 0 71 0;
#X connect 41 1 71 1;
#X connect 42 0 40 1;
#X connect 43 0 37 0;
#X connect 44 0 40 0;
#X connect 45 0 47 0;
#X connect 46 0 52 0;
#X connect 47 0 46 0;
#X connect 48 0 23 0;
#X connect 49 0 72 0;
#X connect 49 1 72 1;
#X connect 50 0 48 1;
#X connect 51 0 45 0;
#X connect 52 0 48 0;
#X connect 53 0 27 0;
#X connect 54 0 55 0;
#X connect 55 0 57 0;
#X connect 55 1 60 0;
#X connect 55 2 63 0;
#X connect 55 3 66 0;
#X connect 56 0 54 0;
#X connect 56 1 54 1;
#X connect 56 2 54 2;
#X connect 57 0 58 0;
#X connect 57 1 59 0;
#X connect 58 0 26 0;
#X connect 59 0 25 0;
#X connect 60 0 61 0;
#X connect 60 1 62 0;
#X connect 61 0 35 0;
#X connect 62 0 34 0;
#X connect 63 0 64 0;
#X connect 63 1 65 0;
#X connect 64 0 43 0;
#X connect 65 0 42 0;
#X connect 66 0 67 0;
#X connect 66 1 68 0;
#X connect 67 0 51 0;
#X connect 68 0 50 0;
#X connect 69 0 73 0;
#X connect 69 1 73 1;
#X connect 70 0 74 0;
#X connect 70 1 74 1;
#X connect 71 0 75 0;
#X connect 71 1 75 1;
#X connect 72 0 76 0;
#X connect 72 1 76 1;
#X connect 73 0 56 0;
#X connect 74 0 56 0;
#X connect 75 0 56 0;
#X connect 76 0 56 0;
#X connect 77 0 14 0;
#X connect 78 0 15 0;
#X connect 79 0 16 0;
#X connect 80 0 17 0;
#X connect 82 0 85 0;
#X connect 82 1 85 1;
#X connect 83 0 86 0;
#X connect 83 1 86 1;
#X connect 84 0 87 0;
#X connect 84 1 87 1;
#X connect 85 0 88 0;
#X connect 85 1 88 1;
#X connect 86 0 89 0;
#X connect 86 1 89 1;
#X connect 87 0 90 0;
#X connect 87 1 90 1;
#X connect 88 0 56 0;
#X connect 89 0 56 0;
#X connect 90 0 56 0;
#X connect 91 0 94 0;
#X connect 92 0 95 0;
#X connect 93 0 96 0;
#X connect 94 0 82 0;
#X connect 95 0 83 0;
#X connect 96 0 84 0;
