#N canvas 277 246 450 300 10;
#X obj 92 21 inlet;
#X obj 124 240 outlet;
#X floatatom 92 57 5 0 0 0 - - -;
#X obj 124 204 - 1;
#X obj 92 106 trigger b f;
#X obj 82 158 f \$1;
#X obj 237 127 cnv 15 75 25 empty empty empty 20 12 0 14 -262130 -66577
0;
#X text 243 130 [s3g 2014];
#X connect 0 0 2 0;
#X connect 2 0 4 0;
#X connect 3 0 1 0;
#X connect 4 0 5 0;
#X connect 4 1 3 1;
#X connect 5 0 3 0;
