#N canvas 177 23 1567 930 12;
#X obj 112 46 expr 15000 / $f1;
#X floatatom 112 22 5 0 0 0 - - -;
#X floatatom 112 71 5 0 0 0 - - -;
#X obj 51 22 tgl 30 0 empty empty empty 17 7 0 10 -262144 -1 -1 0 1
;
#X obj 258 759 dac~, f 12;
#X obj 232 455 ps.16step;
#X msg 913 364 /seq 1 1 0 1 0 1 0 1 0 1 0 1 0 1 0 1;
#X obj 328 302 pack f f f f f f f f f f f f f f f f, f 103;
#X obj 328 329 list prepend /vals;
#X floatatom 328 261 5 0 0 0 - - -;
#X obj 328 358 list trim;
#X floatatom 375 261 5 0 0 0 - - -;
#X floatatom 423 261 5 0 0 0 - - -;
#X floatatom 471 261 5 0 0 0 - - -;
#X floatatom 519 261 5 0 0 0 - - -;
#X floatatom 567 261 5 0 0 0 - - -;
#X floatatom 615 261 5 0 0 0 - - -;
#X floatatom 663 261 5 0 0 0 - - -;
#X floatatom 710 261 5 0 0 0 - - -;
#X floatatom 758 261 5 0 0 0 - - -;
#X floatatom 806 261 5 0 0 0 - - -;
#X floatatom 854 261 5 0 0 0 - - -;
#X floatatom 902 261 5 0 0 0 - - -;
#X floatatom 950 261 5 0 0 0 - - -;
#X floatatom 998 261 5 0 0 0 - - -;
#X floatatom 1046 261 5 0 0 0 - - -;
#X obj 232 560 bng 15 250 50 0 empty empty empty 17 7 0 10 -262144
-1 -1;
#X floatatom 760 560 5 0 0 0 - - -;
#X msg 913 392 /vals 60 62 64 62 64 65 66 67 76 80 56 57 58 58 55 65
;
#X obj 760 590 mtof;
#X floatatom 320 38 5 0 0 0 - - -;
#X obj 320 92 f 1;
#X obj 354 92 + 1;
#X obj 355 204 route 1 2 3 4 5 6 7 8 9 10 11 12 13 14 15 16, f 62
;
#X obj 320 120 mod 16;
#X obj 355 146 + 1;
#X obj 355 176 pack f f;
#X obj 320 67 t b f, f 13;
#X floatatom 760 620 5 0 0 0 - - -;
#X msg 612 697 /attack \$1;
#X floatatom 612 665 5 0 0 0 - - -;
#X floatatom 700 665 5 0 0 0 - - -;
#X msg 700 697 /sustain \$1;
#X floatatom 795 665 5 0 0 0 - - -;
#X msg 795 697 /decay \$1;
#X obj 260 680 *~, f 10;
#X obj 260 649 phasor~;
#X obj 258 716 *~ 0.25;
#X obj 659 92 random 30;
#X obj 659 137 + 40;
#X floatatom 659 165 5 0 0 0 - - -;
#X obj 260 624 line~;
#X msg 260 596 \$1 10;
#X obj 659 71 bng 15 250 50 0 empty empty empty 17 7 0 10 -262144 -1
-1;
#X obj 659 48 until;
#X msg 659 23 16;
#X obj 659 115 * 2;
#X obj 1105 59 loadbang;
#X text 369 37 list updates after 16 values received;
#X msg 913 336 /seq 1 1 1 1 1 1 1 1 1 1 1 1 1 1 1 1;
#X text 703 125 some math to get different range of values;
#X text 708 25 press to get 16 random values;
#X obj 52 115 metro 125;
#X obj 327 649 ps.asd~ env1;
#X obj 1107 120 t b b b;
#X msg 1153 149 \; env1 /attack 10 \; env1 /sustain 50 \; env1 /decay
20 \;;
#X msg 913 420 /vals 60 60 62 62 64 64 66 66 65 65 63 63 61 61 60 60
;
#X floatatom 918 566 5 0 0 0 - - -;
#X connect 0 0 2 0;
#X connect 1 0 0 0;
#X connect 2 0 62 1;
#X connect 3 0 62 0;
#X connect 5 0 26 0;
#X connect 5 1 27 0;
#X connect 5 2 67 0;
#X connect 6 0 5 1;
#X connect 7 0 8 0;
#X connect 8 0 10 0;
#X connect 9 0 7 0;
#X connect 10 0 5 1;
#X connect 11 0 7 1;
#X connect 12 0 7 2;
#X connect 13 0 7 3;
#X connect 14 0 7 4;
#X connect 15 0 7 5;
#X connect 16 0 7 6;
#X connect 17 0 7 7;
#X connect 18 0 7 8;
#X connect 19 0 7 9;
#X connect 20 0 7 10;
#X connect 21 0 7 11;
#X connect 22 0 7 12;
#X connect 23 0 7 13;
#X connect 24 0 7 14;
#X connect 25 0 7 15;
#X connect 26 0 63 0;
#X connect 27 0 29 0;
#X connect 28 0 5 1;
#X connect 29 0 38 0;
#X connect 30 0 37 0;
#X connect 31 0 32 0;
#X connect 31 0 34 0;
#X connect 32 0 31 1;
#X connect 33 0 9 0;
#X connect 33 1 11 0;
#X connect 33 2 12 0;
#X connect 33 3 13 0;
#X connect 33 4 14 0;
#X connect 33 5 15 0;
#X connect 33 6 16 0;
#X connect 33 7 17 0;
#X connect 33 8 18 0;
#X connect 33 9 19 0;
#X connect 33 10 20 0;
#X connect 33 11 21 0;
#X connect 33 12 22 0;
#X connect 33 13 23 0;
#X connect 33 14 24 0;
#X connect 33 15 25 0;
#X connect 34 0 35 0;
#X connect 35 0 36 0;
#X connect 36 0 33 0;
#X connect 37 0 31 0;
#X connect 37 1 36 1;
#X connect 38 0 52 0;
#X connect 39 0 63 1;
#X connect 40 0 39 0;
#X connect 41 0 42 0;
#X connect 42 0 63 1;
#X connect 43 0 44 0;
#X connect 44 0 63 1;
#X connect 45 0 47 0;
#X connect 46 0 45 0;
#X connect 47 0 4 0;
#X connect 47 0 4 1;
#X connect 48 0 56 0;
#X connect 49 0 50 0;
#X connect 50 0 30 0;
#X connect 51 0 46 0;
#X connect 52 0 51 0;
#X connect 53 0 48 0;
#X connect 54 0 53 0;
#X connect 55 0 54 0;
#X connect 56 0 49 0;
#X connect 57 0 64 0;
#X connect 59 0 5 1;
#X connect 62 0 5 0;
#X connect 63 0 45 1;
#X connect 64 0 55 0;
#X connect 64 1 6 0;
#X connect 64 2 65 0;
#X connect 66 0 5 1;
