#N canvas -96 460 1604 886 12;
#X obj 320 102 ps.16step;
#X obj 112 46 expr 15000 / $f1;
#X floatatom 112 22 5 0 0 0 - - -;
#X floatatom 112 71 5 0 0 0 - - -;
#X obj 51 22 tgl 30 0 empty empty empty 17 7 0 10 -262144 -1 -1 0 1
;
#X obj 246 309 bng 15 250 50 0 empty empty empty 17 7 0 10 -262144
-1 -1;
#X obj 246 335 ps.sampleplay~ snare;
#X obj 216 781 *~ 0.5;
#X obj 216 842 dac~, f 12;
#X obj 320 166 ps.16step;
#X obj 396 309 bng 15 250 50 0 empty empty empty 17 7 0 10 -262144
-1 -1;
#X obj 396 335 ps.sampleplay~ wood;
#X obj 539 309 bng 15 250 50 0 empty empty empty 17 7 0 10 -262144
-1 -1;
#X obj 539 335 ps.sampleplay~ hat;
#X obj 320 230 ps.16step;
#X obj 104 309 bng 15 250 50 0 empty empty empty 17 7 0 10 -262144
-1 -1;
#X obj 104 335 ps.sampleplay~ kick;
#X obj 320 39 ps.16step;
#X obj 52 141 s ticks;
#X obj 259 9 r ticks;
#X floatatom 1013 431 5 0 0 0 - - -;
#X msg 1013 459 \; snare /speed \$1;
#X floatatom 1134 431 5 0 0 0 - - -;
#X msg 1134 459 \; wood /speed \$1;
#X floatatom 1247 431 5 0 0 0 - - -;
#X msg 1247 459 \; hat /speed \$1;
#X obj 104 365 ps.mixch~ k1;
#X obj 246 365 ps.mixch~ s1;
#X obj 396 365 ps.mixch~ w1;
#X obj 539 365 ps.mixch~ h1;
#X obj 306 781 *~ 0.5;
#X msg 913 181 /sync;
#X obj 216 810 ps.echo~ ec1;
#X msg 1216 153 \; ec1 /wet 0.6 \; ec1 /ltime 250 \; ec1 /lfeedback
0.75 \; ec1 /rtime 375 \; ec1 /rfeedback 0.8 \;;
#X msg 892 570 \; ec1 /wet \$1;
#X floatatom 892 541 5 0 0 0 - - -;
#X obj 895 515 hsl 128 15 0 1 0 0 empty empty empty -2 -8 0 10 -262144
-1 -1 0 1;
#X obj 52 115 metro 250;
#X msg 64 200 \; ec1 /ltime \$1;
#X msg 190 200 \; ec1 /rtime \$1;
#X obj 190 126 * 1.5;
#X floatatom 190 165 5 0 0 0 - - -;
#X floatatom 131 165 5 0 0 0 - - -;
#X msg 913 204 /seq 1 1 0 1 0 1 0 1 0 1 0 1 0 1 0 1;
#X msg 913 273 /vals 2 1 1 1 3 4 5 6 1 0.5 1 0.5 2 4 6 1;
#X msg 913 296 /vals 2 2 2 2 1 1 6 6 6 6 3 5 1 1 10 10;
#X msg 913 227 /vals 1 1 1 1 1 1 1 1 1 1 1 1 1 1 1 1;
#X msg 894 459 \; kick /speed \$1;
#X floatatom 894 432 5 0 0 0 - - -;
#X obj 977 13 loadbang;
#X msg 1214 76 \; kick /read ./sounds/bossdr550mk2/Kick4.wav \; snare
/read ./sounds/bossdr550mk2/Snare1.wav \; wood /read ./sounds/bossdr550mk2/WoodBlock1.wav
\; hat /read ./sounds/bossdr550mk2/HiHatCl1.wav \;;
#X msg 913 250 /vals 0.5 0.5 0.5 0.5 0.5 0.5 0.5 0.5 0.5 0.5 0.5 0.5
0.5 0.5 0.5 0.5, f 69;
#X obj 977 40 t b b b b b b b b;
#X obj 1044 14 bng 15 250 50 0 empty empty empty 17 7 0 10 -262144
-1 -1;
#X connect 0 0 5 0;
#X connect 0 1 20 0;
#X connect 1 0 3 0;
#X connect 2 0 1 0;
#X connect 3 0 37 1;
#X connect 3 0 40 0;
#X connect 3 0 42 0;
#X connect 4 0 37 0;
#X connect 5 0 6 0;
#X connect 6 0 27 0;
#X connect 7 0 32 0;
#X connect 9 0 10 0;
#X connect 9 1 22 0;
#X connect 10 0 11 0;
#X connect 11 0 28 0;
#X connect 12 0 13 0;
#X connect 13 0 29 0;
#X connect 14 0 12 0;
#X connect 14 1 24 0;
#X connect 15 0 16 0;
#X connect 16 0 26 0;
#X connect 17 0 15 0;
#X connect 17 1 48 0;
#X connect 19 0 14 0;
#X connect 19 0 17 0;
#X connect 19 0 0 0;
#X connect 19 0 9 0;
#X connect 20 0 21 0;
#X connect 22 0 23 0;
#X connect 24 0 25 0;
#X connect 26 0 7 0;
#X connect 26 1 30 0;
#X connect 27 0 7 0;
#X connect 27 1 30 0;
#X connect 28 0 7 0;
#X connect 28 1 30 0;
#X connect 29 0 7 0;
#X connect 29 1 30 0;
#X connect 30 0 32 1;
#X connect 31 0 14 1;
#X connect 31 0 17 1;
#X connect 31 0 0 1;
#X connect 31 0 9 1;
#X connect 32 0 8 0;
#X connect 32 1 8 1;
#X connect 35 0 34 0;
#X connect 36 0 35 0;
#X connect 37 0 18 0;
#X connect 40 0 41 0;
#X connect 41 0 39 0;
#X connect 42 0 38 0;
#X connect 43 0 17 1;
#X connect 43 0 0 1;
#X connect 43 0 9 1;
#X connect 43 0 14 1;
#X connect 44 0 9 1;
#X connect 45 0 14 1;
#X connect 46 0 0 1;
#X connect 48 0 47 0;
#X connect 49 0 52 0;
#X connect 51 0 17 1;
#X connect 52 0 33 0;
#X connect 52 1 50 0;
#X connect 52 2 31 0;
#X connect 52 3 43 0;
#X connect 52 4 51 0;
#X connect 52 5 46 0;
#X connect 52 6 44 0;
#X connect 52 7 45 0;
#X connect 53 0 52 0;
