#N canvas 173 226 1291 751 12;
#X obj 735 93 list prepend 0;
#X obj 735 121 list prepend 1;
#X obj 735 149 list prepend 2;
#X obj 735 177 list prepend 3;
#X obj 735 205 list prepend 4;
#X obj 735 233 list prepend 5;
#X obj 735 261 list prepend 6;
#X obj 735 289 list prepend 7;
#X obj 735 317 list prepend 8;
#X obj 735 345 list prepend 9;
#X obj 735 373 list prepend 10;
#X obj 735 401 list prepend 11;
#X obj 735 429 list prepend 12;
#X obj 735 457 list prepend 13;
#X obj 735 485 list prepend 14;
#X obj 735 513 list prepend 15;
#X obj 41 116 tgl 30 0 empty empty empty 17 7 0 10 -262144 -1 -1 0
1;
#X obj 74 116 tgl 30 0 empty empty empty 17 7 0 10 -262144 -1 -1 0
1;
#X obj 107 116 tgl 30 0 empty empty empty 17 7 0 10 -262144 -1 -1 1
1;
#X obj 140 116 tgl 30 0 empty empty empty 17 7 0 10 -262144 -1 -1 0
1;
#X obj 173 116 tgl 30 0 empty empty empty 17 7 0 10 -262144 -1 -1 0
1;
#X obj 206 116 tgl 30 0 empty empty empty 17 7 0 10 -262144 -1 -1 1
1;
#X obj 239 116 tgl 30 0 empty empty empty 17 7 0 10 -262144 -1 -1 0
1;
#X obj 272 116 tgl 30 0 empty empty empty 17 7 0 10 -262144 -1 -1 0
1;
#X obj 305 116 tgl 30 0 empty empty empty 17 7 0 10 -262144 -1 -1 1
1;
#X obj 338 116 tgl 30 0 empty empty empty 17 7 0 10 -262144 -1 -1 0
1;
#X obj 371 116 tgl 30 0 empty empty empty 17 7 0 10 -262144 -1 -1 0
1;
#X obj 404 116 tgl 30 0 empty empty empty 17 7 0 10 -262144 -1 -1 1
1;
#X obj 437 116 tgl 30 0 empty empty empty 17 7 0 10 -262144 -1 -1 0
1;
#X obj 470 116 tgl 30 0 empty empty empty 17 7 0 10 -262144 -1 -1 0
1;
#X obj 503 116 tgl 30 0 empty empty empty 17 7 0 10 -262144 -1 -1 1
1;
#X obj 536 116 tgl 30 0 empty empty empty 17 7 0 10 -262144 -1 -1 0
1;
#X obj 868 93 s \$0-sequencer;
#X obj 867 121 s \$0-sequencer;
#X obj 868 149 s \$0-sequencer;
#X obj 868 177 s \$0-sequencer;
#X obj 868 205 s \$0-sequencer;
#X obj 868 233 s \$0-sequencer;
#X obj 868 261 s \$0-sequencer;
#X obj 868 289 s \$0-sequencer;
#X obj 868 317 s \$0-sequencer;
#X obj 868 345 s \$0-sequencer;
#X obj 868 373 s \$0-sequencer;
#X obj 868 401 s \$0-sequencer;
#X obj 868 429 s \$0-sequencer;
#X obj 868 457 s \$0-sequencer;
#X obj 868 485 s \$0-sequencer;
#X obj 868 513 s \$0-sequencer;
#X obj 15 438 table \$0-sequencer 16;
#X obj 19 193 inlet;
#X obj 19 313 tabread \$0-sequencer;
#X obj 19 403 outlet;
#X obj 19 349 select 1;
#X obj 19 222 f;
#X obj 49 222 + 1;
#X obj 19 249 mod 16;
#X obj 271 203 inlet;
#X obj 318 204 r \$1;
#X obj 42 51 unpack f f f f f f f f f f f f f f f f, f 71;
#X msg 134 195 1;
#X floatatom 41 148 4 0 0 0 - - -;
#X obj 204 565 unpack f f f f f f f f f f f f f f f f, f 71;
#X floatatom 74 148 4 0 0 0 - - -;
#X floatatom 107 148 4 0 0 0 - - -;
#X floatatom 140 148 4 0 0 0 - - -;
#X floatatom 173 148 4 0 0 0 - - -;
#X floatatom 206 148 4 0 0 0 - - -;
#X floatatom 239 148 4 0 0 0 - - -;
#X floatatom 272 148 4 0 0 0 - - -;
#X floatatom 305 148 4 0 0 0 - - -;
#X floatatom 338 148 4 0 0 0 - - -;
#X floatatom 371 148 4 0 0 0 - - -;
#X floatatom 404 148 4 0 0 0 - - -;
#X floatatom 437 148 4 0 0 0 - - -;
#X floatatom 470 148 4 0 0 0 - - -;
#X floatatom 503 148 4 0 0 0 - - -;
#X floatatom 536 148 4 0 0 0 - - -;
#X obj 13 482 table \$0-vals 16;
#X obj 1018 235 list prepend 0;
#X obj 1018 263 list prepend 1;
#X obj 1018 291 list prepend 2;
#X obj 1018 319 list prepend 3;
#X obj 1018 347 list prepend 4;
#X obj 1018 375 list prepend 5;
#X obj 1018 403 list prepend 6;
#X obj 1018 431 list prepend 7;
#X obj 1018 459 list prepend 8;
#X obj 1018 487 list prepend 9;
#X obj 1018 515 list prepend 10;
#X obj 1018 543 list prepend 11;
#X obj 1018 571 list prepend 12;
#X obj 1018 599 list prepend 13;
#X obj 1018 627 list prepend 14;
#X obj 1018 655 list prepend 15;
#X obj 1151 235 s \$0-vals;
#X obj 1150 263 s \$0-vals;
#X obj 1151 292 s \$0-vals;
#X obj 1151 319 s \$0-vals;
#X obj 1151 347 s \$0-vals;
#X obj 1151 376 s \$0-vals;
#X obj 1151 403 s \$0-vals;
#X obj 1151 431 s \$0-vals;
#X obj 1151 459 s \$0-vals;
#X obj 1151 487 s \$0-vals;
#X obj 1151 515 s \$0-vals;
#X obj 1151 543 s \$0-vals;
#X obj 1151 571 s \$0-vals;
#X obj 1151 599 s \$0-vals;
#X obj 1151 627 s \$0-vals;
#X obj 1151 655 s \$0-vals;
#X obj 70 404 outlet;
#X obj 271 259 route /seq /sync /vals;
#X obj 120 404 outlet;
#X obj 70 376 f;
#X obj 19 376 t b b;
#X floatatom 20 279 5 0 0 0 - - -;
#X obj 168 314 tabread \$0-vals;
#X connect 0 0 32 0;
#X connect 1 0 33 0;
#X connect 2 0 34 0;
#X connect 3 0 35 0;
#X connect 4 0 36 0;
#X connect 5 0 37 0;
#X connect 6 0 38 0;
#X connect 7 0 39 0;
#X connect 8 0 40 0;
#X connect 9 0 41 0;
#X connect 10 0 42 0;
#X connect 11 0 43 0;
#X connect 12 0 44 0;
#X connect 13 0 45 0;
#X connect 14 0 46 0;
#X connect 15 0 47 0;
#X connect 16 0 0 0;
#X connect 17 0 1 0;
#X connect 18 0 2 0;
#X connect 19 0 3 0;
#X connect 20 0 4 0;
#X connect 21 0 5 0;
#X connect 22 0 6 0;
#X connect 23 0 7 0;
#X connect 24 0 8 0;
#X connect 25 0 9 0;
#X connect 26 0 10 0;
#X connect 27 0 11 0;
#X connect 28 0 12 0;
#X connect 29 0 13 0;
#X connect 30 0 14 0;
#X connect 31 0 15 0;
#X connect 49 0 53 0;
#X connect 50 0 52 0;
#X connect 52 0 114 0;
#X connect 53 0 54 0;
#X connect 53 0 55 0;
#X connect 54 0 53 1;
#X connect 55 0 112 0;
#X connect 55 0 115 0;
#X connect 56 0 111 0;
#X connect 57 0 111 0;
#X connect 58 0 16 0;
#X connect 58 1 17 0;
#X connect 58 2 18 0;
#X connect 58 3 19 0;
#X connect 58 4 20 0;
#X connect 58 5 21 0;
#X connect 58 6 22 0;
#X connect 58 7 23 0;
#X connect 58 8 24 0;
#X connect 58 9 25 0;
#X connect 58 10 26 0;
#X connect 58 11 27 0;
#X connect 58 12 28 0;
#X connect 58 13 29 0;
#X connect 58 14 30 0;
#X connect 58 15 31 0;
#X connect 59 0 53 1;
#X connect 60 0 78 0;
#X connect 61 0 60 0;
#X connect 61 1 62 0;
#X connect 61 2 63 0;
#X connect 61 3 64 0;
#X connect 61 4 65 0;
#X connect 61 5 66 0;
#X connect 61 6 67 0;
#X connect 61 7 68 0;
#X connect 61 8 69 0;
#X connect 61 9 70 0;
#X connect 61 10 71 0;
#X connect 61 11 72 0;
#X connect 61 12 73 0;
#X connect 61 13 74 0;
#X connect 61 14 75 0;
#X connect 61 15 76 0;
#X connect 62 0 79 0;
#X connect 63 0 80 0;
#X connect 64 0 81 0;
#X connect 65 0 82 0;
#X connect 66 0 83 0;
#X connect 67 0 84 0;
#X connect 68 0 85 0;
#X connect 69 0 86 0;
#X connect 70 0 87 0;
#X connect 71 0 88 0;
#X connect 72 0 89 0;
#X connect 73 0 90 0;
#X connect 74 0 91 0;
#X connect 75 0 92 0;
#X connect 76 0 93 0;
#X connect 78 0 94 0;
#X connect 79 0 95 0;
#X connect 80 0 96 0;
#X connect 81 0 97 0;
#X connect 82 0 98 0;
#X connect 83 0 99 0;
#X connect 84 0 100 0;
#X connect 85 0 101 0;
#X connect 86 0 102 0;
#X connect 87 0 103 0;
#X connect 88 0 104 0;
#X connect 89 0 105 0;
#X connect 90 0 106 0;
#X connect 91 0 107 0;
#X connect 92 0 108 0;
#X connect 93 0 109 0;
#X connect 111 0 58 0;
#X connect 111 1 59 0;
#X connect 111 2 61 0;
#X connect 113 0 110 0;
#X connect 114 0 51 0;
#X connect 114 1 113 0;
#X connect 115 0 116 0;
#X connect 115 0 50 0;
#X connect 116 0 113 1;
#X coords 0 -1 1 1 535 60 2 36 110;
