#N canvas 318 107 1362 702 10;
#X obj 251 270 osc~ 400;
#X obj 665 199 hsl 128 15 0 1 0 0 empty empty empty -2 -8 0 10 -262144
-1 -1 0 1;
#X obj 103 419 vsl 15 50 0 0.7 0 0 empty empty empty 0 -9 0 10 -258113
-4034 -1 0 1;
#X obj 127 433 env~;
#X obj 127 455 dbtorms;
#X obj 189 419 vsl 15 50 0 0.7 0 0 empty empty empty 0 -9 0 10 -258113
-4034 -1 0 1;
#X obj 213 433 env~;
#X obj 213 455 dbtorms;
#X obj 298 419 vsl 15 50 0 0.7 0 0 empty empty empty 0 -9 0 10 -258113
-4034 -1 0 1;
#X obj 322 437 env~;
#X obj 322 455 dbtorms;
#X obj 391 419 vsl 15 50 0 0.7 0 0 empty empty empty 0 -9 0 10 -258113
-4034 -1 0 1;
#X obj 415 434 env~;
#X obj 415 455 dbtorms;
#X obj 479 419 vsl 15 50 0 0.7 0 0 empty empty empty 0 -9 0 10 -258113
-4034 -1 0 1;
#X obj 503 431 env~;
#X obj 503 455 dbtorms;
#X obj 567 419 vsl 15 50 0 0.7 0 0 empty empty empty 0 -9 0 10 -258113
-4034 -1 0 1;
#X obj 591 425 env~;
#X obj 591 455 dbtorms;
#X obj 650 419 vsl 15 50 0 0.7 0 0 empty empty empty 0 -9 0 10 -258113
-4034 -1 0 1;
#X obj 674 428 env~;
#X obj 674 455 dbtorms;
#X obj 736 419 vsl 15 50 0 0.7 0 0 empty empty empty 0 -9 0 10 -258113
-4034 -1 0 1;
#X obj 760 428 env~;
#X obj 760 455 dbtorms;
#X msg 662 245 /pan \$1;
#X floatatom 662 224 5 0 0 0 - - -;
#X obj 808 199 hsl 128 15 0 1 0 0 empty empty empty -2 -8 0 10 -262144
-1 -1 0 1;
#X floatatom 805 224 5 0 0 0 - - -;
#X msg 805 245 /distance \$1;
#X obj 353 40 cnv 15 380 60 empty empty empty 20 12 0 14 -262130 -66577
0;
#X obj 251 327 ps.10pan~, f 66;
#X obj 819 418 vsl 15 50 0 0.7 0 0 empty empty empty 0 -9 0 10 -258113
-4034 -1 0 1;
#X obj 843 427 env~;
#X obj 843 454 dbtorms;
#X obj 23 421 vsl 15 50 0 0.7 0 0 empty empty empty 0 -9 0 10 -258113
-4034 -1 0 1;
#X obj 47 430 env~;
#X obj 47 457 dbtorms;
#X text 365 44 [ps.10pan~];
#X obj 246 594 ps.29dac~;
#X obj 246 515 ps.29gain~;
#X connect 0 0 32 0;
#X connect 1 0 27 0;
#X connect 3 0 4 0;
#X connect 4 0 2 0;
#X connect 6 0 7 0;
#X connect 7 0 5 0;
#X connect 9 0 10 0;
#X connect 10 0 8 0;
#X connect 12 0 13 0;
#X connect 13 0 11 0;
#X connect 15 0 16 0;
#X connect 16 0 14 0;
#X connect 18 0 19 0;
#X connect 19 0 17 0;
#X connect 21 0 22 0;
#X connect 22 0 20 0;
#X connect 24 0 25 0;
#X connect 25 0 23 0;
#X connect 26 0 32 1;
#X connect 27 0 26 0;
#X connect 28 0 29 0;
#X connect 29 0 30 0;
#X connect 30 0 32 1;
#X connect 32 0 37 0;
#X connect 32 0 41 0;
#X connect 32 1 3 0;
#X connect 32 1 41 1;
#X connect 32 2 6 0;
#X connect 32 2 41 4;
#X connect 32 3 9 0;
#X connect 32 4 12 0;
#X connect 32 4 41 5;
#X connect 32 5 15 0;
#X connect 32 5 41 6;
#X connect 32 6 18 0;
#X connect 32 6 41 7;
#X connect 32 7 21 0;
#X connect 32 7 41 8;
#X connect 32 8 24 0;
#X connect 32 8 41 10;
#X connect 32 9 34 0;
#X connect 32 9 41 11;
#X connect 34 0 35 0;
#X connect 35 0 33 0;
#X connect 37 0 38 0;
#X connect 38 0 36 0;
#X connect 41 0 40 0;
#X connect 41 1 40 1;
#X connect 41 2 40 2;
#X connect 41 3 40 3;
#X connect 41 4 40 4;
#X connect 41 5 40 5;
#X connect 41 6 40 6;
#X connect 41 7 40 7;
#X connect 41 8 40 8;
#X connect 41 9 40 9;
#X connect 41 10 40 10;
#X connect 41 11 40 11;
#X connect 41 12 40 12;
#X connect 41 13 40 13;
#X connect 41 14 40 14;
#X connect 41 15 40 15;
#X connect 41 16 40 16;
#X connect 41 17 40 17;
#X connect 41 18 40 18;
#X connect 41 19 40 19;
#X connect 41 20 40 20;
#X connect 41 21 40 21;
#X connect 41 22 40 22;
#X connect 41 23 40 23;
#X connect 41 24 40 24;
#X connect 41 25 40 25;
#X connect 41 26 40 26;
#X connect 41 27 40 27;
#X connect 41 28 40 28;
