#N canvas 251 23 1567 851 12;
#X msg 658 68 rewind;
#X obj 658 95 bng 15 250 50 0 empty empty empty 17 7 0 10 -262144 -1
-1;
#X text 690 94 < go to next line;
#X obj 658 118 tgl 15 0 empty empty empty 17 7 0 10 -262144 -1 -1 1
1;
#X text 690 117 < loop;
#X obj 322 334 ps.16step;
#X obj 74 75 expr 15000 / $f1;
#X floatatom 74 51 5 0 0 0 - - -;
#X floatatom 74 100 5 0 0 0 - - -;
#X obj 14 51 tgl 30 0 empty empty empty 17 7 0 10 -262144 -1 -1 0 1
;
#X obj 152 613 bng 15 250 50 0 empty empty empty 17 7 0 10 -262144
-1 -1;
#X obj 152 639 ps.sampleplay~ snare;
#X obj 199 780 dac~, f 12;
#X obj 322 420 ps.16step;
#X obj 302 613 bng 15 250 50 0 empty empty empty 17 7 0 10 -262144
-1 -1;
#X obj 302 639 ps.sampleplay~ wood;
#X obj 445 613 bng 15 250 50 0 empty empty empty 17 7 0 10 -262144
-1 -1;
#X obj 445 639 ps.sampleplay~ hat;
#X obj 322 511 ps.16step;
#X obj 10 613 bng 15 250 50 0 empty empty empty 17 7 0 10 -262144 -1
-1;
#X obj 10 639 ps.sampleplay~ kick;
#X obj 322 243 ps.16step;
#X obj 14 170 s ticks;
#X obj 215 283 r ticks;
#X floatatom 1166 401 5 0 0 0 - - -;
#X msg 1166 429 \; snare /speed \$1;
#X floatatom 1287 401 5 0 0 0 - - -;
#X msg 1287 429 \; wood /speed \$1;
#X floatatom 1400 401 5 0 0 0 - - -;
#X msg 1400 429 \; hat /speed \$1;
#X msg 926 590 /sync;
#X obj 199 748 ps.echo~ ec1;
#X msg 1144 172 \; ec1 /wet 0.6 \; ec1 /ltime 250 \; ec1 /lfeedback
0.75 \; ec1 /rtime 375 \; ec1 /rfeedback 0.8 \;;
#X obj 14 144 metro 250;
#X msg 26 229 \; ec1 /ltime \$1;
#X msg 152 229 \; ec1 /rtime \$1;
#X obj 152 155 * 1.5;
#X floatatom 152 194 5 0 0 0 - - -;
#X floatatom 93 194 5 0 0 0 - - -;
#X msg 1047 429 \; kick /speed \$1;
#X floatatom 1047 402 5 0 0 0 - - -;
#X obj 1144 8 loadbang;
#X msg 1177 90 \; kick /read ./sounds/bossdr550mk2/Kick4.wav \; snare
/read ./sounds/bossdr550mk2/Snare1.wav \; wood /read ./sounds/bossdr550mk2/WoodBlock1.wav
\; hat /read ./sounds/bossdr550mk2/HiHatCl1.wav \;;
#X obj 1124 9 bng 15 250 50 0 empty empty empty 17 7 0 10 -262144 -1
-1;
#X msg 314 41 read beat1.txt;
#X msg 541 41 read beat3.txt;
#X msg 658 41 read beat4.txt;
#X msg 429 41 read beat2.txt;
#X msg 978 590 /vals 1 1 1 1 1 1 1 1 1 1 1 1 1 1 1 1;
#N canvas 365 23 1090 435 4textfiles 0;
#X obj 479 177 textfile;
#X obj 597 177 textfile;
#X obj 650 215 bng 15 250 50 0 empty empty empty 17 7 0 10 -262144
-1 -1;
#X obj 650 245 spigot;
#X msg 650 271 rewind \, bang;
#X obj 532 215 bng 15 250 50 0 empty empty empty 17 7 0 10 -262144
-1 -1;
#X obj 532 245 spigot;
#X msg 532 271 rewind \, bang;
#X obj 367 177 textfile;
#X obj 420 215 bng 15 250 50 0 empty empty empty 17 7 0 10 -262144
-1 -1;
#X obj 420 245 spigot;
#X msg 420 271 rewind \, bang;
#X obj 305 215 bng 15 250 50 0 empty empty empty 17 7 0 10 -262144
-1 -1;
#X obj 305 245 spigot;
#X msg 305 271 rewind \, bang;
#X obj 252 177 textfile;
#X obj 253 75 inlet;
#X obj 367 75 inlet;
#X obj 479 75 inlet;
#X obj 597 75 inlet;
#X obj 253 354 outlet;
#X obj 367 354 outlet;
#X obj 479 354 outlet;
#X obj 597 354 outlet;
#X obj 743 75 inlet;
#X obj 812 75 inlet;
#X connect 0 0 22 0;
#X connect 0 1 5 0;
#X connect 1 0 23 0;
#X connect 1 1 2 0;
#X connect 2 0 3 0;
#X connect 3 0 4 0;
#X connect 4 0 1 0;
#X connect 5 0 6 0;
#X connect 6 0 7 0;
#X connect 7 0 0 0;
#X connect 8 0 21 0;
#X connect 8 1 9 0;
#X connect 9 0 10 0;
#X connect 10 0 11 0;
#X connect 11 0 8 0;
#X connect 12 0 13 0;
#X connect 13 0 14 0;
#X connect 14 0 15 0;
#X connect 15 0 20 0;
#X connect 15 1 12 0;
#X connect 16 0 15 0;
#X connect 17 0 8 0;
#X connect 18 0 0 0;
#X connect 19 0 1 0;
#X connect 24 0 15 0;
#X connect 24 0 8 0;
#X connect 24 0 0 0;
#X connect 24 0 1 0;
#X connect 25 0 3 1;
#X connect 25 0 6 1;
#X connect 25 0 10 1;
#X connect 25 0 13 1;
#X restore 314 122 pd 4textfiles;
#X f 26;
#X obj 314 156 send p1;
#X obj 373 156 send p2;
#X obj 433 156 send p3;
#X obj 493 156 send p4;
#X obj 850 220 receive p1;
#X obj 850 311 receive p2;
#X obj 850 397 receive p3;
#X obj 850 488 receive p4;
#X obj 978 653 send p1;
#X obj 1037 653 send p2;
#X obj 1097 653 send p3;
#X obj 1157 653 send p4;
#X obj 1144 36 t b b b;
#X floatatom 948 96 5 0 0 0 - - -;
#X obj 948 149 bng 15 250 50 0 empty empty empty 17 7 0 10 -262144
-1 -1;
#X obj 948 173 spigot;
#X obj 987 149 tgl 15 0 empty empty empty 17 7 0 10 -262144 -1 -1 0
1;
#X text 1007 147 < next line;
#X obj 948 121 select 15;
#X msg 628 721 \; ec1 /wet 0 \;;
#X msg 734 722 \; ec1 /wet 1 \;;
#X obj 199 719 *~ 0.75;
#X obj 289 719 *~ 0.75;
#X connect 0 0 49 4;
#X connect 1 0 49 4;
#X connect 3 0 49 5;
#X connect 5 0 10 0;
#X connect 5 1 24 0;
#X connect 6 0 8 0;
#X connect 7 0 6 0;
#X connect 8 0 33 1;
#X connect 8 0 36 0;
#X connect 8 0 38 0;
#X connect 9 0 33 0;
#X connect 10 0 11 0;
#X connect 11 0 71 0;
#X connect 11 0 72 0;
#X connect 13 0 14 0;
#X connect 13 1 26 0;
#X connect 14 0 15 0;
#X connect 15 0 71 0;
#X connect 15 0 72 0;
#X connect 16 0 17 0;
#X connect 17 0 71 0;
#X connect 17 0 72 0;
#X connect 18 0 16 0;
#X connect 18 1 28 0;
#X connect 19 0 20 0;
#X connect 20 0 71 0;
#X connect 20 0 72 0;
#X connect 21 0 19 0;
#X connect 21 1 40 0;
#X connect 21 2 63 0;
#X connect 23 0 21 0;
#X connect 23 0 18 0;
#X connect 23 0 5 0;
#X connect 23 0 13 0;
#X connect 24 0 25 0;
#X connect 26 0 27 0;
#X connect 28 0 29 0;
#X connect 30 0 58 0;
#X connect 30 0 59 0;
#X connect 30 0 60 0;
#X connect 30 0 61 0;
#X connect 31 0 12 0;
#X connect 31 1 12 1;
#X connect 33 0 22 0;
#X connect 36 0 37 0;
#X connect 37 0 35 0;
#X connect 38 0 34 0;
#X connect 40 0 39 0;
#X connect 41 0 62 0;
#X connect 43 0 62 0;
#X connect 44 0 49 0;
#X connect 45 0 49 2;
#X connect 46 0 49 3;
#X connect 47 0 49 1;
#X connect 48 0 58 0;
#X connect 48 0 59 0;
#X connect 48 0 60 0;
#X connect 48 0 61 0;
#X connect 49 0 50 0;
#X connect 49 1 51 0;
#X connect 49 2 52 0;
#X connect 49 3 53 0;
#X connect 54 0 21 1;
#X connect 55 0 5 1;
#X connect 56 0 13 1;
#X connect 57 0 18 1;
#X connect 62 0 32 0;
#X connect 62 1 42 0;
#X connect 62 2 48 0;
#X connect 63 0 68 0;
#X connect 64 0 65 0;
#X connect 65 0 1 0;
#X connect 66 0 65 1;
#X connect 68 0 64 0;
#X connect 71 0 31 0;
#X connect 72 0 31 1;
