#N canvas 0 23 1178 507 12;
#X obj 201 133 ps.29gain~;
#X msg 712 93 /gain \$1;
#X floatatom 712 66 5 0 0 0 - - -;
#X floatatom 785 65 5 0 0 0 - - -;
#X msg 785 92 /ramp \$1;
#X obj 201 216 ps.29dac~;
#X connect 0 0 5 0;
#X connect 0 1 5 1;
#X connect 0 2 5 2;
#X connect 0 3 5 3;
#X connect 0 4 5 4;
#X connect 0 5 5 5;
#X connect 0 6 5 6;
#X connect 0 7 5 7;
#X connect 0 8 5 8;
#X connect 0 9 5 9;
#X connect 0 10 5 10;
#X connect 0 11 5 11;
#X connect 0 12 5 12;
#X connect 0 13 5 13;
#X connect 0 14 5 14;
#X connect 0 15 5 15;
#X connect 0 16 5 16;
#X connect 0 17 5 17;
#X connect 0 18 5 18;
#X connect 0 19 5 19;
#X connect 0 20 5 20;
#X connect 0 21 5 21;
#X connect 0 22 5 22;
#X connect 0 23 5 23;
#X connect 0 24 5 24;
#X connect 0 25 5 25;
#X connect 0 26 5 26;
#X connect 0 27 5 27;
#X connect 0 28 5 28;
#X connect 1 0 0 29;
#X connect 2 0 1 0;
#X connect 3 0 4 0;
#X connect 4 0 0 29;
