#N canvas 16 23 1680 776 12;
#X obj 148 597 dac~ 1 2 3 4 5 6 7 8 9 10 11 12 13 14 15 16 17 18 19
20 21 22 23 24 25 26 27 28 29, f 130;
#X floatatom 1442 418 5 0 0 0 - - -;
#X floatatom 1401 418 5 0 0 0 - - -;
#X obj 148 251 inlet~;
#X obj 198 251 inlet~;
#X obj 248 251 inlet~;
#X obj 298 251 inlet~;
#X obj 348 251 inlet~;
#X obj 398 251 inlet~;
#X obj 448 251 inlet~;
#X obj 498 251 inlet~;
#X obj 548 251 inlet~;
#X obj 598 251 inlet~;
#X obj 648 251 inlet~;
#X obj 698 251 inlet~;
#X obj 748 251 inlet~;
#X obj 798 251 inlet~;
#X obj 848 251 inlet~;
#X obj 898 251 inlet~;
#X obj 948 251 inlet~;
#X obj 998 251 inlet~;
#X obj 1048 251 inlet~;
#X obj 1098 251 inlet~;
#X obj 1148 251 inlet~;
#X obj 1198 251 inlet~;
#X obj 1248 251 inlet~;
#X obj 1298 251 inlet~;
#X obj 1348 251 inlet~;
#X obj 1398 251 inlet~;
#X obj 1448 251 inlet~;
#X obj 1498 251 inlet~;
#X obj 1548 251 inlet~;
#N canvas 0 82 1680 647 clip_filter_trim_25_genelec_8050b 0;
#X obj 47 373 clip~ -1 1;
#X obj 47 317 *~ 0.1;
#X obj 47 287 *~;
#X obj 47 256 inlet~;
#X obj 47 410 outlet~;
#X obj 126 373 clip~ -1 1;
#X obj 126 317 *~ 0.1;
#X obj 126 287 *~;
#X obj 126 256 inlet~;
#X obj 126 410 outlet~;
#X obj 204 373 clip~ -1 1;
#X obj 204 317 *~ 0.1;
#X obj 204 287 *~;
#X obj 204 256 inlet~;
#X obj 204 410 outlet~;
#X obj 283 373 clip~ -1 1;
#X obj 283 317 *~ 0.1;
#X obj 283 287 *~;
#X obj 283 256 inlet~;
#X obj 283 410 outlet~;
#X obj 361 373 clip~ -1 1;
#X obj 361 317 *~ 0.1;
#X obj 361 287 *~;
#X obj 361 256 inlet~;
#X obj 361 410 outlet~;
#X obj 440 373 clip~ -1 1;
#X obj 440 317 *~ 0.1;
#X obj 440 287 *~;
#X obj 440 256 inlet~;
#X obj 440 410 outlet~;
#X obj 518 373 clip~ -1 1;
#X obj 518 317 *~ 0.1;
#X obj 518 287 *~;
#X obj 518 256 inlet~;
#X obj 518 410 outlet~;
#X obj 597 373 clip~ -1 1;
#X obj 597 317 *~ 0.1;
#X obj 597 287 *~;
#X obj 597 256 inlet~;
#X obj 597 410 outlet~;
#X obj 675 373 clip~ -1 1;
#X obj 675 317 *~ 0.1;
#X obj 675 287 *~;
#X obj 675 256 inlet~;
#X obj 675 410 outlet~;
#X obj 754 373 clip~ -1 1;
#X obj 754 317 *~ 0.1;
#X obj 754 287 *~;
#X obj 754 256 inlet~;
#X obj 754 410 outlet~;
#X obj 832 373 clip~ -1 1;
#X obj 832 317 *~ 0.1;
#X obj 832 287 *~;
#X obj 832 256 inlet~;
#X obj 832 410 outlet~;
#X obj 911 373 clip~ -1 1;
#X obj 911 317 *~ 0.1;
#X obj 911 287 *~;
#X obj 911 256 inlet~;
#X obj 911 410 outlet~;
#X obj 989 373 clip~ -1 1;
#X obj 989 317 *~ 0.1;
#X obj 989 287 *~;
#X obj 989 256 inlet~;
#X obj 989 410 outlet~;
#X obj 1068 373 clip~ -1 1;
#X obj 1068 317 *~ 0.1;
#X obj 1068 287 *~;
#X obj 1068 256 inlet~;
#X obj 1068 410 outlet~;
#X obj 1146 373 clip~ -1 1;
#X obj 1146 317 *~ 0.1;
#X obj 1146 287 *~;
#X obj 1146 256 inlet~;
#X obj 1146 410 outlet~;
#X obj 1225 373 clip~ -1 1;
#X obj 1225 317 *~ 0.1;
#X obj 1225 287 *~;
#X obj 1225 256 inlet~;
#X obj 1225 410 outlet~;
#X obj 1303 373 clip~ -1 1;
#X obj 1303 317 *~ 0.1;
#X obj 1303 287 *~;
#X obj 1303 256 inlet~;
#X obj 1303 410 outlet~;
#X obj 1381 373 clip~ -1 1;
#X obj 1381 317 *~ 0.1;
#X obj 1381 287 *~;
#X obj 1381 256 inlet~;
#X obj 1381 410 outlet~;
#X obj 1460 373 clip~ -1 1;
#X obj 1460 317 *~ 0.1;
#X obj 1460 287 *~;
#X obj 1460 256 inlet~;
#X obj 1460 410 outlet~;
#X obj 1538 373 clip~ -1 1;
#X obj 1538 317 *~ 0.1;
#X obj 1538 287 *~;
#X obj 1538 256 inlet~;
#X obj 1538 410 outlet~;
#X obj 1617 373 clip~ -1 1;
#X obj 1617 317 *~ 0.1;
#X obj 1617 287 *~;
#X obj 1617 256 inlet~;
#X obj 1617 410 outlet~;
#X obj 1695 373 clip~ -1 1;
#X obj 1695 317 *~ 0.1;
#X obj 1695 287 *~;
#X obj 1695 256 inlet~;
#X obj 1695 410 outlet~;
#X obj 1774 373 clip~ -1 1;
#X obj 1774 317 *~ 0.1;
#X obj 1774 287 *~;
#X obj 1774 256 inlet~;
#X obj 1774 410 outlet~;
#X obj 1852 373 clip~ -1 1;
#X obj 1852 317 *~ 0.1;
#X obj 1852 287 *~;
#X obj 1852 256 inlet~;
#X obj 1852 410 outlet~;
#X obj 1931 373 clip~ -1 1;
#X obj 1931 317 *~ 0.1;
#X obj 1931 287 *~;
#X obj 1931 256 inlet~;
#X obj 1931 410 outlet~;
#X obj 1670 176 line~;
#X obj 2014 252 inlet;
#X obj 1670 150 pack 0 50;
#X obj 47 343 hip~ 30;
#X obj 126 343 hip~ 30;
#X obj 204 343 hip~ 30;
#X obj 283 343 hip~ 30;
#X obj 361 343 hip~ 30;
#X obj 440 343 hip~ 30;
#X obj 518 343 hip~ 30;
#X obj 597 343 hip~ 30;
#X obj 675 343 hip~ 30;
#X obj 754 343 hip~ 30;
#X obj 832 343 hip~ 30;
#X obj 911 343 hip~ 30;
#X obj 989 343 hip~ 30;
#X obj 1068 343 hip~ 30;
#X obj 1146 343 hip~ 30;
#X obj 1225 343 hip~ 30;
#X obj 1303 343 hip~ 30;
#X obj 1381 343 hip~ 30;
#X obj 1460 343 hip~ 30;
#X obj 1538 343 hip~ 30;
#X obj 1617 343 hip~ 30;
#X obj 1695 343 hip~ 30;
#X obj 1774 343 hip~ 30;
#X obj 1852 343 hip~ 30;
#X obj 1931 343 hip~ 30;
#X connect 0 0 4 0;
#X connect 1 0 128 0;
#X connect 2 0 1 0;
#X connect 3 0 2 0;
#X connect 5 0 9 0;
#X connect 6 0 129 0;
#X connect 7 0 6 0;
#X connect 8 0 7 0;
#X connect 10 0 14 0;
#X connect 11 0 130 0;
#X connect 12 0 11 0;
#X connect 13 0 12 0;
#X connect 15 0 19 0;
#X connect 16 0 131 0;
#X connect 17 0 16 0;
#X connect 18 0 17 0;
#X connect 20 0 24 0;
#X connect 21 0 132 0;
#X connect 22 0 21 0;
#X connect 23 0 22 0;
#X connect 25 0 29 0;
#X connect 26 0 133 0;
#X connect 27 0 26 0;
#X connect 28 0 27 0;
#X connect 30 0 34 0;
#X connect 31 0 134 0;
#X connect 32 0 31 0;
#X connect 33 0 32 0;
#X connect 35 0 39 0;
#X connect 36 0 135 0;
#X connect 37 0 36 0;
#X connect 38 0 37 0;
#X connect 40 0 44 0;
#X connect 41 0 136 0;
#X connect 42 0 41 0;
#X connect 43 0 42 0;
#X connect 45 0 49 0;
#X connect 46 0 137 0;
#X connect 47 0 46 0;
#X connect 48 0 47 0;
#X connect 50 0 54 0;
#X connect 51 0 138 0;
#X connect 52 0 51 0;
#X connect 53 0 52 0;
#X connect 55 0 59 0;
#X connect 56 0 139 0;
#X connect 57 0 56 0;
#X connect 58 0 57 0;
#X connect 60 0 64 0;
#X connect 61 0 140 0;
#X connect 62 0 61 0;
#X connect 63 0 62 0;
#X connect 65 0 69 0;
#X connect 66 0 141 0;
#X connect 67 0 66 0;
#X connect 68 0 67 0;
#X connect 70 0 74 0;
#X connect 71 0 142 0;
#X connect 72 0 71 0;
#X connect 73 0 72 0;
#X connect 75 0 79 0;
#X connect 76 0 143 0;
#X connect 77 0 76 0;
#X connect 78 0 77 0;
#X connect 80 0 84 0;
#X connect 81 0 144 0;
#X connect 82 0 81 0;
#X connect 83 0 82 0;
#X connect 85 0 89 0;
#X connect 86 0 145 0;
#X connect 87 0 86 0;
#X connect 88 0 87 0;
#X connect 90 0 94 0;
#X connect 91 0 146 0;
#X connect 92 0 91 0;
#X connect 93 0 92 0;
#X connect 95 0 99 0;
#X connect 96 0 147 0;
#X connect 97 0 96 0;
#X connect 98 0 97 0;
#X connect 100 0 104 0;
#X connect 101 0 148 0;
#X connect 102 0 101 0;
#X connect 103 0 102 0;
#X connect 105 0 109 0;
#X connect 106 0 149 0;
#X connect 107 0 106 0;
#X connect 108 0 107 0;
#X connect 110 0 114 0;
#X connect 111 0 150 0;
#X connect 112 0 111 0;
#X connect 113 0 112 0;
#X connect 115 0 119 0;
#X connect 116 0 151 0;
#X connect 117 0 116 0;
#X connect 118 0 117 0;
#X connect 120 0 124 0;
#X connect 121 0 152 0;
#X connect 122 0 121 0;
#X connect 123 0 122 0;
#X connect 125 0 2 1;
#X connect 125 0 7 1;
#X connect 125 0 12 1;
#X connect 125 0 22 1;
#X connect 125 0 17 1;
#X connect 125 0 27 1;
#X connect 125 0 32 1;
#X connect 125 0 37 1;
#X connect 125 0 42 1;
#X connect 125 0 47 1;
#X connect 125 0 52 1;
#X connect 125 0 57 1;
#X connect 125 0 62 1;
#X connect 125 0 67 1;
#X connect 125 0 72 1;
#X connect 125 0 77 1;
#X connect 125 0 82 1;
#X connect 125 0 87 1;
#X connect 125 0 92 1;
#X connect 125 0 97 1;
#X connect 125 0 102 1;
#X connect 125 0 107 1;
#X connect 125 0 112 1;
#X connect 125 0 117 1;
#X connect 125 0 122 1;
#X connect 126 0 127 0;
#X connect 127 0 125 0;
#X connect 128 0 0 0;
#X connect 129 0 5 0;
#X connect 130 0 10 0;
#X connect 131 0 15 0;
#X connect 132 0 20 0;
#X connect 133 0 25 0;
#X connect 134 0 30 0;
#X connect 135 0 35 0;
#X connect 136 0 40 0;
#X connect 137 0 45 0;
#X connect 138 0 50 0;
#X connect 139 0 55 0;
#X connect 140 0 60 0;
#X connect 141 0 65 0;
#X connect 142 0 70 0;
#X connect 143 0 75 0;
#X connect 144 0 80 0;
#X connect 145 0 85 0;
#X connect 146 0 90 0;
#X connect 147 0 95 0;
#X connect 148 0 100 0;
#X connect 149 0 105 0;
#X connect 150 0 110 0;
#X connect 151 0 115 0;
#X connect 152 0 120 0;
#X restore 148 553 pd clip_filter_trim_25_genelec_8050b;
#X f 105;
#N canvas 712 93 707 552 clip_dcoffset_trim_4_genelec_subs 0;
#X obj 47 404 clip~ -1 1;
#X obj 47 317 *~ 0.1;
#X obj 47 287 *~;
#X obj 47 213 inlet~;
#X obj 47 441 outlet~;
#X obj 126 404 clip~ -1 1;
#X obj 126 317 *~ 0.1;
#X obj 126 287 *~;
#X obj 126 213 inlet~;
#X obj 126 441 outlet~;
#X obj 204 404 clip~ -1 1;
#X obj 204 317 *~ 0.1;
#X obj 204 287 *~;
#X obj 204 213 inlet~;
#X obj 204 441 outlet~;
#X obj 283 404 clip~ -1 1;
#X obj 283 317 *~ 0.1;
#X obj 283 287 *~;
#X obj 283 213 inlet~;
#X obj 283 441 outlet~;
#X obj 535 244 line~;
#X obj 535 186 inlet;
#X obj 535 215 pack 0 50;
#X obj 47 347 lop~ 100;
#X obj 126 347 lop~ 100;
#X obj 204 347 lop~ 100;
#X obj 283 347 lop~ 100;
#X obj 47 374 hip~ 20;
#X obj 126 374 hip~ 20;
#X obj 204 374 hip~ 20;
#X obj 283 374 hip~ 20;
#X connect 0 0 4 0;
#X connect 1 0 23 0;
#X connect 2 0 1 0;
#X connect 3 0 2 0;
#X connect 5 0 9 0;
#X connect 6 0 24 0;
#X connect 7 0 6 0;
#X connect 8 0 7 0;
#X connect 10 0 14 0;
#X connect 11 0 25 0;
#X connect 12 0 11 0;
#X connect 13 0 12 0;
#X connect 15 0 19 0;
#X connect 16 0 26 0;
#X connect 17 0 16 0;
#X connect 18 0 17 0;
#X connect 20 0 17 1;
#X connect 20 0 12 1;
#X connect 20 0 7 1;
#X connect 20 0 2 1;
#X connect 21 0 22 0;
#X connect 22 0 20 0;
#X connect 23 0 27 0;
#X connect 24 0 28 0;
#X connect 25 0 29 0;
#X connect 26 0 30 0;
#X connect 27 0 0 0;
#X connect 28 0 5 0;
#X connect 29 0 10 0;
#X connect 30 0 15 0;
#X restore 941 553 pd clip_dcoffset_trim_4_genelec_subs;
#X msg 444 114 0;
#X msg 212 135 \; pd dsp \$1;
#X obj 21 22 cnv 15 398 46 empty empty empty 20 12 0 14 -262130 -66577
0;
#X obj 29 45 tgl 20 0 empty empty 25_main 23 7 0 10 -262144 -1 -1 0
1;
#X obj 113 45 tgl 20 0 empty empty 4_subs 23 7 0 10 -262144 -1 -1 0
1;
#X obj 343 25 bng 40 250 50 0 empty empty panic 42 7 0 10 -258113 -262144
-258113;
#X obj 274 25 tgl 40 0 empty empty dsp 42 7 0 10 -262144 -1 -1 0 1
;
#X connect 1 0 33 4;
#X connect 2 0 32 25;
#X connect 3 0 32 0;
#X connect 4 0 32 1;
#X connect 5 0 32 2;
#X connect 6 0 32 3;
#X connect 7 0 32 4;
#X connect 8 0 32 5;
#X connect 9 0 32 6;
#X connect 10 0 32 7;
#X connect 11 0 32 8;
#X connect 12 0 32 9;
#X connect 13 0 32 10;
#X connect 14 0 32 11;
#X connect 15 0 32 12;
#X connect 16 0 32 13;
#X connect 17 0 32 14;
#X connect 18 0 32 15;
#X connect 19 0 32 16;
#X connect 20 0 32 17;
#X connect 21 0 32 18;
#X connect 22 0 32 19;
#X connect 23 0 32 20;
#X connect 24 0 32 21;
#X connect 25 0 32 22;
#X connect 26 0 32 23;
#X connect 27 0 32 24;
#X connect 28 0 33 0;
#X connect 29 0 33 1;
#X connect 30 0 33 2;
#X connect 31 0 33 3;
#X connect 32 0 0 0;
#X connect 32 1 0 1;
#X connect 32 2 0 2;
#X connect 32 3 0 3;
#X connect 32 4 0 4;
#X connect 32 5 0 5;
#X connect 32 6 0 6;
#X connect 32 7 0 7;
#X connect 32 8 0 8;
#X connect 32 9 0 9;
#X connect 32 10 0 10;
#X connect 32 11 0 11;
#X connect 32 12 0 12;
#X connect 32 13 0 13;
#X connect 32 14 0 14;
#X connect 32 15 0 15;
#X connect 32 16 0 16;
#X connect 32 17 0 17;
#X connect 32 18 0 18;
#X connect 32 19 0 19;
#X connect 32 20 0 20;
#X connect 32 21 0 21;
#X connect 32 22 0 22;
#X connect 32 23 0 23;
#X connect 32 24 0 24;
#X connect 33 0 0 25;
#X connect 33 1 0 26;
#X connect 33 2 0 27;
#X connect 33 3 0 28;
#X connect 34 0 37 0;
#X connect 34 0 38 0;
#X connect 37 0 2 0;
#X connect 38 0 1 0;
#X connect 39 0 34 0;
#X connect 40 0 35 0;
#X coords 0 -1 1 1 400 50 1 20 20;
