#N canvas 0 334 1680 349 12;
#X obj 53 93 inlet~;
#X obj 103 93 inlet~;
#X obj 153 93 inlet~;
#X obj 203 93 inlet~;
#X obj 253 93 inlet~;
#X obj 303 93 inlet~;
#X obj 353 93 inlet~;
#X obj 403 93 inlet~;
#X obj 453 93 inlet~;
#X obj 503 93 inlet~;
#X obj 553 93 inlet~;
#X obj 603 93 inlet~;
#X obj 653 93 inlet~;
#X obj 703 93 inlet~;
#X obj 753 93 inlet~;
#X obj 803 93 inlet~;
#X obj 853 93 inlet~;
#X obj 903 93 inlet~;
#X obj 953 93 inlet~;
#X obj 1003 93 inlet~;
#X obj 1053 93 inlet~;
#X obj 1103 93 inlet~;
#X obj 1153 93 inlet~;
#X obj 1203 93 inlet~;
#X obj 1253 93 inlet~;
#X obj 1303 93 inlet~;
#X obj 1353 93 inlet~;
#X obj 1403 93 inlet~;
#X obj 1453 93 inlet~;
#X obj 53 215 *~;
#X obj 103 215 *~;
#X obj 153 215 *~;
#X obj 204 215 *~;
#X obj 254 215 *~;
#X obj 304 215 *~;
#X obj 354 215 *~;
#X obj 404 215 *~;
#X obj 453 215 *~;
#X obj 503 215 *~;
#X obj 553 215 *~;
#X obj 604 215 *~;
#X obj 654 215 *~;
#X obj 704 215 *~;
#X obj 754 215 *~;
#X obj 804 215 *~;
#X obj 856 212 *~;
#X obj 906 212 *~;
#X obj 956 212 *~;
#X obj 1007 212 *~;
#X obj 1057 212 *~;
#X obj 1107 212 *~;
#X obj 1157 212 *~;
#X obj 1207 212 *~;
#X obj 1256 212 *~;
#X obj 1306 212 *~;
#X obj 1356 212 *~;
#X obj 1407 212 *~;
#X obj 1457 212 *~;
#X obj 1524 161 line~, f 10;
#X obj 1523 92 pack f 100;
#X obj 1485 17 inlet;
#X obj 1532 17 r \$1;
#X obj 1532 53 route /gain /ramp;
#X obj 7 270 outlet~;
#X obj 63 270 outlet~;
#X obj 119 270 outlet~;
#X obj 175 270 outlet~;
#X obj 233 270 outlet~;
#X obj 289 270 outlet~;
#X obj 345 270 outlet~;
#X obj 401 270 outlet~;
#X obj 459 270 outlet~;
#X obj 515 270 outlet~;
#X obj 571 270 outlet~;
#X obj 627 270 outlet~;
#X obj 683 270 outlet~;
#X obj 739 270 outlet~;
#X obj 795 270 outlet~;
#X obj 851 270 outlet~;
#X obj 906 270 outlet~;
#X obj 962 270 outlet~;
#X obj 1018 270 outlet~;
#X obj 1074 270 outlet~;
#X obj 1130 270 outlet~;
#X obj 1186 270 outlet~;
#X obj 1242 270 outlet~;
#X obj 1298 270 outlet~;
#X obj 1354 270 outlet~;
#X obj 1409 270 outlet~;
#X obj 1465 270 outlet~;
#X obj 1521 270 outlet~;
#X obj 1577 270 outlet~;
#X msg 461 68 0;
#X obj 21 22 cnv 15 398 46 empty empty empty 20 12 0 14 -262130 -66577
0;
#X obj 33 41 hsl 200 20 0 1 0 0 empty empty gain 204 10 0 10 -262144
-1 -1 7600 1;
#X obj 271 40 bng 20 250 50 0 empty empty panic 22 10 0 10 -258113
-262144 -258113;
#X connect 0 0 29 0;
#X connect 1 0 30 0;
#X connect 2 0 31 0;
#X connect 3 0 32 0;
#X connect 4 0 33 0;
#X connect 5 0 34 0;
#X connect 6 0 35 0;
#X connect 7 0 36 0;
#X connect 8 0 37 0;
#X connect 9 0 38 0;
#X connect 10 0 39 0;
#X connect 11 0 40 0;
#X connect 12 0 41 0;
#X connect 13 0 42 0;
#X connect 14 0 43 0;
#X connect 15 0 44 0;
#X connect 16 0 45 0;
#X connect 17 0 46 0;
#X connect 18 0 47 0;
#X connect 19 0 48 0;
#X connect 20 0 49 0;
#X connect 21 0 50 0;
#X connect 22 0 51 0;
#X connect 23 0 52 0;
#X connect 24 0 53 0;
#X connect 25 0 54 0;
#X connect 26 0 55 0;
#X connect 27 0 56 0;
#X connect 28 0 57 0;
#X connect 29 0 63 0;
#X connect 30 0 64 0;
#X connect 31 0 65 0;
#X connect 32 0 66 0;
#X connect 33 0 67 0;
#X connect 34 0 68 0;
#X connect 35 0 69 0;
#X connect 36 0 70 0;
#X connect 37 0 71 0;
#X connect 38 0 72 0;
#X connect 39 0 73 0;
#X connect 40 0 74 0;
#X connect 41 0 75 0;
#X connect 42 0 76 0;
#X connect 43 0 77 0;
#X connect 44 0 78 0;
#X connect 45 0 79 0;
#X connect 46 0 80 0;
#X connect 47 0 81 0;
#X connect 48 0 82 0;
#X connect 49 0 83 0;
#X connect 50 0 84 0;
#X connect 51 0 85 0;
#X connect 52 0 86 0;
#X connect 53 0 87 0;
#X connect 54 0 88 0;
#X connect 55 0 89 0;
#X connect 56 0 90 0;
#X connect 57 0 91 0;
#X connect 58 0 57 1;
#X connect 58 0 56 1;
#X connect 58 0 55 1;
#X connect 58 0 54 1;
#X connect 58 0 53 1;
#X connect 58 0 52 1;
#X connect 58 0 51 1;
#X connect 58 0 50 1;
#X connect 58 0 49 1;
#X connect 58 0 48 1;
#X connect 58 0 47 1;
#X connect 58 0 46 1;
#X connect 58 0 45 1;
#X connect 58 0 44 1;
#X connect 58 0 43 1;
#X connect 58 0 41 1;
#X connect 58 0 40 1;
#X connect 58 0 39 1;
#X connect 58 0 38 1;
#X connect 58 0 37 1;
#X connect 58 0 36 1;
#X connect 58 0 35 1;
#X connect 58 0 34 1;
#X connect 58 0 33 1;
#X connect 58 0 32 1;
#X connect 58 0 31 1;
#X connect 58 0 30 1;
#X connect 58 0 29 1;
#X connect 58 0 42 1;
#X connect 59 0 58 0;
#X connect 60 0 62 0;
#X connect 61 0 62 0;
#X connect 62 0 94 0;
#X connect 62 1 59 1;
#X connect 92 0 94 0;
#X connect 94 0 59 0;
#X connect 95 0 92 0;
#X coords 0 -1 1 1 400 50 1 20 20;
