#N canvas 375 76 1002 640 10;
#X obj 408 13 cnv 15 380 60 empty empty empty 20 12 0 14 -262130 -66577
0;
#X text 422 32 Cos-sin law panner. The instantiation argument is the
address for sending parameter messages.;
#X obj 89 242 tgl 15 0 empty empty empty 17 7 0 10 -262144 -1 -1 0
1;
#X msg 89 267 \; pd dsp \$1;
#X obj 438 371 vu 15 80 empty empty -1 -8 0 7 -66577 -1 1 0;
#X obj 437 321 env~;
#X obj 437 345 - 100;
#X obj 494 372 vu 15 80 empty empty -1 -8 0 7 -66577 -1 1 0;
#X obj 493 322 env~;
#X obj 493 346 - 100;
#X obj 548 371 vu 15 80 empty empty -1 -8 0 7 -66577 -1 1 0;
#X obj 547 321 env~;
#X obj 547 345 - 100;
#X obj 604 372 vu 15 80 empty empty -1 -8 0 7 -66577 -1 1 0;
#X obj 603 322 env~;
#X obj 603 346 - 100;
#X msg 713 344 \; p1 /x \$1;
#X msg 876 403 \; p1 /y \$1;
#X floatatom 713 314 5 0 0 0 - - -;
#X floatatom 876 381 5 0 0 0 - - -;
#X obj 716 224 hsl 128 15 0 1 0 0 empty empty empty -2 -8 0 10 -262144
-1 -1 0 1;
#X obj 876 220 vsl 15 128 0 1 0 0 empty empty empty 0 -9 0 10 -262144
-1 -1 0 1;
#X obj 240 130 ps.4pan~ p1;
#X obj 876 354 ps.!- 1;
#X obj 231 99 *~ 0.05;
#X obj 231 70 noise~;
#X text 420 17 [ps.4pan~];
#X obj 34 526 ps.29dac~;
#X obj 34 447 ps.29gain~;
#X connect 2 0 3 0;
#X connect 5 0 6 0;
#X connect 6 0 4 0;
#X connect 8 0 9 0;
#X connect 9 0 7 0;
#X connect 11 0 12 0;
#X connect 12 0 10 0;
#X connect 14 0 15 0;
#X connect 15 0 13 0;
#X connect 18 0 16 0;
#X connect 19 0 17 0;
#X connect 20 0 18 0;
#X connect 21 0 23 0;
#X connect 22 0 5 0;
#X connect 22 0 28 13;
#X connect 22 1 8 0;
#X connect 22 1 28 14;
#X connect 22 2 11 0;
#X connect 22 2 28 15;
#X connect 22 3 14 0;
#X connect 22 3 28 12;
#X connect 22 3 28 16;
#X connect 23 0 19 0;
#X connect 24 0 22 0;
#X connect 25 0 24 0;
#X connect 28 0 27 0;
#X connect 28 1 27 1;
#X connect 28 2 27 2;
#X connect 28 3 27 3;
#X connect 28 4 27 4;
#X connect 28 5 27 5;
#X connect 28 6 27 6;
#X connect 28 7 27 7;
#X connect 28 8 27 8;
#X connect 28 9 27 9;
#X connect 28 10 27 10;
#X connect 28 11 27 11;
#X connect 28 12 27 12;
#X connect 28 13 27 13;
#X connect 28 14 27 14;
#X connect 28 15 27 15;
#X connect 28 16 27 16;
#X connect 28 17 27 17;
#X connect 28 18 27 18;
#X connect 28 19 27 19;
#X connect 28 20 27 20;
#X connect 28 21 27 21;
#X connect 28 22 27 22;
#X connect 28 23 27 23;
#X connect 28 24 27 24;
#X connect 28 25 27 25;
#X connect 28 26 27 26;
#X connect 28 27 27 27;
#X connect 28 28 27 28;
