#N canvas 124 42 1556 724 10;
#X obj 201 699 outlet~;
#X obj 304 699 outlet~;
#X obj 88 338 cnv 15 75 25 empty empty empty 20 12 0 14 -262130 -66577
0;
#X text 94 340 [s3g 2015];
#X obj 252 699 outlet~;
#X obj 356 699 outlet~;
#X obj 202 106 inlet~;
#X obj 204 564 *~;
#X obj 253 564 *~;
#X obj 303 564 *~;
#X obj 352 564 *~;
#X obj 472 312 sin;
#X obj 403 312 cos;
#X obj 403 219 * 2;
#X obj 403 243 / 4;
#X obj 403 265 * 3.14159;
#X floatatom 403 287 5 0 0 0 - - -;
#X obj 472 367 line~;
#X obj 403 367 line~;
#X obj 670 312 sin;
#X obj 579 312 cos;
#X obj 579 219 * 2;
#X obj 579 244 / 4;
#X obj 579 266 * 3.14159;
#X floatatom 579 288 5 0 0 0 - - -;
#X obj 670 367 line~;
#X obj 579 367 line~;
#X obj 480 95 inlet;
#X obj 522 95 r \$1;
#X obj 403 335 pack f 20;
#X obj 472 335 pack f 20;
#X obj 579 335 pack f 20;
#X obj 670 335 pack f 20;
#X obj 480 123 route /x /y;
#X obj 183 425 *~;
#X obj 276 427 *~;
#X connect 6 0 34 0;
#X connect 6 0 35 0;
#X connect 7 0 0 0;
#X connect 8 0 4 0;
#X connect 9 0 1 0;
#X connect 10 0 5 0;
#X connect 11 0 30 0;
#X connect 12 0 29 0;
#X connect 13 0 14 0;
#X connect 14 0 15 0;
#X connect 15 0 16 0;
#X connect 16 0 11 0;
#X connect 16 0 12 0;
#X connect 17 0 8 1;
#X connect 17 0 10 1;
#X connect 18 0 7 1;
#X connect 18 0 9 1;
#X connect 19 0 32 0;
#X connect 20 0 31 0;
#X connect 21 0 22 0;
#X connect 22 0 23 0;
#X connect 23 0 24 0;
#X connect 24 0 19 0;
#X connect 24 0 20 0;
#X connect 25 0 35 1;
#X connect 26 0 34 1;
#X connect 27 0 33 0;
#X connect 28 0 33 0;
#X connect 29 0 18 0;
#X connect 30 0 17 0;
#X connect 31 0 26 0;
#X connect 32 0 25 0;
#X connect 33 0 13 0;
#X connect 33 1 21 0;
#X connect 34 0 7 0;
#X connect 34 0 8 0;
#X connect 35 0 9 0;
#X connect 35 0 10 0;
#X coords 0 724 1 723 100 50 0;
