#N canvas 179 115 1362 702 10;
#X obj 102 351 outlet~;
#X obj 892 41 inlet;
#X obj 102 301 *~;
#X floatatom 892 91 5 0 0 0 - - -;
#X obj 211 351 outlet~;
#X obj 211 297 *~;
#N canvas 0 22 450 300 pan 0;
#X obj 118 228 outlet;
#X obj 118 97 inlet;
#X obj 118 200 tabread pancurve;
#X obj 118 148 + 375;
#X obj 118 175 mod 1000;
#X connect 1 0 3 0;
#X connect 2 0 0 0;
#X connect 3 0 4 0;
#X connect 4 0 2 0;
#X restore 226 189 pd pan;
#N canvas 0 22 450 300 pan 0;
#X obj 118 228 outlet;
#X obj 118 97 inlet;
#X obj 118 200 tabread pancurve;
#X obj 118 148 + 500;
#X obj 118 175 mod 1000;
#X connect 1 0 3 0;
#X connect 2 0 0 0;
#X connect 3 0 4 0;
#X connect 4 0 2 0;
#X restore 117 189 pd pan;
#X obj 314 351 outlet~;
#X obj 314 301 *~;
#X obj 423 351 outlet~;
#X obj 423 297 *~;
#N canvas 0 22 450 300 pan 0;
#X obj 118 228 outlet;
#X obj 118 97 inlet;
#X obj 118 200 tabread pancurve;
#X obj 118 175 mod 1000;
#X obj 118 148 + 125;
#X connect 1 0 4 0;
#X connect 2 0 0 0;
#X connect 3 0 2 0;
#X connect 4 0 3 0;
#X restore 438 189 pd pan;
#N canvas 0 22 450 300 pan 0;
#X obj 118 228 outlet;
#X obj 118 97 inlet;
#X obj 118 200 tabread pancurve;
#X obj 118 148 + 250;
#X obj 118 175 mod 1000;
#X connect 1 0 3 0;
#X connect 2 0 0 0;
#X connect 3 0 4 0;
#X connect 4 0 2 0;
#X restore 329 189 pd pan;
#X obj 533 351 outlet~;
#X obj 533 301 *~;
#X obj 642 351 outlet~;
#X obj 642 301 *~;
#N canvas 0 22 450 300 pan 0;
#X obj 118 228 outlet;
#X obj 118 97 inlet;
#X obj 118 200 tabread pancurve;
#X obj 118 148 + 875;
#X obj 118 175 mod 1000;
#X connect 1 0 3 0;
#X connect 2 0 0 0;
#X connect 3 0 4 0;
#X connect 4 0 2 0;
#X restore 657 189 pd pan;
#N canvas 0 22 450 300 pan 0;
#X obj 118 228 outlet;
#X obj 118 97 inlet;
#X obj 118 148 + 0;
#X obj 118 200 tabread pancurve;
#X obj 118 175 mod 1000;
#X connect 1 0 2 0;
#X connect 2 0 4 0;
#X connect 3 0 0 0;
#X connect 4 0 3 0;
#X restore 548 189 pd pan;
#X obj 763 351 outlet~;
#X obj 763 301 *~;
#X obj 877 351 outlet~;
#X obj 877 301 *~;
#N canvas 0 22 450 300 pan 0;
#X obj 118 228 outlet;
#X obj 118 97 inlet;
#X obj 118 200 tabread pancurve;
#X obj 118 175 mod 1000;
#X obj 118 148 + 625;
#X connect 1 0 4 0;
#X connect 2 0 0 0;
#X connect 3 0 2 0;
#X connect 4 0 3 0;
#X restore 892 189 pd pan;
#N canvas 0 22 450 300 pan 0;
#X obj 118 228 outlet;
#X obj 118 97 inlet;
#X obj 118 200 tabread pancurve;
#X obj 118 148 + 750;
#X obj 118 175 mod 1000;
#X connect 1 0 3 0;
#X connect 2 0 0 0;
#X connect 3 0 4 0;
#X connect 4 0 2 0;
#X restore 778 189 pd pan;
#X obj 892 69 * 1000;
#X obj 102 28 inlet~;
#X obj 892 262 line~;
#X msg 892 236 \$1 20;
#X obj 778 262 line~;
#X msg 778 236 \$1 20;
#X obj 657 262 line~;
#X msg 657 236 \$1 20;
#X obj 548 262 line~;
#X msg 548 236 \$1 20;
#X obj 438 262 line~;
#X msg 438 236 \$1 20;
#X obj 329 262 line~;
#X msg 329 236 \$1 20;
#X obj 226 262 line~;
#X msg 226 236 \$1 20;
#X obj 117 262 line~;
#X msg 117 236 \$1 20;
#X connect 1 0 26 0;
#X connect 2 0 0 0;
#X connect 3 0 6 0;
#X connect 3 0 7 0;
#X connect 3 0 13 0;
#X connect 3 0 12 0;
#X connect 3 0 19 0;
#X connect 3 0 18 0;
#X connect 3 0 25 0;
#X connect 3 0 24 0;
#X connect 5 0 4 0;
#X connect 6 0 41 0;
#X connect 7 0 43 0;
#X connect 9 0 8 0;
#X connect 11 0 10 0;
#X connect 12 0 37 0;
#X connect 13 0 39 0;
#X connect 15 0 14 0;
#X connect 17 0 16 0;
#X connect 18 0 33 0;
#X connect 19 0 35 0;
#X connect 21 0 20 0;
#X connect 23 0 22 0;
#X connect 24 0 29 0;
#X connect 25 0 31 0;
#X connect 26 0 3 0;
#X connect 27 0 2 0;
#X connect 27 0 5 0;
#X connect 27 0 9 0;
#X connect 27 0 11 0;
#X connect 27 0 15 0;
#X connect 27 0 17 0;
#X connect 27 0 21 0;
#X connect 27 0 23 0;
#X connect 28 0 23 1;
#X connect 29 0 28 0;
#X connect 30 0 21 1;
#X connect 31 0 30 0;
#X connect 32 0 17 1;
#X connect 33 0 32 0;
#X connect 34 0 15 1;
#X connect 35 0 34 0;
#X connect 36 0 11 1;
#X connect 37 0 36 0;
#X connect 38 0 9 1;
#X connect 39 0 38 0;
#X connect 40 0 5 1;
#X connect 41 0 40 0;
#X connect 42 0 2 1;
#X connect 43 0 42 0;
