#N canvas 415 67 631 470 10;
#X obj 288 71 inlet;
#X obj 288 102 unpack f f f f;
#X obj 288 206 +;
#X obj 288 239 +;
#X obj 288 272 +;
#X obj 288 342 / 4;
#X obj 288 373 outlet;
#X connect 0 0 1 0;
#X connect 1 0 2 0;
#X connect 1 1 2 1;
#X connect 1 2 3 1;
#X connect 1 3 4 1;
#X connect 2 0 3 0;
#X connect 3 0 4 0;
#X connect 4 0 5 0;
#X connect 5 0 6 0;
