#N canvas 320 23 648 409 12;
#X obj 152 38 inlet~;
#X obj 168 281 outlet~;
#X obj 268 43 inlet;
#X obj 336 43 inlet;
#X obj 159 133 bp~ 220 20;
#X obj 169 172 bp~ 220 20;
#X obj 178 207 bp~ 220 20;
#X connect 0 0 4 0;
#X connect 2 0 4 1;
#X connect 2 0 5 1;
#X connect 2 0 6 1;
#X connect 3 0 4 2;
#X connect 3 0 5 2;
#X connect 3 0 6 2;
#X connect 4 0 5 0;
#X connect 5 0 6 0;
#X connect 6 0 1 0;
