#N canvas 0 23 905 536 10;
#X obj 157 182 tgl 15 0 empty empty empty 17 7 0 10 -262144 -1 -1 1
1;
#X floatatom 208 182 5 0 0 0 - - -;
#X floatatom 157 447 5 0 0 0 - - -;
#X obj 157 214 metro 200;
#X msg 461 220 \; k2 /reset \; k2 /scale 1 \; k2 /offset 0 \; k2 /loop
1 \; k2 /loopPoint 20;
#X msg 586 220 \; k2 /reset \; k2 /scale 10 \; k2 /offset 0 \; k2 /loop
1 \; k2 /loopPoint 50;
#X msg 718 221 \; k2 /reset \; k2 /scale 10 \; k2 /offset 2 \; k2 /loop
1 \; k2 /loopPoint 60;
#X obj 461 171 loadbang;
#X obj 135 28 cnv 15 380 100 empty empty empty 20 12 0 14 -262130 -66577
0;
#X text 149 47 A basic counter made with addition plus scale \, offset
\, and looping. It takes a bang in the left inlet (e.g. use with a
metro). The instantiation argument is the address for sending parameter
messages.;
#X obj 157 245 ps.counter k2;
#X text 147 32 [ps.counter];
#X connect 0 0 3 0;
#X connect 1 0 3 1;
#X connect 3 0 10 0;
#X connect 7 0 4 0;
#X connect 10 0 2 0;
