#N canvas 410 337 903 767 12;
#X obj 183 131 ps.clock c1;
#X obj 585 44 tgl 15 0 empty empty empty 17 7 0 10 -262144 -1 -1 0
1;
#X msg 585 69 \; c1 /start \$1;
#X msg 585 111 \; c1 /reset;
#X msg 585 175 \; c1 /bpm \$1;
#X floatatom 585 153 5 0 0 0 - - -;
#X floatatom 585 216 5 0 0 0 - - -;
#X msg 585 238 \; c1 /beats \$1;
#X floatatom 183 313 5 0 0 1 bars - -;
#X floatatom 326 313 5 0 0 1 beats - -;
#X obj 183 46 tgl 15 0 empty empty empty 17 7 0 10 -262144 -1 -1 0
1;
#X msg 183 72 /start \$1;
#X msg 263 72 /reset;
#X msg 323 71 /bpm \$1;
#X floatatom 323 44 5 0 0 0 - - -;
#X floatatom 395 43 5 0 0 0 - - -;
#X msg 395 70 /beats \$1;
#X obj 326 389 bng 15 250 50 0 empty empty empty 17 7 0 10 -262144
-1 -1;
#X obj 346 389 bng 15 250 50 0 empty empty empty 17 7 0 10 -262144
-1 -1;
#X obj 367 389 bng 15 250 50 0 empty empty empty 17 7 0 10 -262144
-1 -1;
#X obj 388 389 bng 15 250 50 0 empty empty empty 17 7 0 10 -262144
-1 -1;
#X obj 326 350 select 1 2 3 4 5 6 7 8 9 10 11 12 13 14 15 16, f 48
;
#X obj 409 389 bng 15 250 50 0 empty empty empty 17 7 0 10 -262144
-1 -1;
#X obj 430 389 bng 15 250 50 0 empty empty empty 17 7 0 10 -262144
-1 -1;
#X obj 450 389 bng 15 250 50 0 empty empty empty 17 7 0 10 -262144
-1 -1;
#X obj 471 389 bng 15 250 50 0 empty empty empty 17 7 0 10 -262144
-1 -1;
#X obj 492 389 bng 15 250 50 0 empty empty empty 17 7 0 10 -262144
-1 -1;
#X obj 513 389 bng 15 250 50 0 empty empty empty 17 7 0 10 -262144
-1 -1;
#X obj 534 389 bng 15 250 50 0 empty empty empty 17 7 0 10 -262144
-1 -1;
#X obj 554 389 bng 15 250 50 0 empty empty empty 17 7 0 10 -262144
-1 -1;
#X obj 575 389 bng 15 250 50 0 empty empty empty 17 7 0 10 -262144
-1 -1;
#X obj 596 389 bng 15 250 50 0 empty empty empty 17 7 0 10 -262144
-1 -1;
#X obj 617 389 bng 15 250 50 0 empty empty empty 17 7 0 10 -262144
-1 -1;
#X obj 638 389 bng 15 250 50 0 empty empty empty 17 7 0 10 -262144
-1 -1;
#X obj 183 389 bng 15 250 50 0 empty empty empty 17 7 0 10 -262144
-1 -1;
#X obj 204 389 bng 15 250 50 0 empty empty empty 17 7 0 10 -262144
-1 -1;
#X obj 226 389 bng 15 250 50 0 empty empty empty 17 7 0 10 -262144
-1 -1;
#X obj 248 389 bng 15 250 50 0 empty empty empty 17 7 0 10 -262144
-1 -1;
#X obj 183 350 select 1 2 3 4 5;
#X msg 270 421 \; c1 /reset;
#X obj 270 390 bng 15 250 50 0 empty empty empty 17 7 0 10 -262144
-1 -1;
#X obj 56 475 == 2;
#X obj 56 503 tgl 15 0 empty empty empty 17 7 0 10 -262144 -1 -1 0
1;
#X obj 102 475 == 2;
#X obj 102 503 tgl 15 0 empty empty empty 17 7 0 10 -262144 -1 -1 0
1;
#X obj 56 529 &&, f 7;
#X obj 56 553 tgl 15 0 empty empty empty 17 7 0 10 -262144 -1 -1 0
1;
#X obj 56 579 sel 1;
#X text 144 518 matching a bar and beat pair;
#X obj 56 613 bng 15 250 50 0 empty empty empty 17 7 0 10 -262144 -1
-1;
#X obj 414 469 cnv 15 180 50 empty empty empty 20 12 0 14 -262130 -66577
0;
#X text 426 473 [ps.clock];
#X text 428 489 A musical metronome;
#X connect 0 0 8 0;
#X connect 0 1 9 0;
#X connect 1 0 2 0;
#X connect 5 0 4 0;
#X connect 6 0 7 0;
#X connect 8 0 38 0;
#X connect 8 0 41 0;
#X connect 9 0 21 0;
#X connect 9 0 43 0;
#X connect 10 0 11 0;
#X connect 11 0 0 0;
#X connect 12 0 0 0;
#X connect 13 0 0 0;
#X connect 14 0 13 0;
#X connect 15 0 16 0;
#X connect 16 0 0 0;
#X connect 21 0 17 0;
#X connect 21 1 18 0;
#X connect 21 2 19 0;
#X connect 21 3 20 0;
#X connect 21 4 22 0;
#X connect 21 5 23 0;
#X connect 21 6 24 0;
#X connect 21 7 25 0;
#X connect 21 8 26 0;
#X connect 21 9 27 0;
#X connect 21 10 28 0;
#X connect 21 11 29 0;
#X connect 21 12 30 0;
#X connect 21 13 31 0;
#X connect 21 14 32 0;
#X connect 21 15 33 0;
#X connect 38 0 34 0;
#X connect 38 1 35 0;
#X connect 38 2 36 0;
#X connect 38 3 37 0;
#X connect 38 4 40 0;
#X connect 40 0 39 0;
#X connect 41 0 42 0;
#X connect 42 0 45 0;
#X connect 43 0 44 0;
#X connect 44 0 45 1;
#X connect 45 0 46 0;
#X connect 46 0 47 0;
#X connect 47 0 49 0;
