#N canvas 53 23 812 785 12;
#X obj 198 334 metro 500, f 11;
#X obj 110 138 tgl 30 0 empty empty start_stop 32 15 0 10 -262144 -1
-1 0 1;
#X obj 325 376 + 1;
#X floatatom 198 418 0 0 0 0 - - -;
#X text 68 417 Total Beat Count;
#X obj 198 466 div 4;
#X obj 360 466 mod 4;
#X floatatom 360 534 0 0 0 0 - - -;
#X floatatom 198 534 0 0 0 0 - - -;
#X obj 198 376 f 1;
#X msg 320 334 1;
#X obj 198 504 + 1;
#X obj 360 504 + 1;
#X text 368 333 Reset;
#X text 112 533 Bar number;
#X text 313 417 Beat Count;
#X floatatom 392 418 0 0 0 0 - - -;
#X text 408 533 How many beats per bar?;
#X obj 272 241 expr 1000/($f1/60);
#X floatatom 272 214 5 0 0 0 - - -;
#X floatatom 272 267 5 0 0 0 - - -;
#X obj 110 175 bng 15 250 50 0 empty empty reset 17 7 0 10 -262144
-1 -1;
#X floatatom 110 197 5 0 0 1 bpm - -;
#X floatatom 110 222 5 0 0 1 beats_per_bar - -;
#X obj 197 605 outlet;
#X obj 360 606 outlet;
#X text 419 503 <- using div and mod for a musical metronome;
#X obj 522 18 loadbang;
#X msg 522 81 120;
#X obj 522 44 t b b, f 7;
#X msg 568 81 16;
#X obj 109 12 inlet;
#X obj 164 12 r \$1;
#X obj 109 42 route /start /reset /bpm /beats;
#X connect 0 0 9 0;
#X connect 1 0 0 0;
#X connect 2 0 9 1;
#X connect 3 0 5 0;
#X connect 3 0 6 0;
#X connect 5 0 11 0;
#X connect 6 0 12 0;
#X connect 7 0 25 0;
#X connect 8 0 24 0;
#X connect 9 0 2 0;
#X connect 9 0 3 0;
#X connect 10 0 9 1;
#X connect 11 0 8 0;
#X connect 12 0 7 0;
#X connect 16 0 6 1;
#X connect 16 0 5 1;
#X connect 18 0 20 0;
#X connect 19 0 18 0;
#X connect 20 0 0 1;
#X connect 21 0 10 0;
#X connect 22 0 19 0;
#X connect 23 0 16 0;
#X connect 27 0 29 0;
#X connect 28 0 22 0;
#X connect 29 0 28 0;
#X connect 29 1 30 0;
#X connect 30 0 23 0;
#X connect 31 0 33 0;
#X connect 32 0 33 0;
#X connect 33 0 1 0;
#X connect 33 1 21 0;
#X connect 33 2 22 0;
#X connect 33 3 23 0;
#X coords 0 -1 1 1 150 150 1 100 100;
