#N canvas 662 114 702 551 10;
#X obj 380 402 dac~, f 12;
#X obj 380 304 *~ 0.5;
#X obj 378 91 inlet~, f 9;
#X obj 379 230 *~;
#X obj 28 54 hsl 135 15 0 1 0 0 empty empty volume 50 8 0 10 -262130
-4160 -1 0 1;
#X obj 328 14 r \$1;
#X obj 229 232 sin;
#X obj 229 165 * 2;
#X obj 229 188 / 4;
#X obj 229 210 * 3.14159;
#X obj 229 257 pack f 20;
#X obj 229 281 line~;
#X obj 449 304 *~ 0.5;
#X obj 448 90 inlet~, f 9;
#X obj 448 230 *~;
#X floatatom 328 69 5 0 0 0 - - -;
#X obj 328 47 route /volume;
#X obj 380 363 clip~ -1 1;
#X obj 449 362 clip~ -1 1;
#X connect 1 0 17 0;
#X connect 2 0 3 0;
#X connect 3 0 1 0;
#X connect 4 0 7 0;
#X connect 5 0 16 0;
#X connect 6 0 10 0;
#X connect 7 0 8 0;
#X connect 8 0 9 0;
#X connect 9 0 6 0;
#X connect 10 0 11 0;
#X connect 11 0 3 1;
#X connect 11 0 14 1;
#X connect 12 0 18 0;
#X connect 13 0 14 0;
#X connect 14 0 12 0;
#X connect 15 0 4 0;
#X connect 16 0 15 0;
#X connect 17 0 0 0;
#X connect 18 0 0 1;
#X coords 0 -1 1 1 150 60 1 20 20;
