#N canvas 522 49 588 553 10;
#X obj 127 185 line~;
#X msg 127 165 \$1 100;
#X obj 127 217 hradio 15 1 0 4 empty empty empty 0 -8 0 10 -262144
-1 -1 3;
#X obj 127 142 / 100;
#X floatatom 127 123 5 0 0 0 - - -;
#X text 192 216 <-- disto mode;
#X obj 46 238 ps.distortion~;
#X obj 141 462 dac~, f 5;
#X obj 222 426 *~;
#X obj 244 359 hsl 128 15 0 1 0 0 empty empty empty -2 -8 0 10 -262144
-1 -1 1800 1;
#X obj 241 401 line~;
#X obj 141 425 *~;
#X msg 241 379 \$1 20;
#X msg 93 59 /rec \$1;
#X obj 93 34 tgl 15 0 empty empty empty 17 7 0 10 -262144 -1 -1 0 1
;
#X obj 149 34 tgl 15 0 empty empty empty 17 7 0 10 -262144 -1 -1 1
1;
#X msg 149 59 /play \$1;
#X floatatom 215 33 5 0 0 0 - - -;
#X obj 31 11 adc~;
#X msg 215 58 /overlap \$1;
#X obj 31 116 ps.loop~;
#X text 257 32 overlap factor in ms;
#X text 171 241 credit: https://github.com/megrimm/pd-fresh;
#X text 164 121 <-- distortion % \, go well above 100 for very distorted!
;
#X connect 0 0 6 1;
#X connect 1 0 0 0;
#X connect 2 0 6 2;
#X connect 3 0 1 0;
#X connect 4 0 3 0;
#X connect 6 0 11 0;
#X connect 6 0 8 0;
#X connect 8 0 7 1;
#X connect 9 0 12 0;
#X connect 10 0 8 1;
#X connect 10 0 11 1;
#X connect 11 0 7 0;
#X connect 12 0 10 0;
#X connect 13 0 20 1;
#X connect 14 0 13 0;
#X connect 15 0 16 0;
#X connect 16 0 20 1;
#X connect 17 0 19 0;
#X connect 18 0 20 0;
#X connect 19 0 20 1;
#X connect 20 0 6 0;
