#N canvas 0 23 1319 638 10;
#X obj 388 362 bob~;
#X obj 386 22 inlet~;
#X obj 389 420 outlet~;
#X obj 604 38 r \$1;
#X obj 563 38 inlet;
#X obj 559 159 route /freq /res;
#X floatatom 660 218 5 0 200 0 - - -;
#X obj 660 240 / 25;
#X text 456 211 scaled to 0-8;
#X text 455 193 0-200 control;
#X obj 659 302 line~;
#X obj 562 261 pack 0 50;
#X obj 562 286 line~;
#X floatatom 561 239 7 0 0 0 - - -;
#X floatatom 660 270 5 0 0 0 - - -;
#X connect 0 0 2 0;
#X connect 1 0 0 0;
#X connect 3 0 5 0;
#X connect 4 0 5 0;
#X connect 5 0 13 0;
#X connect 5 1 6 0;
#X connect 6 0 7 0;
#X connect 7 0 14 0;
#X connect 10 0 0 2;
#X connect 11 0 12 0;
#X connect 12 0 0 1;
#X connect 13 0 11 0;
#X connect 14 0 10 0;
#X coords 0 638 1 637 130 80 0;
