#N canvas 337 56 678 468 10;
#N canvas 0 22 450 300 (subpatch) 0;
#X array array_osc 100 float 0;
#X coords 0 1 99 -1 200 140 1 0 0;
#X restore 430 261 graph;
#X obj 282 314 tgl 30 0 empty empty empty 17 7 0 10 -262144 -1 -1 1
1;
#X text 322 315 <- graph;
#X obj 282 351 metro 50;
#X obj 282 382 tabwrite~ array_osc;
#X obj 503 30 loadbang;
#X obj 60 340 ps.dac-out~;
#X msg 108 57 /carfreq \$1;
#X msg 222 54 /modfreq \$1;
#X msg 311 55 /modindex \$1;
#X msg 343 111 /glide \$1;
#X msg 329 164 /wave \$1;
#X obj 127 159 ps.fm-osc~ hi;
#X floatatom 108 36 5 0 0 0 - - -;
#X floatatom 223 31 5 0 0 0 - - -;
#X floatatom 315 28 5 0 0 0 - - -;
#X floatatom 344 90 5 0 0 0 - - -;
#X floatatom 330 141 5 0 0 0 - - -;
#X msg 503 58 \; hi /carfreq 200 \; hi /modfreq 1 \; hi /modindex 100
\; hi /glide 100 \; hi /wave 0.5;
#X connect 1 0 3 0;
#X connect 3 0 4 0;
#X connect 5 0 18 0;
#X connect 7 0 12 0;
#X connect 8 0 12 0;
#X connect 9 0 12 0;
#X connect 10 0 12 0;
#X connect 11 0 12 0;
#X connect 12 0 4 0;
#X connect 12 0 6 0;
#X connect 12 0 6 1;
#X connect 13 0 7 0;
#X connect 14 0 8 0;
#X connect 15 0 9 0;
#X connect 16 0 10 0;
#X connect 17 0 11 0;
