#N canvas 462 26 784 670 10;
#X floatatom 375 30 5 0 100 0 - - -;
#X text 413 30 <-- 0-100;
#X floatatom 398 80 5 0 100 0 - - -;
#X text 436 80 <-- 0-100;
#X floatatom 424 131 5 0 100 0 - - -;
#X text 462 131 <-- 0-100;
#X floatatom 452 187 5 0 100 0 - - -;
#X text 491 187 <-- 0-100;
#X floatatom 479 237 5 0 100 0 - - -;
#X text 517 237 <-- 0-100;
#X obj 519 292 tgl 15 0 empty empty empty 17 7 0 10 -262144 -1 -1 0
1;
#X obj 150 441 ps.fuzz~;
#X msg 375 56 /pregain \$1;
#X msg 398 106 /clip \$1;
#X msg 424 157 /postgain \$1;
#X msg 452 207 /lopass \$1;
#X msg 479 263 /fuzz \$1;
#X msg 516 316 /difference \$1;
#X msg 73 225 /rec \$1;
#X obj 73 200 tgl 15 0 empty empty empty 17 7 0 10 -262144 -1 -1 0
1;
#X obj 129 200 tgl 15 0 empty empty empty 17 7 0 10 -262144 -1 -1 0
1;
#X msg 129 225 /play \$1;
#X floatatom 195 199 5 0 0 0 - - -;
#X obj 11 177 adc~;
#X msg 195 224 /overlap \$1;
#X obj 11 282 ps.loop~;
#X text 237 198 overlap factor in ms;
#X obj 130 594 dac~, f 5;
#X obj 211 558 *~;
#X obj 233 491 hsl 128 15 0 1 0 0 empty empty empty -2 -8 0 10 -262144
-1 -1 1900 1;
#X obj 230 533 line~;
#X obj 130 557 *~;
#X msg 230 511 \$1 20;
#X text 217 441 credit: https://github.com/megrimm/pd-fresh;
#X connect 0 0 12 0;
#X connect 2 0 13 0;
#X connect 4 0 14 0;
#X connect 6 0 15 0;
#X connect 8 0 16 0;
#X connect 10 0 17 0;
#X connect 11 0 31 0;
#X connect 11 0 28 0;
#X connect 12 0 11 1;
#X connect 13 0 11 1;
#X connect 14 0 11 1;
#X connect 15 0 11 1;
#X connect 16 0 11 1;
#X connect 17 0 11 1;
#X connect 18 0 25 1;
#X connect 19 0 18 0;
#X connect 20 0 21 0;
#X connect 21 0 25 1;
#X connect 22 0 24 0;
#X connect 23 0 25 0;
#X connect 24 0 25 1;
#X connect 25 0 11 0;
#X connect 28 0 27 1;
#X connect 29 0 32 0;
#X connect 30 0 28 1;
#X connect 30 0 31 1;
#X connect 31 0 27 0;
#X connect 32 0 30 0;
