#N canvas 305 23 1070 840 10;
#X text 643 181 modulation frequency;
#X obj 772 246 line~;
#X floatatom 772 181 5 0 0 0 - - -;
#X obj 772 214 pack f 200;
#X obj 771 286 osc~;
#X obj 306 367 line~;
#X obj 306 419 +~;
#X text 195 109 carrier frequency;
#X obj 305 231 pack f 10, f 15;
#X floatatom 305 109 10 0 0 0 - - -;
#X obj 306 690 outlet~;
#X text 845 364 modulation index;
#X floatatom 392 192 5 0 0 0 - - -;
#X text 429 192 glide;
#N canvas 129 62 337 327 squareWave 0;
#X obj 50 230 outlet~;
#X obj 50 46 inlet~;
#X obj 50 137 expr~ $v1 > 0.5;
#X obj 50 173 expr~ $v1 * 2 - 1;
#X connect 1 0 2 0;
#X connect 2 0 3 0;
#X connect 3 0 0 0;
#X restore 375 502 pd squareWave;
#N canvas 0 23 769 642 sawWave 0;
#X obj 452 351 *~ 2;
#X obj 452 394 -~ 1;
#X obj 457 271 inlet~;
#X obj 453 492 outlet~;
#X connect 0 0 1 0;
#X connect 1 0 3 0;
#X connect 2 0 0 0;
#X restore 306 502 pd sawWave;
#N canvas 0 23 447 379 crossfade 0;
#X obj 158 33 inlet~;
#X obj 202 33 inlet;
#X obj 161 255 *~;
#X text 203 14 crossfade;
#X obj 70 33 inlet~;
#X obj 73 255 *~;
#X obj 146 284 +~;
#X obj 146 313 outlet~;
#X obj 177 187 sin;
#X obj 84 185 cos;
#X text 68 15 1;
#X text 159 14 2;
#X obj 202 58 * 2;
#X obj 202 124 / 4;
#X obj 202 146 * 3.14159;
#X floatatom 202 168 5 0 0 0 - - -;
#X msg 176 208 \$1 60;
#X obj 176 230 line~;
#X msg 84 208 \$1 60;
#X obj 85 232 line~;
#X connect 0 0 2 0;
#X connect 1 0 12 0;
#X connect 2 0 6 1;
#X connect 4 0 5 0;
#X connect 5 0 6 0;
#X connect 6 0 7 0;
#X connect 8 0 16 0;
#X connect 9 0 18 0;
#X connect 12 0 13 0;
#X connect 13 0 14 0;
#X connect 14 0 15 0;
#X connect 15 0 8 0;
#X connect 15 0 9 0;
#X connect 16 0 17 0;
#X connect 17 0 2 1;
#X connect 18 0 19 0;
#X connect 19 0 5 1;
#X restore 306 560 pd crossfade;
#X f 24;
#X floatatom 460 527 5 0 0 0 - - -;
#X obj 306 452 phasor~;
#X obj 460 501 line;
#X msg 460 479 \$1 50;
#X obj 392 66 line;
#X msg 392 44 \$1 50;
#X obj 718 -48 r \$1;
#X obj 718 -12 route /carfreq /modfreq /modindex /glide /wave;
#X obj 681 -48 inlet;
#X obj 827 128 line~;
#X obj 827 96 pack f 200;
#X obj 772 365 *~, f 10;
#X floatatom 392 19 5 0 0 0 - - -;
#X floatatom 460 457 5 0 0 0 - - -;
#X floatatom 827 43 5 0 0 0 - - -;
#X obj 306 630 *~ 0.5;
#X obj 460 432 clip 0 1;
#X connect 1 0 4 0;
#X connect 2 0 3 0;
#X connect 3 0 1 0;
#X connect 4 0 28 0;
#X connect 5 0 6 0;
#X connect 6 0 18 0;
#X connect 8 0 5 0;
#X connect 9 0 8 0;
#X connect 12 0 8 1;
#X connect 14 0 16 1;
#X connect 15 0 16 0;
#X connect 16 0 32 0;
#X connect 17 0 16 2;
#X connect 18 0 14 0;
#X connect 18 0 15 0;
#X connect 19 0 17 0;
#X connect 20 0 19 0;
#X connect 21 0 12 0;
#X connect 22 0 21 0;
#X connect 23 0 24 0;
#X connect 24 0 9 0;
#X connect 24 1 2 0;
#X connect 24 2 31 0;
#X connect 24 3 29 0;
#X connect 24 4 33 0;
#X connect 25 0 24 0;
#X connect 26 0 28 1;
#X connect 27 0 26 0;
#X connect 28 0 6 1;
#X connect 29 0 22 0;
#X connect 30 0 20 0;
#X connect 31 0 27 0;
#X connect 32 0 10 0;
#X connect 33 0 30 0;
#X coords 0 840 1 839 130 80 0;
