#N canvas 236 118 450 449 12;
#X obj 150 74 noise~;
#X obj 155 230 *~ 0.4;
#X obj 155 296 dac~;
#X floatatom 258 92 5 0 0 1 frequency - -;
#X obj 151 128 ps.highpass~;
#X obj 257 39 loadbang;
#X msg 259 65 2000;
#X connect 0 0 4 0;
#X connect 1 0 2 0;
#X connect 1 0 2 1;
#X connect 3 0 4 1;
#X connect 4 0 1 0;
#X connect 5 0 6 0;
#X connect 6 0 3 0;
