#N canvas 0 23 450 300 12;
#X obj 152 38 inlet~;
#X obj 182 250 outlet~;
#X obj 268 43 inlet;
#X obj 159 133 hip~;
#X obj 176 170 hip~;
#X obj 194 206 hip~;
#X connect 0 0 3 0;
#X connect 2 0 3 1;
#X connect 2 0 4 1;
#X connect 2 0 5 1;
#X connect 3 0 4 0;
#X connect 4 0 5 0;
#X connect 5 0 1 0;
