#N canvas -86 23 1139 552 12;
#X obj 19 453 n;
#X obj 19 477;
#X obj 522 255 t b f;
#X obj 526 328 f;
#X obj 484 176 bng 15 250 50 0 empty empty empty 17 7 0 10 -262144
-1 -1;
#X obj 583 301 +;
#X floatatom 526 372 5 0 0 0 - - -;
#X obj 630 298 f;
#X obj 621 233 t f f;
#X floatatom 624 195 5 0 0 0 - - -;
#X msg 520 169 1;
#X msg 560 172 -1;
#X obj 551 60 inlet;
#X obj 551 98 route /inc /dec /start /mod;
#X obj 527 415 mod 10;
#X floatatom 527 452 5 0 0 0 - - -;
#X obj 529 501 outlet;
#X connect 0 0 1 0;
#X connect 2 0 3 0;
#X connect 2 1 5 0;
#X connect 3 0 6 0;
#X connect 4 0 2 0;
#X connect 5 0 3 1;
#X connect 5 0 7 0;
#X connect 6 0 14 0;
#X connect 7 0 5 1;
#X connect 8 0 3 1;
#X connect 8 1 7 0;
#X connect 9 0 8 0;
#X connect 10 0 2 0;
#X connect 11 0 2 0;
#X connect 12 0 13 0;
#X connect 13 0 10 0;
#X connect 13 1 11 0;
#X connect 13 2 9 0;
#X connect 13 3 14 1;
#X connect 14 0 15 0;
#X connect 15 0 16 0;
