#N canvas 453 194 685 392 10;
#X obj 231 301 clip~ -1 1;
#X obj 231 271 hip~ 1;
#X obj 149 302 clip~ -1 1;
#X obj 149 272 hip~ 1;
#X obj 149 41 inlet~;
#X obj 231 41 inlet~;
#X obj 149 350 outlet~;
#X obj 231 350 outlet~;
#X text 304 301 < clip out of range samples;
#X text 280 271 < remove dc bias (pass frequencies above 1 Hz);
#X connect 0 0 7 0;
#X connect 1 0 0 0;
#X connect 2 0 6 0;
#X connect 3 0 2 0;
#X connect 4 0 3 0;
#X connect 5 0 1 0;
