#N canvas 204 189 1216 838 10;
#X msg 32 387 \; pd dsp 0;
#X msg 97 387 \; pd dsp 1;
#X obj 121 30 cnv 15 380 60 empty empty empty 20 12 0 14 -262130 -66577
0;
#X text 135 49 Just in case. Use pre-dac~ to prevent clipping and dc
bias.;
#N canvas 0 22 450 300 (subpatch) 0;
#X array displaysignal_postdc 100 float 0;
#X coords 0 1 99 -1 200 140 1;
#X restore 595 386 graph;
#X obj 326 225 metro 100;
#X obj 326 198 tgl 15 0 empty empty empty 17 7 0 10 -262144 -1 -1 0
1;
#N canvas 0 22 450 300 (subpatch) 0;
#X array displaysignal_predc 100 float 0;
#X coords 0 1 99 -1 200 140 1;
#X restore 594 150 graph;
#X text 573 278 -1;
#X text 579 139 1;
#X obj 320 345 tabwrite~ displaysignal_predc;
#X obj 359 448 tabwrite~ displaysignal_preclip;
#N canvas 0 22 450 300 (subpatch) 0;
#X array displaysignal_preclip 100 float 0;
#X coords 0 1 99 -1 200 140 1;
#X restore 799 150 graph;
#X obj 342 471 tabwrite~ displaysignal_postclip;
#N canvas 0 22 450 300 (subpatch) 0;
#X array displaysignal_postclip 100 float 0;
#X coords 0 1 99 -1 200 140 1;
#X restore 800 386 graph;
#X text 573 514 -1;
#X text 579 375 1;
#X obj 325 368 tabwrite~ displaysignal_postdc;
#X obj 325 258 t b b b b;
#X obj 293 110 phasor~ 440;
#X obj 113 348 dac~;
#X obj 218 110 phasor~ 40;
#X obj 245 197 +~;
#X obj 245 226 *~ 1.5;
#X text 133 34 [ps.jic~];
#X obj 113 295 ps.jic~;
#X connect 5 0 18 0;
#X connect 6 0 5 0;
#X connect 18 0 17 0;
#X connect 18 1 13 0;
#X connect 18 2 11 0;
#X connect 18 3 10 0;
#X connect 19 0 22 1;
#X connect 21 0 22 0;
#X connect 22 0 10 0;
#X connect 22 0 23 0;
#X connect 22 0 25 0;
#X connect 23 0 11 0;
#X connect 23 0 25 1;
#X connect 25 0 17 0;
#X connect 25 1 13 0;
