#N canvas 310 50 1302 757 10;
#X obj 333 -5 inlet;
#X obj 547 717 outlet~;
#X obj 688 513 +~ 0.5;
#X obj 688 488 *~ -0.5;
#X obj 688 462 cos~;
#X obj 105 93 inlet~;
#X msg 310 489 start;
#X msg 367 489 stop;
#X obj 264 550 tabwrite~ \$0-looper;
#X obj 353 324 s \$0-looper;
#X msg 353 298 const 0;
#X obj 547 440 vline~;
#X obj 547 356 f;
#X obj 547 296 bng 15 250 50 0 empty empty empty 17 7 0 10 -262144
-1 -1;
#X obj 334 171 tgl 40 0 empty empty empty 17 7 0 10 -262144 -1 -1 0
1;
#X obj 334 225 select 1, f 11;
#X obj 594 92 timer;
#X obj 547 382 pack f f;
#X obj 334 272 t b b b;
#X obj 841 197 * 44.1;
#X floatatom 594 148 15 0 0 0 - - -;
#X floatatom 841 233 15 0 0 0 - - -;
#X obj 334 148 change;
#X obj 547 513 tabread4~ \$0-looper;
#X msg 547 404 0 \, \$1 \$2;
#X msg 744 404 0 0;
#X obj 547 583 *~;
#X obj 688 404 pack 1 f;
#X obj 688 440 vline~;
#X obj 547 326 t b b b;
#X obj 1079 213 tgl 15 0 empty empty empty 17 7 0 10 -262144 -1 -1
0 1;
#X obj 1079 238 metro 200;
#X obj 1079 290 delay;
#X obj 1157 266 * 0.5;
#X floatatom 1129 190 15 0 0 0 - - -;
#X obj 1079 266 bng 15 250 50 0 empty empty empty 17 7 0 10 -262144
-1 -1;
#X obj 547 610 +~;
#X obj 989 513 +~ 0.5;
#X obj 989 488 *~ -0.5;
#X obj 989 462 cos~;
#X obj 848 440 vline~;
#X obj 848 356 f;
#X obj 848 296 bng 15 250 50 0 empty empty empty 17 7 0 10 -262144
-1 -1;
#X obj 848 382 pack f f;
#X obj 848 513 tabread4~ \$0-looper;
#X msg 848 404 0 \, \$1 \$2;
#X msg 1044 404 0 0;
#X obj 848 581 *~;
#X obj 989 404 pack 1 f;
#X obj 989 440 vline~;
#X obj 848 326 t b b b;
#X floatatom 1129 44 15 0 0 0 - - -;
#X obj 1129 120 f;
#X obj 1129 91 t b f, f 6;
#X obj 628 462 - 2;
#X obj 929 462 - 2;
#X obj 1129 169 - 1000;
#X obj 594 123 f;
#X obj 555 88 bng 15 250 50 0 empty empty empty 17 7 0 10 -262144 -1
-1;
#X obj 547 488 clip~ 2 440998;
#X obj 848 488 clip~ 2 440998;
#X obj 264 572 table \$0-looper 441000;
#X obj 594 173 t f f f f f f, f 52;
#X obj 638 258 t f f f f, f 49;
#X obj 1129 212 t f f;
#X obj 397 273 t b b b b;
#X obj 105 176 clip~ -1 1;
#X obj 917 103 f \$0;
#X floatatom 917 124 5 0 0 0 - - -;
#X obj 957 47 loadbang;
#X msg 416 441 \; \$1 normalize;
#X obj 416 412 symbol \$0-looper;
#X obj 416 383 delay 2;
#X obj 547 672 *~;
#X obj 589 644 line~;
#X msg 589 617 \$1 20;
#X msg 952 103 10;
#X obj 1016 101 samplerate~;
#X obj 1016 126 * 0.001;
#X obj 957 70 t b b b;
#X obj 953 202 f;
#X obj 954 257 * 1;
#X floatatom 985 202 5 0 0 1 playback_speed - -;
#X obj 953 225 f;
#X obj 985 229 t b f;
#X floatatom 1034 329 5 0 0 0 - - -;
#X obj 1129 145 * 2;
#X obj 333 22 route /rec /play /overlap;
#X obj 288 -4 r \$1;
#X connect 0 0 87 0;
#X connect 2 0 26 1;
#X connect 3 0 2 0;
#X connect 4 0 3 0;
#X connect 5 0 66 0;
#X connect 6 0 8 0;
#X connect 7 0 8 0;
#X connect 10 0 9 0;
#X connect 11 0 59 0;
#X connect 12 0 17 0;
#X connect 13 0 29 0;
#X connect 14 0 15 0;
#X connect 15 0 18 0;
#X connect 15 1 65 0;
#X connect 16 0 57 0;
#X connect 17 0 24 0;
#X connect 18 0 6 0;
#X connect 18 1 10 0;
#X connect 18 2 16 0;
#X connect 19 0 80 0;
#X connect 20 0 62 0;
#X connect 21 0 63 0;
#X connect 22 0 14 0;
#X connect 23 0 26 0;
#X connect 24 0 11 0;
#X connect 25 0 28 0;
#X connect 26 0 36 0;
#X connect 27 0 28 0;
#X connect 28 0 4 0;
#X connect 29 0 12 0;
#X connect 29 1 27 0;
#X connect 29 2 25 0;
#X connect 30 0 31 0;
#X connect 31 0 35 0;
#X connect 32 0 42 0;
#X connect 33 0 32 1;
#X connect 34 0 64 0;
#X connect 35 0 32 0;
#X connect 35 0 13 0;
#X connect 36 0 73 0;
#X connect 37 0 47 1;
#X connect 38 0 37 0;
#X connect 39 0 38 0;
#X connect 40 0 60 0;
#X connect 41 0 43 0;
#X connect 42 0 50 0;
#X connect 43 0 45 0;
#X connect 44 0 47 0;
#X connect 45 0 40 0;
#X connect 46 0 49 0;
#X connect 47 0 36 1;
#X connect 48 0 49 0;
#X connect 49 0 39 0;
#X connect 50 0 41 0;
#X connect 50 1 48 0;
#X connect 50 2 46 0;
#X connect 51 0 53 0;
#X connect 52 0 86 0;
#X connect 53 0 52 0;
#X connect 53 1 56 1;
#X connect 54 0 59 2;
#X connect 55 0 60 2;
#X connect 56 0 34 0;
#X connect 57 0 20 0;
#X connect 58 0 57 0;
#X connect 59 0 23 0;
#X connect 60 0 44 0;
#X connect 62 0 17 1;
#X connect 62 1 27 1;
#X connect 62 2 43 1;
#X connect 62 3 48 1;
#X connect 62 4 19 0;
#X connect 62 5 85 0;
#X connect 63 0 12 1;
#X connect 63 1 41 1;
#X connect 63 2 54 0;
#X connect 63 3 55 0;
#X connect 64 0 31 1;
#X connect 64 1 33 0;
#X connect 65 1 7 0;
#X connect 65 2 16 1;
#X connect 65 3 72 0;
#X connect 66 0 8 0;
#X connect 67 0 68 0;
#X connect 69 0 79 0;
#X connect 71 0 70 0;
#X connect 72 0 71 0;
#X connect 73 0 1 0;
#X connect 74 0 73 1;
#X connect 75 0 74 0;
#X connect 76 0 51 0;
#X connect 77 0 78 0;
#X connect 78 0 19 1;
#X connect 79 0 67 0;
#X connect 79 1 76 0;
#X connect 79 2 77 0;
#X connect 80 0 83 0;
#X connect 81 0 21 0;
#X connect 82 0 81 1;
#X connect 82 0 84 0;
#X connect 83 0 81 0;
#X connect 84 0 83 0;
#X connect 84 1 81 1;
#X connect 85 0 52 0;
#X connect 86 0 56 0;
#X connect 87 0 22 0;
#X connect 87 1 30 0;
#X connect 87 1 75 0;
#X connect 87 2 51 0;
#X connect 87 3 82 0;
#X connect 88 0 87 0;
