#N canvas 0 23 450 300 12;
#X obj 152 38 inlet~;
#X obj 182 250 outlet~;
#X obj 159 133 lop~;
#X obj 268 43 inlet;
#X obj 172 170 lop~;
#X obj 191 205 lop~;
#X connect 0 0 2 0;
#X connect 2 0 4 0;
#X connect 3 0 2 1;
#X connect 3 0 4 1;
#X connect 3 0 5 1;
#X connect 4 0 5 0;
#X connect 5 0 1 0;
