#N canvas 181 129 1478 630 10;
#X msg 366 67 /rec \$1;
#X obj 366 42 tgl 15 0 empty empty empty 17 7 0 10 -262144 -1 -1 0
1;
#X obj 422 42 tgl 15 0 empty empty empty 17 7 0 10 -262144 -1 -1 0
1;
#X msg 422 67 /play \$1;
#X floatatom 488 41 5 0 0 0 - - -;
#X obj 299 415 dac~;
#X obj 304 19 adc~;
#X msg 488 66 /overlap \$1;
#X text 405 124 10 seconds maximum record time;
#X text 530 40 overlap factor in ms;
#X text 706 135 speed variation not implemented in this example yet
;
#X obj 490 287 delay 5000;
#X obj 488 174 select 1;
#X obj 490 326 t b b, f 6;
#X msg 523 374 0;
#X msg 490 365 1;
#X obj 489 202 t b b;
#X msg 516 233 0, f 4;
#X obj 516 261 send playtog;
#X obj 523 420 send rectog;
#X obj 365 17 receive rectog;
#X obj 455 16 receive playtog;
#X obj 492 446 send playtog;
#X obj 304 304 ps.echo~ ev;
#X msg 32 151 \; ev /wet 1 \; ev /ltime 500 \; ev /lfeedback 0.7 \;
ev /rtime 800 \; ev /rfeedback 0.6 \;;
#X msg 1081 242 \; ev /wet \$1 \;;
#X msg 36 240 \; ev /wet 0.75 \; ev /ltime 100 \; ev /lfeedback 0.9
\; ev /rtime 150 \; ev /rfeedback 0.85 \;;
#X msg 39 335 \; ev /wet 1 \; ev /ltime 1500 \; ev /lfeedback 0.6 \;
ev /rtime 1800 \; ev /rfeedback 0.8 \;;
#X msg 37 427 \; ev /wet 1 \; ev /ltime 2000 \; ev /lfeedback 0.6 \;
ev /rtime 2000 \; ev /rfeedback 0.8 \;;
#X msg 349 272 /wet \$1;
#X floatatom 349 247 5 0 0 0 - - -;
#X obj 352 223 hsl 128 15 0 1 0 0 empty empty empty -2 -8 0 10 -262144
-1 -1 7600 1;
#X floatatom 730 291 5 0 0 0 - - -;
#X obj 732 219 hsl 128 15 0 1 0 0 empty empty empty -2 -8 0 10 -262144
-1 -1 7700 1;
#X obj 730 267 + 50;
#X obj 730 246 * 1950;
#X floatatom 879 289 5 0 0 0 - - -;
#X obj 881 217 hsl 128 15 0 1 0 0 empty empty empty -2 -8 0 10 -262144
-1 -1 8200 1;
#X obj 879 265 + 50;
#X obj 879 244 * 1950;
#X floatatom 731 428 5 0 0 0 - - -;
#X obj 733 356 hsl 128 15 0 1 0 0 empty empty empty -2 -8 0 10 -262144
-1 -1 5800 1;
#X floatatom 880 426 5 0 0 0 - - -;
#X obj 882 354 hsl 128 15 0 1 0 0 empty empty empty -2 -8 0 10 -262144
-1 -1 4600 1;
#X obj 880 381 * 0.99;
#X obj 731 383 * 0.99;
#X obj 1084 213 hsl 128 15 0 1 0 0 empty empty empty -2 -8 0 10 -262144
-1 -1 0 1;
#X obj 1081 183 tgl 15 0 empty empty empty 17 7 0 10 -262144 -1 -1
0 1;
#X msg 730 316 \; ev /ltime \$1 \;;
#X msg 879 314 \; ev /rtime \$1 \;;
#X msg 880 451 \; ev /rfeedback \$1 \;;
#X msg 731 453 \; ev /lfeedback \$1 \;;
#X obj 685 30 tgl 15 0 empty empty empty 17 7 0 10 -262144 -1 -1 0
1;
#X text 887 29 overlap factor in ms;
#X obj 200 125 ps.loop~ hi1;
#X obj 763 30 tgl 15 0 empty empty empty 17 7 0 10 -262144 -1 -1 0
1;
#X floatatom 848 30 5 0 0 0 - - -;
#X obj 200 155 *~ 0.6;
#X obj 304 155 *~ 0.6;
#X msg 685 57 \; hi1 /rec \$1;
#X msg 763 57 \; hi1 /play \$1;
#X msg 848 57 \; hi1 /overlap \$1;
#X obj 304 124 ps.loop~ hi2;
#X connect 0 0 62 1;
#X connect 1 0 0 0;
#X connect 1 0 12 0;
#X connect 2 0 3 0;
#X connect 3 0 62 1;
#X connect 4 0 7 0;
#X connect 6 0 54 0;
#X connect 6 0 62 0;
#X connect 7 0 62 1;
#X connect 11 0 13 0;
#X connect 12 0 16 0;
#X connect 13 0 15 0;
#X connect 13 1 14 0;
#X connect 14 0 19 0;
#X connect 15 0 22 0;
#X connect 16 0 11 0;
#X connect 16 1 17 0;
#X connect 17 0 18 0;
#X connect 20 0 1 0;
#X connect 21 0 2 0;
#X connect 23 0 5 0;
#X connect 23 1 5 1;
#X connect 29 0 23 2;
#X connect 30 0 29 0;
#X connect 31 0 30 0;
#X connect 32 0 48 0;
#X connect 33 0 35 0;
#X connect 34 0 32 0;
#X connect 35 0 34 0;
#X connect 36 0 49 0;
#X connect 37 0 39 0;
#X connect 38 0 36 0;
#X connect 39 0 38 0;
#X connect 40 0 51 0;
#X connect 41 0 45 0;
#X connect 42 0 50 0;
#X connect 43 0 44 0;
#X connect 44 0 42 0;
#X connect 45 0 40 0;
#X connect 46 0 25 0;
#X connect 47 0 46 0;
#X connect 52 0 59 0;
#X connect 54 0 57 0;
#X connect 55 0 60 0;
#X connect 56 0 61 0;
#X connect 57 0 5 0;
#X connect 57 0 5 1;
#X connect 58 0 23 0;
#X connect 58 0 23 1;
#X connect 62 0 58 0;
