#N canvas 297 23 1014 870 10;
#X floatatom 106 480 5 0 0 3 bar - -;
#X floatatom 199 481 5 0 0 3 beat - -;
#X msg 157 206 /reset;
#X msg 208 206 /speed \$1;
#X msg 277 206 /beats \$1;
#X floatatom 208 185 5 0 0 0 - - -;
#X floatatom 277 185 5 0 0 0 - - -;
#X msg 106 206 /on \$1;
#X obj 106 185 tgl 15 0 empty empty empty 17 7 0 10 -262144 -1 -1 0
1;
#X msg 363 327 \; m1 /reset \; m1 /on 1 \; m1 /speed 500 \; m1 /beats
4;
#X msg 471 327 \; m1 /reset \; m1 /on 1 \; m1 /speed 300 \; m1 /beats
16;
#X msg 364 404 \; m1 /reset \; m1 /on 1 \; m1 /speed 200 \; m1 /beats
13;
#X obj 363 270 loadbang;
#X obj 104 47 cnv 15 380 100 empty empty empty 20 12 0 14 -262130 -66577
0;
#X text 118 66 Metro/counter which outputs bar and beat numbers. The
instantiation argument is the address for sending parameter messages.
;
#X obj 106 312 ps.measures m1;
#X msg 106 608 \; m1 /reset;
#X obj 106 577 select 9;
#X text 116 51 [ps.measures];
#X floatatom 360 548 5 0 0 1 bars - -;
#X floatatom 503 548 5 0 0 1 beats - -;
#X obj 503 624 bng 15 250 50 0 empty empty empty 17 7 0 10 -262144
-1 -1;
#X obj 523 624 bng 15 250 50 0 empty empty empty 17 7 0 10 -262144
-1 -1;
#X obj 544 624 bng 15 250 50 0 empty empty empty 17 7 0 10 -262144
-1 -1;
#X obj 565 624 bng 15 250 50 0 empty empty empty 17 7 0 10 -262144
-1 -1;
#X obj 503 585 select 1 2 3 4 5 6 7 8 9 10 11 12 13 14 15 16, f 48
;
#X obj 586 624 bng 15 250 50 0 empty empty empty 17 7 0 10 -262144
-1 -1;
#X obj 607 624 bng 15 250 50 0 empty empty empty 17 7 0 10 -262144
-1 -1;
#X obj 627 624 bng 15 250 50 0 empty empty empty 17 7 0 10 -262144
-1 -1;
#X obj 648 624 bng 15 250 50 0 empty empty empty 17 7 0 10 -262144
-1 -1;
#X obj 669 624 bng 15 250 50 0 empty empty empty 17 7 0 10 -262144
-1 -1;
#X obj 690 624 bng 15 250 50 0 empty empty empty 17 7 0 10 -262144
-1 -1;
#X obj 711 624 bng 15 250 50 0 empty empty empty 17 7 0 10 -262144
-1 -1;
#X obj 731 624 bng 15 250 50 0 empty empty empty 17 7 0 10 -262144
-1 -1;
#X obj 752 624 bng 15 250 50 0 empty empty empty 17 7 0 10 -262144
-1 -1;
#X obj 773 624 bng 15 250 50 0 empty empty empty 17 7 0 10 -262144
-1 -1;
#X obj 794 624 bng 15 250 50 0 empty empty empty 17 7 0 10 -262144
-1 -1;
#X obj 815 624 bng 15 250 50 0 empty empty empty 17 7 0 10 -262144
-1 -1;
#X obj 360 624 bng 15 250 50 0 empty empty empty 17 7 0 10 -262144
-1 -1;
#X obj 381 624 bng 15 250 50 0 empty empty empty 17 7 0 10 -262144
-1 -1;
#X obj 403 624 bng 15 250 50 0 empty empty empty 17 7 0 10 -262144
-1 -1;
#X obj 425 624 bng 15 250 50 0 empty empty empty 17 7 0 10 -262144
-1 -1;
#X obj 360 585 select 1 2 3 4 5;
#X obj 447 625 bng 15 250 50 0 empty empty empty 17 7 0 10 -262144
-1 -1;
#X obj 233 710 == 2;
#X obj 233 738 tgl 15 0 empty empty empty 17 7 0 10 -262144 -1 -1 0
1;
#X obj 279 710 == 2;
#X obj 279 738 tgl 15 0 empty empty empty 17 7 0 10 -262144 -1 -1 1
1;
#X obj 233 764 &&, f 7;
#X obj 233 788 tgl 15 0 empty empty empty 17 7 0 10 -262144 -1 -1 0
1;
#X obj 233 814 sel 1;
#X text 321 753 matching a bar and beat pair;
#X obj 233 848 bng 15 250 50 0 empty empty empty 17 7 0 10 -262144
-1 -1;
#X connect 0 0 17 0;
#X connect 0 0 19 0;
#X connect 1 0 20 0;
#X connect 2 0 15 0;
#X connect 3 0 15 0;
#X connect 4 0 15 0;
#X connect 5 0 3 0;
#X connect 6 0 4 0;
#X connect 7 0 15 0;
#X connect 8 0 7 0;
#X connect 12 0 9 0;
#X connect 15 0 0 0;
#X connect 15 1 1 0;
#X connect 17 0 16 0;
#X connect 19 0 42 0;
#X connect 19 0 44 0;
#X connect 20 0 25 0;
#X connect 20 0 46 0;
#X connect 25 0 21 0;
#X connect 25 1 22 0;
#X connect 25 2 23 0;
#X connect 25 3 24 0;
#X connect 25 4 26 0;
#X connect 25 5 27 0;
#X connect 25 6 28 0;
#X connect 25 7 29 0;
#X connect 25 8 30 0;
#X connect 25 9 31 0;
#X connect 25 10 32 0;
#X connect 25 11 33 0;
#X connect 25 12 34 0;
#X connect 25 13 35 0;
#X connect 25 14 36 0;
#X connect 25 15 37 0;
#X connect 42 0 38 0;
#X connect 42 1 39 0;
#X connect 42 2 40 0;
#X connect 42 3 41 0;
#X connect 42 4 43 0;
#X connect 44 0 45 0;
#X connect 45 0 48 0;
#X connect 46 0 47 0;
#X connect 47 0 48 1;
#X connect 48 0 49 0;
#X connect 49 0 50 0;
#X connect 50 0 52 0;
