#N canvas 322 375 901 622 10;
#X obj 377 181 + 1;
#X floatatom 294 246 0 0 0 0 - - -;
#X obj 313 307 div 4;
#X obj 479 307 mod 4;
#X floatatom 479 358 5 0 0 1 _beat_number - -;
#X floatatom 313 358 5 0 0 1 _bar_count - -;
#X obj 294 181 f 1;
#X msg 495 99 1;
#X obj 313 327 + 1;
#X obj 479 327 + 1;
#X floatatom 340 99 5 0 0 1 _beats_per_bar - -;
#X text 524 98 reset;
#X obj 313 397 outlet;
#X obj 479 397 outlet;
#X floatatom 106 208 5 0 0 1 barOut - -;
#X floatatom 106 229 5 0 0 1 beatOut - -;
#X floatatom 106 167 5 0 0 1 beats/bar - -;
#X obj 145 125 bng 15 250 50 0 empty empty reset 17 7 0 10 -262144
-1 -1;
#X obj 106 125 tgl 15 0 empty empty on 17 7 0 10 -262144 -1 -1 0 1
;
#X obj 296 59 metro 500;
#X obj 296 26 tgl 15 0 empty empty empty 17 7 0 10 -262144 -1 -1 0
1;
#X floatatom 347 25 5 0 0 0 - - -;
#X floatatom 106 145 5 0 0 1 bpm - -;
#X obj 560 16 inlet;
#X obj 612 16 r \$1;
#X obj 637 123 expr 1000/($f1/60);
#X floatatom 637 96 5 0 0 0 - - -;
#X floatatom 637 149 5 0 0 0 - - -;
#X obj 557 37 route /on /reset /bpm /beats;
#X connect 0 0 6 1;
#X connect 1 0 2 0;
#X connect 1 0 3 0;
#X connect 2 0 8 0;
#X connect 3 0 9 0;
#X connect 4 0 13 0;
#X connect 4 0 15 0;
#X connect 5 0 12 0;
#X connect 5 0 14 0;
#X connect 6 0 0 0;
#X connect 6 0 1 0;
#X connect 7 0 6 1;
#X connect 8 0 5 0;
#X connect 9 0 4 0;
#X connect 10 0 3 1;
#X connect 10 0 2 1;
#X connect 16 0 10 0;
#X connect 17 0 7 0;
#X connect 18 0 20 0;
#X connect 19 0 6 0;
#X connect 20 0 19 0;
#X connect 21 0 19 1;
#X connect 22 0 26 0;
#X connect 23 0 28 0;
#X connect 24 0 28 0;
#X connect 25 0 27 0;
#X connect 26 0 25 0;
#X connect 27 0 21 0;
#X connect 28 0 18 0;
#X connect 28 1 17 0;
#X connect 28 2 22 0;
#X connect 28 3 16 0;
#X coords 0 -1 1 1 100 150 1 100 100;
