#N canvas 535 148 459 614 10;
#X obj 41 133 tgl 15 0 empty empty empty 17 7 0 10 -262144 -1 -1 0
1;
#X obj 84 133 tgl 15 0 empty empty empty 17 7 0 10 -262144 -1 -1 0
1;
#X obj 41 172 f;
#X obj 84 172 t b f;
#X floatatom 41 238 5 0 0 0 - - -;
#X obj 41 208 +, f 5;
#X obj 133 133 tgl 15 0 empty empty empty 17 7 0 10 -262144 -1 -1 0
1;
#X obj 176 133 tgl 15 0 empty empty empty 17 7 0 10 -262144 -1 -1 0
1;
#X obj 133 172 f;
#X obj 176 172 t b f;
#X floatatom 133 238 5 0 0 0 - - -;
#X obj 133 208 +, f 5;
#X obj 41 263 f;
#X obj 84 263 t b f;
#X obj 41 295 +, f 5;
#X floatatom 41 325 5 0 0 0 - - -;
#X obj 224 133 tgl 15 0 empty empty empty 17 7 0 10 -262144 -1 -1 0
1;
#X obj 267 133 tgl 15 0 empty empty empty 17 7 0 10 -262144 -1 -1 0
1;
#X obj 224 172 f;
#X obj 267 172 t b f;
#X floatatom 224 238 5 0 0 0 - - -;
#X obj 224 208 +, f 5;
#X obj 181 263 f;
#X obj 224 263 t b f;
#X obj 181 295 +, f 5;
#X floatatom 181 325 5 0 0 0 - - -;
#X obj 41 379 f;
#X obj 84 379 t b f;
#X obj 41 411 +, f 5;
#X floatatom 41 443 5 0 0 0 - - -;
#X obj 41 78 inlet;
#X obj 84 78 inlet;
#X obj 133 78 inlet;
#X obj 176 78 inlet;
#X obj 224 78 inlet;
#X obj 267 78 inlet;
#X obj 41 495 outlet;
#X connect 0 0 2 0;
#X connect 1 0 3 0;
#X connect 2 0 5 0;
#X connect 3 0 2 0;
#X connect 3 1 5 1;
#X connect 4 0 12 0;
#X connect 5 0 4 0;
#X connect 6 0 8 0;
#X connect 7 0 9 0;
#X connect 8 0 11 0;
#X connect 9 0 8 0;
#X connect 9 1 11 1;
#X connect 10 0 13 0;
#X connect 11 0 10 0;
#X connect 12 0 14 0;
#X connect 13 0 12 0;
#X connect 13 1 14 1;
#X connect 14 0 15 0;
#X connect 15 0 26 0;
#X connect 16 0 18 0;
#X connect 17 0 19 0;
#X connect 18 0 21 0;
#X connect 19 0 18 0;
#X connect 19 1 21 1;
#X connect 20 0 23 0;
#X connect 21 0 20 0;
#X connect 22 0 24 0;
#X connect 23 0 22 0;
#X connect 23 1 24 1;
#X connect 24 0 25 0;
#X connect 25 0 27 0;
#X connect 26 0 28 0;
#X connect 27 0 26 0;
#X connect 27 1 28 1;
#X connect 28 0 29 0;
#X connect 29 0 36 0;
#X connect 30 0 0 0;
#X connect 31 0 1 0;
#X connect 32 0 6 0;
#X connect 33 0 7 0;
#X connect 34 0 16 0;
#X connect 35 0 17 0;
