#N canvas 0 136 1680 776 12;
#X obj 190 295 inlet~;
#X obj 240 295 inlet~;
#X obj 618 8 inlet;
#X obj 665 8 r \$1;
#X obj 30 99 tgl 20 0 empty empty record 23 7 0 10 -4034 -1 -1 0 1
;
#X obj 31 63 bng 20 250 50 0 empty empty openFile 23 7 0 10 -262144
-1 -1;
#X msg 631 140 start;
#X msg 693 140 stop;
#X msg 83 500 open \$1;
#X obj 631 116 select 1;
#X obj 83 438 f, f 4;
#X obj 133 438 + 1;
#X obj 55 607 writesf~ 2, f 15;
#X obj 146 39 vu 15 120 empty empty -1 -8 0 10 -66577 -1 1 0;
#X floatatom 355 496 5 0 0 0 - - -;
#X obj 355 519 - 100;
#X obj 355 472 env~;
#X obj 331 562 max;
#X floatatom 138 164 5 0 0 0 - - -;
#X obj 380 567 - 0.05;
#X obj 201 39 vu 15 120 empty empty -1 -8 0 10 -66577 -1 1 0;
#X floatatom 410 498 5 0 0 0 - - -;
#X obj 410 521 - 100;
#X obj 410 474 env~;
#X obj 456 563 max;
#X floatatom 191 164 5 0 0 0 - - -;
#X obj 501 567 - 0.05;
#X obj 162 413 *~;
#X obj 209 385 line~;
#X msg 209 360 \$1 100;
#X obj 234 411 *~;
#X obj 107 38 vsl 15 128 0 1 0 0 empty empty level 0 140 0 10 -262144
-1 -1 9700 1;
#X obj 759 97 loadbang;
#X msg 783 178 0.5;
#X obj 620 59 route /record /level /openfile;
#X obj 52 474 makefilename ./recording%d.wav;
#X connect 0 0 27 0;
#X connect 1 0 30 0;
#X connect 2 0 34 0;
#X connect 3 0 34 0;
#X connect 4 0 9 0;
#X connect 5 0 10 0;
#X connect 6 0 12 0;
#X connect 7 0 12 0;
#X connect 8 0 12 0;
#X connect 9 0 6 0;
#X connect 9 1 7 0;
#X connect 10 0 11 0;
#X connect 10 0 35 0;
#X connect 11 0 10 1;
#X connect 14 0 15 0;
#X connect 15 0 17 0;
#X connect 15 0 13 0;
#X connect 16 0 14 0;
#X connect 17 0 13 1;
#X connect 17 0 18 0;
#X connect 17 0 19 0;
#X connect 19 0 17 1;
#X connect 21 0 22 0;
#X connect 22 0 24 0;
#X connect 22 0 20 0;
#X connect 23 0 21 0;
#X connect 24 0 20 1;
#X connect 24 0 25 0;
#X connect 24 0 26 0;
#X connect 26 0 24 1;
#X connect 27 0 12 0;
#X connect 27 0 16 0;
#X connect 28 0 27 1;
#X connect 28 0 30 1;
#X connect 29 0 28 0;
#X connect 30 0 12 1;
#X connect 30 0 23 0;
#X connect 31 0 29 0;
#X connect 32 0 33 0;
#X connect 33 0 31 0;
#X connect 34 0 4 0;
#X connect 34 1 31 0;
#X connect 34 2 5 0;
#X connect 35 0 8 0;
#X coords 0 -1 1 1 250 170 1 20 20;
