#N canvas 0 23 893 414 12;
#X obj 95 330 outlet~;
#X obj 96 16 inlet~;
#X obj 96 154 phasor~, f 9;
#X obj 96 262 expr~ $v1 * 2 - 1;
#X text 267 227 if greater than 0.5 output 1 \, otherwise 0;
#X text 229 262 scale and offset \, multiply by 2 and subtract 1;
#X obj 96 226 expr~ $v1 > $v2;
#X obj 276 166 clip~ 0.01 0.99;
#X obj 276 135 line~;
#X obj 276 106 pack f 100;
#X obj 219 23 r \$1;
#X obj 264 23 inlet;
#X obj 219 62 route /phase /pw /pw_ramp;
#X obj 445 31 loadbang;
#X msg 445 62 0.5;
#X connect 1 0 2 0;
#X connect 2 0 6 0;
#X connect 3 0 0 0;
#X connect 6 0 3 0;
#X connect 7 0 6 1;
#X connect 8 0 7 0;
#X connect 9 0 8 0;
#X connect 10 0 12 0;
#X connect 11 0 12 0;
#X connect 12 0 2 1;
#X connect 12 1 9 0;
#X connect 12 2 9 1;
#X connect 13 0 14 0;
#X connect 14 0 9 0;
