#N canvas 0 23 595 320 12;
#X obj 50 230 outlet~;
#X obj 50 46 inlet~;
#X obj 50 89 phasor~;
#X obj 143 149 expr~ $v1 * 2 - 1;
#X obj 132 46 inlet;
#X obj 98 112 expr~ $v1 > 0.5;
#X text 212 113 if greater than 0.5 output 1 \, otherwise 0;
#X text 170 175 scale and offset \, multiply by 2 and subtract 1;
#X connect 1 0 2 0;
#X connect 2 0 5 0;
#X connect 3 0 0 0;
#X connect 4 0 2 1;
#X connect 5 0 3 0;
