#N canvas 255 23 1082 662 10;
#X obj 108 451 *~;
#N canvas 0 22 450 300 (subpatch) 0;
#X array array_scales 100 float 0;
#X coords 0 1 99 -1 200 140 1 0 0;
#X restore 478 425 graph;
#X obj 330 478 tgl 30 0 empty empty empty 17 7 0 10 -262144 -1 -1 0
1;
#X text 370 479 <- graph;
#X obj 330 515 metro 50;
#X obj 330 546 tabwrite~ array_scales;
#X obj 108 229 ps.scales;
#X floatatom 108 186 5 0 0 0 - - -;
#X obj 108 317 phasor~;
#X floatatom 108 279 15 0 0 0 - - -;
#X obj 266 319 ps.adsr~;
#X obj 108 505 ps.dac-out~;
#X obj 266 289 tgl 15 0 empty empty empty 17 7 0 10 -262144 -1 -1 0
1;
#X msg 442 61 0 1 2 3 4 5 6 7 8 9 10 11;
#X text 608 52 chromatic;
#X msg 439 85 0 0 2 2 4 4 6 6 8 8 10 10;
#X text 624 80 whole-tone;
#X msg 436 130 0 0 2 2 2 4 4 4 7 7 9 9;
#X text 597 128 major pentatonic;
#X msg 436 109 0 0 3 3 5 5 6 6 7 7 10 10;
#X text 607 105 blues;
#X text 600 148 major;
#X text 601 169 minor;
#X msg 434 151 0 2 2 4 4 5 5 7 7 9 9 11;
#X msg 435 173 0 2 2 3 3 5 5 7 7 8 8 10;
#X obj 416 315 list prepend /scale;
#X obj 106 83 f 1;
#X obj 141 82 + 1;
#X obj 106 60 bng 15 250 50 0 empty empty empty 17 7 0 10 -262144 -1
-1;
#X floatatom 106 106 5 0 0 0 - - -;
#X obj 103 32 metro 100;
#X obj 104 9 tgl 15 0 empty empty empty 17 7 0 10 -262144 -1 -1 0 1
;
#X floatatom 162 4 5 0 0 0 - - -;
#X obj 416 338 route list;
#X msg 144 61 1;
#X obj 107 133 mod 60;
#X obj 111 207 hsl 128 15 48 107 0 0 empty empty empty -2 -8 0 10 -262144
-1 -1 0 1;
#X obj 108 161 + 48;
#X msg 709 60 0 0 2 2 4 4 5 5 7 7 9 11;
#X text 873 59 Ionian;
#X text 871 86 Dorian;
#X msg 707 89 0 0 2 2 3 3 5 5 7 7 8 10;
#X msg 709 137 0 0 1 1 3 3 5 5 7 7 8 10;
#X text 875 141 Phrygian;
#X text 867 169 Lydian;
#X msg 706 180 0 0 2 2 4 4 6 6 7 7 9 11;
#X msg 709 230 0 0 2 2 4 4 5 5 7 7 9 10;
#X msg 706 264 0 0 2 2 3 3 5 5 7 7 8 10;
#X text 881 230 Mixolydian;
#X text 877 267 Aeolian;
#X msg 703 302 0 0 1 1 3 3 5 5 6 6 8 10;
#X text 882 303 Locrian;
#X msg 734 381 0 0 0 3 3 3 6 6 6 9 9 9;
#X text 903 381 diminshed 7th chord;
#X msg 733 408 0 0 0 0 4 4 4 4 8 8 8 8;
#X text 882 411 augmented chord;
#X msg 735 436 0 0 0 0 0 0 6 6 6 6 6 6;
#X text 888 435 tritone;
#X msg 730 353 0 0 2 2 4 4 6 6 7 7 9 9;
#X text 896 353 acoustic;
#X connect 0 0 5 0;
#X connect 0 0 11 0;
#X connect 2 0 4 0;
#X connect 4 0 5 0;
#X connect 6 0 9 0;
#X connect 7 0 36 0;
#X connect 8 0 0 0;
#X connect 9 0 8 0;
#X connect 10 0 0 1;
#X connect 12 0 10 0;
#X connect 13 0 25 0;
#X connect 15 0 25 0;
#X connect 17 0 25 0;
#X connect 19 0 25 0;
#X connect 23 0 25 0;
#X connect 24 0 25 0;
#X connect 25 0 33 0;
#X connect 26 0 27 0;
#X connect 26 0 29 0;
#X connect 27 0 26 1;
#X connect 28 0 26 0;
#X connect 29 0 35 0;
#X connect 30 0 28 0;
#X connect 31 0 30 0;
#X connect 32 0 30 1;
#X connect 33 0 6 1;
#X connect 34 0 26 1;
#X connect 35 0 37 0;
#X connect 36 0 6 0;
#X connect 37 0 7 0;
#X connect 38 0 25 0;
#X connect 41 0 25 0;
#X connect 42 0 25 0;
#X connect 45 0 25 0;
#X connect 46 0 25 0;
#X connect 47 0 25 0;
#X connect 50 0 25 0;
#X connect 52 0 25 0;
#X connect 54 0 25 0;
#X connect 56 0 25 0;
#X connect 58 0 25 0;
