#N canvas 231 35 760 521 10;
#X obj 127 271 *~;
#N canvas 0 23 450 300 (subpatch) 0;
#X array array_trem 100 float 0;
#X coords 0 1 99 -1 200 140 1 0 0;
#X restore 486 289 graph;
#X obj 338 342 tgl 30 0 empty empty empty 17 7 0 10 -262144 -1 -1 1
1;
#X text 378 343 <- graph;
#X obj 338 379 metro 50;
#X obj 338 410 tabwrite~ array_trem;
#X obj 231 153 ps.adsr~;
#X obj 231 123 tgl 15 0 empty empty empty 17 7 0 10 -262144 -1 -1 1
1;
#X obj 127 320 ps.tremolo~;
#X obj 127 446 ps.dac-out~;
#X obj 127 159 phasor~ 300;
#X msg 256 278 /rate \$1;
#X floatatom 258 220 5 0 0 1 frequency - -;
#X floatatom 328 250 5 0 100 1 percent - -;
#X msg 326 276 /amount \$1;
#X connect 0 0 8 0;
#X connect 2 0 4 0;
#X connect 4 0 5 0;
#X connect 6 0 0 1;
#X connect 7 0 6 0;
#X connect 8 0 5 0;
#X connect 8 0 9 0;
#X connect 10 0 0 0;
#X connect 11 0 8 1;
#X connect 12 0 11 0;
#X connect 13 0 14 0;
#X connect 14 0 8 1;
