#N canvas 0 23 1445 743 10;
#X obj 474 291 *~;
#X obj 222 328 +~;
#X obj 489 270 *~;
#X obj 222 91 inlet~;
#X obj 223 543 outlet~;
#X msg 237 217 1 \$1;
#X obj 237 239 -;
#X obj 504 249 line~;
#X obj 237 281 line~;
#X obj 222 301 *~;
#X obj 489 163 osc~;
#X floatatom 641 193 5 0 0 0 - - -;
#X floatatom 488 114 5 0 0 0 - - -;
#X msg 237 260 \$1 500;
#X msg 504 226 \$1 500;
#X obj 563 35 r \$1;
#X obj 473 34 inlet;
#X obj 486 74 route /rate /amount;
#X obj 641 143 clip 0 100;
#X floatatom 639 111 5 0 0 0 - - -;
#X obj 641 170 * 0.01;
#X connect 0 0 1 1;
#X connect 1 0 4 0;
#X connect 2 0 0 1;
#X connect 3 0 0 0;
#X connect 3 0 9 0;
#X connect 5 0 6 0;
#X connect 6 0 13 0;
#X connect 7 0 2 1;
#X connect 8 0 9 1;
#X connect 9 0 1 0;
#X connect 10 0 2 0;
#X connect 11 0 5 0;
#X connect 11 0 14 0;
#X connect 12 0 10 0;
#X connect 13 0 8 0;
#X connect 14 0 7 0;
#X connect 15 0 17 0;
#X connect 16 0 17 0;
#X connect 17 0 12 0;
#X connect 17 1 19 0;
#X connect 18 0 20 0;
#X connect 19 0 18 0;
#X connect 20 0 11 0;
#X coords 0 743 1 742 130 80 0;
