#N canvas 0 23 850 462 10;
#X obj 176 43 inlet~;
#X obj 176 282 *~;
#X obj 83 43 inlet~;
#X obj 83 282 *~;
#X obj 83 312 +~;
#X obj 83 341 outlet~;
#X obj 191 204 sin;
#X obj 98 204 cos;
#X text 81 25 1;
#X text 177 24 2;
#X obj 220 68 * 2;
#X obj 220 134 / 4;
#X obj 220 156 * 3.14159;
#X floatatom 220 178 5 0 0 0 - - -;
#X obj 191 253 line~;
#X obj 98 253 line~;
#X text 81 369 adapted from KeithIrwin post at http://puredata.hurleur.com/sujet-5326-stereo-crossfader-adjustable-curve
;
#X obj 483 43 route /xfade /ramp;
#X obj 487 12 inlet;
#X obj 98 226 pack f 50;
#X obj 191 226 pack f 50;
#X obj 528 12 r \$1;
#X connect 0 0 1 0;
#X connect 1 0 4 1;
#X connect 2 0 3 0;
#X connect 3 0 4 0;
#X connect 4 0 5 0;
#X connect 6 0 20 0;
#X connect 7 0 19 0;
#X connect 10 0 11 0;
#X connect 11 0 12 0;
#X connect 12 0 13 0;
#X connect 13 0 6 0;
#X connect 13 0 7 0;
#X connect 14 0 1 1;
#X connect 15 0 3 1;
#X connect 17 0 10 0;
#X connect 17 1 19 1;
#X connect 17 1 20 1;
#X connect 18 0 17 0;
#X connect 19 0 15 0;
#X connect 20 0 14 0;
#X connect 21 0 17 0;
