#N canvas 566 85 779 534 10;
#N canvas 607 291 1183 1056 oneshotkeyboard 0;
#X obj 377 755 bng 15 250 50 0 empty empty empty 17 7 0 10 -262144
-1 -1;
#X obj 547 423 pack f f;
#X obj 547 482 pack f f f;
#X obj 547 511 route 1 2 3 4;
#X obj 547 449 poly 4 1;
#X floatatom 543 251 5 0 0 1 pitch_speed - -;
#X floatatom 600 387 5 0 0 1 velocity_volume - -;
#X obj 396 618 unpack f f;
#X floatatom 396 645 5 0 0 0 - - -;
#X floatatom 463 644 5 0 0 0 - - -;
#X obj 544 170 mtof;
#X floatatom 544 150 5 0 0 0 - - -;
#X floatatom 544 193 5 0 0 0 - - -;
#X obj 617 136 mtof;
#X floatatom 617 95 5 0 0 2 pitch - -;
#X floatatom 617 160 5 0 0 0 - - -;
#X obj 543 224 /;
#X obj 615 178 t b f;
#X msg 545 35 60;
#X obj 545 4 loadbang;
#X text 579 35 key for normal speed;
#X obj 55 188 key;
#X floatatom 55 223 5 0 0 0 - - -;
#X obj 56 283 select 97 119 115 101 100 102 116 103 121 104 117 106
107;
#N canvas 538 204 1796 734 midivalues 0;
#X obj 98 168 * 12;
#X floatatom 98 140 5 0 0 1 octave - -;
#X obj 98 192 + 0;
#X text 128 191 key offset;
#X floatatom 98 220 5 0 0 0 - - -;
#X obj 80 243 f;
#X obj 80 66 inlet;
#X obj 625 522 outlet;
#X obj 217 168 * 12;
#X floatatom 217 140 5 0 0 1 octave - -;
#X text 247 191 key offset;
#X floatatom 217 220 5 0 0 0 - - -;
#X obj 199 243 f;
#X obj 199 66 inlet;
#X obj 336 168 * 12;
#X floatatom 336 140 5 0 0 1 octave - -;
#X text 366 191 key offset;
#X floatatom 336 220 5 0 0 0 - - -;
#X obj 318 243 f;
#X obj 318 66 inlet;
#X obj 455 168 * 12;
#X floatatom 455 140 5 0 0 1 octave - -;
#X text 485 191 key offset;
#X floatatom 455 220 5 0 0 0 - - -;
#X obj 437 243 f;
#X obj 437 66 inlet;
#X obj 574 168 * 12;
#X floatatom 574 140 5 0 0 1 octave - -;
#X text 604 191 key offset;
#X floatatom 574 220 5 0 0 0 - - -;
#X obj 556 243 f;
#X obj 556 66 inlet;
#X obj 693 168 * 12;
#X floatatom 693 140 5 0 0 1 octave - -;
#X text 723 191 key offset;
#X floatatom 693 220 5 0 0 0 - - -;
#X obj 675 243 f;
#X obj 675 66 inlet;
#X obj 812 168 * 12;
#X floatatom 812 140 5 0 0 1 octave - -;
#X text 842 191 key offset;
#X floatatom 812 220 5 0 0 0 - - -;
#X obj 794 243 f;
#X obj 794 66 inlet;
#X obj 931 168 * 12;
#X floatatom 931 140 5 0 0 1 octave - -;
#X text 961 191 key offset;
#X floatatom 931 220 5 0 0 0 - - -;
#X obj 913 243 f;
#X obj 913 66 inlet;
#X obj 1051 168 * 12;
#X floatatom 1051 140 5 0 0 1 octave - -;
#X text 1081 191 key offset;
#X floatatom 1051 220 5 0 0 0 - - -;
#X obj 1033 243 f;
#X obj 1033 66 inlet;
#X obj 1170 168 * 12;
#X floatatom 1170 140 5 0 0 1 octave - -;
#X text 1200 191 key offset;
#X floatatom 1170 220 5 0 0 0 - - -;
#X obj 1152 243 f;
#X obj 1152 66 inlet;
#X obj 1289 168 * 12;
#X floatatom 1289 140 5 0 0 1 octave - -;
#X text 1321 191 key offset;
#X floatatom 1289 220 5 0 0 0 - - -;
#X obj 1271 243 f;
#X obj 1271 66 inlet;
#X obj 1408 168 * 12;
#X floatatom 1408 140 5 0 0 1 octave - -;
#X text 1440 191 key offset;
#X floatatom 1408 220 5 0 0 0 - - -;
#X obj 1390 243 f;
#X obj 1390 66 inlet;
#X obj 1659 61 inlet;
#X obj 1531 168 * 12;
#X floatatom 1531 140 5 0 0 1 octave - -;
#X text 1563 191 key offset;
#X floatatom 1531 220 5 0 0 0 - - -;
#X obj 1513 243 f;
#X obj 1513 66 inlet;
#X obj 217 192 + 1;
#X obj 336 192 + 2;
#X obj 455 192 + 3;
#X obj 574 192 + 4;
#X obj 693 192 + 5;
#X obj 812 192 + 6;
#X obj 931 192 + 7;
#X obj 1051 192 + 8;
#X obj 1170 192 + 9;
#X obj 1289 192 + 10;
#X obj 1408 192 + 11;
#X obj 1531 192 + 12;
#X connect 0 0 2 0;
#X connect 1 0 0 0;
#X connect 2 0 4 0;
#X connect 4 0 5 1;
#X connect 5 0 7 0;
#X connect 6 0 5 0;
#X connect 8 0 81 0;
#X connect 9 0 8 0;
#X connect 11 0 12 1;
#X connect 12 0 7 0;
#X connect 13 0 12 0;
#X connect 14 0 82 0;
#X connect 15 0 14 0;
#X connect 17 0 18 1;
#X connect 18 0 7 0;
#X connect 19 0 18 0;
#X connect 20 0 83 0;
#X connect 21 0 20 0;
#X connect 23 0 24 1;
#X connect 24 0 7 0;
#X connect 25 0 24 0;
#X connect 26 0 84 0;
#X connect 27 0 26 0;
#X connect 29 0 30 1;
#X connect 30 0 7 0;
#X connect 31 0 30 0;
#X connect 32 0 85 0;
#X connect 33 0 32 0;
#X connect 35 0 36 1;
#X connect 36 0 7 0;
#X connect 37 0 36 0;
#X connect 38 0 86 0;
#X connect 39 0 38 0;
#X connect 41 0 42 1;
#X connect 42 0 7 0;
#X connect 43 0 42 0;
#X connect 44 0 87 0;
#X connect 45 0 44 0;
#X connect 47 0 48 1;
#X connect 48 0 7 0;
#X connect 49 0 48 0;
#X connect 50 0 88 0;
#X connect 51 0 50 0;
#X connect 53 0 54 1;
#X connect 54 0 7 0;
#X connect 55 0 54 0;
#X connect 56 0 89 0;
#X connect 57 0 56 0;
#X connect 59 0 60 1;
#X connect 60 0 7 0;
#X connect 61 0 60 0;
#X connect 62 0 90 0;
#X connect 63 0 62 0;
#X connect 65 0 66 1;
#X connect 66 0 7 0;
#X connect 67 0 66 0;
#X connect 68 0 91 0;
#X connect 69 0 68 0;
#X connect 71 0 72 1;
#X connect 72 0 7 0;
#X connect 73 0 72 0;
#X connect 74 0 69 0;
#X connect 74 0 63 0;
#X connect 74 0 57 0;
#X connect 74 0 51 0;
#X connect 74 0 45 0;
#X connect 74 0 39 0;
#X connect 74 0 33 0;
#X connect 74 0 27 0;
#X connect 74 0 21 0;
#X connect 74 0 15 0;
#X connect 74 0 9 0;
#X connect 74 0 1 0;
#X connect 74 0 76 0;
#X connect 75 0 92 0;
#X connect 76 0 75 0;
#X connect 78 0 79 1;
#X connect 79 0 7 0;
#X connect 80 0 79 0;
#X connect 81 0 11 0;
#X connect 82 0 17 0;
#X connect 83 0 23 0;
#X connect 84 0 29 0;
#X connect 85 0 35 0;
#X connect 86 0 41 0;
#X connect 87 0 47 0;
#X connect 88 0 53 0;
#X connect 89 0 59 0;
#X connect 90 0 65 0;
#X connect 91 0 71 0;
#X connect 92 0 78 0;
#X restore 56 333 pd midivalues;
#X f 57;
#X floatatom 466 284 5 0 0 0 - - -;
#X msg 433 135 5;
#X floatatom 56 380 5 0 0 0 - - -;
#X obj 429 99 t b b b;
#X msg 474 134 1;
#X obj 416 51 bng 15 250 50 0 empty empty empty 17 7 0 10 -262144 -1
-1;
#X obj 396 671 t b f;
#X obj 538 618 unpack f f;
#X floatatom 538 645 5 0 0 0 - - -;
#X floatatom 605 644 5 0 0 0 - - -;
#X obj 538 671 t b f;
#X obj 682 617 unpack f f;
#X floatatom 682 644 5 0 0 0 - - -;
#X floatatom 749 643 5 0 0 0 - - -;
#X obj 682 670 t b f;
#X obj 824 617 unpack f f;
#X floatatom 824 644 5 0 0 0 - - -;
#X floatatom 891 643 5 0 0 0 - - -;
#X obj 824 670 t b f;
#X obj 497 892 outlet~;
#X obj 543 279 swap 1;
#X obj 543 331 /;
#X floatatom 543 389 5 0 0 0 - - -;
#X obj 377 788 ps.sampleplay-x4~ vx1;
#X msg 521 740 /speed1 \$1;
#X msg 521 761 /speed2 \$1;
#X msg 563 784 /speed3 \$1;
#X msg 563 805 /speed4 \$1;
#X obj 413 755 bng 15 250 50 0 empty empty empty 17 7 0 10 -262144
-1 -1;
#X obj 449 756 bng 15 250 50 0 empty empty empty 17 7 0 10 -262144
-1 -1;
#X obj 485 756 bng 15 250 50 0 empty empty empty 17 7 0 10 -262144
-1 -1;
#X obj 750 15 inlet;
#X obj 55 251 spigot;
#X obj 109 158 tgl 15 0 empty empty keys 17 7 0 10 -262144 -1 -1 1
1;
#X floatatom 109 138 5 0 0 1 octave - -;
#X obj 749 69 route /octave /keys /notes;
#X connect 0 0 48 0;
#X connect 1 0 4 0;
#X connect 2 0 3 0;
#X connect 3 0 7 0;
#X connect 3 1 32 0;
#X connect 3 2 36 0;
#X connect 3 3 40 0;
#X connect 4 0 2 0;
#X connect 4 1 2 1;
#X connect 4 2 2 2;
#X connect 5 0 45 0;
#X connect 6 0 1 1;
#X connect 7 0 8 0;
#X connect 7 1 9 0;
#X connect 8 0 31 0;
#X connect 10 0 12 0;
#X connect 11 0 10 0;
#X connect 12 0 16 0;
#X connect 13 0 15 0;
#X connect 14 0 13 0;
#X connect 15 0 17 0;
#X connect 16 0 5 0;
#X connect 17 0 16 0;
#X connect 17 1 16 1;
#X connect 18 0 11 0;
#X connect 18 0 14 0;
#X connect 19 0 28 0;
#X connect 21 0 22 0;
#X connect 22 0 57 0;
#X connect 23 0 24 0;
#X connect 23 1 24 1;
#X connect 23 2 24 2;
#X connect 23 3 24 3;
#X connect 23 4 24 4;
#X connect 23 5 24 5;
#X connect 23 6 24 6;
#X connect 23 7 24 7;
#X connect 23 8 24 8;
#X connect 23 9 24 9;
#X connect 23 10 24 10;
#X connect 23 11 24 11;
#X connect 23 12 24 12;
#X connect 24 0 27 0;
#X connect 25 0 24 13;
#X connect 26 0 59 0;
#X connect 27 0 11 0;
#X connect 28 0 26 0;
#X connect 28 1 18 0;
#X connect 28 2 29 0;
#X connect 29 0 6 0;
#X connect 30 0 28 0;
#X connect 31 0 0 0;
#X connect 31 1 49 0;
#X connect 32 0 33 0;
#X connect 32 1 34 0;
#X connect 33 0 35 0;
#X connect 35 0 53 0;
#X connect 35 1 50 0;
#X connect 36 0 37 0;
#X connect 36 1 38 0;
#X connect 37 0 39 0;
#X connect 39 0 54 0;
#X connect 39 1 51 0;
#X connect 40 0 41 0;
#X connect 40 1 42 0;
#X connect 41 0 43 0;
#X connect 43 0 55 0;
#X connect 43 1 52 0;
#X connect 45 0 46 0;
#X connect 45 1 46 1;
#X connect 46 0 47 0;
#X connect 47 0 1 0;
#X connect 48 0 44 0;
#X connect 48 1 44 0;
#X connect 48 2 44 0;
#X connect 48 3 44 0;
#X connect 49 0 48 4;
#X connect 50 0 48 4;
#X connect 51 0 48 4;
#X connect 52 0 48 4;
#X connect 53 0 48 1;
#X connect 54 0 48 2;
#X connect 55 0 48 3;
#X connect 56 0 60 0;
#X connect 57 0 23 0;
#X connect 58 0 57 1;
#X connect 59 0 25 0;
#X connect 60 0 59 0;
#X connect 60 1 58 0;
#X connect 60 2 11 0;
#X connect 60 3 48 4;
#X coords 0 -1 1 1 100 80 1 100 100;
#X restore 309 193 pd oneshotkeyboard;
#X obj 262 412 dac~;
#X msg 312 133 /octave \$1;
#X floatatom 312 111 5 0 0 0 - - -;
#X floatatom 391 111 5 0 0 0 - - -;
#X msg 391 133 /keys \$1;
#X msg 509 157 /notes \$1;
#X floatatom 509 135 5 0 0 0 - - -;
#X obj 509 111 int;
#X obj 509 47 hradio 15 1 0 13 empty empty empty 0 -8 0 10 -262144
-1 -1 12;
#X obj 509 85 + 60;
#X obj 312 41 loadbang;
#X obj 312 65 t b b;
#X msg 312 93 5;
#X msg 391 93 1;
#X msg 187 94 /open;
#X text 96 69 open sound file from finder;
#X text 139 16 play w/ computer keyboard: A W S E D F T G Y H U J K
;
#X text 514 24 understands MIDI notes;
#X text 540 85 offset to middle C;
#X connect 0 0 1 0;
#X connect 0 0 1 1;
#X connect 2 0 0 0;
#X connect 3 0 2 0;
#X connect 4 0 5 0;
#X connect 5 0 0 0;
#X connect 6 0 0 0;
#X connect 7 0 6 0;
#X connect 8 0 7 0;
#X connect 9 0 10 0;
#X connect 10 0 8 0;
#X connect 11 0 12 0;
#X connect 12 0 13 0;
#X connect 12 1 14 0;
#X connect 13 0 3 0;
#X connect 14 0 4 0;
#X connect 15 0 0 0;
