#N canvas 319 23 1055 802 10;
#X obj 255 639 dac~;
#X obj 41 182 bng 15 250 50 0 empty empty empty 17 7 0 10 -262144 -1
-1;
#X obj 167 450 vline~;
#X obj 41 22 receive fromGUI;
#X obj 41 50 list trim;
#X obj 41 151 select 1;
#X obj 41 116 tgl 15 0 empty empty empty 17 7 0 10 -262144 -1 -1 0
1;
#X obj 100 151 select 1;
#X obj 100 116 tgl 15 0 empty empty empty 17 7 0 10 -262144 -1 -1 0
1;
#X obj 100 182 bng 15 250 50 0 empty empty empty 17 7 0 10 -262144
-1 -1;
#X obj 266 450 vline~;
#X obj 86 276 soundfiler;
#X obj 167 506 tabread4~ pl1;
#X obj 266 506 tabread4~ pl2;
#X obj 590 22 table pl1;
#X obj 591 44 table pl2;
#X msg 86 357 4204 95.3288;
#X msg 85 328 set \$1 \$2;
#X msg 58 356 0;
#X obj 40 246 t b b;
#X obj 314 278 soundfiler;
#N canvas 538 246 658 444 sampleConversion 0;
#X obj 274 16 inlet;
#X floatatom 274 56 10 0 0 1 number_of_samples - -, f 10;
#X obj 153 159 / 44.1;
#X floatatom 153 191 10 0 0 1 milliseconds - -, f 10;
#X text 207 156 < sampling rate (by default 44.1 KHz);
#X obj 135 315 pack f f;
#X obj 153 222 t b f;
#X obj 43 202 f;
#X obj 31 120 t f f;
#X text 83 116 < using trigger to make sure order of events happens
correctly;
#X text 202 220 < using trigger to make sure order of events happens
correctly;
#X text 206 317 < pack to format message;
#X obj 90 372 outlet;
#X obj 515 331 outlet;
#X obj 478 51 samplerate~;
#X obj 478 25 loadbang;
#X obj 535 25 bng 15 250 50 0 empty empty empty 17 7 0 10 -262144 -1
-1;
#X floatatom 478 71 5 0 0 0 - - -, f 5;
#X floatatom 478 110 5 0 0 0 - - -, f 5;
#X obj 478 90 * 0.001;
#X obj 180 276 * 1;
#X obj 593 15 inlet;
#X obj 188 245 t b f;
#X connect 0 0 1 0;
#X connect 1 0 8 0;
#X connect 1 0 13 0;
#X connect 2 0 3 0;
#X connect 3 0 6 0;
#X connect 5 0 12 0;
#X connect 6 0 7 0;
#X connect 6 1 20 0;
#X connect 7 0 5 0;
#X connect 8 0 2 0;
#X connect 8 1 7 1;
#X connect 14 0 17 0;
#X connect 15 0 14 0;
#X connect 16 0 14 0;
#X connect 17 0 19 0;
#X connect 18 0 2 1;
#X connect 19 0 18 0;
#X connect 20 0 5 1;
#X connect 21 0 22 0;
#X connect 22 0 1 0;
#X connect 22 1 20 1;
#X restore 314 301 pd sampleConversion;
#X msg 314 359 7158 162.313;
#X msg 313 330 set \$1 \$2;
#X msg 286 358 0;
#X obj 268 248 t b b;
#X obj 734 95 loadbang;
#X obj 734 129 t b b;
#X floatatom 462 295 5 0 0 0 - - -, f 5;
#N canvas 538 246 658 444 sampleConversion 0;
#X obj 274 16 inlet;
#X floatatom 274 56 10 0 0 1 number_of_samples - -, f 10;
#X obj 153 159 / 44.1;
#X floatatom 153 191 10 0 0 1 milliseconds - -, f 10;
#X text 207 156 < sampling rate (by default 44.1 KHz);
#X obj 135 315 pack f f;
#X obj 153 222 t b f;
#X obj 43 202 f;
#X obj 31 120 t f f;
#X text 83 116 < using trigger to make sure order of events happens
correctly;
#X text 202 220 < using trigger to make sure order of events happens
correctly;
#X text 206 317 < pack to format message;
#X obj 90 372 outlet;
#X obj 515 331 outlet;
#X obj 478 51 samplerate~;
#X obj 478 25 loadbang;
#X obj 535 25 bng 15 250 50 0 empty empty empty 17 7 0 10 -262144 -1
-1;
#X floatatom 478 71 5 0 0 0 - - -, f 5;
#X floatatom 478 110 5 0 0 0 - - -, f 5;
#X obj 478 90 * 0.001;
#X obj 180 276 * 1;
#X obj 593 15 inlet;
#X obj 188 245 t b f;
#X connect 0 0 1 0;
#X connect 1 0 8 0;
#X connect 1 0 13 0;
#X connect 2 0 3 0;
#X connect 3 0 6 0;
#X connect 5 0 12 0;
#X connect 6 0 7 0;
#X connect 6 1 20 0;
#X connect 7 0 5 0;
#X connect 8 0 2 0;
#X connect 8 1 7 1;
#X connect 14 0 17 0;
#X connect 15 0 14 0;
#X connect 16 0 14 0;
#X connect 17 0 19 0;
#X connect 18 0 2 1;
#X connect 19 0 18 0;
#X connect 20 0 5 1;
#X connect 21 0 22 0;
#X connect 22 0 1 0;
#X connect 22 1 20 1;
#X restore 86 299 pd sampleConversion;
#X floatatom 234 293 5 0 0 0 - - -, f 5;
#X obj 807 630 send toGUI;
#X obj 751 280 route list;
#X obj 751 248 receive fromSystem;
#X obj 751 304 route /tilts;
#X obj 751 336 unpack f f;
#X floatatom 808 361 5 0 0 0 - - -, f 5;
#X obj 808 390 + 1;
#X obj 808 418 * 0.5;
#X floatatom 808 511 5 0 0 0 - - -, f 5;
#X obj 808 483 line;
#X msg 808 453 \$1 100;
#X floatatom 568 248 5 0 0 0 - - -, f 5;
#X obj 568 210 * 4;
#X obj 42 77 route /play1 /play2, f 70;
#X obj 568 228 + 0.5;
#X floatatom 751 363 5 0 0 0 - - -, f 5;
#X msg 808 585 list /xyslider1 \$1 \$2;
#X obj 808 551 pack f f;
#X obj 752 396 + 1;
#X obj 752 424 * 0.5;
#X floatatom 752 517 5 0 0 0 - - -, f 5;
#X obj 752 489 line;
#X msg 752 459 \$1 100;
#N canvas 272 23 1372 933 delayEffect 0;
#X floatatom 508 190 20 0 0 0 - - -, f 20;
#X floatatom 814 300 0 0 0 0 - - -;
#X obj 814 372 line~;
#X obj 814 348 pack 0 100;
#X obj 814 324 * 0.01;
#X obj 474 442 +~;
#X obj 746 521 *~;
#X text 861 300 <-- feedback (hundredths);
#X obj 746 545 clip~ -1 1;
#X obj 335 43 inlet~;
#X obj 524 441 +~;
#X obj 923 521 *~;
#X obj 923 545 clip~ -1 1;
#X floatatom 1022 302 0 0 0 0 - - -;
#X obj 1022 374 line~;
#X obj 1022 350 pack 0 100;
#X obj 1022 326 * 0.01;
#X text 1050 301 <-- feedback (hundredths);
#X obj 508 282 line~;
#X floatatom 641 190 20 0 0 0 - - -, f 20;
#X obj 641 281 line~;
#X msg 508 254 \$1 100;
#X msg 641 253 \$1 100;
#X obj 519 35 loadbang;
#X obj 591 76 t b b b b;
#X obj 577 36 bng 15 250 50 0 empty empty empty 17 7 0 10 -262144 -1
-1;
#X obj 746 568 delwrite~ del8-l 5000;
#X obj 923 569 delwrite~ del8-r 5000;
#X obj 508 334 vd~ del8-l;
#X obj 641 333 vd~ del8-r;
#X obj 133 801 outlet~;
#X obj 329 801 outlet~;
#X obj 226 749 *~;
#X obj 133 749 *~;
#X obj 133 779 +~;
#X obj 241 671 sin;
#X obj 148 671 cos;
#X obj 270 574 * 2;
#X obj 270 601 / 4;
#X obj 270 623 * 3.14159;
#X floatatom 270 645 5 0 0 0 - - -, f 5;
#X obj 241 720 line~;
#X obj 148 720 line~;
#X obj 241 693 pack f 60;
#X obj 148 693 pack f 60;
#X obj 422 749 *~;
#X obj 329 749 *~;
#X obj 329 779 +~;
#X obj 437 671 sin;
#X obj 344 671 cos;
#X obj 466 575 * 2;
#X obj 466 601 / 4;
#X obj 466 623 * 3.14159;
#X floatatom 466 645 5 0 0 0 - - -, f 5;
#X obj 437 720 line~;
#X obj 344 720 line~;
#X obj 437 693 pack f 60;
#X obj 344 693 pack f 60;
#X obj 385 43 inlet~;
#X obj 449 47 inlet;
#X msg 814 271 75;
#X msg 508 138 250;
#X msg 641 139 125;
#X msg 1022 272 80;
#X connect 0 0 21 0;
#X connect 1 0 4 0;
#X connect 2 0 6 1;
#X connect 3 0 2 0;
#X connect 4 0 3 0;
#X connect 5 0 6 0;
#X connect 5 0 32 0;
#X connect 6 0 8 0;
#X connect 8 0 26 0;
#X connect 9 0 5 0;
#X connect 9 0 33 0;
#X connect 10 0 11 0;
#X connect 10 0 45 0;
#X connect 11 0 12 0;
#X connect 12 0 27 0;
#X connect 13 0 16 0;
#X connect 14 0 11 1;
#X connect 15 0 14 0;
#X connect 16 0 15 0;
#X connect 18 0 28 0;
#X connect 19 0 22 0;
#X connect 20 0 29 0;
#X connect 21 0 18 0;
#X connect 22 0 20 0;
#X connect 23 0 24 0;
#X connect 24 0 61 0;
#X connect 24 1 62 0;
#X connect 24 2 60 0;
#X connect 24 3 63 0;
#X connect 25 0 24 0;
#X connect 28 0 5 1;
#X connect 29 0 10 1;
#X connect 32 0 34 1;
#X connect 33 0 34 0;
#X connect 34 0 30 0;
#X connect 35 0 43 0;
#X connect 36 0 44 0;
#X connect 37 0 38 0;
#X connect 38 0 39 0;
#X connect 39 0 40 0;
#X connect 40 0 35 0;
#X connect 40 0 36 0;
#X connect 41 0 32 1;
#X connect 42 0 33 1;
#X connect 43 0 41 0;
#X connect 44 0 42 0;
#X connect 45 0 47 1;
#X connect 46 0 47 0;
#X connect 47 0 31 0;
#X connect 48 0 56 0;
#X connect 49 0 57 0;
#X connect 50 0 51 0;
#X connect 51 0 52 0;
#X connect 52 0 53 0;
#X connect 53 0 48 0;
#X connect 53 0 49 0;
#X connect 54 0 45 1;
#X connect 55 0 46 1;
#X connect 56 0 54 0;
#X connect 57 0 55 0;
#X connect 58 0 10 0;
#X connect 58 0 46 0;
#X connect 59 0 37 0;
#X connect 59 0 50 0;
#X connect 60 0 1 0;
#X connect 61 0 0 0;
#X connect 62 0 19 0;
#X connect 63 0 13 0;
#X restore 226 575 pd delayEffect;
#X msg 86 248 read -resize Sample1.wav pl1;
#X msg 314 249 read -resize Sample4.wav pl2;
#X obj 669 104 bng 15 250 50 0 empty empty empty 17 7 0 10 -262144
-1 -1;
#X connect 1 0 19 0;
#X connect 2 0 12 0;
#X connect 3 0 4 0;
#X connect 4 0 44 0;
#X connect 5 0 1 0;
#X connect 6 0 5 0;
#X connect 7 0 9 0;
#X connect 8 0 7 0;
#X connect 9 0 25 0;
#X connect 10 0 13 0;
#X connect 11 0 29 0;
#X connect 12 0 54 0;
#X connect 12 0 54 1;
#X connect 13 0 54 0;
#X connect 13 0 54 1;
#X connect 16 0 2 0;
#X connect 17 0 16 0;
#X connect 18 0 2 0;
#X connect 19 0 16 0;
#X connect 19 1 18 0;
#X connect 20 0 21 0;
#X connect 21 0 23 0;
#X connect 22 0 10 0;
#X connect 23 0 22 0;
#X connect 24 0 10 0;
#X connect 25 0 22 0;
#X connect 25 1 24 0;
#X connect 26 0 27 0;
#X connect 27 0 55 0;
#X connect 27 1 56 0;
#X connect 28 0 21 1;
#X connect 29 0 17 0;
#X connect 30 0 29 1;
#X connect 32 0 34 0;
#X connect 33 0 32 0;
#X connect 34 0 35 0;
#X connect 35 0 46 0;
#X connect 35 1 36 0;
#X connect 36 0 37 0;
#X connect 37 0 38 0;
#X connect 38 0 41 0;
#X connect 39 0 48 0;
#X connect 40 0 39 0;
#X connect 40 0 43 0;
#X connect 41 0 40 0;
#X connect 42 0 30 0;
#X connect 42 0 28 0;
#X connect 43 0 45 0;
#X connect 44 0 6 0;
#X connect 44 1 8 0;
#X connect 45 0 42 0;
#X connect 46 0 49 0;
#X connect 47 0 31 0;
#X connect 48 0 47 0;
#X connect 49 0 50 0;
#X connect 50 0 53 0;
#X connect 51 0 48 1;
#X connect 51 0 54 2;
#X connect 52 0 51 0;
#X connect 53 0 52 0;
#X connect 54 0 0 0;
#X connect 54 1 0 1;
#X connect 55 0 11 0;
#X connect 56 0 20 0;
#X connect 57 0 27 0;
