#N canvas 255 152 1216 799 10;
#X obj 47 74 ctlin 1;
#X floatatom 47 124 5 0 0 0 - - -;
#X obj 47 201 line;
#X obj 47 245 vsl 15 128 0 127 0 0 empty empty empty 0 -9 0 10 -262144
-1 -1 100 1;
#X floatatom 111 124 5 0 0 0 - - -;
#X obj 111 201 line;
#X obj 111 245 vsl 15 128 0 127 0 0 empty empty empty 0 -9 0 10 -262144
-1 -1 0 1;
#X obj 111 74 ctlin 2;
#X floatatom 172 124 5 0 0 0 - - -;
#X obj 172 201 line;
#X obj 172 245 vsl 15 128 0 127 0 0 empty empty empty 0 -9 0 10 -262144
-1 -1 0 1;
#X floatatom 236 124 5 0 0 0 - - -;
#X obj 236 201 line;
#X obj 236 245 vsl 15 128 0 127 0 0 empty empty empty 0 -9 0 10 -262144
-1 -1 0 1;
#X obj 172 74 ctlin 3;
#X obj 236 74 ctlin 4;
#X floatatom 298 124 5 0 0 0 - - -;
#X obj 298 201 line;
#X obj 298 245 vsl 15 128 0 127 0 0 empty empty empty 0 -9 0 10 -262144
-1 -1 100 1;
#X floatatom 362 124 5 0 0 0 - - -;
#X obj 362 201 line;
#X obj 362 245 vsl 15 128 0 127 0 0 empty empty empty 0 -9 0 10 -262144
-1 -1 0 1;
#X floatatom 423 124 5 0 0 0 - - -;
#X obj 423 201 line;
#X obj 423 245 vsl 15 128 0 127 0 0 empty empty empty 0 -9 0 10 -262144
-1 -1 100 1;
#X floatatom 487 124 5 0 0 0 - - -;
#X obj 487 201 line;
#X obj 487 245 vsl 15 128 0 127 0 0 empty empty empty 0 -9 0 10 -262144
-1 -1 300 1;
#X obj 298 74 ctlin 5;
#X obj 362 74 ctlin 6;
#X obj 423 74 ctlin 7;
#X obj 487 74 ctlin 8;
#X floatatom 560 124 5 0 0 0 - - -;
#X obj 560 201 line;
#X obj 560 246 vsl 15 128 0 127 0 0 empty empty empty 0 -9 0 10 -262144
-1 -1 0 1;
#X floatatom 621 124 5 0 0 0 - - -;
#X obj 621 201 line;
#X obj 621 245 vsl 15 128 0 127 0 0 empty empty empty 0 -9 0 10 -262144
-1 -1 300 1;
#X floatatom 685 124 5 0 0 0 - - -;
#X obj 685 201 line;
#X obj 685 245 vsl 15 128 0 127 0 0 empty empty empty 0 -9 0 10 -262144
-1 -1 0 1;
#X obj 560 74 ctlin 9;
#X obj 621 74 ctlin 10;
#X obj 685 74 ctlin 11;
#X obj 298 528 ps.sampleplay~ rimshot;
#X obj 298 504 bng 15 250 50 0 empty empty empty 17 7 0 10 -262144
-1 -1;
#X obj 298 404 > 60;
#X obj 298 479 select 1;
#X obj 298 425 tgl 15 0 empty empty empty 17 7 0 10 -262144 -1 -1 0
1;
#X obj 298 557 *~ 0.4;
#X obj 625 700 dac~;
#X obj 298 448 change;
#X obj 440 504 bng 15 250 50 0 empty empty empty 17 7 0 10 -262144
-1 -1;
#X obj 440 404 > 60;
#X obj 440 479 select 1;
#X obj 440 425 tgl 15 0 empty empty empty 17 7 0 10 -262144 -1 -1 0
1;
#X obj 440 557 *~ 0.4;
#X obj 440 448 change;
#X obj 440 528 ps.sampleplay~ shaker;
#X obj 578 504 bng 15 250 50 0 empty empty empty 17 7 0 10 -262144
-1 -1;
#X obj 578 404 > 60;
#X obj 578 479 select 1;
#X obj 578 425 tgl 15 0 empty empty empty 17 7 0 10 -262144 -1 -1 0
1;
#X obj 578 557 *~ 0.4;
#X obj 578 448 change;
#X obj 720 504 bng 15 250 50 0 empty empty empty 17 7 0 10 -262144
-1 -1;
#X obj 720 404 > 60;
#X obj 720 479 select 1;
#X obj 720 425 tgl 15 0 empty empty empty 17 7 0 10 -262144 -1 -1 0
1;
#X obj 720 557 *~ 0.4;
#X obj 720 448 change;
#X obj 859 504 bng 15 250 50 0 empty empty empty 17 7 0 10 -262144
-1 -1;
#X obj 859 404 > 60;
#X obj 859 479 select 1;
#X obj 859 425 tgl 15 0 empty empty empty 17 7 0 10 -262144 -1 -1 0
1;
#X obj 859 557 *~ 0.4;
#X obj 859 448 change;
#X obj 1001 504 bng 15 250 50 0 empty empty empty 17 7 0 10 -262144
-1 -1;
#X obj 1001 404 > 60;
#X obj 1001 479 select 1;
#X obj 1001 425 tgl 15 0 empty empty empty 17 7 0 10 -262144 -1 -1
0 1;
#X obj 1001 557 *~ 0.4;
#X obj 1001 448 change;
#X obj 578 528 ps.sampleplay~ bell;
#X obj 720 528 ps.sampleplay~ clap;
#X obj 859 528 ps.sampleplay~ kick;
#X obj 1001 528 ps.sampleplay~ conga;
#X msg 790 75 \; rimshot /read ./RimShot1.wav \; shaker /read ./Shaker2.wav
\; bell /read ./Cowbell3.wav \; clap /read ./Clap2.wav \; kick /read
./Kick3.wav \; conga /read ./Conga1.wav \;;
#X floatatom 1020 305 5 0 0 1 threshold - -;
#X obj 1020 252 loadbang;
#X msg 1020 276 30;
#X obj 47 436 ps.reverb~ rev1;
#X msg 995 81 \; rev1 /roomsize 0.8 \; rev1 /damp 0.6 \; rev1 /dry
0.24 \; rev1 /wet 0.5 \;;
#N canvas 539 182 819 453 windy 0;
#X obj 381 38 inlet;
#X obj 159 310 outlet~;
#X obj 118 34 noise~;
#X obj 162 162 hip~ 300;
#X obj 162 84 lop~ 3000;
#X obj 162 110 lop~ 3000;
#X obj 162 136 hip~ 300;
#X obj 387 231 line~;
#X obj 157 255 *~;
#X msg 393 194 \$1 300;
#X obj 384 130 / 127;
#X floatatom 383 73 5 0 0 0 - - -;
#X obj 384 101 - 1;
#X text 415 101 offset (to make sure it's quiet at low level);
#X floatatom 218 54 5 0 0 0 - - -;
#X obj 320 168 * 3000;
#X obj 319 200 + 300;
#X connect 0 0 11 0;
#X connect 2 0 4 0;
#X connect 3 0 8 0;
#X connect 4 0 5 0;
#X connect 5 0 6 0;
#X connect 6 0 3 0;
#X connect 7 0 8 1;
#X connect 8 0 1 0;
#X connect 9 0 7 0;
#X connect 10 0 9 0;
#X connect 10 0 15 0;
#X connect 11 0 12 0;
#X connect 12 0 10 0;
#X connect 14 0 4 1;
#X connect 14 0 5 1;
#X connect 14 0 6 1;
#X connect 14 0 3 1;
#X connect 15 0 16 0;
#X connect 16 0 14 0;
#X restore 47 396 pd windy;
#X msg 111 154 \$1 10;
#X msg 172 154 \$1 10;
#X msg 236 154 \$1 10;
#X msg 298 154 \$1 10;
#X msg 362 154 \$1 10;
#X msg 423 154 \$1 10;
#X msg 487 154 \$1 10;
#X msg 560 154 \$1 10;
#X msg 621 154 \$1 10;
#X msg 685 154 \$1 10;
#X msg 47 154 \$1 100;
#X connect 0 0 1 0;
#X connect 1 0 104 0;
#X connect 2 0 3 0;
#X connect 3 0 93 0;
#X connect 4 0 94 0;
#X connect 5 0 6 0;
#X connect 7 0 4 0;
#X connect 8 0 95 0;
#X connect 9 0 10 0;
#X connect 11 0 96 0;
#X connect 12 0 13 0;
#X connect 14 0 8 0;
#X connect 15 0 11 0;
#X connect 16 0 97 0;
#X connect 17 0 18 0;
#X connect 18 0 46 0;
#X connect 19 0 98 0;
#X connect 20 0 21 0;
#X connect 21 0 53 0;
#X connect 22 0 99 0;
#X connect 23 0 24 0;
#X connect 24 0 60 0;
#X connect 25 0 100 0;
#X connect 26 0 27 0;
#X connect 27 0 66 0;
#X connect 28 0 16 0;
#X connect 29 0 19 0;
#X connect 30 0 22 0;
#X connect 31 0 25 0;
#X connect 32 0 101 0;
#X connect 33 0 34 0;
#X connect 34 0 72 0;
#X connect 35 0 102 0;
#X connect 36 0 37 0;
#X connect 37 0 78 0;
#X connect 38 0 103 0;
#X connect 39 0 40 0;
#X connect 41 0 32 0;
#X connect 42 0 35 0;
#X connect 43 0 38 0;
#X connect 44 0 49 0;
#X connect 45 0 44 0;
#X connect 46 0 48 0;
#X connect 47 0 45 0;
#X connect 48 0 51 0;
#X connect 49 0 50 0;
#X connect 49 0 50 1;
#X connect 51 0 47 0;
#X connect 52 0 58 0;
#X connect 53 0 55 0;
#X connect 54 0 52 0;
#X connect 55 0 57 0;
#X connect 56 0 50 0;
#X connect 56 0 50 1;
#X connect 57 0 54 0;
#X connect 58 0 56 0;
#X connect 59 0 83 0;
#X connect 60 0 62 0;
#X connect 61 0 59 0;
#X connect 62 0 64 0;
#X connect 63 0 50 0;
#X connect 63 0 50 1;
#X connect 64 0 61 0;
#X connect 65 0 84 0;
#X connect 66 0 68 0;
#X connect 67 0 65 0;
#X connect 68 0 70 0;
#X connect 69 0 50 0;
#X connect 69 0 50 1;
#X connect 70 0 67 0;
#X connect 71 0 85 0;
#X connect 72 0 74 0;
#X connect 73 0 71 0;
#X connect 74 0 76 0;
#X connect 75 0 50 0;
#X connect 75 0 50 1;
#X connect 76 0 73 0;
#X connect 77 0 86 0;
#X connect 78 0 80 0;
#X connect 79 0 77 0;
#X connect 80 0 82 0;
#X connect 81 0 50 0;
#X connect 81 0 50 1;
#X connect 82 0 79 0;
#X connect 83 0 63 0;
#X connect 84 0 69 0;
#X connect 85 0 75 0;
#X connect 86 0 81 0;
#X connect 88 0 46 1;
#X connect 88 0 53 1;
#X connect 88 0 60 1;
#X connect 88 0 66 1;
#X connect 88 0 72 1;
#X connect 88 0 78 1;
#X connect 89 0 90 0;
#X connect 89 0 87 0;
#X connect 89 0 92 0;
#X connect 90 0 88 0;
#X connect 91 0 50 0;
#X connect 91 1 50 1;
#X connect 93 0 91 0;
#X connect 93 0 91 1;
#X connect 94 0 5 0;
#X connect 95 0 9 0;
#X connect 96 0 12 0;
#X connect 97 0 17 0;
#X connect 98 0 20 0;
#X connect 99 0 23 0;
#X connect 100 0 26 0;
#X connect 101 0 33 0;
#X connect 102 0 36 0;
#X connect 103 0 39 0;
#X connect 104 0 2 0;
