#N canvas 414 220 778 590 12;
#X obj 129 409 pack f f;
#X obj 204 264 delay;
#X msg 202 329 0;
#X obj 131 150 t b b f f;
#X floatatom 131 111 5 0 0 0 - - -;
#X msg 132 67 1000;
#X msg 184 67 100;
#X msg 227 67 500;
#X floatatom 268 207 5 0 0 0 - - -;
#X msg 129 329 1;
#X text 278 66 set attack and decay \, and trigger envelope;
#X text 319 204 add to the attack/decay to set the sustain time;
#X text 221 145 use trigger to order events \; f passes the number
\, b sends a bang);
#X text 201 405 use pack to format message for line;
#X obj 129 447 line~, f 6;
#X obj 129 502 outlet~;
#X obj 64 41 inlet;
#X obj 236 238 + 50;
#X connect 0 0 14 0;
#X connect 1 0 2 0;
#X connect 2 0 0 0;
#X connect 3 0 9 0;
#X connect 3 1 1 0;
#X connect 3 2 17 0;
#X connect 3 3 0 1;
#X connect 4 0 3 0;
#X connect 5 0 4 0;
#X connect 6 0 4 0;
#X connect 7 0 4 0;
#X connect 8 0 17 1;
#X connect 9 0 0 0;
#X connect 14 0 15 0;
#X connect 16 0 4 0;
#X connect 17 0 1 1;
