#N canvas 51 57 1146 784 12;
#X obj 192 42 bng 15 250 50 0 empty empty empty 17 7 0 10 -262144 -1
-1;
#X obj 192 380 dac~;
#X obj 192 86 ps.sampleplay~ ola;
#X obj 455 12 cnv 15 500 150 empty empty empty 20 12 0 14 -262130 -66577
0;
#X text 469 32 A mono sound sample player triggered by a bang with
setting for playback speed. Allows one to read from a known file location
or to open a file via a selection window. Note: this will NOT play
in reverse with a negative value for speed. Speed setting works opposite
from how you might expect \, e.g. 2 is not twice as fast but rather
is twice as long (reducing the speed). The instantiation argument is
the address for sending parameter messages.;
#X obj 40 338 tgl 15 0 empty empty empty 17 7 0 10 -262144 -1 -1 1
1;
#X msg 40 362 \; pd dsp \$1;
#X msg 398 455 \; ola /read ./sounds/bossdr550mk2/Snare1.wav;
#X msg 398 490 \; ola /read ./sounds/bossdr550mk2/BassShort.wav;
#X msg 398 526 \; ola /read ./sounds/bossdr550mk2/WoodBlock1.wav;
#X msg 398 562 \; ola /read ./sounds/bossdr550mk2/HiHatCl1.wav;
#X msg 398 598 \; ola /read ./sounds/bossdr550mk2/HiHatOp1.wav;
#X obj 357 157 loadbang;
#X text 714 460 read from known file address;
#X msg 357 225 \; ola /speed 0.5;
#X msg 357 341 \; ola /speed 10;
#X msg 357 302 \; ola /speed 0.2;
#X msg 691 225 \; ola /open;
#X text 775 231 open window to select sample;
#X msg 357 264 \; ola /speed 2;
#X msg 517 343 \; ola /speed \$1;
#X msg 357 186 \; ola /speed 1;
#X floatatom 517 317 5 0 0 0 - - -;
#X obj 398 424 loadbang;
#X text 467 17 [ps.sampleplay~];
#X connect 0 0 2 0;
#X connect 2 0 1 0;
#X connect 2 0 1 1;
#X connect 5 0 6 0;
#X connect 12 0 21 0;
#X connect 22 0 20 0;
#X connect 23 0 7 0;
