#N canvas 222 56 1135 754 10;
#X obj 386 703 dac~;
#X obj 385 401 osc~ 440;
#X obj 517 553 line~;
#X obj 386 614 *~;
#X obj 517 484 pack f 20;
#X floatatom 517 462 5 0 0 0 - - -, f 5;
#X obj 385 362 line~;
#X floatatom 385 220 5 0 0 0 - - -, f 5;
#X obj 388 177 hsl 200 30 0 1 0 0 empty empty empty -2 -8 0 10 -262144
-1 -1 0 1;
#X obj 385 284 * 1000;
#X floatatom 492 284 5 0 0 0 - - -, f 5;
#X text 599 176 <- hslider for a GUI;
#X text 562 283 <- adjust the glide between freq.;
#X obj 385 323 pack f 200;
#X text 463 374 <- line~ enables signal control over the osc~ freq.
;
#X floatatom 613 462 5 0 0 0 - - -, f 5;
#X text 681 480 <- adjust ramp for volume changes;
#X text 585 552 <- line~ enables signal control over volume;
#X obj 520 423 hsl 200 30 0 1 0 0 empty empty empty -2 -8 0 10 -262144
-1 -1 0 1;
#X text 731 422 <- hslider for a GUI;
#X text 518 336 <- pack is handy for formatting a message;
#X obj 77 40 receive fromGUI;
#X obj 77 68 list trim;
#X obj 77 95 route /dial1 /dial2;
#X connect 1 0 3 0;
#X connect 2 0 3 1;
#X connect 3 0 0 0;
#X connect 3 0 0 1;
#X connect 4 0 2 0;
#X connect 5 0 4 0;
#X connect 6 0 1 0;
#X connect 7 0 9 0;
#X connect 8 0 7 0;
#X connect 9 0 13 0;
#X connect 10 0 13 1;
#X connect 13 0 6 0;
#X connect 15 0 4 1;
#X connect 18 0 5 0;
#X connect 21 0 22 0;
#X connect 22 0 23 0;
#X connect 23 0 8 0;
#X connect 23 1 18 0;
