#N canvas 644 23 1268 585 10;
#X floatatom 61 110 5 0 0 0 - - -;
#X floatatom 664 110 5 0 0 0 - - -;
#X obj 61 21 ctlin 1;
#X obj 664 21 ctlin 51;
#X floatatom 140 110 5 0 0 0 - - -;
#X floatatom 225 110 5 0 0 0 - - -;
#X floatatom 304 110 5 0 0 0 - - -;
#X obj 140 21 ctlin 2;
#X obj 225 20 ctlin 3;
#X obj 304 20 ctlin 4;
#X obj 664 146 / 127;
#X floatatom 664 173 5 0 0 0 - - -;
#X obj 664 199 tgl 30 0 empty empty momentary 33 7 0 10 -262144 -1
-1 0 1;
#X obj 601 215 select 1;
#X obj 601 237 tgl 30 0 empty empty toggle 33 7 0 10 -262144 -1 -1
0 1;
#X floatatom 829 110 5 0 0 0 - - -;
#X obj 829 146 / 127;
#X floatatom 829 173 5 0 0 0 - - -;
#X obj 829 199 tgl 30 0 empty empty momentary 33 7 0 10 -262144 -1
-1 0 1;
#X obj 766 215 select 1;
#X obj 766 237 tgl 30 0 empty empty toggle 33 7 0 10 -262144 -1 -1
0 1;
#X floatatom 984 110 5 0 0 0 - - -;
#X obj 984 146 / 127;
#X floatatom 984 173 5 0 0 0 - - -;
#X obj 984 199 tgl 30 0 empty empty momentary 33 7 0 10 -262144 -1
-1 0 1;
#X obj 921 215 select 1;
#X obj 921 237 tgl 30 0 empty empty toggle 33 7 0 10 -262144 -1 -1
1 1;
#X floatatom 1135 110 5 0 0 0 - - -;
#X obj 1135 146 / 127;
#X floatatom 1135 173 5 0 0 0 - - -;
#X obj 1135 199 tgl 30 0 empty empty momentary 33 7 0 10 -262144 -1
-1 0 1;
#X obj 1072 215 select 1;
#X obj 1072 237 tgl 30 0 empty empty toggle 33 7 0 10 -262144 -1 -1
1 1;
#X obj 829 21 ctlin 52;
#X obj 984 21 ctlin 53;
#X obj 1135 21 ctlin 54;
#N canvas 469 141 1496 900 synth 0;
#X obj 242 240 pack f 60;
#X obj 411 240 pack f 61;
#X obj 578 240 pack f 62;
#X obj 746 240 pack f 63;
#X obj 238 344 mtof;
#X obj 237 401 line~;
#X obj 238 373 pack f 50;
#X obj 237 486 *~;
#X obj 642 683 *~ 0.2;
#X obj 242 271 unpack f f;
#X obj 317 432 ps.adsr~ e1;
#X floatatom 238 314 5 0 0 0 - - -;
#X msg 1055 48 \; e1 /attack 10 \; e1 /decay 20 \; e1 /sustain 50 \;
e1 /release 400 \;;
#X obj 237 431 ps.tri~;
#X obj 407 347 mtof;
#X obj 406 404 line~;
#X obj 407 376 pack f 50;
#X obj 406 489 *~;
#X obj 411 274 unpack f f;
#X obj 486 435 ps.adsr~ e1;
#X floatatom 407 317 5 0 0 0 - - -;
#X obj 406 434 ps.tri~;
#X obj 573 348 mtof;
#X obj 572 405 line~;
#X obj 573 377 pack f 50;
#X obj 572 490 *~;
#X obj 577 275 unpack f f;
#X obj 652 436 ps.adsr~ e1;
#X floatatom 573 318 5 0 0 0 - - -;
#X obj 742 351 mtof;
#X obj 741 408 line~;
#X obj 742 380 pack f 50;
#X obj 741 493 *~;
#X obj 746 278 unpack f f;
#X obj 821 439 ps.adsr~ e1;
#X floatatom 742 321 5 0 0 0 - - -;
#X obj 741 438 ps.tri~;
#X obj 1054 21 loadbang;
#X obj 572 435 ps.tri~;
#X obj 642 723 outlet~;
#X obj 242 120 inlet;
#X obj 411 120 inlet;
#X obj 578 120 inlet;
#X obj 746 120 inlet;
#X obj 293 120 inlet;
#X obj 462 120 inlet;
#X obj 629 120 inlet;
#X obj 796 120 inlet;
#X connect 0 0 9 0;
#X connect 1 0 18 0;
#X connect 2 0 26 0;
#X connect 3 0 33 0;
#X connect 4 0 6 0;
#X connect 5 0 13 0;
#X connect 6 0 5 0;
#X connect 7 0 8 0;
#X connect 8 0 39 0;
#X connect 9 0 10 0;
#X connect 9 1 11 0;
#X connect 10 0 7 1;
#X connect 11 0 4 0;
#X connect 13 0 7 0;
#X connect 14 0 16 0;
#X connect 15 0 21 0;
#X connect 16 0 15 0;
#X connect 17 0 8 0;
#X connect 18 0 19 0;
#X connect 18 1 20 0;
#X connect 19 0 17 1;
#X connect 20 0 14 0;
#X connect 21 0 17 0;
#X connect 22 0 24 0;
#X connect 23 0 38 0;
#X connect 24 0 23 0;
#X connect 25 0 8 0;
#X connect 26 0 27 0;
#X connect 26 1 28 0;
#X connect 27 0 25 1;
#X connect 28 0 22 0;
#X connect 29 0 31 0;
#X connect 30 0 36 0;
#X connect 31 0 30 0;
#X connect 32 0 8 0;
#X connect 33 0 34 0;
#X connect 33 1 35 0;
#X connect 34 0 32 1;
#X connect 35 0 29 0;
#X connect 36 0 32 0;
#X connect 37 0 12 0;
#X connect 38 0 25 0;
#X connect 40 0 0 0;
#X connect 41 0 1 0;
#X connect 42 0 2 0;
#X connect 43 0 3 0;
#X connect 44 0 0 1;
#X connect 45 0 1 1;
#X connect 46 0 2 1;
#X connect 47 0 3 1;
#X restore 665 373 pd synth;
#X f 37;
#X obj 665 449 dac~;
#X obj 5 202 ps.scale 0 127 34 80;
#X floatatom 5 241 5 0 0 0 - - -;
#X obj 131 202 ps.scale 0 127 34 80;
#X floatatom 129 241 5 0 0 0 - - -;
#X obj 258 202 ps.scale 0 127 34 80;
#X floatatom 258 241 5 0 0 0 - - -;
#X obj 385 202 ps.scale 0 127 34 80;
#X floatatom 385 241 5 0 0 0 - - -;
#X connect 0 0 38 0;
#X connect 1 0 10 0;
#X connect 2 0 0 0;
#X connect 3 0 1 0;
#X connect 4 0 40 0;
#X connect 5 0 42 0;
#X connect 6 0 44 0;
#X connect 7 0 4 0;
#X connect 8 0 5 0;
#X connect 9 0 6 0;
#X connect 10 0 11 0;
#X connect 11 0 12 0;
#X connect 11 0 13 0;
#X connect 12 0 36 0;
#X connect 13 0 14 0;
#X connect 15 0 16 0;
#X connect 16 0 17 0;
#X connect 17 0 18 0;
#X connect 17 0 19 0;
#X connect 18 0 36 2;
#X connect 19 0 20 0;
#X connect 21 0 22 0;
#X connect 22 0 23 0;
#X connect 23 0 24 0;
#X connect 23 0 25 0;
#X connect 24 0 36 4;
#X connect 25 0 26 0;
#X connect 27 0 28 0;
#X connect 28 0 29 0;
#X connect 29 0 30 0;
#X connect 29 0 31 0;
#X connect 30 0 36 6;
#X connect 31 0 32 0;
#X connect 33 0 15 0;
#X connect 34 0 21 0;
#X connect 35 0 27 0;
#X connect 36 0 37 0;
#X connect 36 0 37 1;
#X connect 38 0 39 0;
#X connect 39 0 36 1;
#X connect 40 0 41 0;
#X connect 41 0 36 3;
#X connect 42 0 43 0;
#X connect 43 0 36 5;
#X connect 44 0 45 0;
#X connect 45 0 36 7;
