#N canvas 390 82 1019 681 10;
#X msg 54 169 close;
#X obj 37 14 cnv 15 440 60 empty empty empty 20 12 0 14 -200075 -66577
0;
#X msg 44 142 devices;
#X floatatom 104 150 5 0 0 0 - - -;
#X msg 104 169 open \$1;
#X obj 44 256 s;
#X obj 44 234 serial_print any;
#X text 46 88 Requires [comport] object \; install under Help > Find
Externals, f 72;
#X text 44 22 [serial_print]: abstraction that works with Arduinos'
Serial.print() and Serial.println() functions (with the use of [comport]).
It was written by Alexandros Drymonitis. \; See https://github.com/alexdrymonitis/Arduino_Pd
;
#X obj 268 148 r distance:;
#X floatatom 268 275 5 0 0 1 centimeters - -;
#X obj 44 212 comport 1 115200;
#X obj 268 316 ps.scale 4 80 0 1;
#X floatatom 268 358 5 0 0 0 - - -;
#X obj 268 426 line 1;
#X obj 271 462 hsl 128 15 0 1 0 0 empty empty empty -2 -8 0 10 -262144
-1 -1 9358 1;
#X floatatom 268 221 5 0 0 0 - - -;
#X floatatom 305 222 5 0 0 0 - - -;
#X obj 268 175 unpack f f s, f 13;
#X symbolatom 343 223 10 0 0 0 - - -;
#X msg 268 395 \$1 100;
#X floatatom 423 274 5 0 0 1 centimeters - -;
#X floatatom 423 357 5 0 0 0 - - -;
#X obj 423 425 line 1;
#X obj 426 461 hsl 128 15 0 1 0 0 empty empty empty -2 -8 0 10 -262144
-1 -1 12700 1;
#X msg 423 394 \$1 100;
#X obj 423 315 ps.scale 4 120 0 1;
#X connect 0 0 11 0;
#X connect 2 0 11 0;
#X connect 3 0 4 0;
#X connect 4 0 11 0;
#X connect 6 0 5 0;
#X connect 6 1 5 1;
#X connect 9 0 18 0;
#X connect 10 0 12 0;
#X connect 11 0 6 0;
#X connect 12 0 13 0;
#X connect 13 0 20 0;
#X connect 14 0 15 0;
#X connect 16 0 10 0;
#X connect 17 0 21 0;
#X connect 18 0 16 0;
#X connect 18 1 17 0;
#X connect 18 2 19 0;
#X connect 20 0 14 0;
#X connect 21 0 26 0;
#X connect 22 0 25 0;
#X connect 23 0 24 0;
#X connect 25 0 23 0;
#X connect 26 0 22 0;
