#N canvas 440 23 711 369 10;
#X obj 164 15 notein;
#X obj 83 67 pack f f;
#X obj 83 126 pack f f f;
#X obj 83 155 route 1 2 3 4;
#X obj 83 93 poly 4 1;
#X floatatom 230 89 5 0 0 0 - - -;
#X floatatom 271 89 5 0 0 0 - - -;
#X obj 83 228 unpack f f;
#X floatatom 83 267 5 0 0 0 - - -;
#X floatatom 140 267 5 0 0 0 - - -;
#X obj 198 228 unpack f f;
#X floatatom 198 267 5 0 0 0 - - -;
#X floatatom 255 267 5 0 0 0 - - -;
#X obj 305 228 unpack f f;
#X floatatom 305 267 5 0 0 0 - - -;
#X floatatom 362 267 5 0 0 0 - - -;
#X obj 420 228 unpack f f;
#X floatatom 420 267 5 0 0 0 - - -;
#X floatatom 477 267 5 0 0 0 - - -;
#X connect 0 0 1 0;
#X connect 0 0 5 0;
#X connect 0 1 1 1;
#X connect 0 1 6 0;
#X connect 1 0 4 0;
#X connect 2 0 3 0;
#X connect 3 0 7 0;
#X connect 3 1 10 0;
#X connect 3 2 13 0;
#X connect 3 3 16 0;
#X connect 4 0 2 0;
#X connect 4 1 2 1;
#X connect 4 2 2 2;
#X connect 7 0 8 0;
#X connect 7 1 9 0;
#X connect 10 0 11 0;
#X connect 10 1 12 0;
#X connect 13 0 14 0;
#X connect 13 1 15 0;
#X connect 16 0 17 0;
#X connect 16 1 18 0;
