#N canvas 82 347 1140 807 10;
#N canvas 0 22 450 300 (subpatch) 0;
#X array \$0-soundfile 13163 float 2;
#X coords 0 1 13163 -1 140 100 1 0 0;
#X restore 105 176 graph;
#X floatatom 474 422 5 0 1 0 - - -, f 5;
#X obj 336 239 soundfiler;
#X obj 336 130 openpanel;
#X obj 105 140 bng 15 250 50 0 empty empty open 17 7 0 10 -262144 -1
-1;
#X obj 433 648 *~;
#X obj 474 562 sin;
#X obj 474 451 * 2;
#X obj 474 473 - 1;
#X obj 474 495 + 1;
#X obj 474 517 / 4;
#X obj 474 539 * 3.14159;
#X obj 474 609 line~;
#X msg 474 587 \$1 30;
#X obj 397 130 symbol \$0-soundfile;
#X obj 336 107 t b b;
#X msg 336 213 read -resize \$1 \$2;
#X obj 336 189 pack s s;
#X obj 293 524 line~;
#X obj 293 551 tabread4~ \$0-soundfile;
#X floatatom 304 266 5 0 0 0 - - -, f 5;
#X obj 348 315 / 44.1;
#X floatatom 293 443 4 0 0 0 - - -, f 4;
#X floatatom 321 433 4 0 0 0 - - -, f 4;
#X obj 293 473 pack 0 0 0;
#X floatatom 350 434 6 0 0 0 - - -, f 6;
#X msg 293 499 \$1 \, \$2 \$3;
#X msg 293 401 0;
#X obj 348 356 f;
#X obj 321 401 f;
#X obj 528 175 samplerate~;
#X obj 528 131 loadbang;
#X obj 528 200 * 0.001;
#X obj 350 401 * 1;
#X floatatom 380 356 5 0 0 1 playback_speed - -, f 5;
#X obj 348 379 f;
#X obj 380 383 t b f;
#X obj 291 26 inlet;
#X obj 528 154 bng 15 250 50 0 empty empty empty 17 7 0 10 -262144
-1 -1;
#X obj 592 364 cnv 15 75 25 empty empty empty 20 12 0 14 -262130 -66577
0;
#X text 598 366 [s3g 2014];
#X obj 433 685 outlet~;
#X obj 582 -35 inlet;
#X obj 638 -35 r \$1;
#X obj 582 -9 route /open /speed /vol /read;
#X floatatom 105 282 10 0 0 1 speed - -, f 10;
#X floatatom 105 303 10 0 0 1 vol - -, f 10;
#X floatatom 183 155 10 0 0 2 length(ms) - -, f 10;
#X obj 819 142 pack s s;
#X obj 864 112 symbol \$0-soundfile;
#X obj 864 77 t b;
#X obj 837 44 t a b;
#X connect 1 0 7 0;
#X connect 2 0 20 0;
#X connect 2 0 21 0;
#X connect 3 0 17 0;
#X connect 4 0 15 0;
#X connect 5 0 41 0;
#X connect 6 0 13 0;
#X connect 7 0 8 0;
#X connect 8 0 9 0;
#X connect 9 0 10 0;
#X connect 10 0 11 0;
#X connect 11 0 6 0;
#X connect 12 0 5 1;
#X connect 13 0 12 0;
#X connect 14 0 17 1;
#X connect 15 0 3 0;
#X connect 15 1 14 0;
#X connect 16 0 2 0;
#X connect 17 0 16 0;
#X connect 18 0 19 0;
#X connect 19 0 5 0;
#X connect 20 0 29 0;
#X connect 21 0 28 0;
#X connect 22 0 24 0;
#X connect 23 0 24 1;
#X connect 24 0 26 0;
#X connect 25 0 24 2;
#X connect 25 0 47 0;
#X connect 26 0 18 0;
#X connect 27 0 22 0;
#X connect 28 0 35 0;
#X connect 29 0 23 0;
#X connect 30 0 32 0;
#X connect 31 0 38 0;
#X connect 32 0 21 1;
#X connect 33 0 25 0;
#X connect 34 0 33 1;
#X connect 34 0 36 0;
#X connect 35 0 33 0;
#X connect 36 0 35 0;
#X connect 36 1 33 1;
#X connect 37 0 27 0;
#X connect 38 0 30 0;
#X connect 42 0 44 0;
#X connect 43 0 44 0;
#X connect 44 0 4 0;
#X connect 44 1 45 0;
#X connect 44 2 46 0;
#X connect 44 3 51 0;
#X connect 45 0 34 0;
#X connect 46 0 1 0;
#X connect 48 0 16 0;
#X connect 49 0 48 1;
#X connect 50 0 49 0;
#X connect 51 0 48 0;
#X connect 51 1 50 0;
#X coords 0 -1 1 1 150 225 1 100 100;
