#N canvas 58 23 1135 580 10;
#X obj 156 151 textfile;
#X msg 89 46 read score1.txt;
#X msg 200 46 rewind;
#X obj 263 47 bng 15 250 50 0 empty empty empty 17 7 0 10 -262144 -1
-1;
#X obj 79 216 print;
#X obj 197 208 unpack f f f f;
#X floatatom 198 260 5 0 0 0 - - -, f 5;
#X floatatom 237 260 5 0 0 0 - - -, f 5;
#X floatatom 278 260 5 0 0 0 - - -, f 5;
#X floatatom 320 260 5 0 0 0 - - -, f 5;
#X obj 402 180 bng 15 250 50 0 empty empty empty 17 7 0 10 -262144
-1 -1;
#X obj 404 210 spigot;
#X obj 450 180 tgl 15 0 empty empty empty 17 7 0 10 -262144 -1 -1 1
1;
#X text 488 179 < loop;
#X obj 463 68 metro 500;
#X obj 464 33 tgl 15 0 empty empty empty 17 7 0 10 -262144 -1 -1 1
1;
#X msg 398 249 rewind \, bang;
#X obj 198 321 vradio 30 1 0 4 empty empty empty 0 -8 0 10 -262144
-1 -1 3;
#X obj 198 294 - 1;
#X obj 237 321 vradio 30 1 0 4 empty empty empty 0 -8 0 10 -262144
-1 -1 0;
#X obj 237 294 - 1;
#X obj 278 321 vradio 30 1 0 4 empty empty empty 0 -8 0 10 -262144
-1 -1 1;
#X obj 278 294 - 1;
#X obj 320 321 vradio 30 1 0 4 empty empty empty 0 -8 0 10 -262144
-1 -1 2;
#X obj 320 294 - 1;
#X connect 0 0 4 0;
#X connect 0 0 5 0;
#X connect 0 1 10 0;
#X connect 1 0 0 0;
#X connect 2 0 0 0;
#X connect 3 0 0 0;
#X connect 5 0 6 0;
#X connect 5 1 7 0;
#X connect 5 2 8 0;
#X connect 5 3 9 0;
#X connect 6 0 18 0;
#X connect 7 0 20 0;
#X connect 8 0 22 0;
#X connect 9 0 24 0;
#X connect 10 0 11 0;
#X connect 11 0 16 0;
#X connect 12 0 11 1;
#X connect 14 0 3 0;
#X connect 15 0 14 0;
#X connect 16 0 0 0;
#X connect 18 0 17 0;
#X connect 20 0 19 0;
#X connect 22 0 21 0;
#X connect 24 0 23 0;
