#N canvas 363 23 1135 580 10;
#X msg 200 46 rewind;
#X obj 402 180 bng 15 250 50 0 empty empty empty 17 7 0 10 -262144
-1 -1;
#X obj 404 210 spigot;
#X obj 450 180 tgl 15 0 empty empty empty 17 7 0 10 -262144 -1 -1 0
1;
#X text 488 179 < loop;
#X msg 398 249 rewind \, bang;
#X obj 156 151 qlist;
#X msg 89 46 read score2.txt;
#X obj 73 267 r param1;
#X obj 183 267 r param3;
#X obj 128 267 r param2;
#X obj 266 47 bng 15 250 50 0 empty empty empty 17 7 0 10 -262144 -1
-1;
#X floatatom 73 316 5 0 0 0 - - -, f 5;
#X floatatom 112 316 5 0 0 0 - - -, f 5;
#X floatatom 153 316 5 0 0 0 - - -, f 5;
#X floatatom 195 316 5 0 0 0 - - -, f 5;
#X obj 73 377 vradio 30 1 0 4 empty empty empty 0 -8 0 10 -262144 -1
-1 3;
#X obj 73 350 - 1;
#X obj 112 377 vradio 30 1 0 4 empty empty empty 0 -8 0 10 -262144
-1 -1 0;
#X obj 112 350 - 1;
#X obj 153 377 vradio 30 1 0 4 empty empty empty 0 -8 0 10 -262144
-1 -1 1;
#X obj 153 350 - 1;
#X obj 195 377 vradio 30 1 0 4 empty empty empty 0 -8 0 10 -262144
-1 -1 2;
#X obj 195 350 - 1;
#X obj 238 267 r param4;
#X connect 0 0 6 0;
#X connect 1 0 2 0;
#X connect 2 0 5 0;
#X connect 3 0 2 1;
#X connect 5 0 6 0;
#X connect 6 1 1 0;
#X connect 7 0 6 0;
#X connect 8 0 12 0;
#X connect 9 0 14 0;
#X connect 10 0 13 0;
#X connect 11 0 6 0;
#X connect 12 0 17 0;
#X connect 13 0 19 0;
#X connect 14 0 21 0;
#X connect 15 0 23 0;
#X connect 17 0 16 0;
#X connect 19 0 18 0;
#X connect 21 0 20 0;
#X connect 23 0 22 0;
#X connect 24 0 15 0;
