#N canvas 508 23 1070 508 10;
#X obj 272 400 dac~;
#X obj 123 177 *~ 1;
#X obj 180 177 *~ 0.7;
#X obj 525 177 *~ 0.1;
#X obj 468 177 *~ 0.2;
#X obj 410 177 *~ 0.3;
#X obj 353 177 *~ 0.4;
#X obj 295 177 *~ 0.5;
#X obj 238 177 *~ 0.6;
#N canvas 0 22 450 300 (subpatch) 0;
#X array spectrum1 128 float 0;
#X coords 0 500 128 0 256 130 1;
#X restore 630 129 graph;
#N canvas 204 22 358 238 fft 0;
#X obj 46 48 inlet~;
#X obj 159 145 inlet;
#X obj 46 78 rfft~;
#X obj 46 111 *~;
#X obj 77 111 *~;
#X obj 46 141 sqrt~;
#X obj 191 45 block~ 1024 1;
#X obj 159 181 tabwrite~ spectrum1;
#X connect 0 0 2 0;
#X connect 1 0 7 0;
#X connect 2 0 3 0;
#X connect 2 0 3 1;
#X connect 2 1 4 0;
#X connect 2 1 4 1;
#X connect 3 0 5 0;
#X connect 4 0 5 0;
#X connect 5 0 7 0;
#X restore 641 383 pd fft;
#X obj 744 296 tgl 30 0 empty empty empty 17 7 0 10 -262144 -1 -1 1
1;
#X obj 744 341 metro 50;
#X obj 641 358 *~ 1;
#X obj 123 125 osc~ 200;
#X obj 180 125 osc~ 300;
#X obj 238 125 osc~ 400;
#X obj 295 125 osc~ 500;
#X obj 353 125 osc~ 600;
#X obj 410 125 osc~ 700;
#X obj 468 125 osc~ 800;
#X obj 525 125 osc~ 900;
#X obj 273 357 *~ 0.2;
#X obj 273 302 *~ 1;
#X connect 1 0 23 0;
#X connect 2 0 23 0;
#X connect 3 0 23 0;
#X connect 4 0 23 0;
#X connect 5 0 23 0;
#X connect 6 0 23 0;
#X connect 7 0 23 0;
#X connect 8 0 23 0;
#X connect 11 0 12 0;
#X connect 12 0 10 1;
#X connect 13 0 10 0;
#X connect 14 0 1 0;
#X connect 15 0 2 0;
#X connect 16 0 8 0;
#X connect 17 0 7 0;
#X connect 18 0 6 0;
#X connect 19 0 5 0;
#X connect 20 0 4 0;
#X connect 21 0 3 0;
#X connect 22 0 0 0;
#X connect 22 0 0 1;
#X connect 23 0 13 0;
#X connect 23 0 22 0;
