#N canvas 180 36 1070 508 10;
#X obj 268 421 dac~;
#X obj 120 220 *~ 1;
#X obj 177 220 *~ 0.7;
#X obj 522 220 *~ 0.1;
#X obj 465 220 *~ 0.2;
#X obj 407 220 *~ 0.3;
#X obj 350 220 *~ 0.4;
#X obj 292 220 *~ 0.5;
#X obj 235 220 *~ 0.6;
#N canvas 0 22 450 300 (subpatch) 0;
#X array spectrum2 128 float 0;
#X coords 0 500 128 0 256 130 1 0 0;
#X restore 627 172 graph;
#N canvas 204 22 358 238 fft 0;
#X obj 46 48 inlet~;
#X obj 159 145 inlet;
#X obj 46 78 rfft~;
#X obj 46 111 *~;
#X obj 77 111 *~;
#X obj 46 141 sqrt~;
#X obj 191 45 block~ 1024 1;
#X obj 159 181 tabwrite~ spectrum2;
#X connect 0 0 2 0;
#X connect 1 0 7 0;
#X connect 2 0 3 0;
#X connect 2 0 3 1;
#X connect 2 1 4 0;
#X connect 2 1 4 1;
#X connect 3 0 5 0;
#X connect 4 0 5 0;
#X connect 5 0 7 0;
#X restore 638 426 pd fft;
#X obj 741 339 tgl 30 0 empty empty empty 17 7 0 10 -262144 -1 -1 0
1;
#X obj 741 384 metro 50;
#X floatatom 306 18 5 0 0 1 fundamental_frequency - -, f 5;
#X obj 120 105 * 1;
#X obj 177 105 * 2;
#X obj 120 168 osc~;
#X obj 177 168 osc~;
#X obj 235 168 osc~;
#X obj 292 168 osc~;
#X obj 350 168 osc~;
#X obj 407 168 osc~;
#X obj 465 168 osc~;
#X obj 522 168 osc~;
#X obj 235 104 * 3;
#X obj 292 104 * 4;
#X obj 350 106 * 5;
#X obj 407 106 * 6;
#X obj 465 105 * 7;
#X obj 522 105 * 8;
#X obj 268 345 *~ 0.2;
#X obj 638 401 *~ 6;
#X connect 1 0 30 0;
#X connect 2 0 30 0;
#X connect 3 0 30 0;
#X connect 4 0 30 0;
#X connect 5 0 30 0;
#X connect 6 0 30 0;
#X connect 7 0 30 0;
#X connect 8 0 30 0;
#X connect 11 0 12 0;
#X connect 12 0 10 1;
#X connect 13 0 14 0;
#X connect 13 0 15 0;
#X connect 13 0 24 0;
#X connect 13 0 25 0;
#X connect 13 0 26 0;
#X connect 13 0 27 0;
#X connect 13 0 28 0;
#X connect 13 0 29 0;
#X connect 14 0 16 0;
#X connect 15 0 17 0;
#X connect 16 0 1 0;
#X connect 17 0 2 0;
#X connect 18 0 8 0;
#X connect 19 0 7 0;
#X connect 20 0 6 0;
#X connect 21 0 5 0;
#X connect 22 0 4 0;
#X connect 23 0 3 0;
#X connect 24 0 18 0;
#X connect 25 0 19 0;
#X connect 26 0 20 0;
#X connect 27 0 21 0;
#X connect 28 0 22 0;
#X connect 29 0 23 0;
#X connect 30 0 0 0;
#X connect 30 0 0 1;
#X connect 30 0 31 0;
#X connect 31 0 10 0;
