#N canvas 231 34 1312 627 10;
#X obj 334 475 dac~;
#X obj 81 144 * 1;
#X floatatom 81 177 5 0 0 0 - - -;
#X obj 81 205 osc~;
#X obj 81 277 *~;
#X obj 129 144 random 100;
#X obj 129 177 / 100;
#X floatatom 129 205 5 0 0 0 - - -;
#X floatatom 219 177 5 0 0 0 - - -;
#X obj 219 205 osc~;
#X obj 219 277 *~;
#X obj 267 144 random 100;
#X obj 267 177 / 100;
#X floatatom 267 205 5 0 0 0 - - -;
#X floatatom 354 177 5 0 0 0 - - -;
#X obj 354 205 osc~;
#X obj 354 277 *~;
#X obj 402 144 random 100;
#X obj 402 177 / 100;
#X floatatom 402 205 5 0 0 0 - - -;
#X floatatom 492 177 5 0 0 0 - - -;
#X obj 492 205 osc~;
#X obj 492 277 *~;
#X obj 540 144 random 100;
#X obj 540 177 / 100;
#X floatatom 540 205 5 0 0 0 - - -;
#X floatatom 629 177 5 0 0 0 - - -;
#X obj 629 205 osc~;
#X obj 629 277 *~;
#X obj 677 144 random 100;
#X obj 677 177 / 100;
#X floatatom 677 205 5 0 0 0 - - -;
#X floatatom 764 177 5 0 0 0 - - -;
#X obj 764 205 osc~;
#X obj 764 277 *~;
#X obj 812 144 random 100;
#X obj 812 177 / 100;
#X floatatom 812 205 5 0 0 0 - - -;
#X floatatom 902 177 5 0 0 0 - - -;
#X obj 902 205 osc~;
#X obj 902 277 *~;
#X obj 950 144 random 100;
#X obj 950 177 / 100;
#X floatatom 950 205 5 0 0 0 - - -;
#X obj 219 144 * 2;
#X obj 354 144 * 3;
#X obj 492 144 * 4;
#X obj 629 144 * 5;
#X obj 764 144 * 6;
#X obj 902 144 * 7;
#X floatatom 282 31 5 0 0 1 fundamental - -;
#X obj 554 31 bng 15 250 50 0 empty empty new_color 0 -6 0 8 -262144
-1 -1;
#X text 114 546 www.pd-tutorial.com;
#X text 116 514 variation on patch by Johannes Kreidler;
#N canvas 0 22 450 300 (subpatch) 0;
#X array spectrum3 128 float 0;
#X coords 0 500 128 0 256 130 1 0 0;
#X restore 704 347 graph;
#N canvas 204 22 358 238 fft 0;
#X obj 46 48 inlet~;
#X obj 159 145 inlet;
#X obj 46 78 rfft~;
#X obj 46 111 *~;
#X obj 77 111 *~;
#X obj 46 141 sqrt~;
#X obj 191 45 block~ 1024 1;
#X obj 159 181 tabwrite~ spectrum3;
#X connect 0 0 2 0;
#X connect 1 0 7 0;
#X connect 2 0 3 0;
#X connect 2 0 3 1;
#X connect 2 1 4 0;
#X connect 2 1 4 1;
#X connect 3 0 5 0;
#X connect 4 0 5 0;
#X connect 5 0 7 0;
#X restore 430 512 pd fft;
#X obj 533 425 tgl 30 0 empty empty empty 17 7 0 10 -262144 -1 -1 1
1;
#X obj 533 470 metro 50;
#X obj 430 487 *~ 1;
#X obj 334 444 *~ 0.5;
#X obj 554 59 t b b b b b b b, f 74;
#X obj 129 253 line~;
#X msg 129 227 \$1 50;
#X obj 267 253 line~;
#X msg 267 227 \$1 50;
#X obj 402 253 line~;
#X msg 402 227 \$1 50;
#X obj 540 253 line~;
#X msg 540 227 \$1 50;
#X obj 676 253 line~;
#X msg 677 227 \$1 50;
#X obj 812 253 line~;
#X msg 812 227 \$1 50;
#X obj 949 253 line~;
#X msg 949 227 \$1 50;
#X connect 1 0 2 0;
#X connect 2 0 3 0;
#X connect 3 0 4 0;
#X connect 4 0 59 0;
#X connect 5 0 6 0;
#X connect 6 0 7 0;
#X connect 7 0 62 0;
#X connect 8 0 9 0;
#X connect 9 0 10 0;
#X connect 10 0 59 0;
#X connect 11 0 12 0;
#X connect 12 0 13 0;
#X connect 13 0 64 0;
#X connect 14 0 15 0;
#X connect 15 0 16 0;
#X connect 16 0 59 0;
#X connect 17 0 18 0;
#X connect 18 0 19 0;
#X connect 19 0 66 0;
#X connect 20 0 21 0;
#X connect 21 0 22 0;
#X connect 22 0 59 0;
#X connect 23 0 24 0;
#X connect 24 0 25 0;
#X connect 25 0 68 0;
#X connect 26 0 27 0;
#X connect 27 0 28 0;
#X connect 28 0 59 0;
#X connect 29 0 30 0;
#X connect 30 0 31 0;
#X connect 31 0 70 0;
#X connect 32 0 33 0;
#X connect 33 0 34 0;
#X connect 34 0 59 0;
#X connect 35 0 36 0;
#X connect 36 0 37 0;
#X connect 37 0 72 0;
#X connect 38 0 39 0;
#X connect 39 0 40 0;
#X connect 40 0 59 0;
#X connect 41 0 42 0;
#X connect 42 0 43 0;
#X connect 43 0 74 0;
#X connect 44 0 8 0;
#X connect 45 0 14 0;
#X connect 46 0 20 0;
#X connect 47 0 26 0;
#X connect 48 0 32 0;
#X connect 49 0 38 0;
#X connect 50 0 1 0;
#X connect 50 0 44 0;
#X connect 50 0 45 0;
#X connect 50 0 46 0;
#X connect 50 0 47 0;
#X connect 50 0 48 0;
#X connect 50 0 49 0;
#X connect 51 0 60 0;
#X connect 56 0 57 0;
#X connect 57 0 55 1;
#X connect 58 0 55 0;
#X connect 59 0 0 0;
#X connect 59 0 0 1;
#X connect 59 0 58 0;
#X connect 60 0 5 0;
#X connect 60 1 11 0;
#X connect 60 2 17 0;
#X connect 60 3 23 0;
#X connect 60 4 29 0;
#X connect 60 5 35 0;
#X connect 60 6 41 0;
#X connect 61 0 4 1;
#X connect 62 0 61 0;
#X connect 63 0 10 1;
#X connect 64 0 63 0;
#X connect 65 0 16 1;
#X connect 66 0 65 0;
#X connect 67 0 22 1;
#X connect 68 0 67 0;
#X connect 69 0 28 1;
#X connect 70 0 69 0;
#X connect 71 0 34 1;
#X connect 72 0 71 0;
#X connect 73 0 40 1;
#X connect 74 0 73 0;
