#N canvas 558 241 837 574 10;
#X obj 262 412 dac~;
#X msg 187 94 /open;
#X text 96 69 open sound file from finder;
#X obj 278 348 clip~ -1 1;
#X obj 278 320 *~ 0.5;
#N canvas 103 23 1423 974 midi_samplePlay 0;
#X obj 247 152 pack f f;
#X obj 247 211 pack f f f;
#X obj 247 240 route 1 2 3 4, f 63;
#X obj 247 178 poly 4 1;
#X msg 649 265 60;
#X obj 649 240 loadbang;
#X text 683 265 key for normal speed;
#X obj 398 855 outlet~;
#X msg 277 430 /speed1 \$1;
#X obj 750 15 inlet;
#X obj 749 69 route /velocity /note;
#X obj 391 684 ps.sampleloop-x4~ vx2;
#X obj 247 272 unpack f f;
#X floatatom 247 305 5 0 0 0 - - -;
#X floatatom 304 305 5 0 0 0 - - -;
#X obj 342 272 unpack f f;
#X floatatom 342 305 5 0 0 0 - - -;
#X floatatom 399 305 5 0 0 0 - - -;
#X obj 437 272 unpack f f;
#X floatatom 437 305 5 0 0 0 - - -;
#X floatatom 494 305 5 0 0 0 - - -;
#X obj 532 272 unpack f f;
#X floatatom 532 305 5 0 0 0 - - -;
#X floatatom 589 305 5 0 0 0 - - -;
#X obj 247 356 ps.midi_to_speed;
#X obj 349 356 ps.midi_to_speed;
#X obj 454 358 ps.midi_to_speed;
#X obj 556 358 ps.midi_to_speed;
#X obj 302 600 > 0;
#X obj 412 600 > 0;
#X obj 527 597 > 0;
#X obj 634 605 > 0;
#X obj 302 567 f;
#X obj 250 384 t b f;
#X obj 408 570 f;
#X obj 356 387 t b f;
#X obj 523 572 f;
#X obj 471 389 t b f;
#X obj 639 575 f;
#X obj 587 392 t b f;
#X msg 383 433 /speed2 \$1;
#X msg 498 435 /speed3 \$1;
#X msg 614 438 /speed4 \$1;
#X obj 398 800 *~ 0.5;
#X obj 487 799 *~ 0.5;
#X obj 576 798 *~ 0.5;
#X obj 665 798 *~ 0.5;
#X connect 0 0 3 0;
#X connect 1 0 2 0;
#X connect 2 0 12 0;
#X connect 2 1 15 0;
#X connect 2 2 18 0;
#X connect 2 3 21 0;
#X connect 3 0 1 0;
#X connect 3 1 1 1;
#X connect 3 2 1 2;
#X connect 4 0 24 1;
#X connect 4 0 25 1;
#X connect 4 0 26 1;
#X connect 4 0 27 1;
#X connect 5 0 4 0;
#X connect 8 0 11 4;
#X connect 9 0 10 0;
#X connect 10 0 0 1;
#X connect 10 1 0 0;
#X connect 10 2 11 4;
#X connect 11 0 43 0;
#X connect 11 1 44 0;
#X connect 11 2 45 0;
#X connect 11 3 46 0;
#X connect 12 0 13 0;
#X connect 12 1 14 0;
#X connect 13 0 24 0;
#X connect 14 0 32 1;
#X connect 15 0 16 0;
#X connect 15 1 17 0;
#X connect 16 0 25 0;
#X connect 17 0 34 1;
#X connect 18 0 19 0;
#X connect 18 1 20 0;
#X connect 19 0 26 0;
#X connect 20 0 36 1;
#X connect 21 0 22 0;
#X connect 21 1 23 0;
#X connect 22 0 27 0;
#X connect 23 0 38 1;
#X connect 24 0 33 0;
#X connect 25 0 35 0;
#X connect 26 0 37 0;
#X connect 27 0 39 0;
#X connect 28 0 11 0;
#X connect 29 0 11 1;
#X connect 30 0 11 2;
#X connect 31 0 11 3;
#X connect 32 0 28 0;
#X connect 33 0 32 0;
#X connect 33 1 8 0;
#X connect 34 0 29 0;
#X connect 35 0 34 0;
#X connect 35 1 40 0;
#X connect 36 0 30 0;
#X connect 37 0 36 0;
#X connect 37 1 41 0;
#X connect 38 0 31 0;
#X connect 39 0 38 0;
#X connect 39 1 42 0;
#X connect 40 0 11 4;
#X connect 41 0 11 4;
#X connect 42 0 11 4;
#X connect 43 0 7 0;
#X connect 44 0 7 0;
#X connect 45 0 7 0;
#X connect 46 0 7 0;
#X coords 0 974 1 973 100 80 0;
#X restore 278 297 pd midi_samplePlay;
#X obj 292 118 notein;
#X floatatom 292 157 5 0 0 0 - - -;
#X floatatom 332 156 5 0 0 0 - - -;
#X msg 278 218 /note \$1;
#X msg 347 218 /velocity \$1;
#X text 139 16 play w/ MIDI keyboard \, set under Media > MIDI settings
;
#X connect 1 0 5 0;
#X connect 3 0 0 0;
#X connect 3 0 0 1;
#X connect 4 0 3 0;
#X connect 5 0 4 0;
#X connect 6 0 7 0;
#X connect 6 1 8 0;
#X connect 7 0 9 0;
#X connect 8 0 10 0;
#X connect 9 0 5 0;
#X connect 10 0 5 0;
