#N canvas 273 322 597 483 12;
#X floatatom 83 256 5 0 0 1 pitch_speed - -;
#X obj 84 175 mtof;
#X floatatom 84 155 5 0 0 0 - - -;
#X floatatom 84 198 5 0 0 0 - - -;
#X obj 128 156 mtof;
#X floatatom 128 134 5 0 0 2 pitch - -;
#X floatatom 128 180 5 0 0 0 - - -;
#X obj 83 229 /;
#X obj 126 198 t b f;
#X obj 83 284 swap 1;
#X obj 83 308 /;
#X floatatom 82 360 5 0 0 0 - - -;
#X obj 82 398 outlet;
#X obj 84 60 inlet;
#X obj 128 60 inlet;
#X text 179 132 midi value for normal speed;
#X connect 0 0 9 0;
#X connect 1 0 3 0;
#X connect 2 0 1 0;
#X connect 3 0 7 0;
#X connect 4 0 6 0;
#X connect 5 0 4 0;
#X connect 6 0 8 0;
#X connect 7 0 0 0;
#X connect 8 0 7 0;
#X connect 8 1 7 1;
#X connect 9 0 10 0;
#X connect 9 1 10 1;
#X connect 10 0 11 0;
#X connect 11 0 12 0;
#X connect 13 0 2 0;
#X connect 14 0 5 0;
