#N canvas 70 23 1533 954 10;
#X obj 374 355 soundfiler;
#X msg 374 329 read -resize \$1 \$2;
#X obj 374 305 pack s s;
#X obj 315 782 line~;
#X obj 315 809 tabread4~ \$0-soundfile;
#X obj 370 563 / 44.1;
#X floatatom 315 701 4 0 0 0 - - -;
#X floatatom 343 701 4 0 0 0 - - -;
#X obj 315 731 pack 0 0 0;
#X floatatom 372 701 6 0 0 0 - - -;
#X msg 315 757 \$1 \, \$2 \$3;
#X msg 315 659 0;
#X obj 370 604 f;
#X obj 343 659 f;
#X obj 579 261 samplerate~;
#X obj 579 217 loadbang;
#X obj 579 286 * 0.001;
#X obj 372 659 * 1;
#X floatatom 402 604 5 0 0 1 playback_speed - -;
#X obj 370 627 f;
#X obj 402 630 t b f;
#X obj 315 121 inlet;
#X obj 579 240 bng 15 250 50 0 empty empty empty 17 7 0 10 -262144
-1 -1;
#X obj 315 919 outlet~;
#X obj 1219 102 inlet;
#X obj 1275 102 r \$1;
#X obj 145 848 table \$0-soundfile;
#X obj 419 275 symbol \$0-soundfile;
#X obj 419 240 t b;
#X obj 392 207 t a b;
#X obj 182 236 openpanel;
#X obj 243 236 symbol \$0-soundfile;
#X obj 182 213 t b b;
#X obj 182 295 pack s s;
#X obj 373 482 f;
#X obj 1219 132 route /open /read /speed1 /speed2 /speed3 /speed4;
#X obj 315 514 metro;
#X floatatom 373 514 5 0 0 0 - - -;
#X floatatom 343 455 10 0 0 0 - - -;
#X obj 315 178 tgl 15 0 empty empty empty 17 7 0 10 -262144 -1 -1 0
1;
#X obj 330 858 line~;
#X obj 315 881 *~;
#X msg 330 835 \$1 100;
#X obj 672 771 line~;
#X obj 672 798 tabread4~ \$0-soundfile;
#X obj 727 562 / 44.1;
#X floatatom 672 690 4 0 0 0 - - -;
#X floatatom 700 690 4 0 0 0 - - -;
#X obj 672 720 pack 0 0 0;
#X floatatom 729 690 6 0 0 0 - - -;
#X msg 672 746 \$1 \, \$2 \$3;
#X msg 672 648 0;
#X obj 727 603 f;
#X obj 700 648 f;
#X obj 729 648 * 1;
#X floatatom 759 603 5 0 0 1 playback_speed - -;
#X obj 727 626 f;
#X obj 759 630 t b f;
#X obj 672 120 inlet;
#X obj 672 918 outlet~;
#X obj 730 481 f;
#X obj 672 513 metro;
#X floatatom 730 513 5 0 0 0 - - -;
#X floatatom 700 454 10 0 0 0 - - -;
#X obj 672 177 tgl 15 0 empty empty empty 17 7 0 10 -262144 -1 -1 0
1;
#X obj 687 847 line~;
#X obj 672 870 *~;
#X msg 687 824 \$1 100;
#X obj 904 771 line~;
#X obj 904 798 tabread4~ \$0-soundfile;
#X obj 959 562 / 44.1;
#X floatatom 904 690 4 0 0 0 - - -;
#X floatatom 932 690 4 0 0 0 - - -;
#X obj 904 720 pack 0 0 0;
#X floatatom 961 690 6 0 0 0 - - -;
#X msg 904 746 \$1 \, \$2 \$3;
#X msg 904 648 0;
#X obj 959 603 f;
#X obj 932 648 f;
#X obj 961 648 * 1;
#X floatatom 991 603 5 0 0 1 playback_speed - -;
#X obj 959 626 f;
#X obj 991 630 t b f;
#X obj 904 120 inlet;
#X obj 904 918 outlet~;
#X obj 962 481 f;
#X obj 904 513 metro;
#X floatatom 962 513 5 0 0 0 - - -;
#X floatatom 932 454 10 0 0 0 - - -;
#X obj 904 177 tgl 15 0 empty empty empty 17 7 0 10 -262144 -1 -1 0
1;
#X obj 919 847 line~;
#X obj 904 870 *~;
#X msg 919 824 \$1 100;
#X obj 1128 771 line~;
#X obj 1128 798 tabread4~ \$0-soundfile;
#X obj 1183 562 / 44.1;
#X floatatom 1128 690 4 0 0 0 - - -;
#X floatatom 1156 690 4 0 0 0 - - -;
#X obj 1128 720 pack 0 0 0;
#X floatatom 1185 690 6 0 0 0 - - -;
#X msg 1128 746 \$1 \, \$2 \$3;
#X msg 1128 648 0;
#X obj 1183 603 f;
#X obj 1156 648 f;
#X obj 1185 648 * 1;
#X floatatom 1215 603 5 0 0 1 playback_speed - -;
#X obj 1183 626 f;
#X obj 1215 630 t b f;
#X obj 1128 120 inlet;
#X obj 1128 918 outlet~;
#X obj 1186 481 f;
#X obj 1128 513 metro;
#X floatatom 1186 513 5 0 0 0 - - -;
#X floatatom 1156 454 10 0 0 0 - - -;
#X obj 1128 177 tgl 15 0 empty empty empty 17 7 0 10 -262144 -1 -1
0 1;
#X obj 1143 847 line~;
#X obj 1128 870 *~;
#X msg 1143 824 \$1 100;
#X connect 0 0 34 0;
#X connect 0 0 60 0;
#X connect 0 0 85 0;
#X connect 0 0 110 0;
#X connect 1 0 0 0;
#X connect 2 0 1 0;
#X connect 3 0 4 0;
#X connect 4 0 41 0;
#X connect 5 0 12 0;
#X connect 6 0 8 0;
#X connect 7 0 8 1;
#X connect 8 0 10 0;
#X connect 9 0 8 2;
#X connect 9 0 38 0;
#X connect 10 0 3 0;
#X connect 11 0 6 0;
#X connect 12 0 19 0;
#X connect 13 0 7 0;
#X connect 14 0 16 0;
#X connect 15 0 22 0;
#X connect 16 0 5 1;
#X connect 16 0 45 1;
#X connect 16 0 70 1;
#X connect 16 0 95 1;
#X connect 17 0 9 0;
#X connect 18 0 17 1;
#X connect 18 0 20 0;
#X connect 19 0 17 0;
#X connect 20 0 19 0;
#X connect 20 1 17 1;
#X connect 21 0 39 0;
#X connect 22 0 14 0;
#X connect 24 0 35 0;
#X connect 25 0 35 0;
#X connect 27 0 2 1;
#X connect 28 0 27 0;
#X connect 29 0 2 0;
#X connect 29 1 28 0;
#X connect 30 0 33 0;
#X connect 31 0 33 1;
#X connect 32 0 30 0;
#X connect 32 1 31 0;
#X connect 33 0 1 0;
#X connect 34 0 37 0;
#X connect 35 0 32 0;
#X connect 35 1 29 0;
#X connect 35 2 18 0;
#X connect 35 3 55 0;
#X connect 35 4 80 0;
#X connect 35 5 105 0;
#X connect 36 0 11 0;
#X connect 37 0 5 0;
#X connect 37 0 13 0;
#X connect 38 0 36 1;
#X connect 39 0 36 0;
#X connect 39 0 42 0;
#X connect 40 0 41 1;
#X connect 41 0 23 0;
#X connect 42 0 40 0;
#X connect 43 0 44 0;
#X connect 44 0 66 0;
#X connect 45 0 52 0;
#X connect 46 0 48 0;
#X connect 47 0 48 1;
#X connect 48 0 50 0;
#X connect 49 0 48 2;
#X connect 49 0 63 0;
#X connect 50 0 43 0;
#X connect 51 0 46 0;
#X connect 52 0 56 0;
#X connect 53 0 47 0;
#X connect 54 0 49 0;
#X connect 55 0 54 1;
#X connect 55 0 57 0;
#X connect 56 0 54 0;
#X connect 57 0 56 0;
#X connect 57 1 54 1;
#X connect 58 0 64 0;
#X connect 60 0 62 0;
#X connect 61 0 51 0;
#X connect 62 0 45 0;
#X connect 62 0 53 0;
#X connect 63 0 61 1;
#X connect 64 0 61 0;
#X connect 64 0 67 0;
#X connect 65 0 66 1;
#X connect 66 0 59 0;
#X connect 67 0 65 0;
#X connect 68 0 69 0;
#X connect 69 0 91 0;
#X connect 70 0 77 0;
#X connect 71 0 73 0;
#X connect 72 0 73 1;
#X connect 73 0 75 0;
#X connect 74 0 73 2;
#X connect 74 0 88 0;
#X connect 75 0 68 0;
#X connect 76 0 71 0;
#X connect 77 0 81 0;
#X connect 78 0 72 0;
#X connect 79 0 74 0;
#X connect 80 0 79 1;
#X connect 80 0 82 0;
#X connect 81 0 79 0;
#X connect 82 0 81 0;
#X connect 82 1 79 1;
#X connect 83 0 89 0;
#X connect 85 0 87 0;
#X connect 86 0 76 0;
#X connect 87 0 70 0;
#X connect 87 0 78 0;
#X connect 88 0 86 1;
#X connect 89 0 86 0;
#X connect 89 0 92 0;
#X connect 90 0 91 1;
#X connect 91 0 84 0;
#X connect 92 0 90 0;
#X connect 93 0 94 0;
#X connect 94 0 116 0;
#X connect 95 0 102 0;
#X connect 96 0 98 0;
#X connect 97 0 98 1;
#X connect 98 0 100 0;
#X connect 99 0 98 2;
#X connect 99 0 113 0;
#X connect 100 0 93 0;
#X connect 101 0 96 0;
#X connect 102 0 106 0;
#X connect 103 0 97 0;
#X connect 104 0 99 0;
#X connect 105 0 104 1;
#X connect 105 0 107 0;
#X connect 106 0 104 0;
#X connect 107 0 106 0;
#X connect 107 1 104 1;
#X connect 108 0 114 0;
#X connect 110 0 112 0;
#X connect 111 0 101 0;
#X connect 112 0 95 0;
#X connect 112 0 103 0;
#X connect 113 0 111 1;
#X connect 114 0 111 0;
#X connect 114 0 117 0;
#X connect 115 0 116 1;
#X connect 116 0 109 0;
#X connect 117 0 115 0;
#X coords 0 954 1 953 150 50 0;
