#N canvas 234 361 1349 856 10;
#X obj 237 437 dac~;
#X obj 237 361 *~ 0.7;
#X floatatom 270 341 5 0 1 0 - - -, f 5;
#X obj 237 289 vline~;
#X obj 237 219 f;
#X obj 697 290 adc~;
#X msg 740 312 start;
#X msg 973 396 stop;
#X obj 238 148 bng 15 250 50 0 empty empty empty 17 7 0 10 -262144
-1 -1;
#X obj 706 143 s setBuffersize;
#X obj 693 72 r setBuffersize;
#X obj 740 235 r startRecording;
#X obj 238 124 r startPlaying;
#X obj 237 405 clip~ -1 1;
#X obj 237 383 hip~ 1;
#X obj 600 208 cnv 30 500 20 empty empty empty 20 12 0 14 -204786 -66577
0;
#X text 793 73 <- 1) resize buffer to number of samples for recording
;
#X text 850 234 <- 2) record sound into the buffer;
#X obj 149 540 tgl 40 0 empty empty empty 17 7 0 10 -262144 -1 -1 0
1;
#X obj 149 594 select 1;
#X obj 74 687 s startRecording;
#X obj 267 678 s stopRecording;
#X obj 1021 256 r stopRecording;
#X obj 241 746 timer;
#X floatatom 241 768 15 0 0 0 - - -, f 15;
#X obj 237 245 pack f f;
#X msg 237 267 \$1 \, 0 \$2;
#X obj 74 641 t b b b;
#X obj 330 173 * 44.1;
#X floatatom 330 153 15 0 0 0 - - -, f 15;
#X floatatom 330 195 15 0 0 0 - - -, f 15;
#X obj 194 642 t b b b;
#X obj 210 540 bng 40 250 50 0 empty empty empty 17 7 0 10 -262144
-1 -1;
#X obj 210 594 s startPlaying;
#X msg 706 121 200000;
#X obj 241 795 s timeIndex;
#X obj 330 124 r timeIndex;
#X text 10 549 rec (press/release) ->;
#X text 255 550 <- play;
#X obj 706 99 loadbang;
#X text 11 563 rec = 1 or 0 ->;
#X text 256 562 <- play = 1;
#X obj 210 518 sel 1;
#X msg 159 461 1;
#X obj 149 517 change;
#X msg 35 459 1;
#X msg 85 460 0;
#X obj 85 204 t b;
#X text 829 88 set for more time than actually needed...;
#X obj 434 311 table /soundbuffer;
#X obj 697 490 tabwrite~ /soundbuffer;
#X msg 694 172 \; /soundbuffer resize \$1;
#X obj 237 312 tabread4~ /soundbuffer;
#X obj 35 -11 receive fromGUI;
#X obj 35 45 route list;
#X obj 35 95 route /rec /play;
#X obj 35 137 sel 1;
#X obj 120 137 sel 1;
#X obj 35 204 t b b;
#X obj 433 757 send toGUI;
#X obj 159 204 t b b b;
#X msg 433 711 list /rec 0;
#X text 438 24 s3g 2016;
#X obj 490 482 snapshot~;
#X obj 490 376 loadbang;
#X obj 490 432 tgl 15 0 empty empty empty 17 7 0 10 -262144 -1 -1 1
1;
#X msg 490 401 1;
#X floatatom 490 507 5 0 0 0 - - -, f 5;
#X obj 490 537 / 1;
#X floatatom 490 681 5 0 0 0 - - -, f 5;
#X obj 490 608 - 1, f 5;
#X obj 490 559 t b f;
#X obj 490 585 f 1;
#X obj 490 657 line;
#X msg 513 711 list /playbar \$1 0;
#X msg 490 630 \$1 50;
#X obj 490 457 metro 100;
#X obj 820 371 line~;
#X obj 697 420 *~;
#X obj 1021 286 t b b;
#X obj 740 264 t b b;
#X msg 820 342 0 \, 1 500;
#X msg 888 341 1 \, 0 500;
#X obj 973 370 delay 510;
#X connect 1 0 14 0;
#X connect 2 0 1 1;
#X connect 3 0 52 0;
#X connect 3 0 63 0;
#X connect 4 0 25 0;
#X connect 5 0 78 0;
#X connect 6 0 50 0;
#X connect 7 0 50 0;
#X connect 8 0 4 0;
#X connect 10 0 51 0;
#X connect 11 0 80 0;
#X connect 12 0 8 0;
#X connect 13 0 0 0;
#X connect 13 0 0 1;
#X connect 14 0 13 0;
#X connect 18 0 19 0;
#X connect 19 0 27 0;
#X connect 19 1 31 0;
#X connect 22 0 79 0;
#X connect 23 0 24 0;
#X connect 24 0 35 0;
#X connect 25 0 26 0;
#X connect 26 0 3 0;
#X connect 27 0 20 0;
#X connect 27 2 23 0;
#X connect 28 0 30 0;
#X connect 29 0 28 0;
#X connect 29 0 25 1;
#X connect 30 0 4 1;
#X connect 30 0 68 1;
#X connect 31 1 21 0;
#X connect 31 2 23 1;
#X connect 32 0 33 0;
#X connect 34 0 9 0;
#X connect 36 0 29 0;
#X connect 39 0 34 0;
#X connect 42 0 32 0;
#X connect 43 0 42 0;
#X connect 44 0 18 0;
#X connect 45 0 44 0;
#X connect 46 0 44 0;
#X connect 47 0 46 0;
#X connect 52 0 1 0;
#X connect 53 0 54 0;
#X connect 54 0 55 0;
#X connect 55 0 56 0;
#X connect 55 1 57 0;
#X connect 56 0 58 0;
#X connect 56 1 47 0;
#X connect 57 0 60 0;
#X connect 58 0 45 0;
#X connect 60 0 43 0;
#X connect 60 1 46 0;
#X connect 60 2 61 0;
#X connect 61 0 59 0;
#X connect 63 0 67 0;
#X connect 64 0 66 0;
#X connect 65 0 76 0;
#X connect 66 0 65 0;
#X connect 67 0 68 0;
#X connect 68 0 71 0;
#X connect 69 0 74 0;
#X connect 70 0 75 0;
#X connect 71 0 72 0;
#X connect 71 1 70 1;
#X connect 72 0 70 0;
#X connect 73 0 69 0;
#X connect 74 0 59 0;
#X connect 75 0 73 0;
#X connect 76 0 63 0;
#X connect 77 0 78 1;
#X connect 78 0 50 0;
#X connect 79 0 83 0;
#X connect 79 1 82 0;
#X connect 80 0 81 0;
#X connect 80 1 6 0;
#X connect 81 0 77 0;
#X connect 82 0 77 0;
#X connect 83 0 7 0;
