#N canvas 1025 910 2549 883 10;
#X obj 269 332 outlet;
#X obj 269 279 float;
#X obj 318 183 |;
#X obj 111 239 -;
#X obj 110 204 float;
#X obj 110 184 trigger bang float;
#X obj 231 204 &;
#X obj 183 142 route 0 1;
#X msg 36 56 \$1 1;
#X msg 106 56 \$1 2;
#X msg 176 56 \$1 4;
#X msg 246 56 \$1 8;
#X msg 316 56 \$1 16;
#X msg 386 56 \$1 32;
#X msg 456 56 \$1 64;
#X msg 526 56 \$1 128;
#X obj 36 15 inlet;
#X obj 106 15 inlet;
#X obj 176 15 inlet;
#X obj 246 15 inlet;
#X obj 316 15 inlet;
#X obj 386 15 inlet;
#X obj 456 15 inlet;
#X obj 526 15 inlet;
#X obj 36 35 change -1;
#X obj 106 35 change -1;
#X obj 176 35 change -1;
#X obj 246 35 change -1;
#X obj 316 35 change -1;
#X obj 386 35 change -1;
#X obj 456 35 change -1;
#X obj 526 35 change -1;
#X obj 599 16 inlet;
#X obj 599 36 change -1;
#X msg 599 57 \$1 256;
#X obj 685 15 inlet;
#X obj 685 35 change -1;
#X msg 685 56 \$1 512;
#X obj 761 15 inlet;
#X obj 761 35 change -1;
#X obj 841 14 inlet;
#X obj 841 34 change -1;
#X msg 761 56 \$1 1024;
#X msg 841 55 \$1 2048;
#X obj 918 14 inlet;
#X obj 918 34 change -1;
#X msg 918 55 \$1 4096;
#X obj 994 14 inlet;
#X obj 994 34 change -1;
#X msg 994 55 \$1 8192;
#X connect 1 0 2 1;
#X connect 1 0 4 1;
#X connect 1 0 6 1;
#X connect 1 0 0 0;
#X connect 2 0 1 0;
#X connect 3 0 1 0;
#X connect 4 0 3 0;
#X connect 5 0 4 0;
#X connect 5 1 6 0;
#X connect 6 0 3 1;
#X connect 7 0 5 0;
#X connect 7 1 2 0;
#X connect 8 0 7 0;
#X connect 9 0 7 0;
#X connect 10 0 7 0;
#X connect 11 0 7 0;
#X connect 12 0 7 0;
#X connect 13 0 7 0;
#X connect 14 0 7 0;
#X connect 15 0 7 0;
#X connect 16 0 24 0;
#X connect 17 0 25 0;
#X connect 18 0 26 0;
#X connect 19 0 27 0;
#X connect 20 0 28 0;
#X connect 21 0 29 0;
#X connect 22 0 30 0;
#X connect 23 0 31 0;
#X connect 24 0 8 0;
#X connect 25 0 9 0;
#X connect 26 0 10 0;
#X connect 27 0 11 0;
#X connect 28 0 12 0;
#X connect 29 0 13 0;
#X connect 30 0 14 0;
#X connect 31 0 15 0;
#X connect 32 0 33 0;
#X connect 33 0 34 0;
#X connect 34 0 7 0;
#X connect 35 0 36 0;
#X connect 36 0 37 0;
#X connect 37 0 7 0;
#X connect 38 0 39 0;
#X connect 39 0 42 0;
#X connect 40 0 41 0;
#X connect 41 0 43 0;
#X connect 42 0 7 0;
#X connect 43 0 7 0;
#X connect 44 0 45 0;
#X connect 45 0 46 0;
#X connect 46 0 7 0;
#X connect 47 0 48 0;
#X connect 48 0 49 0;
#X connect 49 0 7 0;
