#N canvas 452 78 450 499 10;
#X obj 114 109 select 1;
#X floatatom 188 146 5 0 0 0 - - -;
#X msg 114 139 1;
#X msg 243 146 1;
#X obj 243 177 pack 1 \$1;
#X obj 113 36 inlet;
#X text 164 35 note on / off (0 or 1);
#X text 366 35 velocity;
#X obj 316 36 inlet;
#X obj 114 224 list prepend midi_note;
#X obj 114 254 list trim;
#X obj 287 223 list prepend midi_noteoff;
#X obj 287 259 list trim;
#X obj 115 320 outlet;
#X obj 114 169 pack 1 \$1 \$2;
#X connect 0 0 2 0;
#X connect 0 1 3 0;
#X connect 1 0 14 2;
#X connect 2 0 14 0;
#X connect 3 0 4 0;
#X connect 4 0 11 0;
#X connect 5 0 0 0;
#X connect 8 0 1 0;
#X connect 9 0 10 0;
#X connect 10 0 13 0;
#X connect 11 0 12 0;
#X connect 12 0 13 0;
#X connect 14 0 9 0;
