#N canvas 66 23 1614 994 12;
#X obj 105 1028 vstplugin~;
#X obj 32 909 bng 15 250 50 0 empty empty empty 17 7 0 10 -262144 -1
-1;
#X obj 32 929 openpanel;
#X msg 32 953 open -e \$1;
#X msg 130 964 close;
#X msg 207 965 vis \$1;
#X obj 207 945 tgl 15 0 empty empty empty 17 7 0 10 -262144 -1 -1 0
1;
#N canvas 0 23 1680 1005 output 0;
#X obj 109 258 nbx 5 14 -100 0 0 0 \$0-vol \$0-vol Volume 0 -8 0 10
-262144 -1 -1 -6.19608 256;
#X obj 170 257 tgl 15 0 \$0-dsp \$0-dsp DSP 17 7 0 10 -262144 -1 -1
1 1;
#X obj 4 34 inlet~;
#X obj 54 35 inlet~;
#X obj 216 305 dac~;
#X obj 217 271 *~;
#X obj 268 273 *~;
#X obj 280 406 line~;
#X msg 282 384 \$1 50;
#X obj 108 32 loadbang;
#X msg 355 339 \; pd dsp \$1;
#X obj 136 114 vu 15 120 empty empty -1 -8 0 10 -66577 -1 1 0;
#X obj 193 116 vu 15 120 empty empty -1 -8 0 10 -66577 -1 1 0;
#X obj 12 78 env~;
#X obj 60 77 env~;
#X obj 12 99 - 100;
#X obj 61 102 - 100;
#X obj 110 110 vsl 15 128 0 1 0 0 \$0-fader \$0-fader empty 0 -9 0
10 -262144 -1 -1 8890 1;
#X obj 355 316 r \$0-dsp;
#X obj 108 74 s \$0-fader;
#X obj 283 316 r \$0-fader;
#X obj 282 336 pow 2;
#X obj 325 385 rmstodb;
#X obj 325 406 - 100;
#X obj 325 427 s \$0-vol;
#X obj 282 357 t f f;
#X msg 108 53 0.7;
#X connect 2 0 5 0;
#X connect 2 0 13 0;
#X connect 3 0 6 0;
#X connect 3 0 14 0;
#X connect 5 0 4 0;
#X connect 6 0 4 1;
#X connect 7 0 5 1;
#X connect 7 0 6 1;
#X connect 8 0 7 0;
#X connect 9 0 26 0;
#X connect 13 0 15 0;
#X connect 14 0 16 0;
#X connect 15 0 11 0;
#X connect 16 0 12 0;
#X connect 18 0 10 0;
#X connect 20 0 21 0;
#X connect 21 0 25 0;
#X connect 22 0 23 0;
#X connect 23 0 24 0;
#X connect 25 0 8 0;
#X connect 25 1 22 0;
#X connect 26 0 19 0;
#X coords 0 -1 1 1 200 200 2 100 100;
#X restore 112 1080 pd output;
#X obj 88 465 tgl 25 0 empty empty empty 0 -6 0 8 -258113 -1 -1 0 1
;
#X obj 231 304 tgl 15 0 empty empty empty 0 -6 0 8 -262144 -1 -1 0
1;
#X obj 236 400 tgl 15 0 empty empty empty 0 -6 0 8 -262144 -1 -1 0
1;
#X obj 333 342 tgl 15 0 empty empty empty 0 -6 0 8 -262144 -1 -1 0
1;
#X obj 335 367 tgl 15 0 empty empty empty 0 -6 0 8 -262144 -1 -1 0
1;
#X obj 339 389 tgl 15 0 empty empty empty 0 -6 0 8 -262144 -1 -1 0
1;
#X obj 343 414 tgl 15 0 empty empty empty 0 -6 0 8 -262144 -1 -1 0
1;
#X floatatom 134 571 5 0 0 0 - - -;
#X obj 134 540 bytemask, f 21;
#X obj 352 439 tgl 15 0 empty empty empty 0 -6 0 8 -262144 -1 -1 0
1;
#X text 208 334 Do;
#X text 206 309 Si;
#X text 184 318 Ra;
#X text 161 331 So;
#X text 9 466 Octave Key;
#X text 302 340 Fa;
#X text 314 365 Mi;
#X text 318 390 Re;
#X obj 76 357 tgl 15 0 empty empty empty 0 -6 0 8 -262144 -1 -1 0 1
;
#X text 47 355 Ra+;
#X obj 52 318 tgl 15 0 empty empty empty 0 -6 0 8 -262144 -1 -1 0 1
;
#X text -4 336 Mi+;
#X obj 434 457 tgl 15 0 empty empty empty 0 -6 0 8 -262144 -1 -1 0
1;
#X text 422 475 Mi+;
#X text 311 413 Re#;
#X text 291 365 Fa#;
#X obj 439 504 tgl 15 0 empty empty empty 0 -6 0 8 -262144 -1 -1 0
1;
#X text 413 503 Ra#;
#X text 325 436 Do-;
#X obj 235 420 tgl 15 0 empty empty empty 0 -6 0 8 -262144 -1 -1 0
1;
#X text 208 418 So#;
#X floatatom 103 138 5 0 0 0 - - -;
#X obj 103 216 > 60;
#X floatatom 128 186 5 0 0 0 - - -;
#X obj 103 258 change;
#X floatatom 168 138 5 0 0 0 - - -;
#X obj 168 216 > 60;
#X floatatom 193 186 5 0 0 0 - - -;
#X floatatom 230 138 5 0 0 0 - - -;
#X obj 230 216 > 60;
#X floatatom 255 186 5 0 0 0 - - -;
#X obj 230 258 change;
#X obj 169 83 ctlin 4;
#X obj 103 83 ctlin 3;
#X obj 230 83 ctlin 2;
#X floatatom 288 138 5 0 0 0 - - -;
#X obj 288 216 > 60;
#X floatatom 313 186 5 0 0 0 - - -;
#X obj 288 258 change;
#X floatatom 346 138 5 0 0 0 - - -;
#X obj 346 216 > 60;
#X floatatom 371 186 5 0 0 0 - - -;
#X obj 346 258 change;
#X floatatom 419 138 5 0 0 0 - - -;
#X obj 419 216 > 60;
#X floatatom 444 186 5 0 0 0 - - -;
#X obj 419 258 change;
#X floatatom 489 138 5 0 0 0 - - -;
#X obj 489 216 > 60;
#X floatatom 514 186 5 0 0 0 - - -;
#X obj 489 258 change;
#X floatatom 37 138 5 0 0 0 - - -;
#X obj 37 216 > 60;
#X floatatom 62 186 5 0 0 0 - - -;
#X obj 37 258 change;
#X obj 37 83 ctlin 1;
#X floatatom 557 138 5 0 0 0 - - -;
#X obj 557 216 > 60;
#X floatatom 582 186 5 0 0 0 - - -;
#X obj 557 258 change;
#X obj 346 83 ctlin 11, f 9;
#X obj 419 83 ctlin 10;
#X obj 489 83 ctlin 9;
#X obj 288 83 ctlin 8;
#X obj 557 83 ctlin 7;
#X floatatom 621 138 5 0 0 0 - - -;
#X obj 621 216 > 60;
#X floatatom 646 186 5 0 0 0 - - -;
#X obj 621 258 change;
#X obj 621 83 ctlin 6;
#X obj 234 345 tgl 15 0 empty empty empty 0 -6 0 8 -262144 -1 -1 0
1;
#X obj 107 726 keys_edit;
#N canvas 0 23 1680 674 byte_to_key 0;
#X obj 390 574 bng 15 250 50 0 empty empty empty 17 7 0 10 -262144
-1 -1;
#X obj 413 573 bng 15 250 50 0 empty empty empty 17 7 0 10 -262144
-1 -1;
#X obj 438 573 bng 15 250 50 0 empty empty empty 17 7 0 10 -262144
-1 -1;
#X obj 461 573 bng 15 250 50 0 empty empty empty 17 7 0 10 -262144
-1 -1;
#X obj 484 573 bng 15 250 50 0 empty empty empty 17 7 0 10 -262144
-1 -1;
#X obj 555 567 bng 15 250 50 0 empty empty empty 17 7 0 10 -262144
-1 -1;
#X obj 579 567 bng 15 250 50 0 empty empty empty 17 7 0 10 -262144
-1 -1;
#X obj 711 595 bng 15 250 50 0 empty empty empty 17 7 0 10 -262144
-1 -1;
#X obj 736 595 bng 15 250 50 0 empty empty empty 17 7 0 10 -262144
-1 -1;
#X obj 761 595 bng 15 250 50 0 empty empty empty 17 7 0 10 -262144
-1 -1;
#X obj 787 595 bng 15 250 50 0 empty empty empty 17 7 0 10 -262144
-1 -1;
#X obj 812 595 bng 15 250 50 0 empty empty empty 17 7 0 10 -262144
-1 -1;
#X obj 837 595 bng 15 250 50 0 empty empty empty 17 7 0 10 -262144
-1 -1;
#X obj 863 595 bng 15 250 50 0 empty empty empty 17 7 0 10 -262144
-1 -1;
#X obj 888 595 bng 15 250 50 0 empty empty empty 17 7 0 10 -262144
-1 -1;
#X obj 913 595 bng 15 250 50 0 empty empty empty 17 7 0 10 -262144
-1 -1;
#X obj 609 567 bng 15 250 50 0 empty empty empty 17 7 0 10 -262144
-1 -1;
#X obj 529 568 bng 15 250 50 0 empty empty empty 17 7 0 10 -262144
-1 -1;
#X obj 635 568 bng 15 250 50 0 empty empty empty 17 7 0 10 -262144
-1 -1;
#X obj 949 596 bng 15 250 50 0 empty empty empty 17 7 0 10 -262144
-1 -1;
#X obj 974 596 bng 15 250 50 0 empty empty empty 17 7 0 10 -262144
-1 -1;
#X obj 1000 596 bng 15 250 50 0 empty empty empty 17 7 0 10 -262144
-1 -1;
#X obj 385 515 select 4 2 4102 6 8206 14 46 30 62 254 126 382;
#X obj 1031 594 bng 15 250 50 0 empty empty empty 17 7 0 10 -262144
-1 -1;
#X obj 711 555 select 127 255 63 31 47 15 8207 7 4103 3 5 513 3585
;
#X obj 365 570 bng 15 250 50 0 empty empty empty 17 7 0 10 -262144
-1 -1;
#X obj 669 567 bng 15 250 50 0 empty empty empty 17 7 0 10 -262144
-1 -1;
#X obj 132 239 select 4;
#X msg 132 276 1;
#X msg 185 277 0;
#X obj 133 430 outlet;
#X obj 548 36 inlet;
#X floatatom 132 144 5 0 0 0 - - -;
#X msg 191 346 1;
#X msg 244 347 0;
#X obj 192 430 outlet;
#X obj 191 309 select 2;
#X msg 278 283 1;
#X msg 331 284 0;
#X obj 279 430 outlet;
#X obj 278 246 select 4102;
#X msg 341 348 1;
#X msg 394 349 0;
#X obj 342 430 outlet;
#X msg 424 281 1;
#X msg 477 282 0;
#X obj 425 430 outlet;
#X msg 482 351 1;
#X msg 535 352 0;
#X obj 483 430 outlet;
#X obj 341 311 select 6;
#X obj 424 244 select 8206;
#X obj 482 314 select 14;
#X msg 571 279 1;
#X msg 624 280 0;
#X obj 572 430 outlet;
#X msg 629 348 1;
#X msg 682 349 0;
#X obj 630 430 outlet;
#X msg 723 272 1;
#X msg 776 273 0;
#X obj 724 430 outlet;
#X msg 783 349 1;
#X msg 836 350 0;
#X obj 784 430 outlet;
#X msg 879 268 1;
#X msg 932 269 0;
#X obj 880 430 outlet;
#X msg 939 345 1;
#X msg 992 346 0;
#X obj 940 430 outlet;
#X obj 571 242 select 46;
#X obj 629 311 select 30;
#X obj 723 235 select 62;
#X obj 783 312 select 254;
#X obj 879 231 select 126;
#X obj 939 308 select 382;
#X msg 1031 273 1;
#X msg 1084 274 0;
#X obj 1032 427 outlet;
#X floatatom 1031 141 5 0 0 0 - - -;
#X msg 1090 343 1;
#X msg 1143 344 0;
#X obj 1091 427 outlet;
#X msg 1177 280 1;
#X msg 1230 281 0;
#X obj 1178 427 outlet;
#X msg 1240 345 1;
#X msg 1293 346 0;
#X obj 1241 427 outlet;
#X msg 1323 278 1;
#X msg 1376 279 0;
#X obj 1324 427 outlet;
#X msg 1381 348 1;
#X msg 1434 349 0;
#X obj 1382 427 outlet;
#X msg 1470 276 1;
#X msg 1523 277 0;
#X obj 1471 427 outlet;
#X msg 1528 345 1;
#X msg 1581 346 0;
#X obj 1529 427 outlet;
#X msg 1622 269 1;
#X msg 1675 270 0;
#X obj 1623 427 outlet;
#X msg 1682 346 1;
#X msg 1735 347 0;
#X obj 1683 427 outlet;
#X msg 1778 265 1;
#X msg 1831 266 0;
#X obj 1779 427 outlet;
#X msg 1838 342 1;
#X msg 1891 343 0;
#X obj 1839 427 outlet;
#X obj 1031 236 select 127;
#X obj 1090 306 select 255;
#X obj 1177 243 select 63;
#X obj 1240 308 select 31;
#X obj 1323 241 select 47;
#X obj 1381 311 select 15;
#X obj 1470 239 select 8207;
#X obj 1528 308 select 7;
#X obj 1622 232 select 4103;
#X obj 1682 309 select 3;
#X obj 1778 228 select 5;
#X obj 1838 305 select 513;
#X msg 1937 343 1;
#X msg 1990 344 0;
#X obj 1938 428 outlet;
#X obj 1937 306 select 3585;
#X text 794 513 reference from original;
#X connect 22 0 25 0;
#X connect 22 1 0 0;
#X connect 22 2 1 0;
#X connect 22 3 2 0;
#X connect 22 4 3 0;
#X connect 22 5 4 0;
#X connect 22 6 17 0;
#X connect 22 7 5 0;
#X connect 22 8 6 0;
#X connect 22 9 16 0;
#X connect 22 10 18 0;
#X connect 22 11 26 0;
#X connect 22 12 24 0;
#X connect 24 0 7 0;
#X connect 24 1 8 0;
#X connect 24 2 9 0;
#X connect 24 3 10 0;
#X connect 24 4 11 0;
#X connect 24 5 12 0;
#X connect 24 6 13 0;
#X connect 24 7 14 0;
#X connect 24 8 15 0;
#X connect 24 9 19 0;
#X connect 24 10 20 0;
#X connect 24 11 21 0;
#X connect 24 12 23 0;
#X connect 27 0 28 0;
#X connect 27 1 29 0;
#X connect 28 0 30 0;
#X connect 29 0 30 0;
#X connect 31 0 32 0;
#X connect 31 0 80 0;
#X connect 32 0 27 0;
#X connect 32 0 36 0;
#X connect 32 0 40 0;
#X connect 32 0 50 0;
#X connect 32 0 51 0;
#X connect 32 0 52 0;
#X connect 32 0 71 0;
#X connect 32 0 72 0;
#X connect 32 0 73 0;
#X connect 32 0 74 0;
#X connect 32 0 75 0;
#X connect 32 0 76 0;
#X connect 33 0 35 0;
#X connect 34 0 35 0;
#X connect 36 0 33 0;
#X connect 36 1 34 0;
#X connect 37 0 39 0;
#X connect 38 0 39 0;
#X connect 40 0 37 0;
#X connect 40 1 38 0;
#X connect 41 0 43 0;
#X connect 42 0 43 0;
#X connect 44 0 46 0;
#X connect 45 0 46 0;
#X connect 47 0 49 0;
#X connect 48 0 49 0;
#X connect 50 0 41 0;
#X connect 50 1 42 0;
#X connect 51 0 44 0;
#X connect 51 1 45 0;
#X connect 52 0 47 0;
#X connect 52 1 48 0;
#X connect 53 0 55 0;
#X connect 54 0 55 0;
#X connect 56 0 58 0;
#X connect 57 0 58 0;
#X connect 59 0 61 0;
#X connect 60 0 61 0;
#X connect 62 0 64 0;
#X connect 63 0 64 0;
#X connect 65 0 67 0;
#X connect 66 0 67 0;
#X connect 68 0 70 0;
#X connect 69 0 70 0;
#X connect 71 0 53 0;
#X connect 71 1 54 0;
#X connect 72 0 56 0;
#X connect 72 1 57 0;
#X connect 73 0 59 0;
#X connect 73 1 60 0;
#X connect 74 0 62 0;
#X connect 74 1 63 0;
#X connect 75 0 65 0;
#X connect 75 1 66 0;
#X connect 76 0 68 0;
#X connect 76 1 69 0;
#X connect 77 0 79 0;
#X connect 78 0 79 0;
#X connect 80 0 114 0;
#X connect 80 0 115 0;
#X connect 80 0 116 0;
#X connect 80 0 117 0;
#X connect 80 0 118 0;
#X connect 80 0 119 0;
#X connect 80 0 120 0;
#X connect 80 0 121 0;
#X connect 80 0 122 0;
#X connect 80 0 123 0;
#X connect 80 0 124 0;
#X connect 80 0 125 0;
#X connect 80 0 129 0;
#X connect 81 0 83 0;
#X connect 82 0 83 0;
#X connect 84 0 86 0;
#X connect 85 0 86 0;
#X connect 87 0 89 0;
#X connect 88 0 89 0;
#X connect 90 0 92 0;
#X connect 91 0 92 0;
#X connect 93 0 95 0;
#X connect 94 0 95 0;
#X connect 96 0 98 0;
#X connect 97 0 98 0;
#X connect 99 0 101 0;
#X connect 100 0 101 0;
#X connect 102 0 104 0;
#X connect 103 0 104 0;
#X connect 105 0 107 0;
#X connect 106 0 107 0;
#X connect 108 0 110 0;
#X connect 109 0 110 0;
#X connect 111 0 113 0;
#X connect 112 0 113 0;
#X connect 114 0 77 0;
#X connect 114 1 78 0;
#X connect 115 0 81 0;
#X connect 115 1 82 0;
#X connect 116 0 84 0;
#X connect 116 1 85 0;
#X connect 117 0 87 0;
#X connect 117 1 88 0;
#X connect 118 0 90 0;
#X connect 118 1 91 0;
#X connect 119 0 93 0;
#X connect 119 1 94 0;
#X connect 120 0 96 0;
#X connect 120 1 97 0;
#X connect 121 0 99 0;
#X connect 121 1 100 0;
#X connect 122 0 102 0;
#X connect 122 1 103 0;
#X connect 123 0 105 0;
#X connect 123 1 106 0;
#X connect 124 0 108 0;
#X connect 124 1 109 0;
#X connect 125 0 111 0;
#X connect 125 1 112 0;
#X connect 126 0 128 0;
#X connect 127 0 128 0;
#X connect 129 0 126 0;
#X connect 129 1 127 0;
#X restore 134 605 pd byte_to_key;
#X f 60;
#X msg 839 329 4;
#X obj 52 540 r byteTest;
#X obj 786 363 send byteTest;
#X msg 838 50 0;
#X msg 839 306 2;
#X msg 839 284 4102;
#X msg 839 261 6;
#X msg 839 238 8206;
#X msg 839 215 14;
#X msg 839 192 46;
#X msg 839 169 30;
#X msg 839 146 62;
#X msg 838 129 254;
#X msg 838 103 126;
#X msg 839 77 382;
#X obj 901 363 send byteTest;
#X msg 953 50 127;
#X msg 953 73 255;
#X msg 953 96 63;
#X msg 953 119 31;
#X msg 953 142 47;
#X msg 953 165 15;
#X msg 953 188 8207;
#X msg 953 211 7;
#X msg 953 234 4103;
#X msg 953 257 3;
#X msg 953 280 5;
#X msg 953 303 513;
#X msg 953 326 3585;
#X obj 163 258 change;
#X text 565 571 inside this subpatch you'll see a different way of
using select to get the key behavior working properly (one note at
a time \, when the keys are pressed);
#X text 35 14 you might not need the [change] object \, it filters
out repetitions of numbers \, so it will pass a "1" once \, then it
has to go to "0" before another "1" can pass \, you could try without...
depends on how keys are played I think;
#X text 1011 191 this is a byte test for making sure all notes work
\, "0" = no key (off);
#X text 574 945 the "keys_edit" abstraction is a variation on your
verision \, inside is an additional abstraction called "key_set" which
makes it easier to specify the midi note and velocity;
#X connect 0 0 7 0;
#X connect 0 1 7 1;
#X connect 1 0 2 0;
#X connect 2 0 3 0;
#X connect 3 0 0 0;
#X connect 4 0 0 0;
#X connect 5 0 0 0;
#X connect 6 0 5 0;
#X connect 8 0 16 0;
#X connect 9 0 16 1;
#X connect 10 0 16 3;
#X connect 11 0 16 4;
#X connect 12 0 16 5;
#X connect 13 0 16 6;
#X connect 14 0 16 7;
#X connect 15 0 90 0;
#X connect 16 0 15 0;
#X connect 17 0 16 8;
#X connect 26 0 16 9;
#X connect 28 0 16 10;
#X connect 30 0 16 11;
#X connect 34 0 16 12;
#X connect 37 0 16 13;
#X connect 39 0 40 0;
#X connect 40 0 42 0;
#X connect 41 0 40 1;
#X connect 42 0 9 0;
#X connect 43 0 44 0;
#X connect 44 0 120 0;
#X connect 45 0 44 1;
#X connect 46 0 47 0;
#X connect 47 0 49 0;
#X connect 48 0 47 1;
#X connect 49 0 10 0;
#X connect 50 0 43 0;
#X connect 51 0 39 0;
#X connect 52 0 46 0;
#X connect 53 0 54 0;
#X connect 54 0 56 0;
#X connect 55 0 54 1;
#X connect 56 0 37 0;
#X connect 57 0 58 0;
#X connect 58 0 60 0;
#X connect 59 0 58 1;
#X connect 60 0 11 0;
#X connect 61 0 62 0;
#X connect 62 0 64 0;
#X connect 63 0 62 1;
#X connect 64 0 12 0;
#X connect 65 0 66 0;
#X connect 66 0 68 0;
#X connect 67 0 66 1;
#X connect 68 0 13 0;
#X connect 69 0 70 0;
#X connect 70 0 72 0;
#X connect 71 0 70 1;
#X connect 72 0 8 0;
#X connect 73 0 69 0;
#X connect 74 0 75 0;
#X connect 75 0 77 0;
#X connect 76 0 75 1;
#X connect 77 0 17 0;
#X connect 78 0 57 0;
#X connect 79 0 61 0;
#X connect 80 0 65 0;
#X connect 81 0 53 0;
#X connect 82 0 74 0;
#X connect 83 0 84 0;
#X connect 84 0 86 0;
#X connect 85 0 84 1;
#X connect 86 0 26 0;
#X connect 87 0 83 0;
#X connect 88 0 16 2;
#X connect 89 0 0 0;
#X connect 90 0 89 11;
#X connect 90 1 89 10;
#X connect 90 2 89 9;
#X connect 90 3 89 8;
#X connect 90 4 89 7;
#X connect 90 5 89 6;
#X connect 90 6 89 5;
#X connect 90 7 89 4;
#X connect 90 8 89 3;
#X connect 90 9 89 2;
#X connect 90 10 89 1;
#X connect 90 11 89 0;
#X connect 90 12 89 12;
#X connect 90 13 89 13;
#X connect 90 14 89 14;
#X connect 90 15 89 15;
#X connect 90 16 89 16;
#X connect 90 17 89 17;
#X connect 90 18 89 18;
#X connect 90 19 89 19;
#X connect 90 20 89 20;
#X connect 90 21 89 21;
#X connect 90 22 89 22;
#X connect 90 23 89 23;
#X connect 90 24 89 24;
#X connect 91 0 93 0;
#X connect 92 0 15 0;
#X connect 94 0 93 0;
#X connect 95 0 93 0;
#X connect 96 0 93 0;
#X connect 97 0 93 0;
#X connect 98 0 93 0;
#X connect 99 0 93 0;
#X connect 100 0 93 0;
#X connect 101 0 93 0;
#X connect 102 0 93 0;
#X connect 103 0 93 0;
#X connect 104 0 93 0;
#X connect 105 0 93 0;
#X connect 107 0 106 0;
#X connect 108 0 106 0;
#X connect 109 0 106 0;
#X connect 110 0 106 0;
#X connect 111 0 106 0;
#X connect 112 0 106 0;
#X connect 113 0 106 0;
#X connect 114 0 106 0;
#X connect 115 0 106 0;
#X connect 116 0 106 0;
#X connect 117 0 106 0;
#X connect 118 0 106 0;
#X connect 119 0 106 0;
#X connect 120 0 88 0;
