#N canvas 76 23 717 737 10;
#X floatatom 108 135 5 0 0 0 - - -, f 5;
#X floatatom 148 135 5 0 0 0 - - -, f 5;
#X floatatom 189 135 5 0 0 0 - - -, f 5;
#X floatatom 229 135 5 0 0 0 - - -, f 5;
#X floatatom 270 135 5 0 0 0 - - -, f 5;
#X floatatom 310 135 5 0 0 0 - - -, f 5;
#X obj 108 162 vsl 30 128 0 1 0 0 empty empty empty 0 -9 0 10 -262144
-1 -1 4498 1;
#X obj 148 162 vsl 30 128 0 1 0 0 empty empty empty 0 -9 0 10 -262144
-1 -1 3689 1;
#X obj 189 162 vsl 30 128 0 1 0 0 empty empty empty 0 -9 0 10 -262144
-1 -1 409 1;
#X obj 229 162 vsl 30 128 0 1 0 0 empty empty empty 0 -9 0 10 -262144
-1 -1 4568 1;
#X obj 270 162 vsl 30 128 0 1 0 0 empty empty empty 0 -9 0 10 -262144
-1 -1 3260 1;
#X obj 310 162 vsl 30 128 0 1 0 0 empty empty empty 0 -9 0 10 -262144
-1 -1 549 1;
#X obj 108 21 receive fromGUI;
#X obj 108 53 list trim;
#X obj 119 472 dac~, f 42;
#X obj 119 418 clip~ -1 1;
#X obj 119 383 hip~ 1;
#X obj 368 415 clip~ -1 1;
#X obj 368 380 hip~ 1;
#X floatatom 351 135 5 0 0 0 - - -, f 5;
#X obj 351 162 vsl 30 128 0 1 0 0 empty empty empty 0 -9 0 10 -262144
-1 -1 3255 1;
#X floatatom 391 135 5 0 0 0 - - -, f 5;
#X obj 391 162 vsl 30 128 0 1 0 0 empty empty empty 0 -9 0 10 -262144
-1 -1 9557 1;
#X floatatom 432 135 5 0 0 0 - - -, f 5;
#X obj 432 162 vsl 30 128 0 1 0 0 empty empty empty 0 -9 0 10 -262144
-1 -1 5253 1;
#X floatatom 472 135 5 0 0 0 - - -, f 5;
#X obj 472 162 vsl 30 128 0 1 0 0 empty empty empty 0 -9 0 10 -262144
-1 -1 1309 1;
#X obj 108 86 route /dial1 /dial2 /dial3 /dial4 /dial5 /dial6 /dial7
/dial8 /dial9 /slider1, f 68;
#N canvas 637 23 1436 797 synthvoice_________________________________
0;
#X floatatom 467 -68 5 0 0 0 - - -, f 5;
#X obj 467 -99 line;
#X obj 467 -127 pack f 200;
#X obj 20 -175 inlet;
#X obj 145 -175 inlet;
#X obj 467 -175 inlet;
#X obj 254 -175 inlet;
#X obj 363 -175 inlet;
#X obj 41 571 outlet~;
#X floatatom 145 -68 5 0 0 0 - - -, f 5;
#X obj 145 -99 + 0.001;
#X floatatom 803 -4 5 0 0 0 - - -, f 5;
#X floatatom 1009 27 5 0 0 0 - - -, f 5;
#X obj 1111 -121 pack f 200;
#X obj 803 -92 line;
#X obj 803 -121 pack f 200;
#X obj 908 -121 pack f 200;
#X obj 1009 -92 line;
#X obj 1009 -121 pack f 200;
#X obj 641 -175 inlet;
#X obj 741 -175 inlet;
#X obj 846 -175 inlet;
#X obj 947 -175 inlet;
#X obj 1049 -175 inlet;
#N canvas 0 22 687 515 crossfade 0;
#X obj 158 33 inlet~;
#X obj 202 33 inlet;
#X obj 161 255 *~;
#X text 203 14 crossfade;
#X obj 70 33 inlet~;
#X obj 73 255 *~;
#X obj 146 284 +~;
#X obj 146 313 outlet~;
#X obj 177 187 sin;
#X obj 84 185 cos;
#X text 68 15 1;
#X text 159 14 2;
#X obj 202 58 * 2;
#X obj 202 80 - 1;
#X obj 202 102 + 1;
#X obj 202 124 / 4;
#X obj 202 146 * 3.14159;
#X floatatom 202 168 5 0 0 0 - - -, f 5;
#X msg 176 208 \$1 60;
#X obj 176 230 line~;
#X msg 84 208 \$1 60;
#X obj 85 232 line~;
#X text 77 367 adapted from http://puredata.hurleur.com/sujet-5326-stereo-crossfader-adjustable-curve
(as used by 76synth);
#X connect 0 0 2 0;
#X connect 1 0 12 0;
#X connect 2 0 6 1;
#X connect 4 0 5 0;
#X connect 5 0 6 0;
#X connect 6 0 7 0;
#X connect 8 0 18 0;
#X connect 9 0 20 0;
#X connect 12 0 13 0;
#X connect 13 0 14 0;
#X connect 14 0 15 0;
#X connect 15 0 16 0;
#X connect 16 0 17 0;
#X connect 17 0 8 0;
#X connect 17 0 9 0;
#X connect 18 0 19 0;
#X connect 19 0 2 1;
#X connect 20 0 21 0;
#X connect 21 0 5 1;
#X restore 41 364 pd crossfade, f 69;
#N canvas 394 175 839 516 schroederReverb 0;
#X obj 82 91 +~;
#X obj 82 18 inlet~;
#X obj 142 91 +~;
#X obj 327 213 +~;
#X obj 327 254 +~;
#X obj 327 293 *~ 0.4;
#X obj 359 213 -~;
#X obj 376 293 *~ 0.37;
#X obj 359 254 +~;
#X obj 82 247 outlet~;
#X obj 142 247 outlet~;
#X obj 390 213 +~;
#X obj 420 213 -~;
#X obj 390 254 -~;
#X obj 421 254 -~;
#X obj 431 294 *~ 0.333;
#X obj 492 294 *~ 0.3;
#X text 427 454 Schroeder reverb \, source: Andy Farnell's Designing
Sound \, page 234 \, Claude Heiland-Allen credited;
#X obj 87 341 delwrite~ drom2A 1000;
#X obj 222 341 delwrite~ drom2B 1000;
#X obj 357 341 delwrite~ drom2C 1000;
#X obj 492 341 delwrite~ drom2D 1000;
#X obj 127 18 delread~ drom2A 101;
#X obj 250 18 delread~ drom2B 143;
#X obj 373 18 delread~ drom2C 165;
#X obj 496 18 delread~ drom2D 177;
#X connect 0 0 3 0;
#X connect 0 0 9 0;
#X connect 0 0 6 0;
#X connect 1 0 0 0;
#X connect 1 0 2 0;
#X connect 2 0 10 0;
#X connect 2 0 6 1;
#X connect 2 0 3 1;
#X connect 3 0 4 0;
#X connect 3 0 13 0;
#X connect 4 0 5 0;
#X connect 5 0 18 0;
#X connect 6 0 8 0;
#X connect 6 0 14 0;
#X connect 7 0 19 0;
#X connect 8 0 7 0;
#X connect 11 0 13 1;
#X connect 11 0 4 1;
#X connect 12 0 14 1;
#X connect 12 0 8 1;
#X connect 13 0 15 0;
#X connect 14 0 16 0;
#X connect 15 0 20 0;
#X connect 16 0 21 0;
#X connect 22 0 0 1;
#X connect 23 0 2 1;
#X connect 24 0 11 0;
#X connect 24 0 12 0;
#X connect 25 0 11 1;
#X connect 25 0 12 1;
#X restore 41 504 pd schroederReverb;
#X obj 146 570 outlet~;
#X text 800 123 a.k.a. depth;
#X floatatom 641 -139 5 0 0 0 - - -, f 5;
#X text 636 -111 a.k.a. speed;
#X obj 803 -33 + 5;
#X floatatom 908 -4 5 0 0 0 - - -, f 5;
#X obj 908 -92 line;
#X obj 908 -63 * 10;
#X obj 908 -33 + 2;
#X text 905 43 a.k.a. freq;
#X floatatom 363 -68 5 0 0 0 - - -, f 5;
#X obj 363 -99 + 0.001;
#X text 1008 78 a.k.a resonance;
#X obj 145 -127 * 0.55;
#X obj 363 -127 * 0.55;
#N canvas 442 125 906 644 rescalePitch2 0;
#X obj 27 120 ftom;
#X obj 126 18 inlet;
#X floatatom 27 62 5 0 0 0 - - -, f 5;
#X obj 155 392 % 12;
#X floatatom 155 414 5 0 0 1 pitch_class - -, f 5;
#X obj -61 240 / 12;
#X obj -61 262 - 1;
#X floatatom -61 284 5 0 0 1 register - -, f 5;
#X floatatom -28 240 5 0 0 1 midi_note - -, f 5;
#X obj 27 38 mtof;
#X floatatom 27 18 5 0 0 0 - - -, f 5;
#X obj -61 350 * 12;
#X obj -76 415 +;
#X floatatom -76 437 5 0 0 0 - - -, f 5;
#X obj -76 458 mtof;
#X floatatom -76 480 10 0 0 0 - - -, f 10;
#X obj -76 569 outlet;
#X obj 27 82 int;
#X floatatom 27 102 5 0 0 0 - - -, f 5;
#X obj -76 548 line;
#X obj -61 326 int;
#X msg -76 529 \$1 10;
#X floatatom 154 250 5 0 0 1 mapped_pitch - -, f 5;
#X obj 204 47 sel 0 1 2 3 4 5 6 7 8 9 10 11;
#X msg 200 100 0;
#X msg 233 100 2;
#X msg 266 100 3;
#X msg 299 100 5;
#X msg 331 100 7;
#X msg 364 100 8;
#X msg 397 100 8;
#X text 330 187 based on Todd Winkler's Scale subpatch \, see p. 198
of Composing Interactive Music \, 2001 paperback 1st ed.;
#X obj -76 499 + 0.6;
#X obj 38 177 t f f;
#X connect 0 0 8 0;
#X connect 0 0 33 0;
#X connect 1 0 2 0;
#X connect 2 0 17 0;
#X connect 3 0 4 0;
#X connect 4 0 23 0;
#X connect 5 0 6 0;
#X connect 6 0 7 0;
#X connect 7 0 20 0;
#X connect 9 0 2 0;
#X connect 10 0 9 0;
#X connect 11 0 12 0;
#X connect 12 0 13 0;
#X connect 13 0 14 0;
#X connect 14 0 15 0;
#X connect 15 0 32 0;
#X connect 17 0 18 0;
#X connect 18 0 0 0;
#X connect 19 0 16 0;
#X connect 20 0 11 0;
#X connect 21 0 19 0;
#X connect 22 0 12 1;
#X connect 23 0 24 0;
#X connect 23 1 24 0;
#X connect 23 2 25 0;
#X connect 23 3 26 0;
#X connect 23 4 26 0;
#X connect 23 5 27 0;
#X connect 23 6 27 0;
#X connect 23 7 28 0;
#X connect 23 8 28 0;
#X connect 23 9 29 0;
#X connect 23 10 29 0;
#X connect 23 11 30 0;
#X connect 24 0 22 0;
#X connect 25 0 22 0;
#X connect 26 0 22 0;
#X connect 27 0 22 0;
#X connect 28 0 22 0;
#X connect 29 0 22 0;
#X connect 30 0 22 0;
#X connect 32 0 21 0;
#X connect 33 0 5 0;
#X connect 33 1 3 0;
#X restore 254 -68 pd rescalePitch2;
#X obj 1009 -24 * 3.5;
#N canvas 137 22 1294 809 speed2 0;
#X obj 46 189 +~;
#X obj 190 361 *~;
#X obj 408 178 osc~;
#X obj 408 205 *~;
#X obj 380 301 vd~ a1;
#X obj 511 379 osc~;
#X obj 510 406 *~;
#X obj 498 503 vd~ a2;
#X floatatom 330 32 5 0 0 1 feedback - -, f 5;
#X floatatom 424 36 5 0 0 1 rate - -, f 5;
#X floatatom 489 34 5 0 0 1 depth - -, f 5;
#X obj 206 662 outlet~;
#X floatatom 360 66 10 0 0 0 - - -, f 10;
#X floatatom 424 66 10 0 0 0 - - -, f 10;
#X floatatom 489 66 10 0 0 0 - - -, f 10;
#X obj 1024 86 inlet;
#X obj 1024 117 pack f 200;
#X floatatom 1024 174 5 0 0 0 - - -, f 5;
#X obj 1024 147 line;
#X obj 1068 86 hsl 128 15 0 1 0 0 empty empty empty -2 -8 0 10 -262144
-1 -1 0 1;
#X obj 1024 195 * 10;
#X obj 1024 217 + 1;
#X obj 336 517 > 1;
#X obj 336 536 tgl 15 0 empty empty empty 17 7 0 10 -262144 -1 -1 1
1;
#X floatatom 1024 239 5 0 0 0 - - -, f 5;
#X obj 1023 258 int;
#X floatatom 1023 278 5 0 0 0 - - -, f 5;
#X obj 825 365 sel 2 3 4 5 6 7 8 9 10 11;
#X obj 1023 297 change;
#X obj 336 495 change;
#N canvas 0 22 687 515 crossfade 0;
#X obj 158 33 inlet~;
#X obj 202 33 inlet;
#X obj 161 255 *~;
#X text 203 14 crossfade;
#X obj 70 33 inlet~;
#X obj 73 255 *~;
#X obj 146 284 +~;
#X obj 146 313 outlet~;
#X obj 177 187 sin;
#X obj 84 185 cos;
#X text 68 15 1;
#X text 159 14 2;
#X obj 202 58 * 2;
#X obj 202 80 - 1;
#X obj 202 102 + 1;
#X obj 202 124 / 4;
#X obj 202 146 * 3.14159;
#X floatatom 202 168 5 0 0 0 - - -, f 5;
#X msg 176 208 \$1 60;
#X obj 176 230 line~;
#X msg 84 208 \$1 60;
#X obj 85 232 line~;
#X text 77 367 adapted from http://puredata.hurleur.com/sujet-5326-stereo-crossfader-adjustable-curve
(as used by 76synth);
#X connect 0 0 2 0;
#X connect 1 0 12 0;
#X connect 2 0 6 1;
#X connect 4 0 5 0;
#X connect 5 0 6 0;
#X connect 6 0 7 0;
#X connect 8 0 18 0;
#X connect 9 0 20 0;
#X connect 12 0 13 0;
#X connect 13 0 14 0;
#X connect 14 0 15 0;
#X connect 15 0 16 0;
#X connect 16 0 17 0;
#X connect 17 0 8 0;
#X connect 17 0 9 0;
#X connect 18 0 19 0;
#X connect 19 0 2 1;
#X connect 20 0 21 0;
#X connect 21 0 5 1;
#X restore 206 595 pd crossfade;
#X floatatom 275 564 5 0 0 0 - - -, f 5;
#X obj 360 93 pack f 200;
#X obj 426 93 pack f 200;
#X obj 497 93 pack f 200;
#X obj 72 140 *~ 0.3;
#X obj 46 47 delread~ fb_drom 2;
#X obj 200 37 inlet~;
#X obj 206 640 clip~ -1 1;
#X obj 206 618 hip~ 1;
#X obj 190 395 delwrite~ fb_drom 1000;
#X obj 59 251 delwrite~ a1 1000;
#X obj 59 229 delwrite~ a2 1000;
#X obj 410 258 +~;
#X obj 511 460 +~;
#X obj 408 227 *~;
#X obj 510 428 *~;
#X floatatom 573 36 5 0 0 1 delay - -, f 5;
#X obj 154 547 *~ 0.7;
#X text 753 55 chorus/flange effect;
#X obj 904 707 unpack f f f f;
#X floatatom 574 70 10 0 0 0 - - -, f 10;
#X obj 582 97 pack f 200;
#X obj 426 123 line~;
#X obj 497 123 line~;
#X obj 582 127 line~;
#X obj 360 123 line~;
#X obj 205 288 clip~ -1 1;
#X obj 205 319 *~ 0.4;
#X msg 1000 396 0.8 1 0.25 10;
#X msg 1000 418 0.8 2 0.25 10;
#X msg 1000 440 0.8 2 0.5 10;
#X msg 1001 462 0.8 3 0.7 10;
#X msg 1001 484 0.8 4 0.7 10;
#X msg 1001 507 0.8 4 0.8 10;
#X msg 1002 529 0.8 5 0.9 10;
#X msg 1002 552 0.8 6 1 10;
#X msg 1002 574 0.8 7 1 10;
#X msg 1002 597 0.9 9 1 10;
#X obj 385 374 +~;
#X obj 108 176 *~ 0.25;
#X obj 400 345 +~;
#X obj 455 298 +~ 0.25;
#X connect 0 0 41 0;
#X connect 0 0 42 0;
#X connect 1 0 40 0;
#X connect 2 0 3 0;
#X connect 3 0 45 0;
#X connect 4 0 71 0;
#X connect 5 0 6 0;
#X connect 6 0 46 0;
#X connect 7 0 71 1;
#X connect 8 0 12 0;
#X connect 9 0 13 0;
#X connect 10 0 14 0;
#X connect 12 0 32 0;
#X connect 13 0 33 0;
#X connect 14 0 34 0;
#X connect 15 0 16 0;
#X connect 16 0 18 0;
#X connect 17 0 20 0;
#X connect 18 0 17 0;
#X connect 19 0 16 0;
#X connect 20 0 21 0;
#X connect 21 0 24 0;
#X connect 22 0 23 0;
#X connect 23 0 31 0;
#X connect 24 0 25 0;
#X connect 25 0 26 0;
#X connect 25 0 29 0;
#X connect 26 0 28 0;
#X connect 27 0 59 0;
#X connect 27 1 60 0;
#X connect 27 2 61 0;
#X connect 27 3 62 0;
#X connect 27 4 63 0;
#X connect 27 5 64 0;
#X connect 27 6 65 0;
#X connect 27 7 66 0;
#X connect 27 8 67 0;
#X connect 27 9 68 0;
#X connect 28 0 27 0;
#X connect 29 0 22 0;
#X connect 30 0 39 0;
#X connect 31 0 30 2;
#X connect 32 0 56 0;
#X connect 33 0 53 0;
#X connect 34 0 54 0;
#X connect 35 0 0 1;
#X connect 35 0 70 0;
#X connect 36 0 0 0;
#X connect 37 0 35 0;
#X connect 37 0 48 0;
#X connect 38 0 11 0;
#X connect 39 0 38 0;
#X connect 43 0 4 0;
#X connect 44 0 7 0;
#X connect 45 0 43 0;
#X connect 46 0 44 0;
#X connect 47 0 51 0;
#X connect 48 0 30 0;
#X connect 50 0 8 0;
#X connect 50 1 9 0;
#X connect 50 2 10 0;
#X connect 50 3 47 0;
#X connect 51 0 52 0;
#X connect 52 0 55 0;
#X connect 53 0 2 0;
#X connect 53 0 72 0;
#X connect 54 0 3 1;
#X connect 54 0 6 1;
#X connect 54 0 45 1;
#X connect 54 0 46 1;
#X connect 55 0 43 1;
#X connect 55 0 44 1;
#X connect 56 0 57 0;
#X connect 57 0 58 0;
#X connect 58 0 1 1;
#X connect 59 0 50 0;
#X connect 60 0 50 0;
#X connect 61 0 50 0;
#X connect 62 0 50 0;
#X connect 63 0 50 0;
#X connect 64 0 50 0;
#X connect 65 0 50 0;
#X connect 66 0 50 0;
#X connect 67 0 50 0;
#X connect 68 0 50 0;
#X connect 69 0 30 1;
#X connect 70 0 69 0;
#X connect 71 0 1 0;
#X connect 71 0 69 1;
#X connect 72 0 5 0;
#X restore 41 435 pd speed2;
#N canvas 94 354 830 497 filter 0;
#X floatatom 294 191 5 0 0 0 - - -, f 5;
#X floatatom 603 215 5 0 0 0 - - -, f 5;
#X obj 536 216 +~ 1;
#X floatatom 536 174 5 0 0 0 - - -, f 5;
#X floatatom 600 239 5 0 0 0 - - -, f 5;
#X obj 536 257 +~ 100;
#X obj 536 195 osc~ 0.25;
#X obj 536 236 *~ 2000;
#X obj 84 45 inlet~;
#X obj 85 428 outlet~;
#X obj 536 34 inlet;
#X obj 595 34 inlet;
#X obj 294 210 + 0.01;
#X obj 85 294 vcf~ 1;
#X connect 0 0 12 0;
#X connect 1 0 7 1;
#X connect 2 0 7 0;
#X connect 3 0 6 0;
#X connect 4 0 5 1;
#X connect 5 0 13 1;
#X connect 6 0 2 0;
#X connect 7 0 5 0;
#X connect 8 0 13 0;
#X connect 10 0 3 0;
#X connect 11 0 0 0;
#X connect 12 0 13 2;
#X connect 13 0 9 0;
#X restore 246 323 pd filter;
#X floatatom 1009 -46 5 0 0 0 - - -, f 5;
#N canvas 0 22 450 300 !- 0;
#X obj 92 21 inlet;
#X obj 124 240 outlet;
#X floatatom 92 57 5 0 0 0 - - -, f 5;
#X obj 124 204 - 1;
#X obj 92 106 trigger b f;
#X obj 82 158 f 1;
#X connect 0 0 2 0;
#X connect 2 0 4 0;
#X connect 3 0 1 0;
#X connect 4 0 5 0;
#X connect 4 1 3 1;
#X connect 5 0 3 0;
#X restore 1009 -69 pd !-;
#X obj 803 -63 * 95;
#X obj 1009 -3 clip 1 3.5;
#X obj 20 -127 * 1400;
#X obj 254 -127 * 1400;
#X obj 20 -99 + 79;
#X obj 254 -99 + 79;
#X obj 41 476 *~;
#N canvas 418 356 560 459 Oscillator 0;
#X obj 41 307 *~ 0.7;
#X obj 104 308 *~ 0.5;
#X obj 41 346 +~;
#N canvas 404 50 889 639 OmGen 0;
#X obj 250 596 outlet~;
#X obj 101 22 inlet;
#X obj 101 127 phasor~ 100;
#X obj 101 149 -~ 0.5;
#X obj 101 171 cos~;
#X obj 101 193 +~ 1;
#X obj 101 215 *~ 0.5;
#X obj 101 237 *~;
#X obj 206 137 sig~;
#X obj 206 159 lop~ 10;
#X obj 191 190 *~;
#X obj 191 212 cos~;
#X floatatom 101 76 5 0 0 1 frequency - -, f 5;
#X floatatom 206 117 5 0 0 1 ripple - -, f 5;
#X obj 101 299 *~;
#X floatatom 355 155 5 0 0 1 width - -, f 5;
#X obj 101 352 *~;
#X obj 101 374 +~ 1;
#X obj 37 447 /~;
#X obj 37 374 sig~ 1;
#X obj 40 504 hip~ 1;
#X obj 205 21 inlet;
#X obj 355 21 inlet;
#X connect 1 0 12 0;
#X connect 2 0 3 0;
#X connect 3 0 4 0;
#X connect 3 0 10 0;
#X connect 4 0 5 0;
#X connect 5 0 6 0;
#X connect 6 0 7 0;
#X connect 7 0 14 0;
#X connect 8 0 9 0;
#X connect 9 0 10 1;
#X connect 10 0 11 0;
#X connect 11 0 7 1;
#X connect 12 0 2 0;
#X connect 13 0 8 0;
#X connect 14 0 16 0;
#X connect 14 0 16 1;
#X connect 15 0 14 1;
#X connect 16 0 17 0;
#X connect 17 0 18 1;
#X connect 18 0 20 0;
#X connect 19 0 18 0;
#X connect 20 0 0 0;
#X connect 21 0 13 0;
#X connect 22 0 15 0;
#X restore 41 259 pd OmGen;
#X floatatom 41 121 5 0 0 0 - - -, f 5;
#X obj 104 153 * 2;
#X obj 41 87 inlet;
#X obj 41 390 outlet~;
#X obj 247 119 r width;
#X obj 343 118 r ripple;
#N canvas 404 50 889 639 OmGen 0;
#X obj 250 596 outlet~;
#X obj 101 22 inlet;
#X obj 101 127 phasor~ 100;
#X obj 101 149 -~ 0.5;
#X obj 101 171 cos~;
#X obj 101 193 +~ 1;
#X obj 101 215 *~ 0.5;
#X obj 101 237 *~;
#X obj 206 137 sig~;
#X obj 206 159 lop~ 10;
#X obj 191 190 *~;
#X obj 191 212 cos~;
#X floatatom 101 76 5 0 0 1 frequency - -, f 5;
#X floatatom 206 117 5 0 0 1 ripple - -, f 5;
#X obj 101 299 *~;
#X floatatom 355 155 5 0 0 1 width - -, f 5;
#X obj 101 352 *~;
#X obj 101 374 +~ 1;
#X obj 37 447 /~;
#X obj 37 374 sig~ 1;
#X obj 40 504 hip~ 1;
#X obj 205 21 inlet;
#X obj 355 21 inlet;
#X connect 1 0 12 0;
#X connect 2 0 3 0;
#X connect 3 0 4 0;
#X connect 3 0 10 0;
#X connect 4 0 5 0;
#X connect 5 0 6 0;
#X connect 6 0 7 0;
#X connect 7 0 14 0;
#X connect 8 0 9 0;
#X connect 9 0 10 1;
#X connect 10 0 11 0;
#X connect 11 0 7 1;
#X connect 12 0 2 0;
#X connect 13 0 8 0;
#X connect 14 0 16 0;
#X connect 14 0 16 1;
#X connect 15 0 14 1;
#X connect 16 0 17 0;
#X connect 17 0 18 1;
#X connect 18 0 20 0;
#X connect 19 0 18 0;
#X connect 20 0 0 0;
#X connect 21 0 13 0;
#X connect 22 0 15 0;
#X restore 104 258 pd OmGen;
#X connect 0 0 2 0;
#X connect 1 0 2 1;
#X connect 2 0 7 0;
#X connect 3 0 0 0;
#X connect 4 0 5 0;
#X connect 4 0 3 0;
#X connect 5 0 10 0;
#X connect 6 0 4 0;
#X connect 8 0 3 1;
#X connect 8 0 10 1;
#X connect 9 0 3 2;
#X connect 9 0 10 2;
#X connect 10 0 1 0;
#X restore 41 257 pd Oscillator;
#N canvas 418 356 560 459 Oscillator 0;
#X obj 41 307 *~ 0.7;
#X obj 104 308 *~ 0.5;
#X obj 41 346 +~;
#N canvas 404 50 889 639 OmGen 0;
#X obj 250 596 outlet~;
#X obj 101 22 inlet;
#X obj 101 127 phasor~ 100;
#X obj 101 149 -~ 0.5;
#X obj 101 171 cos~;
#X obj 101 193 +~ 1;
#X obj 101 215 *~ 0.5;
#X obj 101 237 *~;
#X obj 206 137 sig~;
#X obj 206 159 lop~ 10;
#X obj 191 190 *~;
#X obj 191 212 cos~;
#X floatatom 101 76 5 0 0 1 frequency - -, f 5;
#X floatatom 206 117 5 0 0 1 ripple - -, f 5;
#X obj 101 299 *~;
#X floatatom 355 155 5 0 0 1 width - -, f 5;
#X obj 101 352 *~;
#X obj 101 374 +~ 1;
#X obj 37 447 /~;
#X obj 37 374 sig~ 1;
#X obj 40 504 hip~ 1;
#X obj 205 21 inlet;
#X obj 355 21 inlet;
#X connect 1 0 12 0;
#X connect 2 0 3 0;
#X connect 3 0 4 0;
#X connect 3 0 10 0;
#X connect 4 0 5 0;
#X connect 5 0 6 0;
#X connect 6 0 7 0;
#X connect 7 0 14 0;
#X connect 8 0 9 0;
#X connect 9 0 10 1;
#X connect 10 0 11 0;
#X connect 11 0 7 1;
#X connect 12 0 2 0;
#X connect 13 0 8 0;
#X connect 14 0 16 0;
#X connect 14 0 16 1;
#X connect 15 0 14 1;
#X connect 16 0 17 0;
#X connect 17 0 18 1;
#X connect 18 0 20 0;
#X connect 19 0 18 0;
#X connect 20 0 0 0;
#X connect 21 0 13 0;
#X connect 22 0 15 0;
#X restore 41 259 pd OmGen;
#X floatatom 41 121 5 0 0 0 - - -, f 5;
#X obj 104 153 * 2;
#X obj 41 87 inlet;
#X obj 41 390 outlet~;
#X obj 247 119 r width;
#X obj 343 118 r ripple;
#N canvas 404 50 889 639 OmGen 0;
#X obj 250 596 outlet~;
#X obj 101 22 inlet;
#X obj 101 127 phasor~ 100;
#X obj 101 149 -~ 0.5;
#X obj 101 171 cos~;
#X obj 101 193 +~ 1;
#X obj 101 215 *~ 0.5;
#X obj 101 237 *~;
#X obj 206 137 sig~;
#X obj 206 159 lop~ 10;
#X obj 191 190 *~;
#X obj 191 212 cos~;
#X floatatom 101 76 5 0 0 1 frequency - -, f 5;
#X floatatom 206 117 5 0 0 1 ripple - -, f 5;
#X obj 101 299 *~;
#X floatatom 355 155 5 0 0 1 width - -, f 5;
#X obj 101 352 *~;
#X obj 101 374 +~ 1;
#X obj 37 447 /~;
#X obj 37 374 sig~ 1;
#X obj 40 504 hip~ 1;
#X obj 205 21 inlet;
#X obj 355 21 inlet;
#X connect 1 0 12 0;
#X connect 2 0 3 0;
#X connect 3 0 4 0;
#X connect 3 0 10 0;
#X connect 4 0 5 0;
#X connect 5 0 6 0;
#X connect 6 0 7 0;
#X connect 7 0 14 0;
#X connect 8 0 9 0;
#X connect 9 0 10 1;
#X connect 10 0 11 0;
#X connect 11 0 7 1;
#X connect 12 0 2 0;
#X connect 13 0 8 0;
#X connect 14 0 16 0;
#X connect 14 0 16 1;
#X connect 15 0 14 1;
#X connect 16 0 17 0;
#X connect 17 0 18 1;
#X connect 18 0 20 0;
#X connect 19 0 18 0;
#X connect 20 0 0 0;
#X connect 21 0 13 0;
#X connect 22 0 15 0;
#X restore 104 258 pd OmGen;
#X connect 0 0 2 0;
#X connect 1 0 2 1;
#X connect 2 0 7 0;
#X connect 3 0 0 0;
#X connect 4 0 5 0;
#X connect 4 0 3 0;
#X connect 5 0 10 0;
#X connect 6 0 4 0;
#X connect 8 0 3 1;
#X connect 8 0 10 1;
#X connect 9 0 3 2;
#X connect 9 0 10 2;
#X connect 10 0 1 0;
#X restore 246 257 pd Oscillator;
#N canvas 300 26 906 644 rescalePitch1 0;
#X obj 27 120 ftom;
#X obj 126 18 inlet;
#X floatatom 27 62 5 0 0 0 - - -, f 5;
#X obj 108 414 % 12;
#X floatatom 108 436 5 0 0 1 pitch_class - -, f 5;
#X obj -58 220 / 12;
#X obj -58 242 - 1;
#X floatatom -58 264 5 0 0 1 register - -, f 5;
#X floatatom -25 220 5 0 0 1 midi_note - -, f 5;
#X obj 27 38 mtof;
#X floatatom 27 18 5 0 0 0 - - -, f 5;
#X obj -58 330 * 12;
#X floatatom 154 250 5 0 0 1 mapped_pitch - -, f 5;
#X obj -73 395 +;
#X floatatom -73 417 5 0 0 0 - - -, f 5;
#X obj -73 436 mtof;
#X floatatom -73 458 10 0 0 0 - - -, f 10;
#X obj -73 516 outlet;
#X obj 27 82 int;
#X floatatom 27 102 5 0 0 0 - - -, f 5;
#X obj -73 495 line;
#X obj -58 306 int;
#X text 330 187 based on Todd Winkler's Scale subpatch \, see p. 198
of Composing Interactive Music \, 2001 paperback 1st ed.;
#X msg -73 476 \$1 10;
#X obj 204 47 sel 0 1 2 3 4 5 6 7 8 9 10 11;
#X text 331 9 c minor scale;
#X msg 200 100 0;
#X msg 233 100 2;
#X msg 266 100 3;
#X msg 299 100 5;
#X msg 331 100 7;
#X msg 364 100 8;
#X msg 397 100 8;
#X obj 38 177 t f f;
#X connect 0 0 8 0;
#X connect 0 0 33 0;
#X connect 1 0 2 0;
#X connect 2 0 18 0;
#X connect 3 0 4 0;
#X connect 4 0 24 0;
#X connect 5 0 6 0;
#X connect 6 0 7 0;
#X connect 7 0 21 0;
#X connect 9 0 2 0;
#X connect 10 0 9 0;
#X connect 11 0 13 0;
#X connect 12 0 13 1;
#X connect 13 0 14 0;
#X connect 14 0 15 0;
#X connect 15 0 16 0;
#X connect 16 0 23 0;
#X connect 18 0 19 0;
#X connect 19 0 0 0;
#X connect 20 0 17 0;
#X connect 21 0 11 0;
#X connect 23 0 20 0;
#X connect 24 0 26 0;
#X connect 24 1 26 0;
#X connect 24 2 27 0;
#X connect 24 3 28 0;
#X connect 24 4 28 0;
#X connect 24 5 29 0;
#X connect 24 6 29 0;
#X connect 24 7 30 0;
#X connect 24 8 30 0;
#X connect 24 9 31 0;
#X connect 24 10 31 0;
#X connect 24 11 32 0;
#X connect 26 0 12 0;
#X connect 27 0 12 0;
#X connect 28 0 12 0;
#X connect 29 0 12 0;
#X connect 30 0 12 0;
#X connect 31 0 12 0;
#X connect 32 0 12 0;
#X connect 33 0 5 0;
#X connect 33 1 3 0;
#X restore 20 -68 pd rescalePitch1;
#X obj 1111 -93 line~;
#X obj 1009 58 s res;
#X obj 297 296 r res;
#X obj 92 296 r res;
#N canvas 94 354 830 497 filter 0;
#X floatatom 294 191 5 0 0 0 - - -, f 5;
#X floatatom 603 215 5 0 0 0 - - -, f 5;
#X obj 536 216 +~ 1;
#X floatatom 536 174 5 0 0 0 - - -, f 5;
#X floatatom 600 239 5 0 0 0 - - -, f 5;
#X obj 536 257 +~ 100;
#X obj 536 195 osc~ 0.25;
#X obj 536 236 *~ 2000;
#X obj 84 45 inlet~;
#X obj 85 428 outlet~;
#X obj 536 34 inlet;
#X obj 595 34 inlet;
#X obj 294 210 + 0.01;
#X obj 85 294 vcf~ 1;
#X connect 0 0 12 0;
#X connect 1 0 7 1;
#X connect 2 0 7 0;
#X connect 3 0 6 0;
#X connect 4 0 5 1;
#X connect 5 0 13 1;
#X connect 6 0 2 0;
#X connect 7 0 5 0;
#X connect 8 0 13 0;
#X connect 10 0 3 0;
#X connect 11 0 0 0;
#X connect 12 0 13 2;
#X connect 13 0 9 0;
#X restore 41 323 pd filter;
#X obj 908 24 s ripple;
#X obj 803 104 s width;
#X connect 0 0 24 2;
#X connect 1 0 0 0;
#X connect 2 0 1 0;
#X connect 3 0 49 0;
#X connect 4 0 39 0;
#X connect 5 0 2 0;
#X connect 6 0 50 0;
#X connect 7 0 40 0;
#X connect 9 0 61 1;
#X connect 10 0 9 0;
#X connect 11 0 63 0;
#X connect 12 0 58 0;
#X connect 13 0 57 0;
#X connect 14 0 47 0;
#X connect 15 0 14 0;
#X connect 16 0 32 0;
#X connect 17 0 46 0;
#X connect 18 0 17 0;
#X connect 19 0 28 0;
#X connect 20 0 15 0;
#X connect 21 0 16 0;
#X connect 22 0 18 0;
#X connect 23 0 13 0;
#X connect 24 0 43 0;
#X connect 25 0 8 0;
#X connect 25 1 26 0;
#X connect 28 0 43 1;
#X connect 30 0 11 0;
#X connect 31 0 62 0;
#X connect 32 0 33 0;
#X connect 33 0 34 0;
#X connect 34 0 31 0;
#X connect 36 0 44 1;
#X connect 37 0 36 0;
#X connect 39 0 10 0;
#X connect 40 0 37 0;
#X connect 41 0 55 0;
#X connect 42 0 48 0;
#X connect 43 0 53 0;
#X connect 44 0 24 1;
#X connect 45 0 42 0;
#X connect 46 0 45 0;
#X connect 47 0 30 0;
#X connect 48 0 12 0;
#X connect 49 0 51 0;
#X connect 50 0 52 0;
#X connect 51 0 56 0;
#X connect 52 0 41 0;
#X connect 53 0 25 0;
#X connect 54 0 61 0;
#X connect 55 0 44 0;
#X connect 56 0 54 0;
#X connect 57 0 53 1;
#X connect 59 0 44 2;
#X connect 60 0 61 2;
#X connect 61 0 24 0;
#X restore 119 352 pd synthvoice_________________________________;
#X connect 0 0 6 0;
#X connect 1 0 7 0;
#X connect 2 0 8 0;
#X connect 3 0 9 0;
#X connect 4 0 10 0;
#X connect 5 0 11 0;
#X connect 6 0 28 0;
#X connect 7 0 28 1;
#X connect 8 0 28 2;
#X connect 9 0 28 3;
#X connect 10 0 28 5;
#X connect 11 0 28 6;
#X connect 12 0 13 0;
#X connect 13 0 27 0;
#X connect 15 0 14 0;
#X connect 16 0 15 0;
#X connect 17 0 14 1;
#X connect 18 0 17 0;
#X connect 19 0 20 0;
#X connect 20 0 28 7;
#X connect 21 0 22 0;
#X connect 22 0 28 8;
#X connect 23 0 24 0;
#X connect 24 0 28 9;
#X connect 25 0 26 0;
#X connect 26 0 28 4;
#X connect 27 0 0 0;
#X connect 27 1 1 0;
#X connect 27 2 2 0;
#X connect 27 3 3 0;
#X connect 27 4 4 0;
#X connect 27 5 5 0;
#X connect 27 6 19 0;
#X connect 27 7 21 0;
#X connect 27 8 23 0;
#X connect 27 9 25 0;
#X connect 28 0 16 0;
#X connect 28 1 18 0;
