#N canvas 626 97 1039 695 12;
#X obj 168 113 vstplugin~;
#X obj 153 183 *~ 0.5;
#X obj 213 181 *~ 0.5;
#X obj 178 235 dac~;
#X obj 68 13 bng 15 250 50 0 empty empty empty 17 7 0 10 -262144 -1
-1;
#X obj 68 33 openpanel;
#X msg 68 57 open -e \$1;
#X msg 166 68 close;
#X msg 243 69 vis \$1;
#X obj 243 49 tgl 15 0 empty empty empty 17 7 0 10 -262144 -1 -1 1
1;
#X text 669 40 channel note velocity;
#X text 669 86 channel note velocity;
#X msg 508 90 midi_note 1 60 64;
#X text 666 144 channel note;
#X msg 508 44 midi_note 1 80 127;
#X msg 506 146 midi_noteoff 1 80;
#X obj 445 442 pack 1 80 127;
#X floatatom 481 364 5 0 0 0 - - -;
#X floatatom 530 401 5 0 0 0 - - -;
#X obj 453 493 list prepend midi_note;
#X msg 441 410 1;
#X obj 449 523 list trim;
#X msg 789 402 midi_noteoff 1 60;
#X floatatom 659 403 5 0 0 0 - - -;
#X msg 618 411 1;
#X obj 631 492 list prepend midi_noteoff;
#X obj 623 441 pack 1 80;
#X obj 625 528 list trim;
#X obj 434 213 bng 15 250 50 0 empty empty empty 17 7 0 10 -262144
-1 -1;
#X obj 616 356 bng 15 250 50 0 empty empty empty 17 7 0 10 -262144
-1 -1;
#X obj 487 274 delay 100;
#X floatatom 545 228 5 0 0 0 - - -;
#X text 127 550 to add: polyphonic VST effects;
#X connect 0 0 1 0;
#X connect 0 1 2 0;
#X connect 1 0 3 0;
#X connect 2 0 3 1;
#X connect 4 0 5 0;
#X connect 5 0 6 0;
#X connect 6 0 0 0;
#X connect 7 0 0 0;
#X connect 8 0 0 0;
#X connect 9 0 8 0;
#X connect 12 0 0 0;
#X connect 14 0 0 0;
#X connect 15 0 0 0;
#X connect 16 0 19 0;
#X connect 17 0 16 1;
#X connect 17 0 23 0;
#X connect 18 0 16 2;
#X connect 19 0 21 0;
#X connect 20 0 16 0;
#X connect 21 0 0 0;
#X connect 23 0 26 1;
#X connect 24 0 26 0;
#X connect 25 0 27 0;
#X connect 26 0 25 0;
#X connect 27 0 0 0;
#X connect 28 0 20 0;
#X connect 28 0 30 0;
#X connect 29 0 24 0;
#X connect 30 0 29 0;
#X connect 31 0 30 1;
