#N canvas 456 260 1031 702 10;
#X floatatom 111 187 5 0 0 0 - - -, f 5;
#X floatatom 166 187 5 0 0 0 - - -, f 5;
#X floatatom 221 187 5 0 0 0 - - -, f 5;
#X floatatom 276 187 5 0 0 0 - - -, f 5;
#X floatatom 331 187 5 0 0 0 - - -, f 5;
#X floatatom 386 187 5 0 0 0 - - -, f 5;
#X floatatom 441 187 5 0 0 0 - - -, f 5;
#X floatatom 496 187 5 0 0 0 - - -, f 5;
#X floatatom 551 187 5 0 0 0 - - -, f 5;
#X floatatom 606 187 5 0 0 0 - - -, f 5;
#X floatatom 661 187 5 0 0 0 - - -, f 5;
#X floatatom 56 187 5 0 0 0 - - -, f 5;
#X floatatom 116 338 5 0 0 0 - - -, f 5;
#X floatatom 178 338 5 0 0 0 - - -, f 5;
#X floatatom 240 338 5 0 0 0 - - -, f 5;
#X floatatom 302 338 5 0 0 0 - - -, f 5;
#X floatatom 364 338 5 0 0 0 - - -, f 5;
#X floatatom 426 338 5 0 0 0 - - -, f 5;
#X floatatom 488 338 5 0 0 0 - - -, f 5;
#X floatatom 550 338 5 0 0 0 - - -, f 5;
#X floatatom 612 338 5 0 0 0 - - -, f 5;
#X floatatom 674 338 5 0 0 0 - - -, f 5;
#X floatatom 736 338 5 0 0 0 - - -, f 5;
#X floatatom 798 338 5 0 0 0 - - -, f 5;
#X floatatom 861 338 5 0 0 0 - - -, f 5;
#X obj 116 435 print;
#X obj 56 98 ctlin 1;
#X obj 111 98 ctlin 2;
#X obj 166 98 ctlin 3;
#X obj 221 98 ctlin 4;
#X obj 276 98 ctlin 5;
#X obj 331 98 ctlin 6;
#X obj 386 98 ctlin 7;
#X obj 441 98 ctlin 8;
#X obj 496 98 ctlin 9;
#X obj 551 98 ctlin 10;
#X obj 606 98 ctlin 11;
#X obj 661 98 ctlin 12;
#X obj 116 249 ctlin 51;
#X obj 178 249 ctlin 52;
#X obj 240 249 ctlin 53;
#X obj 302 249 ctlin 54;
#X obj 364 249 ctlin 55;
#X obj 426 249 ctlin 56;
#X obj 488 249 ctlin 57;
#X obj 550 249 ctlin 58;
#X obj 612 249 ctlin 59;
#X obj 674 249 ctlin 60;
#X obj 736 249 ctlin 61;
#X obj 798 249 ctlin 62;
#X obj 861 249 ctlin 63;
#X obj 56 223 print;
#X floatatom 922 338 5 0 0 0 - - -, f 5;
#X obj 922 249 ctlin 64;
#X connect 11 0 51 0;
#X connect 12 0 25 0;
#X connect 26 0 11 0;
#X connect 27 0 0 0;
#X connect 28 0 1 0;
#X connect 29 0 2 0;
#X connect 30 0 3 0;
#X connect 31 0 4 0;
#X connect 32 0 5 0;
#X connect 33 0 6 0;
#X connect 34 0 7 0;
#X connect 35 0 8 0;
#X connect 36 0 9 0;
#X connect 37 0 10 0;
#X connect 38 0 12 0;
#X connect 39 0 13 0;
#X connect 40 0 14 0;
#X connect 41 0 15 0;
#X connect 42 0 16 0;
#X connect 43 0 17 0;
#X connect 44 0 18 0;
#X connect 45 0 19 0;
#X connect 46 0 20 0;
#X connect 47 0 21 0;
#X connect 48 0 22 0;
#X connect 49 0 23 0;
#X connect 50 0 24 0;
#X connect 53 0 52 0;
