#N canvas 592 23 1560 961 10;
#N canvas 0 22 450 278 (subpatch) 0;
#X array scrub 220500 float 2;
#X coords 0 1 220500 -1 200 140 1;
#X restore 865 194 graph;
#X obj 568 179 adc~;
#X obj 569 242 tabwrite~ scrub;
#X obj 546 179 bng 15 250 50 0 empty empty empty 17 7 0 10 -262144
-1 -1;
#X obj 157 686 dac~;
#X obj 155 399 tabread4~ scrub;
#X obj 155 357 vline~;
#X msg 330 179 0 \, 220500 5000;
#X msg 430 179 220500 \, 0 5000;
#X obj 159 177 hsl 128 15 0 1 0 0 empty empty empty -2 -8 0 10 -262144
-1 -1 7005 1;
#X obj 156 208 * 220500;
#X floatatom 156 238 15 0 0 0 - - -, f 15;
#X msg 156 291 \$1 100;
#X msg 654 175 \; scrub normalize;
#X obj 155 452 dm_sdelay~;
#X obj 157 39 receive fromGUI;
#X obj 157 67 route list;
#X obj 157 95 route /scrub /fwd /bwd /rec /norm /wet /ltime /rtime
/lfb /rfb, f 66;
#X obj 196 129 select 1;
#X obj 254 128 select 1;
#X obj 324 126 select 1;
#X obj 398 126 select 1;
#X msg 297 387 /wet \$1;
#X msg 349 387 /ltime \$1;
#X msg 415 386 /rtime \$1;
#X msg 480 386 /lfb \$1;
#X msg 533 385 /rfb \$1;
#X obj 383 651 send toGUI;
#X msg 321 511 list /wet 0.5;
#X msg 383 533 list /ltime 0.5;
#X msg 451 561 list /rtime 0.5;
#X msg 492 589 list /lfb 0.5;
#X msg 532 616 list /rfb 0.5;
#X obj 489 445 loadbang;
#X connect 1 0 2 0;
#X connect 3 0 2 0;
#X connect 5 0 14 0;
#X connect 5 0 14 1;
#X connect 6 0 5 0;
#X connect 7 0 6 0;
#X connect 8 0 6 0;
#X connect 9 0 10 0;
#X connect 10 0 11 0;
#X connect 11 0 12 0;
#X connect 12 0 6 0;
#X connect 14 0 4 0;
#X connect 14 1 4 1;
#X connect 15 0 16 0;
#X connect 16 0 17 0;
#X connect 17 0 9 0;
#X connect 17 1 18 0;
#X connect 17 2 19 0;
#X connect 17 3 20 0;
#X connect 17 4 21 0;
#X connect 17 5 22 0;
#X connect 17 6 23 0;
#X connect 17 7 24 0;
#X connect 17 8 25 0;
#X connect 17 9 26 0;
#X connect 18 0 7 0;
#X connect 19 0 8 0;
#X connect 20 0 3 0;
#X connect 21 0 13 0;
#X connect 22 0 14 2;
#X connect 23 0 14 2;
#X connect 24 0 14 2;
#X connect 25 0 14 2;
#X connect 26 0 14 2;
#X connect 28 0 27 0;
#X connect 29 0 27 0;
#X connect 30 0 27 0;
#X connect 31 0 27 0;
#X connect 32 0 27 0;
#X connect 33 0 28 0;
#X connect 33 0 29 0;
#X connect 33 0 30 0;
#X connect 33 0 31 0;
#X connect 33 0 32 0;
