#N canvas 156 23 1350 774 10;
#X floatatom 43 72 5 0 0 0 - - -;
#X obj 43 45 ctlin 1;
#X obj 97 45 ctlin 33;
#X floatatom 97 72 5 0 0 0 - - -;
#X floatatom 43 176 5 0 0 0 - - -;
#X obj 43 104 << 7;
#X obj 43 140 |, f 14;
#X obj 43 199 / 16383;
#X floatatom 43 250 15 0 0 0 - - -;
#X obj 143 229 * 128;
#X floatatom 143 250 15 0 0 1 hi_res_MIDI - -;
#X obj 143 281 vsl 15 128 0 127 0 0 empty empty empty 0 -9 0 10 -262144
-1 -1 5636 1;
#X obj 43 281 vsl 15 128 0 1 0 0 empty empty empty 0 -9 0 10 -262144
-1 -1 5591 1;
#X obj 97 104 t b f;
#X floatatom 315 72 5 0 0 0 - - -;
#X floatatom 369 72 5 0 0 0 - - -;
#X floatatom 315 176 5 0 0 0 - - -;
#X obj 315 104 << 7;
#X obj 315 140 |, f 14;
#X obj 315 199 / 16383;
#X floatatom 315 250 15 0 0 0 - - -;
#X obj 415 228 * 128;
#X floatatom 415 250 15 0 0 1 hi_res_MIDI - -;
#X obj 415 281 vsl 15 128 0 127 0 0 empty empty empty 0 -9 0 10 -262144
-1 -1 0 1;
#X obj 315 281 vsl 15 128 0 1 0 0 empty empty empty 0 -9 0 10 -262144
-1 -1 0 1;
#X obj 369 104 t b f;
#X obj 315 45 ctlin 2;
#X obj 369 45 ctlin 34;
#X floatatom 587 72 5 0 0 0 - - -;
#X floatatom 641 72 5 0 0 0 - - -;
#X floatatom 587 176 5 0 0 0 - - -;
#X obj 587 104 << 7;
#X obj 587 140 |, f 14;
#X obj 587 199 / 16383;
#X floatatom 587 250 15 0 0 0 - - -;
#X obj 687 228 * 128;
#X floatatom 687 250 15 0 0 1 hi_res_MIDI - -;
#X obj 687 281 vsl 15 128 0 127 0 0 empty empty empty 0 -9 0 10 -262144
-1 -1 0 1;
#X obj 587 281 vsl 15 128 0 1 0 0 empty empty empty 0 -9 0 10 -262144
-1 -1 0 1;
#X obj 641 104 t b f;
#X floatatom 869 72 5 0 0 0 - - -;
#X floatatom 923 72 5 0 0 0 - - -;
#X floatatom 869 176 5 0 0 0 - - -;
#X obj 869 104 << 7;
#X obj 869 140 |, f 14;
#X obj 869 199 / 16383;
#X floatatom 869 250 15 0 0 0 - - -;
#X obj 969 227 * 128;
#X floatatom 969 250 15 0 0 1 hi_res_MIDI - -;
#X obj 969 281 vsl 15 128 0 127 0 0 empty empty empty 0 -9 0 10 -262144
-1 -1 12700 1;
#X obj 869 281 vsl 15 128 0 1 0 0 empty empty empty 0 -9 0 10 -262144
-1 -1 12700 1;
#X obj 923 104 t b f;
#X obj 587 45 ctlin 3;
#X obj 641 45 ctlin 35;
#X obj 869 45 ctlin 4;
#X obj 923 45 ctlin 36;
#X obj 724 637 pgmout 11;
#X msg 724 564 13 \, 69;
#X msg 790 600 10 \, 110;
#X text 775 565 calibrate;
#X text 845 599 reset;
#X text 980 45 In Arduino code \, this is the calibration fader;
#X connect 0 0 5 0;
#X connect 1 0 0 0;
#X connect 2 0 3 0;
#X connect 3 0 13 0;
#X connect 4 0 7 0;
#X connect 5 0 6 0;
#X connect 6 0 4 0;
#X connect 7 0 8 0;
#X connect 7 0 9 0;
#X connect 8 0 12 0;
#X connect 9 0 10 0;
#X connect 10 0 11 0;
#X connect 13 0 6 0;
#X connect 13 1 6 1;
#X connect 14 0 17 0;
#X connect 15 0 25 0;
#X connect 16 0 19 0;
#X connect 17 0 18 0;
#X connect 18 0 16 0;
#X connect 19 0 20 0;
#X connect 19 0 21 0;
#X connect 20 0 24 0;
#X connect 21 0 22 0;
#X connect 22 0 23 0;
#X connect 25 0 18 0;
#X connect 25 1 18 1;
#X connect 26 0 14 0;
#X connect 27 0 15 0;
#X connect 28 0 31 0;
#X connect 29 0 39 0;
#X connect 30 0 33 0;
#X connect 31 0 32 0;
#X connect 32 0 30 0;
#X connect 33 0 34 0;
#X connect 33 0 35 0;
#X connect 34 0 38 0;
#X connect 35 0 36 0;
#X connect 36 0 37 0;
#X connect 39 0 32 0;
#X connect 39 1 32 1;
#X connect 40 0 43 0;
#X connect 41 0 51 0;
#X connect 42 0 45 0;
#X connect 43 0 44 0;
#X connect 44 0 42 0;
#X connect 45 0 46 0;
#X connect 45 0 47 0;
#X connect 46 0 50 0;
#X connect 47 0 48 0;
#X connect 48 0 49 0;
#X connect 51 0 44 0;
#X connect 51 1 44 1;
#X connect 52 0 28 0;
#X connect 53 0 29 0;
#X connect 54 0 40 0;
#X connect 55 0 41 0;
#X connect 57 0 56 0;
#X connect 58 0 56 0;
