#N canvas 222 33 1023 789 10;
#X obj 43 349 dac~;
#N canvas 0 22 450 300 (subpatch) 0;
#X array voice 88200 float 2;
#X coords 0 1 88199 -1 400 140 1;
#X restore 382 44 graph;
#X obj 261 264 adc~;
#X obj 261 317 tabwrite~ voice;
#X obj 207 267 bng 15 250 50 0 empty empty empty 17 7 0 10 -262144
-1 -1;
#X msg 394 307 \; voice normalize;
#X obj 43 240 vline~;
#X obj 43 296 tabread4~ voice;
#X obj 383 26 hsl 400 15 2 88197 0 0 empty empty empty -2 -8 0 10 -262144
-1 -1 0 1;
#X obj 41 22 receive fromGUI;
#X obj 41 50 list trim;
#X obj 41 77 route /scrub /record /normalize;
#X obj 207 192 t b;
#X obj 249 191 t b;
#X obj 808 597 send toGUI;
#X obj 751 280 route list;
#X obj 751 248 receive fromSystem;
#X obj 751 304 route /tilts;
#X obj 751 336 unpack f f;
#X floatatom 808 361 5 0 0 0 - - -, f 5;
#X obj 808 390 + 1;
#X obj 808 418 * 0.5;
#X floatatom 808 534 5 0 0 0 - - -, f 5;
#X obj 808 483 line;
#X msg 808 462 \$1 100;
#X msg 808 563 list /scrub \$1;
#X obj 713 529 * 88197;
#X floatatom 713 554 5 0 0 0 - - -, f 5;
#X msg 43 195 \$1 60;
#X connect 2 0 3 0;
#X connect 4 0 3 0;
#X connect 6 0 7 0;
#X connect 7 0 0 0;
#X connect 7 0 0 1;
#X connect 8 0 28 0;
#X connect 9 0 10 0;
#X connect 10 0 11 0;
#X connect 11 1 12 0;
#X connect 11 2 13 0;
#X connect 12 0 4 0;
#X connect 13 0 5 0;
#X connect 15 0 17 0;
#X connect 16 0 15 0;
#X connect 17 0 18 0;
#X connect 18 1 19 0;
#X connect 19 0 20 0;
#X connect 20 0 21 0;
#X connect 21 0 24 0;
#X connect 22 0 25 0;
#X connect 23 0 22 0;
#X connect 23 0 26 0;
#X connect 24 0 23 0;
#X connect 25 0 14 0;
#X connect 26 0 27 0;
#X connect 27 0 8 0;
#X connect 28 0 6 0;
