#N canvas 381 114 1239 766 10;
#X obj 97 73 ctlin 1;
#X obj 100 121 hsl 128 15 0 1 0 0 empty empty empty -2 -8 0 10 -262144
-1 -1 0 1;
#X obj 477 73 ctlin 51;
#X obj 477 95 / 127;
#X obj 477 121 tgl 15 0 empty empty empty 17 7 0 10 -262144 -1 -1 1
1;
#X obj 692 95 / 127;
#X obj 692 121 tgl 15 0 empty empty empty 17 7 0 10 -262144 -1 -1 1
1;
#X obj 992 384 / 127;
#X obj 992 410 tgl 15 0 empty empty empty 17 7 0 10 -262144 -1 -1 0
1;
#X obj 993 482 / 127;
#X obj 993 508 tgl 15 0 empty empty empty 17 7 0 10 -262144 -1 -1 0
1;
#X obj 1049 482 / 127;
#X obj 1049 508 tgl 15 0 empty empty empty 17 7 0 10 -262144 -1 -1
0 1;
#X obj 1105 482 / 127;
#X obj 1105 508 tgl 15 0 empty empty empty 17 7 0 10 -262144 -1 -1
0 1;
#X obj 39 95 / 127;
#X obj 39 121 tgl 15 0 empty empty empty 17 7 0 10 -262144 -1 -1 1
1;
#X obj 260 95 / 127;
#X obj 260 121 tgl 15 0 empty empty empty 17 7 0 10 -262144 -1 -1 1
1;
#X obj 692 73 ctlin 52;
#X obj 992 362 ctlin 53;
#X obj 993 460 ctlin 54;
#X obj 1049 460 ctlin 55;
#X obj 1105 460 ctlin 56;
#X obj 39 73 ctlin 57;
#X obj 260 73 ctlin 58;
#X obj 622 526 / 127;
#X obj 622 504 ctlin 59;
#X obj 993 592 / 127;
#X obj 993 618 tgl 15 0 empty empty empty 17 7 0 10 -262144 -1 -1 0
1;
#X obj 1049 592 / 127;
#X obj 1049 618 tgl 15 0 empty empty empty 17 7 0 10 -262144 -1 -1
0 1;
#X obj 1105 592 / 127;
#X obj 1105 618 tgl 15 0 empty empty empty 17 7 0 10 -262144 -1 -1
0 1;
#X obj 1105 570 ctlin 62;
#X obj 993 570 ctlin 60;
#X obj 1049 570 ctlin 61;
#X obj 349 733 dac~;
#X obj 349 679 clip~ -1 1;
#X obj 349 644 hip~ 1;
#X obj 422 679 clip~ -1 1;
#X obj 422 644 hip~ 1;
#N canvas 148 23 1279 795 proto_drom_________________________________
0;
#X floatatom 206 -70 5 0 0 1 mix - -;
#X obj 206 -119 line;
#X obj 206 -142 pack f 200;
#X obj 20 -181 inlet;
#X obj 122 -181 inlet;
#X obj 206 -181 inlet;
#X obj 343 -181 inlet;
#X obj 445 -181 inlet;
#X obj 18 575 outlet~;
#X floatatom 122 -70 5 0 0 1 lfo1 - -;
#X obj 122 -119 + 0.001;
#X floatatom 479 -7 5 0 0 1 depth - -;
#X floatatom 947 -7 5 0 0 1 res - -;
#X obj 1049 -124 line;
#X obj 1049 -153 pack f 200;
#X obj 741 -124 line;
#X obj 741 -153 pack f 200;
#X obj 846 -153 pack f 200;
#X obj 947 -124 line;
#X obj 947 -153 pack f 200;
#X floatatom 1050 -7 5 0 0 1 vol - -;
#X obj 18 460 *~ 0.4;
#X obj 641 -181 inlet;
#X obj 741 -181 inlet;
#X obj 846 -181 inlet;
#X obj 947 -181 inlet;
#X obj 1049 -181 inlet;
#X obj 18 200 *~ 0.7;
#X obj 101 200 *~ 0.5;
#N canvas 0 22 687 515 crossfade 0;
#X obj 158 33 inlet~;
#X obj 202 33 inlet;
#X obj 161 255 *~;
#X text 203 14 crossfade;
#X obj 70 33 inlet~;
#X obj 73 255 *~;
#X obj 146 284 +~;
#X obj 146 313 outlet~;
#X obj 177 187 sin;
#X obj 84 185 cos;
#X text 68 15 1;
#X text 159 14 2;
#X obj 202 58 * 2;
#X obj 202 80 - 1;
#X obj 202 102 + 1;
#X obj 202 124 / 4;
#X obj 202 146 * 3.14159;
#X floatatom 202 168 5 0 0 0 - - -;
#X msg 176 208 \$1 60;
#X obj 176 230 line~;
#X msg 84 208 \$1 60;
#X obj 85 232 line~;
#X text 77 367 adapted from http://puredata.hurleur.com/sujet-5326-stereo-crossfader-adjustable-curve
(as used by 76synth);
#X connect 0 0 2 0;
#X connect 1 0 12 0;
#X connect 2 0 6 1;
#X connect 4 0 5 0;
#X connect 5 0 6 0;
#X connect 6 0 7 0;
#X connect 8 0 18 0;
#X connect 9 0 20 0;
#X connect 12 0 13 0;
#X connect 13 0 14 0;
#X connect 14 0 15 0;
#X connect 15 0 16 0;
#X connect 16 0 17 0;
#X connect 17 0 8 0;
#X connect 17 0 9 0;
#X connect 18 0 19 0;
#X connect 19 0 2 1;
#X connect 20 0 21 0;
#X connect 21 0 5 1;
#X restore 18 364 pd crossfade;
#X obj 18 266 +~;
#X obj 123 574 outlet~;
#N canvas 404 50 889 639 OmGen 0;
#X obj 250 596 outlet~;
#X obj 101 22 inlet;
#X obj 101 127 phasor~ 100;
#X obj 101 149 -~ 0.5;
#X obj 101 171 cos~;
#X obj 101 193 +~ 1;
#X obj 101 215 *~ 0.5;
#X obj 101 237 *~;
#X obj 206 137 sig~;
#X obj 206 159 lop~ 10;
#X obj 191 190 *~;
#X obj 191 212 cos~;
#X floatatom 101 76 5 0 0 1 frequency - -;
#X floatatom 206 117 5 0 0 1 ripple - -;
#X obj 101 299 *~;
#X floatatom 355 155 5 0 0 1 width - -;
#X obj 101 352 *~;
#X obj 101 374 +~ 1;
#X obj 37 447 /~;
#X obj 37 374 sig~ 1;
#X obj 40 504 hip~ 1;
#X obj 205 21 inlet;
#X obj 355 21 inlet;
#X connect 1 0 12 0;
#X connect 2 0 3 0;
#X connect 3 0 4 0;
#X connect 3 0 10 0;
#X connect 4 0 5 0;
#X connect 5 0 6 0;
#X connect 6 0 7 0;
#X connect 7 0 14 0;
#X connect 8 0 9 0;
#X connect 9 0 10 1;
#X connect 10 0 11 0;
#X connect 11 0 7 1;
#X connect 12 0 2 0;
#X connect 13 0 8 0;
#X connect 14 0 16 0;
#X connect 14 0 16 1;
#X connect 15 0 14 1;
#X connect 16 0 17 0;
#X connect 17 0 18 1;
#X connect 18 0 20 0;
#X connect 19 0 18 0;
#X connect 20 0 0 0;
#X connect 21 0 13 0;
#X connect 22 0 15 0;
#X restore 18 155 pd OmGen;
#X floatatom 20 -70 5 0 0 1 osc1 - -;
#N canvas 404 50 889 639 OmGen 0;
#X obj 250 596 outlet~;
#X obj 101 22 inlet;
#X obj 101 127 phasor~ 100;
#X obj 101 149 -~ 0.5;
#X obj 101 171 cos~;
#X obj 101 193 +~ 1;
#X obj 101 215 *~ 0.5;
#X obj 101 237 *~;
#X obj 206 137 sig~;
#X obj 206 159 lop~ 10;
#X obj 191 190 *~;
#X obj 191 212 cos~;
#X floatatom 101 76 5 0 0 1 frequency - -;
#X floatatom 206 117 5 0 0 1 ripple - -;
#X obj 101 299 *~;
#X floatatom 355 155 5 0 0 1 width - -;
#X obj 101 352 *~;
#X obj 101 374 +~ 1;
#X obj 37 447 /~;
#X obj 37 374 sig~ 1;
#X obj 40 504 hip~ 1;
#X obj 205 21 inlet;
#X obj 355 21 inlet;
#X connect 1 0 12 0;
#X connect 2 0 3 0;
#X connect 3 0 4 0;
#X connect 3 0 10 0;
#X connect 4 0 5 0;
#X connect 5 0 6 0;
#X connect 6 0 7 0;
#X connect 7 0 14 0;
#X connect 8 0 9 0;
#X connect 9 0 10 1;
#X connect 10 0 11 0;
#X connect 11 0 7 1;
#X connect 12 0 2 0;
#X connect 13 0 8 0;
#X connect 14 0 16 0;
#X connect 14 0 16 1;
#X connect 15 0 14 1;
#X connect 16 0 17 0;
#X connect 17 0 18 1;
#X connect 18 0 20 0;
#X connect 19 0 18 0;
#X connect 20 0 0 0;
#X connect 21 0 13 0;
#X connect 22 0 15 0;
#X restore 101 155 pd OmGen;
#X floatatom 641 -7 5 0 0 1 speed - -;
#X obj 741 -65 + 5;
#X floatatom 552 -7 5 0 0 1 freq - -;
#X obj 846 -124 line;
#X obj 846 -95 * 10;
#X obj 846 -65 + 2;
#X floatatom 445 -70 5 0 0 1 lfo2 - -;
#X obj 445 -119 + 0.001;
#X obj 159 200 *~ 0.7;
#X obj 233 200 *~ 0.5;
#X obj 159 266 +~;
#N canvas 404 50 889 639 OmGen 0;
#X obj 250 596 outlet~;
#X obj 101 22 inlet;
#X obj 101 127 phasor~ 100;
#X obj 101 149 -~ 0.5;
#X obj 101 171 cos~;
#X obj 101 193 +~ 1;
#X obj 101 215 *~ 0.5;
#X obj 101 237 *~;
#X obj 206 137 sig~;
#X obj 206 159 lop~ 10;
#X obj 191 190 *~;
#X obj 191 212 cos~;
#X floatatom 101 76 5 0 0 1 frequency - -;
#X floatatom 206 117 5 0 0 1 ripple - -;
#X obj 101 299 *~;
#X floatatom 355 155 5 0 0 1 width - -;
#X obj 101 352 *~;
#X obj 101 374 +~ 1;
#X obj 37 447 /~;
#X obj 37 374 sig~ 1;
#X obj 40 504 hip~ 1;
#X obj 205 21 inlet;
#X obj 355 21 inlet;
#X connect 1 0 12 0;
#X connect 2 0 3 0;
#X connect 3 0 4 0;
#X connect 3 0 10 0;
#X connect 4 0 5 0;
#X connect 5 0 6 0;
#X connect 6 0 7 0;
#X connect 7 0 14 0;
#X connect 8 0 9 0;
#X connect 9 0 10 1;
#X connect 10 0 11 0;
#X connect 11 0 7 1;
#X connect 12 0 2 0;
#X connect 13 0 8 0;
#X connect 14 0 16 0;
#X connect 14 0 16 1;
#X connect 15 0 14 1;
#X connect 16 0 17 0;
#X connect 17 0 18 1;
#X connect 18 0 20 0;
#X connect 19 0 18 0;
#X connect 20 0 0 0;
#X connect 21 0 13 0;
#X connect 22 0 15 0;
#X restore 159 155 pd OmGen;
#X floatatom 343 -70 5 0 0 1 osc2 - -;
#N canvas 404 50 889 639 OmGen 0;
#X obj 250 596 outlet~;
#X obj 101 22 inlet;
#X obj 101 127 phasor~ 100;
#X obj 101 149 -~ 0.5;
#X obj 101 171 cos~;
#X obj 101 193 +~ 1;
#X obj 101 215 *~ 0.5;
#X obj 101 237 *~;
#X obj 206 137 sig~;
#X obj 206 159 lop~ 10;
#X obj 191 190 *~;
#X obj 191 212 cos~;
#X floatatom 101 76 5 0 0 1 frequency - -;
#X floatatom 206 117 5 0 0 1 ripple - -;
#X obj 101 299 *~;
#X floatatom 355 155 5 0 0 1 width - -;
#X obj 101 352 *~;
#X obj 101 374 +~ 1;
#X obj 37 447 /~;
#X obj 37 374 sig~ 1;
#X obj 72 525 hip~ 1;
#X obj 205 21 inlet;
#X obj 355 21 inlet;
#X connect 1 0 12 0;
#X connect 2 0 3 0;
#X connect 3 0 4 0;
#X connect 3 0 10 0;
#X connect 4 0 5 0;
#X connect 5 0 6 0;
#X connect 6 0 7 0;
#X connect 7 0 14 0;
#X connect 8 0 9 0;
#X connect 9 0 10 1;
#X connect 10 0 11 0;
#X connect 11 0 7 1;
#X connect 12 0 2 0;
#X connect 13 0 8 0;
#X connect 14 0 16 0;
#X connect 14 0 16 1;
#X connect 15 0 14 1;
#X connect 16 0 17 0;
#X connect 17 0 18 1;
#X connect 18 0 20 0;
#X connect 19 0 18 0;
#X connect 20 0 0 0;
#X connect 21 0 13 0;
#X connect 22 0 15 0;
#X restore 233 155 pd OmGen;
#X obj 30 -51 * 2;
#X obj 122 -142 * 0.55;
#X obj 445 -142 * 0.55;
#X obj 352 -51 * 2;
#N canvas 442 125 906 644 rescalePitch2 0;
#X obj 27 120 ftom;
#X obj 126 18 inlet;
#X floatatom 27 62 5 0 0 0 - - -;
#X obj 155 392 % 12;
#X floatatom 155 414 5 0 0 1 pitch_class - -;
#X obj -61 240 / 12;
#X obj -61 262 - 1;
#X floatatom -61 284 5 0 0 1 register - -;
#X floatatom -28 240 5 0 0 1 midi_note - -;
#X obj 27 38 mtof;
#X floatatom 27 18 5 0 0 0 - - -;
#X obj -61 350 * 12;
#X obj -76 415 +;
#X floatatom -76 437 5 0 0 0 - - -;
#X obj -76 458 mtof;
#X floatatom -76 480 10 0 0 0 - - -;
#X obj -76 569 outlet;
#X obj 27 82 int;
#X floatatom 27 102 5 0 0 0 - - -;
#X obj -76 548 line;
#X obj -61 326 int;
#X msg -76 529 \$1 10;
#X floatatom 154 250 5 0 0 1 mapped_pitch - -;
#X obj 204 47 sel 0 1 2 3 4 5 6 7 8 9 10 11;
#X msg 200 100 0;
#X msg 233 100 2;
#X msg 266 100 3;
#X msg 299 100 5;
#X msg 331 100 7;
#X msg 364 100 8;
#X msg 397 100 8;
#X text 330 187 based on Todd Winkler's Scale subpatch \, see p. 198
of Composing Interactive Music \, 2001 paperback 1st ed.;
#X obj -76 499 + 0.6;
#X obj 38 177 t f f;
#X connect 0 0 8 0;
#X connect 0 0 33 0;
#X connect 1 0 2 0;
#X connect 2 0 17 0;
#X connect 3 0 4 0;
#X connect 4 0 23 0;
#X connect 5 0 6 0;
#X connect 6 0 7 0;
#X connect 7 0 20 0;
#X connect 9 0 2 0;
#X connect 10 0 9 0;
#X connect 11 0 12 0;
#X connect 12 0 13 0;
#X connect 13 0 14 0;
#X connect 14 0 15 0;
#X connect 15 0 32 0;
#X connect 17 0 18 0;
#X connect 18 0 0 0;
#X connect 19 0 16 0;
#X connect 20 0 11 0;
#X connect 21 0 19 0;
#X connect 22 0 12 1;
#X connect 23 0 24 0;
#X connect 23 1 24 0;
#X connect 23 2 25 0;
#X connect 23 3 26 0;
#X connect 23 4 26 0;
#X connect 23 5 27 0;
#X connect 23 6 27 0;
#X connect 23 7 28 0;
#X connect 23 8 28 0;
#X connect 23 9 29 0;
#X connect 23 10 29 0;
#X connect 23 11 30 0;
#X connect 24 0 22 0;
#X connect 25 0 22 0;
#X connect 26 0 22 0;
#X connect 27 0 22 0;
#X connect 28 0 22 0;
#X connect 29 0 22 0;
#X connect 30 0 22 0;
#X connect 32 0 21 0;
#X connect 33 0 5 0;
#X connect 33 1 3 0;
#X restore 343 -97 pd rescalePitch2;
#N canvas 94 354 703 423 filter 0;
#X floatatom 296 96 5 0 0 0 - - -;
#X floatatom 605 120 5 0 0 0 - - -;
#X obj 538 121 +~ 1;
#X floatatom 538 79 5 0 0 0 - - -;
#X floatatom 602 144 5 0 0 0 - - -;
#X obj 538 162 +~ 100;
#X obj 538 100 osc~ 0.25;
#X obj 538 141 *~ 2000;
#X obj 68 49 inlet~;
#X obj 196 319 outlet~;
#X obj 538 39 inlet;
#X obj 597 39 inlet;
#X obj 296 115 + 0.01;
#X obj 87 199 vcf~ 1;
#X connect 0 0 12 0;
#X connect 1 0 7 1;
#X connect 2 0 7 0;
#X connect 3 0 6 0;
#X connect 4 0 5 1;
#X connect 5 0 13 1;
#X connect 6 0 2 0;
#X connect 7 0 5 0;
#X connect 8 0 13 0;
#X connect 10 0 3 0;
#X connect 11 0 0 0;
#X connect 12 0 13 2;
#X connect 13 0 9 0;
#X restore 18 319 pd filter;
#X obj 947 -56 * 3.5;
#N canvas 94 354 703 423 filter 0;
#X floatatom 296 96 5 0 0 0 - - -;
#X floatatom 605 120 5 0 0 0 - - -;
#X obj 538 121 +~ 1;
#X floatatom 538 79 5 0 0 0 - - -;
#X floatatom 602 144 5 0 0 0 - - -;
#X obj 538 162 +~ 100;
#X obj 538 100 osc~ 0.25;
#X obj 538 141 *~ 2000;
#X obj 68 49 inlet~;
#X obj 196 319 outlet~;
#X obj 538 39 inlet;
#X obj 597 39 inlet;
#X obj 296 115 + 0.01;
#X obj 87 199 vcf~ 1;
#X connect 0 0 12 0;
#X connect 1 0 7 1;
#X connect 2 0 7 0;
#X connect 3 0 6 0;
#X connect 4 0 5 1;
#X connect 5 0 13 1;
#X connect 6 0 2 0;
#X connect 7 0 5 0;
#X connect 8 0 13 0;
#X connect 10 0 3 0;
#X connect 11 0 0 0;
#X connect 12 0 13 2;
#X connect 13 0 9 0;
#X restore 159 319 pd filter;
#X floatatom 947 -78 5 0 0 0 - - -;
#N canvas 0 22 450 300 !- 0;
#X obj 92 21 inlet;
#X obj 124 240 outlet;
#X floatatom 92 57 5 0 0 0 - - -;
#X obj 124 204 - 1;
#X obj 92 106 trigger b f;
#X obj 82 158 f 1;
#X connect 0 0 2 0;
#X connect 2 0 4 0;
#X connect 3 0 1 0;
#X connect 4 0 5 0;
#X connect 4 1 3 1;
#X connect 5 0 3 0;
#X restore 947 -101 pd !-;
#X obj 741 -95 * 95;
#X obj 947 -35 clip 1 3.5;
#X obj 1049 -102 * 0.6;
#X obj 20 -142 * 1400;
#X obj 343 -142 * 1400;
#X obj 20 -119 + 79;
#X obj 343 -119 + 79;
#X obj 1165 -181 inlet;
#X obj 1165 -7 tgl 15 0 empty empty power 17 7 0 10 -262144 -1 -1 1
1;
#X obj 1165 200 vline~;
#X obj 1165 30 select 1;
#X msg 1210 58 0 500;
#X msg 1165 58 1 500;
#X obj 18 502 *~;
#N canvas 137 22 1294 809 speed 0;
#X obj 5 131 +~;
#X obj 275 584 *~;
#X obj 383 120 osc~;
#X obj 383 142 *~;
#X obj 383 208 vd~ a1;
#X obj 464 371 osc~;
#X obj 464 393 *~;
#X obj 464 459 vd~ a2;
#X floatatom 290 -22 5 0 0 1 feedback - -;
#X floatatom 383 -22 5 0 0 1 rate - -;
#X floatatom 457 -22 5 0 0 1 depth - -;
#X obj 42 644 outlet~;
#X floatatom 290 8 10 0 0 0 - - -;
#X floatatom 383 8 10 0 0 0 - - -;
#X floatatom 457 8 10 0 0 0 - - -;
#X obj 785 57 inlet;
#X obj 785 88 pack f 200;
#X floatatom 785 145 5 0 0 0 - - -;
#X obj 785 118 line;
#X obj 829 57 hsl 128 15 0 1 0 0 empty empty empty -2 -8 0 10 -262144
-1 -1 0 1;
#X obj 785 166 * 10;
#X obj 785 188 + 1;
#X obj 111 456 > 1;
#X obj 111 475 tgl 15 0 empty empty empty 17 7 0 10 -262144 -1 -1 0
1;
#X floatatom 785 210 5 0 0 0 - - -;
#X obj 784 229 int;
#X floatatom 784 249 5 0 0 0 - - -;
#X obj 784 307 sel 2 3 4 5 6 7 8 9 10 11;
#X obj 784 268 change;
#X obj 111 434 change;
#N canvas 0 22 687 515 crossfade 0;
#X obj 158 33 inlet~;
#X obj 202 33 inlet;
#X obj 161 255 *~;
#X text 203 14 crossfade;
#X obj 70 33 inlet~;
#X obj 73 255 *~;
#X obj 146 284 +~;
#X obj 146 313 outlet~;
#X obj 177 187 sin;
#X obj 84 185 cos;
#X text 68 15 1;
#X text 159 14 2;
#X obj 202 58 * 2;
#X obj 202 80 - 1;
#X obj 202 102 + 1;
#X obj 202 124 / 4;
#X obj 202 146 * 3.14159;
#X floatatom 202 168 5 0 0 0 - - -;
#X msg 176 208 \$1 60;
#X obj 176 230 line~;
#X msg 84 208 \$1 60;
#X obj 85 232 line~;
#X text 77 367 adapted from http://puredata.hurleur.com/sujet-5326-stereo-crossfader-adjustable-curve
(as used by 76synth);
#X connect 0 0 2 0;
#X connect 1 0 12 0;
#X connect 2 0 6 1;
#X connect 4 0 5 0;
#X connect 5 0 6 0;
#X connect 6 0 7 0;
#X connect 8 0 18 0;
#X connect 9 0 20 0;
#X connect 12 0 13 0;
#X connect 13 0 14 0;
#X connect 14 0 15 0;
#X connect 15 0 16 0;
#X connect 16 0 17 0;
#X connect 17 0 8 0;
#X connect 17 0 9 0;
#X connect 18 0 19 0;
#X connect 19 0 2 1;
#X connect 20 0 21 0;
#X connect 21 0 5 1;
#X restore 42 577 pd crossfade;
#X floatatom 111 494 5 0 0 0 - - -;
#X obj 290 35 pack f 200;
#X obj 383 35 pack f 200;
#X obj 457 35 pack f 200;
#X obj 20 82 *~ 0.3;
#X obj 5 -11 delread~ fb_drom 2;
#X obj 159 -21 inlet~;
#X obj 42 622 clip~ -1 1;
#X obj 42 600 hip~ 1;
#X obj 275 618 delwrite~ fb_drom 1000;
#X obj 5 193 delwrite~ a1 1000;
#X obj 18 171 delwrite~ a2 1000;
#X obj 383 186 +~;
#X obj 464 437 +~;
#X obj 383 164 *~;
#X obj 464 415 *~;
#X floatatom 532 -22 5 0 0 1 delay - -;
#X obj 42 494 *~ 0.7;
#X text 712 -3 chorus/flange effect;
#X obj 863 649 unpack f f f f;
#X floatatom 533 8 10 0 0 0 - - -;
#X obj 533 35 pack f 200;
#X obj 383 65 line~;
#X obj 457 65 line~;
#X obj 533 65 line~;
#X obj 290 65 line~;
#X obj 290 485 clip~ -1 1;
#X obj 290 516 *~ 0.4;
#X msg 959 338 0.8 1 0.25 10;
#X msg 959 360 0.8 2 0.25 10;
#X msg 959 382 0.8 2 0.5 10;
#X msg 960 404 0.8 3 0.7 10;
#X msg 960 426 0.8 4 0.7 10;
#X msg 960 449 0.8 4 0.8 10;
#X msg 961 471 0.8 5 0.9 10;
#X msg 961 494 0.8 6 1 10;
#X msg 961 516 0.8 7 1 10;
#X msg 961 539 0.9 9 1 10;
#X obj 434 520 +~;
#X obj 32 107 *~ 0.25;
#X obj 449 491 +~;
#X obj 464 348 +~ 0.25;
#X connect 0 0 41 0;
#X connect 0 0 42 0;
#X connect 1 0 40 0;
#X connect 2 0 3 0;
#X connect 3 0 45 0;
#X connect 4 0 71 0;
#X connect 5 0 6 0;
#X connect 6 0 46 0;
#X connect 7 0 71 1;
#X connect 8 0 12 0;
#X connect 9 0 13 0;
#X connect 10 0 14 0;
#X connect 12 0 32 0;
#X connect 13 0 33 0;
#X connect 14 0 34 0;
#X connect 15 0 16 0;
#X connect 16 0 18 0;
#X connect 17 0 20 0;
#X connect 18 0 17 0;
#X connect 19 0 16 0;
#X connect 20 0 21 0;
#X connect 21 0 24 0;
#X connect 22 0 23 0;
#X connect 23 0 31 0;
#X connect 24 0 25 0;
#X connect 25 0 26 0;
#X connect 25 0 29 0;
#X connect 26 0 28 0;
#X connect 27 0 59 0;
#X connect 27 1 60 0;
#X connect 27 2 61 0;
#X connect 27 3 62 0;
#X connect 27 4 63 0;
#X connect 27 5 64 0;
#X connect 27 6 65 0;
#X connect 27 7 66 0;
#X connect 27 8 67 0;
#X connect 27 9 68 0;
#X connect 28 0 27 0;
#X connect 29 0 22 0;
#X connect 30 0 39 0;
#X connect 31 0 30 2;
#X connect 32 0 56 0;
#X connect 33 0 53 0;
#X connect 34 0 54 0;
#X connect 35 0 0 1;
#X connect 35 0 70 0;
#X connect 36 0 0 0;
#X connect 37 0 35 0;
#X connect 37 0 48 0;
#X connect 38 0 11 0;
#X connect 39 0 38 0;
#X connect 43 0 4 0;
#X connect 44 0 7 0;
#X connect 45 0 43 0;
#X connect 46 0 44 0;
#X connect 47 0 51 0;
#X connect 48 0 30 0;
#X connect 50 0 8 0;
#X connect 50 1 9 0;
#X connect 50 2 10 0;
#X connect 50 3 47 0;
#X connect 51 0 52 0;
#X connect 52 0 55 0;
#X connect 53 0 2 0;
#X connect 53 0 72 0;
#X connect 54 0 3 1;
#X connect 54 0 6 1;
#X connect 54 0 45 1;
#X connect 54 0 46 1;
#X connect 55 0 43 1;
#X connect 55 0 44 1;
#X connect 56 0 57 0;
#X connect 57 0 58 0;
#X connect 58 0 1 1;
#X connect 59 0 50 0;
#X connect 60 0 50 0;
#X connect 61 0 50 0;
#X connect 62 0 50 0;
#X connect 63 0 50 0;
#X connect 64 0 50 0;
#X connect 65 0 50 0;
#X connect 66 0 50 0;
#X connect 67 0 50 0;
#X connect 68 0 50 0;
#X connect 69 0 30 1;
#X connect 70 0 69 0;
#X connect 71 0 1 0;
#X connect 71 0 69 1;
#X connect 72 0 5 0;
#X restore 18 403 pd speed;
#N canvas 300 26 906 644 rescalePitch1 0;
#X obj 27 120 ftom;
#X obj 126 18 inlet;
#X floatatom 27 62 5 0 0 0 - - -;
#X obj 108 414 % 12;
#X floatatom 108 436 5 0 0 1 pitch_class - -;
#X obj -58 220 / 12;
#X obj -58 242 - 1;
#X floatatom -58 264 5 0 0 1 register - -;
#X floatatom -25 220 5 0 0 1 midi_note - -;
#X obj 27 38 mtof;
#X floatatom 27 18 5 0 0 0 - - -;
#X obj -58 330 * 12;
#X floatatom 154 250 5 0 0 1 mapped_pitch - -;
#X obj -73 395 +;
#X floatatom -73 417 5 0 0 0 - - -;
#X obj -73 436 mtof;
#X floatatom -73 458 10 0 0 0 - - -;
#X obj -73 516 outlet;
#X obj 27 82 int;
#X floatatom 27 102 5 0 0 0 - - -;
#X obj -73 495 line;
#X obj -58 306 int;
#X text 330 187 based on Todd Winkler's Scale subpatch \, see p. 198
of Composing Interactive Music \, 2001 paperback 1st ed.;
#X msg -73 476 \$1 10;
#X obj 204 47 sel 0 1 2 3 4 5 6 7 8 9 10 11;
#X text 331 9 c minor scale;
#X msg 200 100 0;
#X msg 233 100 2;
#X msg 266 100 3;
#X msg 299 100 5;
#X msg 331 100 7;
#X msg 364 100 8;
#X msg 397 100 8;
#X obj 38 177 t f f;
#X connect 0 0 8 0;
#X connect 0 0 33 0;
#X connect 1 0 2 0;
#X connect 2 0 18 0;
#X connect 3 0 4 0;
#X connect 4 0 24 0;
#X connect 5 0 6 0;
#X connect 6 0 7 0;
#X connect 7 0 21 0;
#X connect 9 0 2 0;
#X connect 10 0 9 0;
#X connect 11 0 13 0;
#X connect 12 0 13 1;
#X connect 13 0 14 0;
#X connect 14 0 15 0;
#X connect 15 0 16 0;
#X connect 16 0 23 0;
#X connect 18 0 19 0;
#X connect 19 0 0 0;
#X connect 20 0 17 0;
#X connect 21 0 11 0;
#X connect 23 0 20 0;
#X connect 24 0 26 0;
#X connect 24 1 26 0;
#X connect 24 2 27 0;
#X connect 24 3 28 0;
#X connect 24 4 28 0;
#X connect 24 5 29 0;
#X connect 24 6 29 0;
#X connect 24 7 30 0;
#X connect 24 8 30 0;
#X connect 24 9 31 0;
#X connect 24 10 31 0;
#X connect 24 11 32 0;
#X connect 26 0 12 0;
#X connect 27 0 12 0;
#X connect 28 0 12 0;
#X connect 29 0 12 0;
#X connect 30 0 12 0;
#X connect 31 0 12 0;
#X connect 32 0 12 0;
#X connect 33 0 5 0;
#X connect 33 1 3 0;
#X restore 20 -97 pd rescalePitch1;
#X connect 0 0 29 2;
#X connect 1 0 0 0;
#X connect 2 0 1 0;
#X connect 3 0 62 0;
#X connect 4 0 50 0;
#X connect 5 0 2 0;
#X connect 6 0 63 0;
#X connect 7 0 51 0;
#X connect 9 0 54 1;
#X connect 10 0 9 0;
#X connect 11 0 32 2;
#X connect 11 0 34 2;
#X connect 11 0 46 2;
#X connect 11 0 48 2;
#X connect 12 0 56 2;
#X connect 12 0 54 2;
#X connect 13 0 61 0;
#X connect 14 0 13 0;
#X connect 15 0 59 0;
#X connect 16 0 15 0;
#X connect 17 0 38 0;
#X connect 18 0 58 0;
#X connect 19 0 18 0;
#X connect 20 0 21 1;
#X connect 21 0 72 0;
#X connect 22 0 35 0;
#X connect 23 0 16 0;
#X connect 24 0 17 0;
#X connect 25 0 19 0;
#X connect 26 0 14 0;
#X connect 27 0 30 0;
#X connect 28 0 30 1;
#X connect 29 0 73 0;
#X connect 30 0 54 0;
#X connect 32 0 27 0;
#X connect 33 0 32 0;
#X connect 33 0 49 0;
#X connect 34 0 28 0;
#X connect 35 0 73 1;
#X connect 36 0 11 0;
#X connect 37 0 32 1;
#X connect 37 0 34 1;
#X connect 37 0 46 1;
#X connect 37 0 48 1;
#X connect 38 0 39 0;
#X connect 39 0 40 0;
#X connect 40 0 37 0;
#X connect 41 0 56 1;
#X connect 42 0 41 0;
#X connect 43 0 45 0;
#X connect 44 0 45 1;
#X connect 45 0 56 0;
#X connect 46 0 43 0;
#X connect 47 0 46 0;
#X connect 47 0 52 0;
#X connect 48 0 44 0;
#X connect 49 0 34 0;
#X connect 50 0 10 0;
#X connect 51 0 42 0;
#X connect 52 0 48 0;
#X connect 53 0 47 0;
#X connect 54 0 29 0;
#X connect 55 0 60 0;
#X connect 56 0 29 1;
#X connect 57 0 55 0;
#X connect 58 0 57 0;
#X connect 59 0 36 0;
#X connect 60 0 12 0;
#X connect 61 0 20 0;
#X connect 62 0 64 0;
#X connect 63 0 65 0;
#X connect 64 0 74 0;
#X connect 65 0 53 0;
#X connect 66 0 67 0;
#X connect 67 0 69 0;
#X connect 68 0 72 1;
#X connect 69 0 71 0;
#X connect 69 1 70 0;
#X connect 70 0 68 0;
#X connect 71 0 68 0;
#X connect 72 0 8 0;
#X connect 72 0 31 0;
#X connect 73 0 21 0;
#X connect 74 0 33 0;
#X restore 349 585 pd proto_drom_________________________________;
#X obj 622 551 tgl 15 0 empty empty empty 17 7 0 10 -262144 -1 -1 1
1;
#X obj 97 95 / 127;
#X obj 325 121 hsl 128 15 0 1 0 0 empty empty empty -2 -8 0 10 -262144
-1 -1 0 1;
#X obj 322 95 / 127;
#X obj 322 73 ctlin 2;
#X obj 799 354 hsl 128 15 0 1 0 0 empty empty empty -2 -8 0 10 -262144
-1 -1 0 1;
#X obj 796 329 / 127;
#X obj 796 302 ctlin 3;
#X obj 801 434 hsl 128 15 0 1 0 0 empty empty empty -2 -8 0 10 -262144
-1 -1 0 1;
#X obj 798 409 / 127;
#X obj 755 121 hsl 128 15 0 1 0 0 empty empty empty -2 -8 0 10 -262144
-1 -1 0 1;
#X obj 752 95 / 127;
#X obj 540 121 hsl 128 15 0 1 0 0 empty empty empty -2 -8 0 10 -262144
-1 -1 0 1;
#X obj 537 95 / 127;
#X obj 798 382 ctlin 4;
#X obj 752 73 ctlin 5;
#X obj 537 73 ctlin 6;
#X obj 39 145 + 1;
#X floatatom 6 298 5 0 0 0 - - -;
#X floatatom 74 299 5 0 0 0 - - -;
#X floatatom 229 305 5 0 0 0 - - -;
#X floatatom 297 305 5 0 0 0 - - -;
#X floatatom 443 305 5 0 0 0 - - -;
#X floatatom 511 305 5 0 0 0 - - -;
#X obj 479 145 + 1;
#X floatatom 661 305 5 0 0 0 - - -;
#X floatatom 729 305 5 0 0 0 - - -;
#X obj 692 145 + 1;
#X obj 260 145 + 1;
#X text 38 49 OSC1;
#X text 96 49 LFO1;
#X text 261 49 OSC2;
#X text 319 49 LFO2;
#X text 850 381 VOLUME;
#X text 848 300 MIX;
#X text 476 47 SPEED;
#X text 537 47 DEPTH;
#X text 693 47 FREQ;
#X text 754 47 RES;
#X obj 6 248 spigot;
#X obj 39 172 select 1 2;
#X msg 39 206 1;
#X msg 68 206 0;
#X msg 107 206 1;
#X msg 136 206 0;
#X obj 74 249 spigot;
#X obj 229 251 spigot;
#X obj 262 175 select 1 2;
#X msg 262 209 1;
#X msg 291 209 0;
#X msg 330 209 1;
#X msg 359 209 0;
#X obj 297 252 spigot;
#X obj 443 253 spigot;
#X obj 476 177 select 1 2;
#X msg 476 211 1;
#X msg 505 211 0;
#X msg 544 211 1;
#X msg 573 211 0;
#X obj 511 254 spigot;
#X obj 661 253 spigot;
#X obj 694 177 select 1 2;
#X msg 694 211 1;
#X msg 723 211 0;
#X msg 762 211 1;
#X msg 791 211 0;
#X obj 729 254 spigot;
#X obj 919 58 loadbang;
#X msg 919 91 1;
#X obj 6 324 pack f 50;
#X obj 6 350 line;
#X obj 74 325 pack f 50;
#X obj 74 351 line;
#X obj 229 330 pack f 50;
#X obj 229 356 line;
#X obj 297 331 pack f 50;
#X obj 297 357 line;
#X obj 444 331 pack f 50;
#X obj 444 357 line;
#X obj 512 332 pack f 50;
#X obj 512 358 line;
#X obj 617 333 pack f 50;
#X obj 617 359 line;
#X obj 685 334 pack f 50;
#X obj 685 360 line;
#X obj 382 390 pack f 50;
#X obj 382 414 line;
#X obj 730 514 pack f 50;
#X obj 730 538 line;
#X connect 0 0 44 0;
#X connect 1 0 82 0;
#X connect 1 0 88 0;
#X connect 2 0 3 0;
#X connect 3 0 4 0;
#X connect 4 0 67 0;
#X connect 5 0 6 0;
#X connect 6 0 70 0;
#X connect 7 0 8 0;
#X connect 9 0 10 0;
#X connect 11 0 12 0;
#X connect 13 0 14 0;
#X connect 15 0 16 0;
#X connect 16 0 60 0;
#X connect 17 0 18 0;
#X connect 18 0 71 0;
#X connect 19 0 5 0;
#X connect 20 0 7 0;
#X connect 21 0 9 0;
#X connect 22 0 11 0;
#X connect 23 0 13 0;
#X connect 24 0 15 0;
#X connect 25 0 17 0;
#X connect 26 0 43 0;
#X connect 27 0 26 0;
#X connect 28 0 29 0;
#X connect 30 0 31 0;
#X connect 32 0 33 0;
#X connect 34 0 32 0;
#X connect 35 0 28 0;
#X connect 36 0 30 0;
#X connect 38 0 37 0;
#X connect 39 0 38 0;
#X connect 40 0 37 1;
#X connect 41 0 40 0;
#X connect 42 0 39 0;
#X connect 42 1 41 0;
#X connect 43 0 42 10;
#X connect 44 0 1 0;
#X connect 45 0 89 0;
#X connect 45 0 95 0;
#X connect 46 0 45 0;
#X connect 47 0 46 0;
#X connect 48 0 128 0;
#X connect 49 0 48 0;
#X connect 50 0 49 0;
#X connect 51 0 130 0;
#X connect 52 0 51 0;
#X connect 53 0 103 0;
#X connect 53 0 109 0;
#X connect 54 0 53 0;
#X connect 55 0 96 0;
#X connect 55 0 102 0;
#X connect 56 0 55 0;
#X connect 57 0 52 0;
#X connect 58 0 54 0;
#X connect 59 0 56 0;
#X connect 60 0 83 0;
#X connect 61 0 112 0;
#X connect 62 0 114 0;
#X connect 63 0 116 0;
#X connect 64 0 118 0;
#X connect 65 0 120 0;
#X connect 66 0 122 0;
#X connect 67 0 97 0;
#X connect 68 0 124 0;
#X connect 69 0 126 0;
#X connect 70 0 104 0;
#X connect 71 0 90 0;
#X connect 82 0 61 0;
#X connect 83 0 84 0;
#X connect 83 0 85 0;
#X connect 83 1 86 0;
#X connect 83 1 87 0;
#X connect 84 0 82 1;
#X connect 85 0 88 1;
#X connect 86 0 88 1;
#X connect 87 0 82 1;
#X connect 88 0 62 0;
#X connect 89 0 63 0;
#X connect 90 0 91 0;
#X connect 90 0 92 0;
#X connect 90 1 93 0;
#X connect 90 1 94 0;
#X connect 91 0 89 1;
#X connect 92 0 95 1;
#X connect 93 0 95 1;
#X connect 94 0 89 1;
#X connect 95 0 64 0;
#X connect 96 0 65 0;
#X connect 97 0 98 0;
#X connect 97 0 99 0;
#X connect 97 1 100 0;
#X connect 97 1 101 0;
#X connect 98 0 96 1;
#X connect 99 0 102 1;
#X connect 100 0 102 1;
#X connect 101 0 96 1;
#X connect 102 0 66 0;
#X connect 103 0 68 0;
#X connect 104 0 105 0;
#X connect 104 0 106 0;
#X connect 104 1 107 0;
#X connect 104 1 108 0;
#X connect 105 0 103 1;
#X connect 106 0 109 1;
#X connect 107 0 109 1;
#X connect 108 0 103 1;
#X connect 109 0 69 0;
#X connect 110 0 111 0;
#X connect 111 0 6 0;
#X connect 111 0 4 0;
#X connect 111 0 18 0;
#X connect 111 0 16 0;
#X connect 111 0 43 0;
#X connect 112 0 113 0;
#X connect 113 0 42 0;
#X connect 114 0 115 0;
#X connect 115 0 42 1;
#X connect 116 0 117 0;
#X connect 117 0 42 3;
#X connect 118 0 119 0;
#X connect 119 0 42 4;
#X connect 120 0 121 0;
#X connect 121 0 42 5;
#X connect 122 0 123 0;
#X connect 123 0 42 6;
#X connect 124 0 125 0;
#X connect 125 0 42 7;
#X connect 126 0 127 0;
#X connect 127 0 42 8;
#X connect 128 0 129 0;
#X connect 129 0 42 2;
#X connect 130 0 131 0;
#X connect 131 0 42 9;
