#N canvas 608 23 960 684 10;
#N canvas 491 142 450 300 (subpatch) 0;
#X array waveform_array 19 float 1;
#A 0 -0.114286 -0.114284 -0.0285705 0.0999995 0.185713 0.199998 0.185713
0.157142 0.185713 0.242855 -0.571422 0.671422 0.542852 0.0428567 0.25714
0.157141 0.0714278 -5.30718e-06 0.382678;
#X coords 0 1 18 -1 200 140 1 0 0;
#X restore 36 108 graph;
#X msg 102 521 \; pd dsp \$1;
#X obj 102 473 tgl 30 0 empty empty empty 17 7 0 10 -262144 -1 -1 0
1;
#X obj 245 555 dac~;
#N canvas 0 22 771 392 vol 0;
#X obj 110 220 outlet~;
#X obj 96 36 inlet~;
#X obj 180 36 inlet;
#X obj 110 167 *~;
#X obj 140 133 line~;
#X msg 140 101 \$1 100;
#X connect 1 0 3 0;
#X connect 2 0 5 0;
#X connect 3 0 0 0;
#X connect 4 0 3 1;
#X connect 5 0 4 0;
#X restore 245 477 pd vol;
#X floatatom 278 444 5 0 1 0 - - -;
#X obj 281 396 hsl 128 30 0 1 0 0 empty empty volume -2 -8 0 10 -262144
-1 -1 1300 1;
#X obj 249 108 hsl 128 30 0 1 0 0 empty empty frequency -2 -8 0 10
-262144 -1 -1 5400 1;
#X text 76 36 using sinesum messages to generate wavetables;
#X obj 246 280 phasor~;
#X obj 246 361 tabread4~ waveform_array;
#X floatatom 246 149 5 0 0 0 - - -;
#X floatatom 353 186 5 0 0 0 - - -;
#X obj 246 218 pack f 200;
#X obj 246 249 sig~;
#X obj 246 186 * 2000;
#X text 648 40 <- sine wave;
#X text 796 199 <- saw wave (12 harmonics);
#X text 732 116 <- saw wave (4 harmonics);
#X text 709 311 <- triangle wave (4 harmonics);
#X text 705 477 <- square wave (4 harmonics);
#X text 829 390 <- triangle wave \; (12 harmonics);
#X text 832 558 <- square wave \; (12 harmonics);
#X msg 461 28 \; waveform_array sinesum 20 1 \; waveform_array normalize
1 \;;
#X msg 461 103 \; waveform_array sinesum 20 1 0.5 0.33 0.25 \; waveform_array
normalize 1 \;;
#X msg 461 178 \; waveform_array sinesum 20 1 0.5 0.333333 0.25 0.2
0.166667 0.142857 0.125 0.111111 0.1 0.090909 0.083333 0.076923 \;
waveform_array normalize 1 \;;
#X msg 461 297 \; waveform_array sinesum 20 1 0 -0.1 0 \; waveform_array
normalize 1 \;;
#X msg 461 372 \; waveform_array sinesum 20 1 0 -0.111111 0.04 0 -0.0204082
0 0.0123457 0 -0.00826446 0 \; waveform_array normalize 1 \;;
#X msg 461 469 \; waveform_array sinesum 20 1 0 0.5 0 \; waveform_array
normalize 1 \;;
#X msg 461 544 \; waveform_array sinesum 20 1 0 0.333333 0 0.2 0 0.142857
0 0.111111 0 0.090909 0 0.076923 \; waveform_array normalize 1 \;;
#X obj 246 320 *~ 20;
#X connect 2 0 1 0;
#X connect 4 0 3 0;
#X connect 4 0 3 1;
#X connect 5 0 4 1;
#X connect 6 0 5 0;
#X connect 7 0 11 0;
#X connect 9 0 30 0;
#X connect 10 0 4 0;
#X connect 11 0 15 0;
#X connect 12 0 13 1;
#X connect 13 0 14 0;
#X connect 14 0 9 0;
#X connect 15 0 13 0;
#X connect 30 0 10 0;
