#N canvas 502 169 1256 780 12;
#X obj 263 42 notein, f 15;
#X floatatom 263 93 5 0 0 0 - - -;
#X floatatom 314 94 5 0 0 0 - - -;
#X obj 247 152 pack f f;
#X obj 247 211 pack f f f;
#X obj 242 239 route 1 2 3 4, f 63;
#X obj 247 178 poly 4 1;
#N canvas 330 23 539 672 oscillator 0;
#X obj 182 133 unpack f f;
#X floatatom 182 166 5 0 0 0 - - -;
#X floatatom 239 166 5 0 0 0 - - -;
#X obj 184 460 osc~;
#X obj 183 205 mtof;
#X floatatom 183 246 5 0 0 0 - - -;
#X obj 184 419 line~;
#X msg 184 378 \$1 50;
#X obj 238 453 line~;
#X msg 238 412 \$1 50;
#X obj 185 505 *~;
#X obj 185 538 *~ 0.4;
#X obj 238 375 / 127;
#X obj 185 63 inlet;
#X obj 183 578 outlet~;
#X obj 179 300 * 1;
#X obj 180 332 + 0;
#X obj 304 61 inlet;
#X obj 364 62 inlet;
#X connect 0 0 1 0;
#X connect 0 1 2 0;
#X connect 1 0 4 0;
#X connect 2 0 12 0;
#X connect 3 0 10 0;
#X connect 4 0 5 0;
#X connect 5 0 15 0;
#X connect 6 0 3 0;
#X connect 7 0 6 0;
#X connect 8 0 10 1;
#X connect 9 0 8 0;
#X connect 10 0 11 0;
#X connect 11 0 14 0;
#X connect 12 0 9 0;
#X connect 13 0 0 0;
#X connect 15 0 16 0;
#X connect 16 0 7 0;
#X connect 17 0 15 1;
#X connect 18 0 16 1;
#X restore 229 307 pd oscillator;
#X floatatom 256 279 5 0 0 0 - - -;
#X floatatom 297 279 5 0 0 0 - - -;
#N canvas 330 23 539 672 oscillator 0;
#X obj 182 133 unpack f f;
#X floatatom 182 166 5 0 0 0 - - -;
#X floatatom 239 166 5 0 0 0 - - -;
#X obj 184 460 osc~;
#X obj 183 205 mtof;
#X floatatom 183 246 5 0 0 0 - - -;
#X obj 184 419 line~;
#X msg 184 378 \$1 50;
#X obj 238 453 line~;
#X msg 238 412 \$1 50;
#X obj 185 505 *~;
#X obj 185 538 *~ 0.4;
#X obj 238 375 / 127;
#X obj 185 63 inlet;
#X obj 183 578 outlet~;
#X obj 179 300 * 1;
#X obj 180 332 + 0;
#X obj 304 61 inlet;
#X obj 364 62 inlet;
#X connect 0 0 1 0;
#X connect 0 1 2 0;
#X connect 1 0 4 0;
#X connect 2 0 12 0;
#X connect 3 0 10 0;
#X connect 4 0 5 0;
#X connect 5 0 15 0;
#X connect 6 0 3 0;
#X connect 7 0 6 0;
#X connect 8 0 10 1;
#X connect 9 0 8 0;
#X connect 10 0 11 0;
#X connect 11 0 14 0;
#X connect 12 0 9 0;
#X connect 13 0 0 0;
#X connect 15 0 16 0;
#X connect 16 0 7 0;
#X connect 17 0 15 1;
#X connect 18 0 16 1;
#X restore 348 305 pd oscillator;
#X floatatom 375 277 5 0 0 0 - - -;
#X floatatom 416 277 5 0 0 0 - - -;
#N canvas 330 23 539 672 oscillator 0;
#X obj 182 133 unpack f f;
#X floatatom 182 166 5 0 0 0 - - -;
#X floatatom 239 166 5 0 0 0 - - -;
#X obj 184 460 osc~;
#X obj 183 205 mtof;
#X floatatom 183 246 5 0 0 0 - - -;
#X obj 184 419 line~;
#X msg 184 378 \$1 50;
#X obj 238 453 line~;
#X msg 238 412 \$1 50;
#X obj 185 505 *~;
#X obj 185 538 *~ 0.4;
#X obj 238 375 / 127;
#X obj 185 63 inlet;
#X obj 183 578 outlet~;
#X obj 179 300 * 1;
#X obj 180 332 + 0;
#X obj 304 61 inlet;
#X obj 364 62 inlet;
#X connect 0 0 1 0;
#X connect 0 1 2 0;
#X connect 1 0 4 0;
#X connect 2 0 12 0;
#X connect 3 0 10 0;
#X connect 4 0 5 0;
#X connect 5 0 15 0;
#X connect 6 0 3 0;
#X connect 7 0 6 0;
#X connect 8 0 10 1;
#X connect 9 0 8 0;
#X connect 10 0 11 0;
#X connect 11 0 14 0;
#X connect 12 0 9 0;
#X connect 13 0 0 0;
#X connect 15 0 16 0;
#X connect 16 0 7 0;
#X connect 17 0 15 1;
#X connect 18 0 16 1;
#X restore 478 308 pd oscillator;
#X floatatom 505 280 5 0 0 0 - - -;
#X floatatom 546 280 5 0 0 0 - - -;
#N canvas 330 23 539 672 oscillator 0;
#X obj 182 133 unpack f f;
#X floatatom 182 166 5 0 0 0 - - -;
#X floatatom 239 166 5 0 0 0 - - -;
#X obj 184 460 osc~;
#X obj 183 205 mtof;
#X floatatom 183 246 5 0 0 0 - - -;
#X obj 184 419 line~;
#X msg 184 378 \$1 50;
#X obj 238 453 line~;
#X msg 238 412 \$1 50;
#X obj 185 505 *~;
#X obj 185 538 *~ 0.4;
#X obj 238 375 / 127;
#X obj 185 63 inlet;
#X obj 183 578 outlet~;
#X obj 179 300 * 1;
#X obj 180 332 + 0;
#X obj 304 61 inlet;
#X obj 364 62 inlet;
#X connect 0 0 1 0;
#X connect 0 1 2 0;
#X connect 1 0 4 0;
#X connect 2 0 12 0;
#X connect 3 0 10 0;
#X connect 4 0 5 0;
#X connect 5 0 15 0;
#X connect 6 0 3 0;
#X connect 7 0 6 0;
#X connect 8 0 10 1;
#X connect 9 0 8 0;
#X connect 10 0 11 0;
#X connect 11 0 14 0;
#X connect 12 0 9 0;
#X connect 13 0 0 0;
#X connect 15 0 16 0;
#X connect 16 0 7 0;
#X connect 17 0 15 1;
#X connect 18 0 16 1;
#X restore 597 306 pd oscillator;
#X floatatom 624 278 5 0 0 0 - - -;
#X floatatom 665 278 5 0 0 0 - - -;
#X obj 381 434 +~;
#X obj 381 579 dac~;
#X obj 474 432 +~;
#X obj 493 595 writesf~ 2;
#X msg 643 360 open ./testRec.wav;
#X msg 584 535 start;
#X msg 584 560 stop;
#X obj 650 385 tgl 50 0 empty empty empty 17 7 0 10 -258113 -1 -1 0
1;
#X obj 650 449 select 1;
#X floatatom 565 182 5 0 0 0 - - -;
#X obj 870 127 ctlin 1;
#X floatatom 861 172 5 0 0 0 - - -;
#X floatatom 935 169 5 0 0 0 - - -;
#X obj 944 124 ctlin 17;
#X floatatom 1037 169 5 0 0 0 - - -;
#X obj 1046 124 ctlin 25;
#X text 902 86 alias 8 midi controller;
#X text 262 17 sensel morph w/ drum overlay;
#X connect 0 0 1 0;
#X connect 0 1 2 0;
#X connect 1 0 3 0;
#X connect 2 0 3 1;
#X connect 3 0 6 0;
#X connect 4 0 5 0;
#X connect 5 0 7 0;
#X connect 5 1 10 0;
#X connect 5 2 13 0;
#X connect 5 3 16 0;
#X connect 6 0 4 0;
#X connect 6 1 4 1;
#X connect 6 2 4 2;
#X connect 7 0 19 1;
#X connect 7 0 21 0;
#X connect 8 0 7 1;
#X connect 9 0 7 2;
#X connect 10 0 19 0;
#X connect 10 0 21 0;
#X connect 11 0 10 1;
#X connect 12 0 10 2;
#X connect 13 0 19 1;
#X connect 13 0 21 1;
#X connect 14 0 13 1;
#X connect 15 0 13 2;
#X connect 16 0 19 1;
#X connect 16 0 21 1;
#X connect 17 0 16 1;
#X connect 18 0 16 2;
#X connect 19 0 20 0;
#X connect 19 0 22 0;
#X connect 21 0 20 1;
#X connect 21 0 22 1;
#X connect 23 0 22 0;
#X connect 24 0 22 0;
#X connect 25 0 22 0;
#X connect 26 0 27 0;
#X connect 27 0 24 0;
#X connect 27 1 25 0;
#X connect 28 0 8 0;
#X connect 28 0 11 0;
#X connect 28 0 14 0;
#X connect 28 0 17 0;
#X connect 29 0 30 0;
#X connect 32 0 31 0;
#X connect 34 0 33 0;
