#N canvas 98 74 634 506 12;
#X obj 199 88 ctlin 81;
#X floatatom 199 119 5 0 0 0 - - -;
#X floatatom 295 120 5 0 0 0 - - -;
#X obj 295 89 ctlin 82;
#X obj 199 213 vsl 15 128 0 127 0 0 empty empty empty 0 -9 0 10 -262144
-1 -1 2900 1;
#X obj 295 214 vsl 15 128 0 127 0 0 empty empty empty 0 -9 0 10 -262144
-1 -1 3300 1;
#X obj 199 180 line;
#X msg 199 149 \$1 100;
#X obj 295 181 line;
#X msg 295 150 \$1 100;
#X connect 0 0 1 0;
#X connect 1 0 7 0;
#X connect 2 0 9 0;
#X connect 3 0 2 0;
#X connect 6 0 4 0;
#X connect 7 0 6 0;
#X connect 8 0 5 0;
#X connect 9 0 8 0;
