#N canvas 584 23 1019 681 10;
#X msg 53 168 close;
#X obj 37 14 cnv 15 440 60 empty empty empty 20 12 0 14 -200075 -66577
0;
#X msg 44 142 devices;
#X floatatom 104 150 5 0 0 0 - - -;
#X msg 104 169 open \$1;
#X obj 44 256 s;
#X obj 44 234 serial_print any;
#X text 46 88 Requires [comport] object \; install under Help > Find
Externals, f 72;
#X text 44 22 [serial_print]: abstraction that works with Arduinos'
Serial.print() and Serial.println() functions (with the use of [comport]).
It was written by Alexandros Drymonitis. \; See https://github.com/alexdrymonitis/Arduino_Pd
;
#X floatatom 268 305 5 0 0 0 - - -;
#X obj 268 373 line 1;
#X obj 271 409 hsl 128 15 0 1 0 0 empty empty empty -2 -8 0 10 -262144
-1 -1 110 1;
#X floatatom 268 221 5 0 0 1 ambient_light - -;
#X msg 268 342 \$1 100;
#X obj 268 148 r ambient:;
#X floatatom 442 220 5 0 0 0 - - -;
#X obj 442 149 r proximity:;
#X obj 44 212 comport 1 9600;
#X obj 442 184 unpack f s;
#X obj 268 188 unpack f s;
#X obj 268 263 ps.scale 200 10000 0 1;
#X floatatom 442 305 5 0 0 0 - - -;
#X obj 442 373 line 1;
#X obj 445 409 hsl 128 15 0 1 0 0 empty empty empty -2 -8 0 10 -262144
-1 -1 164 1;
#X msg 442 342 \$1 100;
#X obj 442 263 ps.scale 2000 12000 0 1;
#X connect 0 0 17 0;
#X connect 2 0 17 0;
#X connect 3 0 4 0;
#X connect 4 0 17 0;
#X connect 6 0 5 0;
#X connect 6 1 5 1;
#X connect 9 0 13 0;
#X connect 10 0 11 0;
#X connect 12 0 20 0;
#X connect 13 0 10 0;
#X connect 14 0 19 0;
#X connect 15 0 25 0;
#X connect 16 0 18 0;
#X connect 17 0 6 0;
#X connect 18 0 15 0;
#X connect 19 0 12 0;
#X connect 20 0 9 0;
#X connect 21 0 24 0;
#X connect 22 0 23 0;
#X connect 24 0 22 0;
#X connect 25 0 21 0;
