#N canvas 515 23 960 448 10;
#N canvas 320 22 960 675 print 0;
#X obj 41 186 print;
#X msg 41 139 any message;
#X obj 41 70 bng 50 250 50 0 empty empty empty 17 7 0 10 -262144 -1
-1;
#X text 128 64 <- notice that bang tells the message box to pass its
message;
#X msg 197 138 any other message;
#X obj 414 189 print;
#X msg 414 110 22;
#X msg 465 110 100;
#X msg 414 154 A message can have numeric variables \$1;
#X msg 521 110 1000;
#X msg 588 110 orange;
#X text 676 110 <- notice the error when orange is passed;
#X obj 212 591 print;
#X msg 212 492 40 20 1000;
#X msg 346 492 90 303 4004;
#X msg 212 534 A message can print to different lines \, with a comma
\, that's great \, \$1 \, \$2 \, \$3;
#X obj 458 390 print;
#X msg 458 291 list orange and watermelon;
#X msg 458 355 A message can have list variables \$1 \$2 \$3;
#X obj 165 253 cnv 5 650 5 empty empty empty 20 12 0 14 -233017 -66577
0;
#X obj 197 471 cnv 5 650 5 empty empty empty 20 12 0 14 -233017 -66577
0;
#X text 111 338 this is how we get around that previous error ->;
#X connect 1 0 0 0;
#X connect 2 0 1 0;
#X connect 4 0 0 0;
#X connect 6 0 8 0;
#X connect 7 0 8 0;
#X connect 8 0 5 0;
#X connect 9 0 8 0;
#X connect 10 0 8 0;
#X connect 13 0 15 0;
#X connect 14 0 15 0;
#X connect 15 0 12 0;
#X connect 17 0 18 0;
#X connect 18 0 16 0;
#X restore 426 123 pd print;
#N canvas 333 119 1074 661 pack_unpack 0;
#X msg 217 182 Working;
#X obj 110 86 pack s f s f;
#X msg 110 27 Working 100 lists 400;
#X obj 111 244 unpack s f s f;
#X floatatom 232 373 5 0 0 0 - - -, f 5;
#X floatatom 420 311 5 0 0 0 - - -, f 5;
#X msg 343 407 lists;
#X msg 69 371 Working;
#X msg 383 28 maybe 340 boring 11111;
#X text 302 223 <- pack and unpack allow you to form and break apart
lists and messages;
#X obj 571 366 pack f f f f;
#X floatatom 571 318 5 0 0 0 - - -, f 5;
#X floatatom 644 318 5 0 0 0 - - -, f 5;
#X floatatom 714 318 5 0 0 0 - - -, f 5;
#X floatatom 783 318 5 0 0 0 - - -, f 5;
#X floatatom 474 583 5 0 0 0 - - -, f 5;
#X floatatom 540 583 5 0 0 0 - - -, f 5;
#X floatatom 603 583 5 0 0 0 - - -, f 5;
#X floatatom 667 583 5 0 0 0 - - -, f 5;
#X text 511 93 IMPORTANT! Notice how operations in Pd go from right
to left. If you change the rightmost inlet of pack \, not until you
change the value in the leftmost inlet is there an output.;
#X msg 217 152 set \$1;
#X msg 68 324 set \$1;
#X msg 285 331 set \$1;
#X obj 630 486 list append;
#X obj 768 406 pack f f f f;
#X floatatom 768 358 5 0 0 0 - - -, f 5;
#X floatatom 841 358 5 0 0 0 - - -, f 5;
#X floatatom 911 358 5 0 0 0 - - -, f 5;
#X floatatom 980 358 5 0 0 0 - - -, f 5;
#X obj 607 518 unpack f f f f f f f f;
#X floatatom 717 585 5 0 0 0 - - -, f 5;
#X floatatom 783 585 5 0 0 0 - - -, f 5;
#X floatatom 846 585 5 0 0 0 - - -, f 5;
#X floatatom 910 585 5 0 0 0 - - -, f 5;
#X connect 1 0 3 0;
#X connect 1 0 20 0;
#X connect 2 0 1 0;
#X connect 3 0 21 0;
#X connect 3 1 4 0;
#X connect 3 2 22 0;
#X connect 3 3 5 0;
#X connect 8 0 1 0;
#X connect 10 0 23 0;
#X connect 11 0 10 0;
#X connect 12 0 10 1;
#X connect 13 0 10 2;
#X connect 14 0 10 3;
#X connect 20 0 0 0;
#X connect 21 0 7 0;
#X connect 22 0 6 0;
#X connect 23 0 29 0;
#X connect 24 0 23 1;
#X connect 25 0 24 0;
#X connect 26 0 24 1;
#X connect 27 0 24 2;
#X connect 28 0 24 3;
#X connect 29 0 15 0;
#X connect 29 1 16 0;
#X connect 29 2 17 0;
#X connect 29 3 18 0;
#X connect 29 4 30 0;
#X connect 29 5 31 0;
#X connect 29 6 32 0;
#X connect 29 7 33 0;
#X restore 426 157 pd pack_unpack;
#X text 424 89 MESSAGES AND LISTS;
