#N canvas 320 23 960 684 10;
#X obj 240 415 dac~;
#N canvas 0 22 450 300 (subpatch) 0;
#X array array_asd 44100 float 0;
#X coords 0 1 44099 -1 200 140 1 0 0;
#X restore 576 222 graph;
#X msg 167 404 \; pd dsp \$1;
#X obj 167 356 tgl 30 0 empty empty empty 17 7 0 10 -262144 -1 -1 0
1;
#X obj 239 205 osc~ 330;
#X obj 254 269 line~;
#X obj 448 343 tabwrite~ array_asd;
#X obj 239 323 *~;
#X obj 254 238 r to-line;
#X obj 448 310 r graphit;
#X msg 419 83 \; to-line 0 \, 0.75 500 \; graphit bang;
#X text 419 61 ramp up (Attack to Sustain);
#X text 419 142 ramp down (Sustain to Decay);
#X msg 419 164 \; to-line 0.75 \, 0 500 \; graphit bang;
#X text 298 268 <- create amplitude envelope;
#X obj 239 355 *~ 0.2;
#X text 91 73 Envelope generator Attack Sustain Decay;
#X connect 3 0 2 0;
#X connect 4 0 7 0;
#X connect 5 0 7 1;
#X connect 5 0 6 0;
#X connect 7 0 15 0;
#X connect 8 0 5 0;
#X connect 9 0 6 0;
#X connect 15 0 0 0;
#X connect 15 0 0 1;
