#N canvas 533 23 1093 1005 10;
#N canvas 0 22 450 300 (subpatch) 0;
#X array voicer 88200 float 2;
#X coords 0 1 88199 -1 400 140 1;
#X restore 611 33 graph;
#X obj 243 148 adc~;
#X obj 99 146 bng 15 250 50 0 empty empty empty 17 7 0 10 -262144 -1
-1;
#X obj 41 22 receive fromGUI;
#X obj 41 50 list trim;
#X obj 354 968 dac~;
#X obj 256 450 expr 44100 / $f1;
#X floatatom 231 678 10 0 0 0 - - -, f 10;
#X obj 231 723 phasor~;
#X obj 354 904 *~ 0.7;
#X floatatom 387 877 5 0 1 0 - - -, f 5;
#X obj 256 399 bng 15 250 50 0 empty empty empty 17 7 0 10 -262144
-1 -1;
#X msg 270 696 0;
#X text 310 680 <- playback speed;
#X text 304 697 <- cue position (phase);
#X obj 273 537 hsl 128 15 -2 2 0 0 empty empty -2_to_+2 20 -8 0 10
-262144 -1 -1 8889 1;
#X floatatom 270 561 5 0 0 0 - - -, f 5;
#X text 292 481 <- reset normal speed;
#X obj 270 505 f, f 22;
#X obj 270 481 bng 15 250 50 0 empty empty empty 17 7 0 10 -262144
-1 -1;
#X obj 99 244 tabwrite~ voicer;
#X obj 231 799 tabread4~ voicer;
#X obj 256 425 f 88200;
#X obj 231 766 *~ 88200;
#X obj 256 373 loadbang;
#X obj 546 149 tgl 15 0 empty empty empty 17 7 0 10 -262144 -1 -1 0
1;
#X obj 354 866 *~;
#X text 279 397 <- set normal speed;
#X obj 808 557 * 4;
#X obj 808 583 - 2;
#X floatatom 808 612 5 0 0 0 - - -, f 5;
#X obj 270 627 line;
#X msg 270 587 \$1 100;
#X obj 573 246 select 1;
#X obj 546 217 t f f;
#X obj 99 120 t b b;
#X obj 126 155 delay 88197;
#X msg 127 183 stop;
#X obj 864 646 send toGUI;
#X obj 751 280 route list;
#X obj 751 248 receive fromSystem;
#X obj 751 304 route /tilts;
#X obj 751 336 unpack f f;
#X floatatom 808 361 5 0 0 0 - - -, f 5;
#X obj 808 390 + 1;
#X obj 808 418 * 0.5;
#X floatatom 808 534 5 0 0 0 - - -, f 5;
#X obj 808 483 line;
#X msg 808 462 \$1 100;
#X msg 864 612 list /scrub \$1;
#X floatatom 41 109 5 0 0 0 - - -, f 5;
#X obj 41 77 route /scrub /record /key, f 76;
#X obj 402 801 line~;
#X obj 402 762 pack f 50;
#X connect 1 0 20 0;
#X connect 2 0 20 0;
#X connect 3 0 4 0;
#X connect 4 0 51 0;
#X connect 6 0 7 0;
#X connect 6 0 18 1;
#X connect 7 0 8 0;
#X connect 8 0 23 0;
#X connect 9 0 5 0;
#X connect 9 0 5 1;
#X connect 10 0 9 1;
#X connect 11 0 22 0;
#X connect 12 0 8 1;
#X connect 15 0 16 0;
#X connect 16 0 32 0;
#X connect 18 0 15 0;
#X connect 19 0 18 0;
#X connect 21 0 26 0;
#X connect 22 0 6 0;
#X connect 23 0 21 0;
#X connect 24 0 11 0;
#X connect 25 0 34 0;
#X connect 26 0 9 0;
#X connect 28 0 29 0;
#X connect 29 0 30 0;
#X connect 30 0 15 0;
#X connect 31 0 7 0;
#X connect 32 0 31 0;
#X connect 33 0 12 0;
#X connect 34 0 53 0;
#X connect 34 1 33 0;
#X connect 35 0 2 0;
#X connect 35 1 36 0;
#X connect 36 0 37 0;
#X connect 37 0 20 0;
#X connect 39 0 41 0;
#X connect 40 0 39 0;
#X connect 41 0 42 0;
#X connect 42 1 43 0;
#X connect 43 0 44 0;
#X connect 44 0 45 0;
#X connect 45 0 48 0;
#X connect 46 0 28 0;
#X connect 46 0 49 0;
#X connect 47 0 46 0;
#X connect 48 0 47 0;
#X connect 49 0 38 0;
#X connect 51 0 50 0;
#X connect 51 1 35 0;
#X connect 51 2 25 0;
#X connect 52 0 26 1;
#X connect 53 0 52 0;
