#N canvas 232 23 1515 1005 10;
#N canvas 0 22 450 300 (subpatch) 0;
#X array voicer 88200 float 2;
#X coords 0 1 88199 -1 400 140 1;
#X restore 611 33 graph;
#X obj 243 148 adc~;
#X obj 99 146 bng 15 250 50 0 empty empty empty 17 7 0 10 -262144 -1
-1;
#X obj 41 22 receive fromGUI;
#X obj 41 50 list trim;
#X obj 565 952 dac~;
#X obj 256 450 expr 44100 / $f1;
#X floatatom 231 678 10 0 0 0 - - -, f 10;
#X obj 231 723 phasor~;
#X obj 256 399 bng 15 250 50 0 empty empty empty 17 7 0 10 -262144
-1 -1;
#X msg 270 696 0;
#X text 310 680 <- playback speed;
#X text 304 697 <- cue position (phase);
#X obj 273 537 hsl 128 15 -2 2 0 0 empty empty -2_to_+2 20 -8 0 10
-262144 -1 -1 2687 1;
#X floatatom 270 561 5 0 0 0 - - -, f 5;
#X text 292 481 <- reset normal speed;
#X obj 270 505 f, f 22;
#X obj 270 481 bng 15 250 50 0 empty empty empty 17 7 0 10 -262144
-1 -1;
#X obj 99 244 tabwrite~ voicer;
#X obj 231 799 tabread4~ voicer;
#X obj 256 425 f 88200;
#X obj 231 766 *~ 88200;
#X obj 256 373 loadbang;
#X obj 546 149 tgl 15 0 empty empty empty 17 7 0 10 -262144 -1 -1 0
1;
#X obj 354 866 *~;
#X text 279 397 <- set normal speed;
#X obj 42 296 * 4;
#X obj 42 316 - 2;
#X floatatom 42 345 5 0 0 0 - - -, f 5;
#X obj 270 627 line;
#X msg 270 587 \$1 100;
#X obj 573 246 select 1;
#X obj 546 217 t f f;
#X obj 99 120 t b b;
#X obj 126 155 delay 88197;
#X msg 127 183 stop;
#X floatatom 41 109 5 0 0 0 - - -, f 5;
#X obj 564 710 dm_sdelay~ sdd;
#X floatatom 641 612 5 0 0 0 - - -, f 5;
#X floatatom 701 612 5 0 0 0 - - -, f 5;
#X floatatom 743 612 5 0 0 0 - - -, f 5;
#X floatatom 785 612 5 0 0 0 - - -, f 5;
#X msg 640 648 /ltime \$1;
#X msg 712 648 /lfb \$1;
#X msg 780 647 /rtime \$1;
#X msg 851 647 /rfb \$1;
#X msg 561 607 /wet \$1;
#X obj 41 77 route /speed /record /key, f 76;
#X obj 995 253 receive fromSystem;
#X obj 995 287 list trim;
#X obj 995 322 route /accel;
#X obj 995 364 unpack f f f, f 14;
#X floatatom 995 558 5 0 0 0 - - -, f 5;
#X floatatom 1141 558 5 0 0 0 - - -, f 5;
#X floatatom 1043 558 5 0 0 0 - - -, f 5;
#X obj 994 698 send toGUI;
#X obj 995 590 pack f f, f 11;
#X floatatom 995 428 5 0 0 0 - - -, f 5;
#X obj 995 451 + 1;
#X obj 995 474 * 0.5;
#X floatatom 1035 428 5 0 0 0 - - -, f 5;
#X obj 1035 451 + 1;
#X obj 1035 474 * 0.5;
#X floatatom 1076 428 5 0 0 0 - - -, f 5;
#X obj 1076 451 + 1;
#X obj 1076 474 * 0.5;
#X obj 995 520 line;
#X msg 995 499 \$1 100;
#X obj 1043 520 line;
#X msg 1043 499 \$1 100;
#X obj 1141 519 line;
#X msg 1141 498 \$1 100;
#X msg 995 622 list /xy1 \$1 \$2;
#X msg 1141 622 list /z1 \$1;
#X obj 381 796 line~;
#X obj 381 772 pack f 20;
#X connect 1 0 18 0;
#X connect 2 0 18 0;
#X connect 3 0 4 0;
#X connect 4 0 47 0;
#X connect 6 0 7 0;
#X connect 6 0 16 1;
#X connect 7 0 8 0;
#X connect 8 0 21 0;
#X connect 9 0 20 0;
#X connect 10 0 8 1;
#X connect 13 0 14 0;
#X connect 14 0 30 0;
#X connect 16 0 13 0;
#X connect 17 0 16 0;
#X connect 19 0 24 0;
#X connect 20 0 6 0;
#X connect 21 0 19 0;
#X connect 22 0 9 0;
#X connect 23 0 32 0;
#X connect 24 0 37 0;
#X connect 24 0 37 1;
#X connect 26 0 27 0;
#X connect 27 0 28 0;
#X connect 28 0 13 0;
#X connect 29 0 7 0;
#X connect 30 0 29 0;
#X connect 31 0 10 0;
#X connect 32 0 75 0;
#X connect 32 1 31 0;
#X connect 33 0 2 0;
#X connect 33 1 34 0;
#X connect 34 0 35 0;
#X connect 35 0 18 0;
#X connect 36 0 26 0;
#X connect 37 0 5 0;
#X connect 37 1 5 1;
#X connect 38 0 42 0;
#X connect 39 0 43 0;
#X connect 40 0 44 0;
#X connect 41 0 45 0;
#X connect 42 0 37 2;
#X connect 43 0 37 2;
#X connect 44 0 37 2;
#X connect 45 0 37 2;
#X connect 46 0 37 2;
#X connect 47 0 36 0;
#X connect 47 1 33 0;
#X connect 47 2 23 0;
#X connect 48 0 49 0;
#X connect 49 0 50 0;
#X connect 50 0 51 0;
#X connect 51 0 57 0;
#X connect 51 1 60 0;
#X connect 51 2 63 0;
#X connect 52 0 56 0;
#X connect 52 0 38 0;
#X connect 52 0 40 0;
#X connect 53 0 73 0;
#X connect 53 0 46 0;
#X connect 54 0 56 1;
#X connect 54 0 41 0;
#X connect 54 0 39 0;
#X connect 56 0 72 0;
#X connect 57 0 58 0;
#X connect 58 0 59 0;
#X connect 59 0 67 0;
#X connect 60 0 61 0;
#X connect 61 0 62 0;
#X connect 62 0 69 0;
#X connect 63 0 64 0;
#X connect 64 0 65 0;
#X connect 65 0 71 0;
#X connect 66 0 52 0;
#X connect 67 0 66 0;
#X connect 68 0 54 0;
#X connect 69 0 68 0;
#X connect 70 0 53 0;
#X connect 71 0 70 0;
#X connect 72 0 55 0;
#X connect 73 0 55 0;
#X connect 74 0 24 1;
#X connect 75 0 74 0;
