#N canvas 419 23 999 575 10;
#X obj 127 315 *~;
#N canvas 0 22 450 300 (subpatch) 0;
#X array array_env 100 float 0;
#X coords 0 1 99 -1 200 140 1 0 0;
#X restore 486 289 graph;
#X obj 338 342 tgl 30 0 empty empty empty 17 7 0 10 -262144 -1 -1 1
1;
#X text 378 343 <- graph;
#X obj 338 379 metro 50;
#X obj 338 410 tabwrite~ array_env;
#X obj 510 60 tgl 15 0 empty empty empty 17 7 0 10 -262144 -1 -1 0
1;
#X obj 511 183 ps.adsr~;
#X msg 668 147 /attack \$1;
#X floatatom 668 123 5 0 0 0 - - -;
#X floatatom 742 122 5 0 0 0 - - -;
#X floatatom 816 121 5 0 0 0 - - -;
#X floatatom 897 120 5 0 0 0 - - -;
#X msg 742 146 /decay \$1;
#X msg 816 145 /sustain \$1;
#X msg 897 144 /release \$1;
#X msg 556 145 /on;
#X msg 599 145 /off;
#X text 532 59 note on/off;
#X obj 127 407 dac~;
#X obj 127 159 noise~ 200;
#X obj 127 214 *~ 0.3;
#X connect 0 0 5 0;
#X connect 0 0 19 0;
#X connect 0 0 19 1;
#X connect 2 0 4 0;
#X connect 4 0 5 0;
#X connect 6 0 7 0;
#X connect 7 0 0 1;
#X connect 8 0 7 1;
#X connect 9 0 8 0;
#X connect 10 0 13 0;
#X connect 11 0 14 0;
#X connect 12 0 15 0;
#X connect 13 0 7 1;
#X connect 14 0 7 1;
#X connect 15 0 7 1;
#X connect 16 0 7 1;
#X connect 17 0 7 1;
#X connect 20 0 21 0;
#X connect 21 0 0 0;
