#N canvas 0 23 1276 685 10;
#X obj 274 365 dac~;
#N canvas 0 22 450 300 (subpatch) 0;
#X array array_tri1 100 float 0;
#X coords 0 1 99 -1 200 140 1 0 0;
#X restore 459 466 graph;
#X obj 740 232 tgl 30 0 empty empty empty 17 7 0 10 -262144 -1 -1 0
1;
#X text 781 236 <- graph;
#X msg 274 500 \; pd dsp \$1;
#X obj 274 452 tgl 30 0 empty empty empty 17 7 0 10 -262144 -1 -1 1
1;
#X obj 740 269 metro 50;
#X obj 274 153 pack f 200;
#X obj 274 203 line~;
#X floatatom 274 116 5 0 0 0 - - -;
#X obj 438 378 tabwrite~ array_tri1;
#N canvas 0 23 593 519 triangleWave 0;
#X msg 377 97 0;
#X obj 88 189 phasor~;
#X obj 201 189 phasor~;
#X obj 88 229 *~ 2;
#X obj 88 263 -~ 1;
#X obj 88 295 clip~ 0 1;
#X obj 201 229 *~ 2;
#X obj 201 263 -~ 1;
#X obj 201 295 clip~ 0 1;
#X obj 88 363 +~;
#X obj 88 481 outlet~;
#X text 414 95 <- phase synchronization;
#X text 364 226 triangle wave;
#X obj 176 138 *~ -1;
#X obj 88 403 expr~ $v1 * 2 - 1;
#X obj 377 38 loadbang;
#X obj 89 39 inlet~;
#X obj 198 39 inlet;
#X obj 360 460 outlet~;
#X obj 432 461 outlet~;
#X connect 0 0 2 1;
#X connect 0 0 1 1;
#X connect 1 0 3 0;
#X connect 2 0 6 0;
#X connect 3 0 4 0;
#X connect 4 0 5 0;
#X connect 5 0 9 0;
#X connect 5 0 18 0;
#X connect 6 0 7 0;
#X connect 7 0 8 0;
#X connect 8 0 9 1;
#X connect 8 0 19 0;
#X connect 9 0 14 0;
#X connect 13 0 2 0;
#X connect 14 0 10 0;
#X connect 15 0 0 0;
#X connect 16 0 1 0;
#X connect 16 0 13 0;
#X connect 17 0 2 1;
#X connect 17 0 1 1;
#X restore 274 252 pd triangleWave;
#X text 60 23 TRIANGLE WAVE with expr~;
#N canvas 0 22 450 300 (subpatch) 0;
#X array array_phasorpos 100 float 0;
#X coords 0 1 99 -1 200 140 1 0 0;
#X restore 669 464 graph;
#N canvas 0 22 450 300 (subpatch) 0;
#X array array_phasorneg 100 float 0;
#X coords 0 1 99 -1 200 140 1 0 0;
#X restore 879 463 graph;
#X obj 572 377 tabwrite~ array_phasorpos;
#X obj 740 376 tabwrite~ array_phasorneg;
#X obj 92 233 ps.tri~;
#X obj 93 299 *~ 0;
#X msg 146 275 0.2;
#X msg 180 275 0;
#X msg 272 291 0, f 4;
#X msg 295 317 0.2, f 4;
#X obj 239 312 *~ 0.2;
#X obj 92 144 pack f 200;
#X obj 92 194 line~;
#X floatatom 92 107 5 0 0 0 - - -;
#X connect 2 0 6 0;
#X connect 5 0 4 0;
#X connect 6 0 10 0;
#X connect 6 0 15 0;
#X connect 6 0 16 0;
#X connect 7 0 8 0;
#X connect 8 0 11 0;
#X connect 9 0 7 0;
#X connect 11 0 10 0;
#X connect 11 0 23 0;
#X connect 11 1 15 0;
#X connect 11 2 16 0;
#X connect 17 0 18 0;
#X connect 18 0 0 0;
#X connect 18 0 0 1;
#X connect 19 0 18 1;
#X connect 20 0 18 1;
#X connect 21 0 23 1;
#X connect 22 0 23 1;
#X connect 23 0 0 0;
#X connect 23 0 0 1;
#X connect 24 0 25 0;
#X connect 25 0 17 0;
#X connect 26 0 24 0;
