#N canvas 809 91 772 453 12;
#X msg 406 85 /attack \$1;
#X floatatom 406 53 5 0 0 0 - - -;
#X floatatom 494 53 5 0 0 0 - - -;
#X msg 494 85 /sustain \$1;
#X floatatom 589 53 5 0 0 0 - - -;
#X msg 589 85 /decay \$1;
#X msg 331 85 /trigger;
#X obj 225 197 *~;
#X obj 285 123 ps.asd~;
#X obj 285 85 bng 15 250 50 0 empty empty empty 17 7 0 10 -262144 -1
-1;
#X obj 224 265 dac~;
#X obj 149 118 noise~;
#X obj 187 157 *~ 0.3;
#X connect 0 0 8 1;
#X connect 1 0 0 0;
#X connect 2 0 3 0;
#X connect 3 0 8 1;
#X connect 4 0 5 0;
#X connect 5 0 8 1;
#X connect 6 0 8 1;
#X connect 7 0 10 0;
#X connect 7 0 10 1;
#X connect 8 0 7 1;
#X connect 9 0 8 0;
#X connect 11 0 12 0;
#X connect 12 0 7 0;
