#N canvas 244 62 932 624 12;
#X msg 377 97 0;
#X obj 88 189 phasor~;
#X obj 201 189 phasor~;
#X obj 88 229 *~ 2;
#X obj 88 263 -~ 1;
#X obj 88 295 clip~ 0 1;
#X obj 201 229 *~ 2;
#X obj 201 263 -~ 1;
#X obj 201 295 clip~ 0 1;
#X obj 88 363 +~;
#X obj 88 481 outlet~;
#X text 414 95 <- phase synchronization;
#X text 364 226 triangle wave;
#X obj 176 138 *~ -1;
#X obj 88 403 expr~ $v1 * 2 - 1;
#X obj 377 38 loadbang;
#X obj 89 39 inlet~;
#X obj 198 39 inlet;
#X connect 0 0 2 1;
#X connect 0 0 1 1;
#X connect 1 0 3 0;
#X connect 2 0 6 0;
#X connect 3 0 4 0;
#X connect 4 0 5 0;
#X connect 5 0 9 0;
#X connect 6 0 7 0;
#X connect 7 0 8 0;
#X connect 8 0 9 1;
#X connect 9 0 14 0;
#X connect 13 0 2 0;
#X connect 14 0 10 0;
#X connect 15 0 0 0;
#X connect 16 0 1 0;
#X connect 16 0 13 0;
#X connect 17 0 2 1;
#X connect 17 0 1 1;
