#N canvas 79 23 1291 816 10;
#X floatatom 521 176 10 0 0 0 - - -;
#X obj 460 302 *~;
#X obj 423 137 tgl 15 0 empty empty empty 17 7 0 10 -262144 -1 -1 0
1;
#X obj 426 7 hsl 300 15 0 127 0 0 empty h-scl-s empty -2 -8 0 10 -262144
-1 -1 8000 1;
#X floatatom 423 26 5 0 0 0 - - -;
#X obj 521 28 scales;
#X obj 460 207 fm-osc~;
#X obj 646 177 env-gen~;
#X obj 460 323 filter~;
#X obj 460 410 tremolo~;
#X obj 460 496 echo~;
#X obj 460 736 dac-out~;
#N canvas 0 22 450 300 (subpatch) 0;
#X array array_out 100 float 0;
#X coords 0 1 99 -1 200 140 1 0 0;
#X restore 667 430 graph;
#X obj 673 672 tgl 30 0 empty empty empty 17 7 0 10 -262144 -1 -1 0
1;
#X text 713 673 <- graph;
#X obj 673 709 metro 50;
#X obj 673 740 tabwrite~ array_out;
#X obj 460 603 reverb~;
#X obj 423 109 note-duration;
#X floatatom 458 75 5 0 0 0 - - -;
#X connect 0 0 6 1;
#X connect 1 0 8 0;
#X connect 2 0 6 0;
#X connect 2 0 7 0;
#X connect 3 0 4 0;
#X connect 4 0 5 0;
#X connect 4 0 18 0;
#X connect 5 0 0 0;
#X connect 6 0 1 0;
#X connect 7 0 1 1;
#X connect 8 0 9 0;
#X connect 9 0 10 0;
#X connect 10 0 17 0;
#X connect 11 0 16 0;
#X connect 13 0 15 0;
#X connect 15 0 16 0;
#X connect 17 0 11 0;
#X connect 18 0 2 0;
#X connect 19 0 18 1;
