#N canvas 419 23 760 521 10;
#X obj 127 159 fm-osc~;
#X obj 127 369 dac-out~;
#X floatatom 188 98 5 0 0 1 frequency h-freq-e -;
#X floatatom 250 121 5 0 0 1 modulation_frequency h-mod-e -;
#X text 78 122 trigger;
#X obj 318 161 env-gen~;
#X obj 127 315 *~;
#N canvas 0 22 450 300 (subpatch) 0;
#X array array_env 100 float 0;
#X coords 0 1 99 -1 200 140 1 0 0;
#X restore 486 289 graph;
#X obj 338 342 tgl 30 0 empty empty empty 17 7 0 10 -262144 -1 -1 0
1;
#X text 378 343 <- graph;
#X obj 338 379 metro 50;
#X obj 338 410 tabwrite~ array_env;
#X obj 126 6 tgl 15 0 empty empty empty 17 7 0 10 -262144 -1 -1 0 1
;
#X text 148 6 trigger;
#X msg 503 58 \; h-freq-e 200 \; h-mod-e 1 \;;
#X obj 503 29 loadbang;
#X connect 0 0 6 0;
#X connect 2 0 0 1;
#X connect 3 0 0 2;
#X connect 5 0 6 1;
#X connect 6 0 1 0;
#X connect 6 0 11 0;
#X connect 8 0 10 0;
#X connect 10 0 11 0;
#X connect 12 0 0 0;
#X connect 12 0 5 0;
#X connect 15 0 14 0;
