#N canvas 371 139 1094 751 10;
#X obj 291 76 inlet;
#X text 287 51 trigger;
#X obj 291 104 sel 0;
#X obj 431 166 t b;
#X obj 645 440 line~;
#X msg 291 135 stop;
#X obj 645 477 outlet~;
#X obj 649 340 * 0.01;
#X text 638 112 attack;
#X text 734 120 decay;
#X text 844 113 sustain;
#X text 929 131 release;
#X text 389 82 attack;
#X obj 391 103 moses;
#X obj 381 133 t b b;
#X msg 315 301 0;
#X text 488 508 Arguments: level \, attack time \, decay time \, sustain
level \, release time. A \, D \, and R are in msec and S is in percent.
This patch is used as an abstraction in various examples.;
#X obj 688 366 * 1;
#X obj 353 276 f 1;
#X obj 119 281 / 127;
#X obj 164 282 / 127;
#X obj 207 282 / 127;
#X obj 251 282 / 127;
#X floatatom 641 89 5 0 0 0 - - -;
#X obj 353 300 pack 0 0;
#X obj 625 292 del 10;
#X floatatom 735 97 5 0 0 0 - - -;
#X obj 649 315 f 50;
#X obj 264 317 * 900;
#X floatatom 848 90 5 0 0 0 - - -;
#X obj 219 317 * 80;
#X obj 219 343 + 20;
#X obj 799 317 pack 0 0;
#X floatatom 932 108 5 0 0 0 - - -;
#X obj 688 390 pack 0 0;
#X obj 95 4 loadbang;
#X msg 103 72 80;
#X msg 143 72 64;
#X obj 96 35 t b b b;
#X obj 77 5 bng 15 250 50 0 empty empty empty 17 7 0 10 -262144 -1
-1;
#X obj 119 314 * 500;
#X obj 173 317 * 100;
#X obj 119 340 + 15;
#X obj 173 343 + 15;
#X obj 264 343 + 20;
#X msg 65 71 20;
#X obj 115 145 hsl 100 15 0 127 0 0 empty empty attack 20 8 0 10 -204800
-4160 -1 1559 1;
#X obj 115 165 hsl 100 15 0 127 0 0 empty empty decay 20 8 0 10 -204800
-4160 -1 1559 1;
#X obj 115 185 hsl 100 15 0 127 0 0 empty empty sustain 20 8 0 10 -204800
-4160 -1 6236 1;
#X obj 115 205 hsl 100 15 0 127 0 0 empty empty release 20 8 0 10 -204800
-4160 -1 4989 1;
#X obj 845 32 r \$1;
#X connect 0 0 2 0;
#X connect 2 0 5 0;
#X connect 2 0 32 0;
#X connect 2 1 13 0;
#X connect 3 0 18 0;
#X connect 3 0 25 0;
#X connect 4 0 6 0;
#X connect 5 0 25 0;
#X connect 7 0 17 0;
#X connect 13 0 14 0;
#X connect 13 1 3 0;
#X connect 14 0 3 0;
#X connect 14 1 15 0;
#X connect 15 0 4 0;
#X connect 17 0 34 0;
#X connect 18 0 24 0;
#X connect 19 0 40 0;
#X connect 20 0 41 0;
#X connect 21 0 30 0;
#X connect 22 0 28 0;
#X connect 23 0 24 1;
#X connect 23 0 25 1;
#X connect 24 0 4 0;
#X connect 25 0 27 0;
#X connect 26 0 34 1;
#X connect 27 0 7 0;
#X connect 28 0 44 0;
#X connect 29 0 27 1;
#X connect 30 0 31 0;
#X connect 31 0 29 0;
#X connect 32 0 4 0;
#X connect 33 0 32 1;
#X connect 34 0 4 0;
#X connect 35 0 38 0;
#X connect 36 0 48 0;
#X connect 37 0 49 0;
#X connect 38 0 45 0;
#X connect 38 1 36 0;
#X connect 38 2 37 0;
#X connect 39 0 38 0;
#X connect 40 0 42 0;
#X connect 41 0 43 0;
#X connect 42 0 23 0;
#X connect 43 0 26 0;
#X connect 44 0 33 0;
#X connect 45 0 46 0;
#X connect 45 0 47 0;
#X connect 46 0 19 0;
#X connect 47 0 20 0;
#X connect 48 0 21 0;
#X connect 49 0 22 0;
#X coords 0 -1 1 1 130 130 1 100 100;
