#N canvas 0 23 450 300 10;
#X obj 67 37 t b;
#X obj 104 66 delay 50;
#X msg 55 102 1;
#X msg 98 99 0;
#X obj 60 11 inlet;
#X obj 64 170 outlet;
#X obj 182 15 inlet;
#X connect 0 0 1 0;
#X connect 0 0 2 0;
#X connect 1 0 3 0;
#X connect 2 0 5 0;
#X connect 3 0 5 0;
#X connect 4 0 0 0;
#X connect 6 0 1 1;
