#N canvas 708 23 1023 789 10;
#X obj 273 412 dac~;
#N canvas 0 22 450 300 (subpatch) 0;
#X array rec 88200 float 2;
#X coords 0 1 88199 -1 400 140 1 0 0;
#X restore 382 44 graph;
#X obj 71 283 adc~;
#X obj 41 182 bng 15 250 50 0 empty empty empty 17 7 0 10 -262144 -1
-1;
#X obj 273 303 vline~;
#X obj 41 22 receive fromGUI;
#X obj 41 50 list trim;
#X obj 41 77 route /record /normalize /play;
#X obj 71 336 tabwrite~ rec;
#X obj 273 359 tabread4~ rec;
#X msg 99 233 \; rec normalize;
#X msg 273 262 0 \, 88200 2000;
#X obj 41 151 select 1;
#X obj 41 116 tgl 15 0 empty empty empty 17 7 0 10 -262144 -1 -1 0
1;
#X obj 100 151 select 1;
#X obj 100 116 tgl 15 0 empty empty empty 17 7 0 10 -262144 -1 -1 0
1;
#X obj 159 151 select 1;
#X obj 159 116 tgl 15 0 empty empty empty 17 7 0 10 -262144 -1 -1 0
1;
#X obj 100 182 bng 15 250 50 0 empty empty empty 17 7 0 10 -262144
-1 -1;
#X obj 159 182 bng 15 250 50 0 empty empty empty 17 7 0 10 -262144
-1 -1;
#X text 457 244 basic recorder;
#X connect 2 0 8 0;
#X connect 3 0 8 0;
#X connect 4 0 9 0;
#X connect 5 0 6 0;
#X connect 6 0 7 0;
#X connect 7 0 13 0;
#X connect 7 1 15 0;
#X connect 7 2 17 0;
#X connect 9 0 0 0;
#X connect 9 0 0 1;
#X connect 11 0 4 0;
#X connect 12 0 3 0;
#X connect 13 0 12 0;
#X connect 14 0 18 0;
#X connect 15 0 14 0;
#X connect 16 0 19 0;
#X connect 17 0 16 0;
#X connect 18 0 10 0;
#X connect 19 0 11 0;
