#N canvas 855 91 1031 702 10;
#X floatatom 61 110 5 0 0 0 - - -;
#X floatatom 457 111 5 0 0 0 - - -;
#X obj 61 21 ctlin 1;
#X obj 457 22 ctlin 51;
#X obj 60 211 line;
#X obj 60 180 pack f 200;
#X obj 61 132 / 127;
#X floatatom 60 153 5 0 0 0 - - -;
#X obj 60 248 vsl 15 128 0 1 0 0 empty empty empty 0 -9 0 10 -262144
-1 -1 2300 1;
#X floatatom 94 153 5 0 0 0 - - -;
#X floatatom 140 110 5 0 0 0 - - -;
#X obj 139 211 line;
#X obj 139 180 pack f 200;
#X obj 140 132 / 127;
#X floatatom 139 153 5 0 0 0 - - -;
#X obj 139 248 vsl 15 128 0 1 0 0 empty empty empty 0 -9 0 10 -262144
-1 -1 6000 1;
#X floatatom 173 153 5 0 0 0 - - -;
#X floatatom 225 110 5 0 0 0 - - -;
#X obj 224 211 line;
#X obj 224 180 pack f 200;
#X obj 225 132 / 127;
#X floatatom 224 153 5 0 0 0 - - -;
#X obj 224 247 vsl 15 128 0 1 0 0 empty empty empty 0 -9 0 10 -262144
-1 -1 12200 1;
#X floatatom 258 153 5 0 0 0 - - -;
#X floatatom 304 110 5 0 0 0 - - -;
#X obj 303 211 line;
#X obj 303 180 pack f 200;
#X obj 304 132 / 127;
#X floatatom 303 153 5 0 0 0 - - -;
#X obj 303 247 vsl 15 128 0 1 0 0 empty empty empty 0 -9 0 10 -262144
-1 -1 0 1;
#X floatatom 337 153 5 0 0 0 - - -;
#X obj 140 21 ctlin 2;
#X obj 225 20 ctlin 3;
#X obj 304 20 ctlin 4;
#X obj 457 147 / 127;
#X floatatom 457 174 5 0 0 0 - - -;
#X obj 457 200 tgl 30 0 empty empty momentary 33 7 0 10 -262144 -1
-1 0 1;
#X obj 394 216 select 1;
#X obj 394 238 tgl 30 0 empty empty toggle 33 7 0 10 -262144 -1 -1
0 1;
#X floatatom 622 111 5 0 0 0 - - -;
#X obj 622 147 / 127;
#X floatatom 622 174 5 0 0 0 - - -;
#X obj 622 200 tgl 30 0 empty empty momentary 33 7 0 10 -262144 -1
-1 0 1;
#X obj 559 216 select 1;
#X obj 559 238 tgl 30 0 empty empty toggle 33 7 0 10 -262144 -1 -1
0 1;
#X floatatom 777 111 5 0 0 0 - - -;
#X obj 777 147 / 127;
#X floatatom 777 174 5 0 0 0 - - -;
#X obj 777 200 tgl 30 0 empty empty momentary 33 7 0 10 -262144 -1
-1 0 1;
#X obj 714 216 select 1;
#X obj 714 238 tgl 30 0 empty empty toggle 33 7 0 10 -262144 -1 -1
1 1;
#X floatatom 928 111 5 0 0 0 - - -;
#X obj 928 147 / 127;
#X floatatom 928 174 5 0 0 0 - - -;
#X obj 928 200 tgl 30 0 empty empty momentary 33 7 0 10 -262144 -1
-1 0 1;
#X obj 865 216 select 1;
#X obj 865 238 tgl 30 0 empty empty toggle 33 7 0 10 -262144 -1 -1
1 1;
#X obj 622 22 ctlin 52;
#X obj 777 22 ctlin 53;
#X obj 928 22 ctlin 54;
#X connect 0 0 6 0;
#X connect 1 0 34 0;
#X connect 2 0 0 0;
#X connect 3 0 1 0;
#X connect 4 0 8 0;
#X connect 5 0 4 0;
#X connect 6 0 7 0;
#X connect 7 0 5 0;
#X connect 9 0 5 1;
#X connect 10 0 13 0;
#X connect 11 0 15 0;
#X connect 12 0 11 0;
#X connect 13 0 14 0;
#X connect 14 0 12 0;
#X connect 16 0 12 1;
#X connect 17 0 20 0;
#X connect 18 0 22 0;
#X connect 19 0 18 0;
#X connect 20 0 21 0;
#X connect 21 0 19 0;
#X connect 23 0 19 1;
#X connect 24 0 27 0;
#X connect 25 0 29 0;
#X connect 26 0 25 0;
#X connect 27 0 28 0;
#X connect 28 0 26 0;
#X connect 30 0 26 1;
#X connect 31 0 10 0;
#X connect 32 0 17 0;
#X connect 33 0 24 0;
#X connect 34 0 35 0;
#X connect 35 0 36 0;
#X connect 35 0 37 0;
#X connect 37 0 38 0;
#X connect 39 0 40 0;
#X connect 40 0 41 0;
#X connect 41 0 42 0;
#X connect 41 0 43 0;
#X connect 43 0 44 0;
#X connect 45 0 46 0;
#X connect 46 0 47 0;
#X connect 47 0 48 0;
#X connect 47 0 49 0;
#X connect 49 0 50 0;
#X connect 51 0 52 0;
#X connect 52 0 53 0;
#X connect 53 0 54 0;
#X connect 53 0 55 0;
#X connect 55 0 56 0;
#X connect 57 0 39 0;
#X connect 58 0 45 0;
#X connect 59 0 51 0;
