#N canvas 352 91 1140 807 10;
#X obj 358 340 soundfiler;
#X msg 358 314 read -resize \$1 \$2;
#X obj 358 290 pack s s;
#X obj 315 625 line~;
#X obj 315 652 tabread4~ \$0-soundfile;
#X floatatom 326 367 5 0 0 0 - - -, f 5;
#X obj 370 416 / 44.1;
#X floatatom 315 544 4 0 0 0 - - -, f 4;
#X floatatom 343 534 4 0 0 0 - - -, f 4;
#X obj 315 574 pack 0 0 0;
#X floatatom 372 535 6 0 0 0 - - -, f 6;
#X msg 315 600 \$1 \, \$2 \$3;
#X msg 315 502 0;
#X obj 370 457 f;
#X obj 343 502 f;
#X obj 550 276 samplerate~;
#X obj 550 232 loadbang;
#X obj 550 301 * 0.001;
#X obj 372 502 * 1;
#X floatatom 402 457 5 0 0 1 playback_speed - -, f 5;
#X obj 370 480 f;
#X obj 402 484 t b f;
#X obj 313 127 inlet;
#X obj 550 255 bng 15 250 50 0 empty empty empty 17 7 0 10 -262144
-1 -1;
#X obj 614 465 cnv 15 75 25 empty empty empty 20 12 0 14 -262130 -66577
0;
#X text 620 467 [s3g 2014];
#X obj 315 717 outlet~;
#X obj 604 66 inlet;
#X obj 660 66 r \$1;
#X floatatom 694 322 10 0 0 1 speed - -, f 10;
#X obj 145 701 table \$0-soundfile;
#X obj 315 680 *~ 0.5;
#X obj 403 260 symbol \$0-soundfile;
#X obj 403 225 t b;
#X obj 376 192 t a b;
#X obj 166 221 openpanel;
#X obj 227 221 symbol \$0-soundfile;
#X obj 166 198 t b b;
#X obj 166 280 pack s s;
#X obj 604 92 route /open /speed /read;
#X connect 0 0 5 0;
#X connect 0 0 6 0;
#X connect 1 0 0 0;
#X connect 2 0 1 0;
#X connect 3 0 4 0;
#X connect 4 0 31 0;
#X connect 5 0 14 0;
#X connect 6 0 13 0;
#X connect 7 0 9 0;
#X connect 8 0 9 1;
#X connect 9 0 11 0;
#X connect 10 0 9 2;
#X connect 11 0 3 0;
#X connect 12 0 7 0;
#X connect 13 0 20 0;
#X connect 14 0 8 0;
#X connect 15 0 17 0;
#X connect 16 0 23 0;
#X connect 17 0 6 1;
#X connect 18 0 10 0;
#X connect 19 0 18 1;
#X connect 19 0 21 0;
#X connect 20 0 18 0;
#X connect 21 0 20 0;
#X connect 21 1 18 1;
#X connect 22 0 12 0;
#X connect 23 0 15 0;
#X connect 27 0 39 0;
#X connect 28 0 39 0;
#X connect 29 0 19 0;
#X connect 31 0 26 0;
#X connect 32 0 2 1;
#X connect 33 0 32 0;
#X connect 34 0 2 0;
#X connect 34 1 33 0;
#X connect 35 0 38 0;
#X connect 36 0 38 1;
#X connect 37 0 35 0;
#X connect 37 1 36 0;
#X connect 38 0 1 0;
#X connect 39 0 37 0;
#X connect 39 1 29 0;
#X connect 39 2 34 0;
#X coords 0 807 1 806 150 50 0;
