#N canvas 0 23 1680 776 12;
#X floatatom 1069 528 5 0 0 0 - - -;
#X floatatom 813 528 5 0 0 0 - - -;
#X msg 347 125 0;
#X msg 274 152 \; pd dsp \$1;
#X obj 33 90 tgl 20 0 empty empty 10_main 23 7 0 10 -262144 -1 -1 1
1;
#X obj 117 90 tgl 20 0 empty empty 2_subs 23 7 0 10 -262144 -1 -1 1
1;
#X obj 347 70 bng 40 250 50 0 empty empty panic 42 7 0 10 -258113 -262144
-258113;
#X obj 278 70 tgl 40 0 empty empty dsp 42 7 0 10 -262144 -1 -1 0 1
;
#N canvas 0 82 1680 758 clip_filter_trim_10_speakers 0;
#X obj 47 433 clip~ -1 1;
#X obj 47 287 *~;
#X obj 47 256 inlet~;
#X obj 47 470 outlet~;
#X obj 126 433 clip~ -1 1;
#X obj 126 287 *~;
#X obj 126 256 inlet~;
#X obj 126 470 outlet~;
#X obj 204 433 clip~ -1 1;
#X obj 204 287 *~;
#X obj 204 256 inlet~;
#X obj 204 470 outlet~;
#X obj 283 433 clip~ -1 1;
#X obj 283 287 *~;
#X obj 283 256 inlet~;
#X obj 283 470 outlet~;
#X obj 361 433 clip~ -1 1;
#X obj 361 287 *~;
#X obj 361 256 inlet~;
#X obj 361 470 outlet~;
#X obj 440 433 clip~ -1 1;
#X obj 440 287 *~;
#X obj 440 256 inlet~;
#X obj 440 470 outlet~;
#X obj 518 433 clip~ -1 1;
#X obj 518 287 *~;
#X obj 518 256 inlet~;
#X obj 518 470 outlet~;
#X obj 597 433 clip~ -1 1;
#X obj 597 287 *~;
#X obj 597 256 inlet~;
#X obj 597 470 outlet~;
#X obj 675 433 clip~ -1 1;
#X obj 675 287 *~;
#X obj 675 256 inlet~;
#X obj 675 470 outlet~;
#X obj 754 433 clip~ -1 1;
#X obj 754 287 *~;
#X obj 754 256 inlet~;
#X obj 754 470 outlet~;
#X obj 526 160 line~;
#X obj 830 256 inlet;
#X obj 526 134 pack 0 50;
#X obj 126 403 hip~ 30;
#X obj 204 403 hip~ 30;
#X obj 283 403 hip~ 30;
#X obj 361 403 hip~ 30;
#X obj 440 403 hip~ 30;
#X obj 518 403 hip~ 30;
#X obj 597 403 hip~ 30;
#X obj 675 403 hip~ 30;
#X obj 754 403 hip~ 30;
#X obj 885 256 inlet;
#X obj 886 309 line~;
#X msg 885 285 \$1 50;
#X obj 47 377 *~;
#X obj 126 377 *~;
#X obj 204 377 *~;
#X obj 283 377 *~;
#X obj 361 377 *~;
#X obj 440 377 *~;
#X obj 518 377 *~;
#X obj 597 377 *~;
#X obj 675 377 *~;
#X obj 754 377 *~;
#X obj 47 403 hip~ 30;
#X connect 0 0 3 0;
#X connect 1 0 55 0;
#X connect 2 0 1 0;
#X connect 4 0 7 0;
#X connect 5 0 56 0;
#X connect 6 0 5 0;
#X connect 8 0 11 0;
#X connect 9 0 57 0;
#X connect 10 0 9 0;
#X connect 12 0 15 0;
#X connect 13 0 58 0;
#X connect 14 0 13 0;
#X connect 16 0 19 0;
#X connect 17 0 59 0;
#X connect 18 0 17 0;
#X connect 20 0 23 0;
#X connect 21 0 60 0;
#X connect 22 0 21 0;
#X connect 24 0 27 0;
#X connect 25 0 61 0;
#X connect 26 0 25 0;
#X connect 28 0 31 0;
#X connect 29 0 62 0;
#X connect 30 0 29 0;
#X connect 32 0 35 0;
#X connect 33 0 63 0;
#X connect 34 0 33 0;
#X connect 36 0 39 0;
#X connect 37 0 64 0;
#X connect 38 0 37 0;
#X connect 40 0 1 1;
#X connect 40 0 5 1;
#X connect 40 0 9 1;
#X connect 40 0 17 1;
#X connect 40 0 13 1;
#X connect 40 0 21 1;
#X connect 40 0 25 1;
#X connect 40 0 29 1;
#X connect 40 0 33 1;
#X connect 40 0 37 1;
#X connect 41 0 42 0;
#X connect 42 0 40 0;
#X connect 43 0 4 0;
#X connect 44 0 8 0;
#X connect 45 0 12 0;
#X connect 46 0 16 0;
#X connect 47 0 20 0;
#X connect 48 0 24 0;
#X connect 49 0 28 0;
#X connect 50 0 32 0;
#X connect 51 0 36 0;
#X connect 52 0 54 0;
#X connect 53 0 64 1;
#X connect 53 0 63 1;
#X connect 53 0 62 1;
#X connect 53 0 61 1;
#X connect 53 0 60 1;
#X connect 53 0 59 1;
#X connect 53 0 58 1;
#X connect 53 0 57 1;
#X connect 53 0 56 1;
#X connect 53 0 55 1;
#X connect 54 0 53 0;
#X connect 55 0 65 0;
#X connect 56 0 43 0;
#X connect 57 0 44 0;
#X connect 58 0 45 0;
#X connect 59 0 46 0;
#X connect 60 0 47 0;
#X connect 61 0 48 0;
#X connect 62 0 49 0;
#X connect 63 0 50 0;
#X connect 64 0 51 0;
#X connect 65 0 0 0;
#X restore 148 558 pd clip_filter_trim_10_speakers;
#X f 105;
#N canvas 712 93 707 552 clip_dcoffset_trim_2_subs 0;
#X obj 47 404 clip~ -1 1;
#X obj 47 287 *~;
#X obj 47 213 inlet~;
#X obj 47 441 outlet~;
#X obj 126 404 clip~ -1 1;
#X obj 126 287 *~;
#X obj 126 213 inlet~;
#X obj 126 441 outlet~;
#X obj 212 270 line~;
#X obj 212 212 inlet;
#X obj 212 241 pack 0 50;
#X obj 47 347 lop~ 100;
#X obj 126 347 lop~ 100;
#X obj 47 374 hip~ 18;
#X obj 126 374 hip~ 18;
#X obj 126 317 *~;
#X obj 47 317 *~;
#X obj 296 213 inlet;
#X obj 297 266 line~;
#X msg 296 242 \$1 50;
#X connect 0 0 3 0;
#X connect 1 0 16 0;
#X connect 2 0 1 0;
#X connect 4 0 7 0;
#X connect 5 0 15 0;
#X connect 6 0 5 0;
#X connect 8 0 5 1;
#X connect 8 0 1 1;
#X connect 9 0 10 0;
#X connect 10 0 8 0;
#X connect 11 0 13 0;
#X connect 12 0 14 0;
#X connect 13 0 0 0;
#X connect 14 0 4 0;
#X connect 15 0 12 0;
#X connect 16 0 11 0;
#X connect 17 0 19 0;
#X connect 18 0 15 1;
#X connect 18 0 16 1;
#X connect 19 0 18 0;
#X restore 941 558 pd clip_dcoffset_trim_2_subs;
#X obj 190 295 inlet~;
#X obj 240 295 inlet~;
#X obj 290 295 inlet~;
#X obj 340 295 inlet~;
#X obj 390 295 inlet~;
#X obj 440 295 inlet~;
#X obj 490 295 inlet~;
#X obj 540 295 inlet~;
#X obj 590 295 inlet~;
#X obj 640 295 inlet~;
#X obj 690 295 inlet~;
#X obj 740 295 inlet~;
#X obj 190 417 *~;
#X obj 240 417 *~;
#X obj 290 417 *~;
#X obj 341 417 *~;
#X obj 391 417 *~;
#X obj 441 417 *~;
#X obj 491 417 *~;
#X obj 541 417 *~;
#X obj 590 417 *~;
#X obj 640 417 *~;
#X obj 690 417 *~;
#X obj 741 417 *~;
#X obj 581 161 line~, f 10;
#X obj 580 92 pack f 100;
#X obj 947 200 inlet;
#X obj 994 200 r \$1;
#X obj 33 43 hsl 200 20 0 1 0 0 empty empty gain 204 10 0 10 -262144
-1 -1 0 1;
#X obj 354 31 tgl 20 0 empty empty record 23 7 0 10 -4034 -1 -1 0 1
;
#X obj 278 31 bng 20 250 50 0 empty empty openFile 23 7 0 10 -262144
-1 -1;
#X obj 949 251 route /gain /ramp /main /subs /trim;
#X floatatom 194 89 5 0 0 1 trim - -;
#X obj 844 17 loadbang;
#X msg 923 81 0.3;
#X msg 1016 327 start;
#X msg 1078 327 stop;
#X msg 817 353 open \$1;
#X obj 1016 303 select 1;
#X obj 142 698 dac~ 1 2 3 4 5 6 7 8 9 10 11 12, f 130;
#X obj 212 660 writesf~ 12, f 104;
#X obj 833 147 makefilename;
#X obj 817 291 f, f 4;
#X obj 867 291 + 1;
#X obj 817 326 makefilename ./pw%d.wav;
#X msg 845 81 1;
#X msg 886 81 1;
#X obj 844 40 t b b b;
#X obj 820 18 bng 15 250 50 0 empty empty empty 17 7 0 10 -262144 -1
-1;
#X connect 0 0 9 2;
#X connect 1 0 8 10;
#X connect 2 0 4 0;
#X connect 2 0 5 0;
#X connect 2 0 38 0;
#X connect 4 0 1 0;
#X connect 5 0 0 0;
#X connect 6 0 2 0;
#X connect 7 0 3 0;
#X connect 8 0 49 0;
#X connect 8 0 50 0;
#X connect 8 1 49 1;
#X connect 8 1 50 1;
#X connect 8 2 49 2;
#X connect 8 2 50 2;
#X connect 8 3 49 3;
#X connect 8 3 50 3;
#X connect 8 4 49 4;
#X connect 8 4 50 4;
#X connect 8 5 49 5;
#X connect 8 5 50 5;
#X connect 8 6 49 6;
#X connect 8 6 50 6;
#X connect 8 7 49 7;
#X connect 8 7 50 7;
#X connect 8 8 49 8;
#X connect 8 8 50 8;
#X connect 8 9 49 9;
#X connect 8 9 50 9;
#X connect 9 0 49 10;
#X connect 9 0 50 10;
#X connect 9 1 49 11;
#X connect 9 1 50 11;
#X connect 10 0 22 0;
#X connect 11 0 23 0;
#X connect 12 0 24 0;
#X connect 13 0 25 0;
#X connect 14 0 26 0;
#X connect 15 0 27 0;
#X connect 16 0 28 0;
#X connect 17 0 29 0;
#X connect 18 0 30 0;
#X connect 19 0 31 0;
#X connect 20 0 32 0;
#X connect 21 0 33 0;
#X connect 22 0 8 0;
#X connect 23 0 8 1;
#X connect 24 0 8 2;
#X connect 25 0 8 3;
#X connect 26 0 8 4;
#X connect 27 0 8 5;
#X connect 28 0 8 6;
#X connect 29 0 8 7;
#X connect 30 0 8 8;
#X connect 31 0 8 9;
#X connect 32 0 9 0;
#X connect 33 0 9 1;
#X connect 34 0 33 1;
#X connect 34 0 32 1;
#X connect 34 0 31 1;
#X connect 34 0 30 1;
#X connect 34 0 29 1;
#X connect 34 0 28 1;
#X connect 34 0 27 1;
#X connect 34 0 26 1;
#X connect 34 0 25 1;
#X connect 34 0 24 1;
#X connect 34 0 23 1;
#X connect 34 0 22 1;
#X connect 35 0 34 0;
#X connect 36 0 41 0;
#X connect 37 0 41 0;
#X connect 38 0 35 0;
#X connect 39 0 48 0;
#X connect 40 0 52 0;
#X connect 41 0 38 0;
#X connect 41 1 35 1;
#X connect 41 2 4 0;
#X connect 41 3 5 0;
#X connect 41 4 42 0;
#X connect 42 0 8 11;
#X connect 42 0 9 3;
#X connect 43 0 57 0;
#X connect 44 0 42 0;
#X connect 45 0 50 0;
#X connect 46 0 50 0;
#X connect 47 0 50 0;
#X connect 48 0 45 0;
#X connect 48 1 46 0;
#X connect 52 0 53 0;
#X connect 52 0 54 0;
#X connect 53 0 52 1;
#X connect 54 0 47 0;
#X connect 55 0 5 0;
#X connect 56 0 4 0;
#X connect 57 0 55 0;
#X connect 57 1 56 0;
#X connect 57 2 44 0;
#X connect 58 0 57 0;
#X coords 0 -1 1 1 400 100 1 20 20;
