#N canvas 325 287 1166 539 12;
#X obj 195 320 ps.10dac~;
#X obj 563 28 hsl 128 15 0 1 0 0 empty empty empty -2 -8 0 10 -262144
-1 -1 11400 1;
#X msg 560 74 /pan \$1;
#X floatatom 560 53 5 0 0 0 - - -;
#X obj 867 66 hsl 128 15 0 1 0 0 empty empty empty -2 -8 0 10 -262144
-1 -1 0 1;
#X floatatom 864 91 5 0 0 0 - - -;
#X msg 864 112 /distance \$1;
#X obj 149 157 ps.10pan~, f 66;
#X obj 149 99 noise~;
#X obj 861 11 loadbang;
#X msg 859 38 0;
#X obj 742 232 osc~ 50;
#X text 807 229 subwoofers;
#X text 68 154 main 10;
#X connect 1 0 3 0;
#X connect 2 0 7 1;
#X connect 3 0 2 0;
#X connect 4 0 5 0;
#X connect 5 0 6 0;
#X connect 6 0 7 1;
#X connect 7 0 0 0;
#X connect 7 1 0 1;
#X connect 7 2 0 2;
#X connect 7 3 0 3;
#X connect 7 4 0 4;
#X connect 7 5 0 5;
#X connect 7 6 0 6;
#X connect 7 7 0 7;
#X connect 7 8 0 8;
#X connect 7 9 0 9;
#X connect 8 0 7 0;
#X connect 9 0 10 0;
#X connect 10 0 4 0;
#X connect 11 0 0 10;
#X connect 11 0 0 11;
