#N canvas 629 146 1019 681 10;
#X msg 55 169 close;
#X obj 37 14 cnv 15 440 60 empty empty empty 20 12 0 14 -200075 -66577
0;
#X msg 44 142 devices;
#X floatatom 104 150 5 0 0 0 - - -;
#X msg 104 169 open \$1;
#X obj 44 256 s;
#X obj 44 234 serial_print any;
#X obj 44 212 comport 1 9600;
#X text 46 88 Requires [comport] object \; install under Help > Find
Externals, f 72;
#X text 44 22 [serial_print]: abstraction that works with Arduinos'
Serial.print() and Serial.println() functions (with the use of [comport]).
It was written by Alexandros Drymonitis. \; See https://github.com/alexdrymonitis/Arduino_Pd
;
#X floatatom 158 368 5 0 0 0 - - -;
#X floatatom 158 451 5 0 0 0 - - -;
#X obj 161 561 hsl 128 15 0 1 0 0 empty empty empty -2 -8 0 10 -262144
-1 -1 0 1;
#X obj 158 524 line 1;
#X msg 158 487 \$1 200;
#X floatatom 305 368 5 0 0 0 - - -;
#X floatatom 470 368 5 0 0 0 - - -;
#X floatatom 650 368 5 0 0 0 - - -;
#X obj 168 271 r analog_values:;
#X obj 168 304 unpack f f f f;
#X floatatom 305 450 5 0 0 0 - - -;
#X obj 308 560 hsl 128 15 0 1 0 0 empty empty empty -2 -8 0 10 -262144
-1 -1 0 1;
#X obj 305 523 line 1;
#X msg 305 486 \$1 200;
#X floatatom 470 453 5 0 0 0 - - -;
#X obj 473 563 hsl 128 15 0 1 0 0 empty empty empty -2 -8 0 10 -262144
-1 -1 0 1;
#X obj 470 526 line 1;
#X msg 470 489 \$1 200;
#X floatatom 650 452 5 0 0 0 - - -;
#X obj 653 562 hsl 128 15 0 1 0 0 empty empty empty -2 -8 0 10 -262144
-1 -1 0 1;
#X obj 650 525 line 1;
#X msg 650 488 \$1 200;
#X obj 158 414 ps.scale 900 830 0 1;
#X obj 305 413 ps.scale 900 830 0 1;
#X obj 470 416 ps.scale 900 830 0 1;
#X obj 650 415 ps.scale 900 830 0 1;
#X connect 0 0 7 0;
#X connect 2 0 7 0;
#X connect 3 0 4 0;
#X connect 4 0 7 0;
#X connect 6 0 5 0;
#X connect 6 1 5 1;
#X connect 7 0 6 0;
#X connect 10 0 32 0;
#X connect 11 0 14 0;
#X connect 13 0 12 0;
#X connect 14 0 13 0;
#X connect 15 0 33 0;
#X connect 16 0 34 0;
#X connect 17 0 35 0;
#X connect 18 0 19 0;
#X connect 19 0 10 0;
#X connect 19 1 15 0;
#X connect 19 2 16 0;
#X connect 19 3 17 0;
#X connect 20 0 23 0;
#X connect 22 0 21 0;
#X connect 23 0 22 0;
#X connect 24 0 27 0;
#X connect 26 0 25 0;
#X connect 27 0 26 0;
#X connect 28 0 31 0;
#X connect 30 0 29 0;
#X connect 31 0 30 0;
#X connect 32 0 11 0;
#X connect 33 0 20 0;
#X connect 34 0 24 0;
#X connect 35 0 28 0;
