#N canvas 552 139 637 296 10;
#X obj 198 114 + 1;
#X floatatom 198 87 5 0 0 0 - - -, f 5;
#X obj 198 204 t f f;
#X floatatom 199 268 5 0 0 0 - - -, f 5;
#X obj 120 25 bng 15 250 50 0 empty empty empty 17 7 0 10 -262144 -1
-1;
#X msg 156 24 0;
#X obj 120 76 f 0;
#X msg 351 61 -1;
#X msg 307 37 1;
#X msg 394 81 10;
#X msg 438 105 -20;
#X obj 198 149 * 1;
#X msg 308 146 1;
#X msg 351 157 2;
#X msg 391 182 0.5;
#X connect 0 0 11 0;
#X connect 1 0 0 0;
#X connect 2 0 3 0;
#X connect 2 1 6 1;
#X connect 4 0 6 0;
#X connect 5 0 6 1;
#X connect 6 0 1 0;
#X connect 7 0 0 1;
#X connect 8 0 0 1;
#X connect 9 0 0 1;
#X connect 10 0 0 1;
#X connect 11 0 2 0;
#X connect 12 0 11 1;
#X connect 13 0 11 1;
#X connect 14 0 11 1;
