#N canvas 190 156 1354 628 10;
#X obj 332 385 osc~;
#X msg 421 563 \; pd dsp \$1;
#X obj 421 485 tgl 30 0 empty empty empty 17 7 0 10 -262144 -1 -1 1
1;
#X obj 331 583 dac~;
#X obj 333 201 line~;
#X floatatom 333 113 5 0 0 0 - - -;
#X obj 333 145 pack f 200;
#X obj 469 201 line~;
#X floatatom 469 108 5 0 0 0 - - -;
#X obj 469 145 pack f 200;
#X obj 469 224 osc~;
#X obj 332 352 +~;
#X obj 469 371 *~;
#X obj 608 331 line~;
#X msg 608 298 \$1 40;
#X floatatom 608 264 5 0 0 0 - - -;
#X obj 469 423 delwrite~ yaw 20;
#X obj 569 145 delread~ yaw 10;
#X obj 469 254 *~;
#X obj 569 201 *~;
#X obj 703 145 line~;
#X msg 703 106 \$1 40;
#X floatatom 703 84 5 0 0 0 - - -;
#X text 468 59 modulation frequency;
#X text 328 59 carrier frequency;
#X text 608 239 modulation index;
#X text 701 59 feedback index;
#X obj 331 505 *~ 0.1;
#X connect 0 0 16 0;
#X connect 0 0 27 0;
#X connect 2 0 1 0;
#X connect 4 0 11 0;
#X connect 5 0 6 0;
#X connect 6 0 4 0;
#X connect 7 0 10 0;
#X connect 8 0 9 0;
#X connect 9 0 7 0;
#X connect 10 0 18 0;
#X connect 11 0 0 0;
#X connect 12 0 11 1;
#X connect 13 0 12 1;
#X connect 14 0 13 0;
#X connect 15 0 14 0;
#X connect 17 0 19 0;
#X connect 18 0 12 0;
#X connect 19 0 18 1;
#X connect 20 0 19 1;
#X connect 21 0 20 0;
#X connect 22 0 21 0;
#X connect 27 0 3 0;
#X connect 27 0 3 1;
