#N canvas 589 112 1065 569 10;
#X obj 192 51 adc~;
#X obj 106 423 dac~, f 46;
#X text 494 427 delread~ allows you to access audio stored with delwrite~
\; The second argument is the point at which to read the audio in milliseconds.
It must be a positive number and not exceed the time declared in the
delwrite~;
#X obj 192 83 delwrite~ store 5000;
#X obj 106 261 *~ 0.5;
#X obj 106 327 *~;
#X obj 121 305 tgl 15 0 empty empty empty 17 7 0 10 -262144 -1 -1 0
1;
#X obj 106 204 delread~ store 5000;
#X obj 228 261 *~ 0.5;
#X obj 228 327 *~;
#X obj 243 305 tgl 15 0 empty empty empty 17 7 0 10 -262144 -1 -1 0
1;
#X obj 350 261 *~ 0.5;
#X obj 350 327 *~;
#X obj 365 305 tgl 15 0 empty empty empty 17 7 0 10 -262144 -1 -1 0
1;
#X obj 472 261 *~ 0.5;
#X obj 472 327 *~;
#X obj 487 305 tgl 15 0 empty empty empty 17 7 0 10 -262144 -1 -1 0
1;
#X obj 594 260 *~ 0.5;
#X obj 594 326 *~;
#X obj 609 304 tgl 15 0 empty empty empty 17 7 0 10 -262144 -1 -1 0
1;
#X obj 716 260 *~ 0.5;
#X obj 716 326 *~;
#X obj 731 304 tgl 15 0 empty empty empty 17 7 0 10 -262144 -1 -1 0
1;
#X obj 228 204 delread~ store 4000;
#X obj 350 204 delread~ store 3000;
#X obj 472 204 delread~ store 2000;
#X obj 594 203 delread~ store 1000;
#X obj 716 203 delread~ store 500;
#X text 376 77 delwrite~ allows you to store an audio signal for reading
\; the first argument is the name to associate with a delread~ and
the second in the amount of audio stored which automatically loops
(when 5000 ms is filled in this example it overwrites starting from
the beginning).;
#X connect 0 0 3 0;
#X connect 4 0 5 0;
#X connect 5 0 1 0;
#X connect 6 0 5 1;
#X connect 7 0 4 0;
#X connect 8 0 9 0;
#X connect 9 0 1 1;
#X connect 10 0 9 1;
#X connect 11 0 12 0;
#X connect 12 0 1 0;
#X connect 13 0 12 1;
#X connect 14 0 15 0;
#X connect 15 0 1 1;
#X connect 16 0 15 1;
#X connect 17 0 18 0;
#X connect 18 0 1 0;
#X connect 19 0 18 1;
#X connect 20 0 21 0;
#X connect 21 0 1 1;
#X connect 22 0 21 1;
#X connect 23 0 8 0;
#X connect 24 0 11 0;
#X connect 25 0 14 0;
#X connect 26 0 17 0;
#X connect 27 0 20 0;
