#N canvas 249 140 1065 569 10;
#X obj 105 510 dac~, f 46;
#X obj 106 261 *~ 0.5;
#X obj 106 327 *~;
#X obj 121 305 tgl 15 0 empty empty empty 17 7 0 10 -262144 -1 -1 0
1;
#X text 149 173 signal input (delay time in ms);
#X obj 106 175 line~;
#X msg 106 146 \$1 1000;
#X floatatom 106 121 5 0 0 0 - - -, f 5;
#X obj 588 439 delwrite~ storr 5000;
#X obj 106 204 vd~ storr;
#X obj 588 67 smply~;
#X obj 266 330 *~;
#X obj 281 308 tgl 15 0 empty empty empty 17 7 0 10 -262144 -1 -1 0
1;
#X obj 828 150 spigot;
#X obj 861 122 tgl 15 0 empty empty empty 17 7 0 10 -262144 -1 -1 1
1;
#X obj 588 32 bng 15 250 50 0 empty empty empty 17 7 0 10 -262144 -1
-1;
#X obj 266 264 *~ 0.5;
#X obj 877 397 *~;
#X obj 892 334 line~;
#X msg 892 307 \$1 100;
#X floatatom 892 282 5 0 0 0 - - -, f 5;
#X obj 292 421 send~ feedback;
#X obj 775 281 receive~ feedback;
#X text 223 35 mix delayed signal with source and add feedback;
#X obj 892 256 clip 0 0.99;
#X obj 895 232 hsl 128 15 0 1 0 0 empty empty empty -2 -8 0 10 -262144
-1 -1 12700 1;
#X obj 109 67 hsl 128 15 0 1 0 0 empty empty empty -2 -8 0 10 -262144
-1 -1 8100 1;
#X obj 106 92 * 5000;
#X obj 216 385 +~;
#X obj 292 396 *~;
#X obj 307 374 tgl 15 0 empty empty empty 17 7 0 10 -262144 -1 -1 1
1;
#X connect 1 0 2 0;
#X connect 2 0 28 0;
#X connect 3 0 2 1;
#X connect 5 0 9 0;
#X connect 6 0 5 0;
#X connect 7 0 6 0;
#X connect 9 0 1 0;
#X connect 10 0 8 0;
#X connect 10 0 16 0;
#X connect 10 1 13 0;
#X connect 11 0 28 1;
#X connect 12 0 11 1;
#X connect 13 0 15 0;
#X connect 14 0 13 1;
#X connect 15 0 10 0;
#X connect 16 0 11 0;
#X connect 17 0 8 0;
#X connect 18 0 17 1;
#X connect 19 0 18 0;
#X connect 20 0 19 0;
#X connect 22 0 17 0;
#X connect 24 0 20 0;
#X connect 25 0 24 0;
#X connect 26 0 27 0;
#X connect 27 0 7 0;
#X connect 28 0 0 0;
#X connect 28 0 0 1;
#X connect 28 0 29 0;
#X connect 29 0 21 0;
#X connect 30 0 29 1;
