#N canvas 0 22 941 476 10;
#X floatatom 179 74 5 -30 130 0 - - -, f 5;
#X text 231 73 <-- pitch;
#X text 535 55 <-- delay time;
#X text 394 312 write to delay line;
#X text 464 191 read from delay line;
#X text 248 274 add the original and the delayed signal;
#X obj 179 110 mtof;
#X obj 206 271 +~;
#X text 691 80 feedback gain;
#X obj 179 134 phasor~;
#X obj 206 410 dac~;
#X obj 206 353 *~ 0.5;
#X obj 261 310 delwrite~ syn1 2000;
#X text 470 23 with synthesis and feedback;
#X obj 206 210 *~;
#X msg 175 15 63;
#X msg 213 15 65;
#X msg 247 15 67;
#X msg 138 15 60;
#X obj 694 200 line~;
#X msg 694 173 \$1 100;
#X floatatom 694 148 5 0 0 0 - - -, f 5;
#X obj 694 122 clip 0 0.99;
#X obj 697 98 hsl 128 15 0 1 0 0 empty empty empty -2 -8 0 10 -262144
-1 -1 12100 1;
#X obj 400 223 *~;
#N canvas 0 22 450 300 ASD 0;
#X obj 267 187 line~;
#X msg 267 156 1 100;
#X obj 315 116 delay 110;
#X obj 267 116 t b b;
#X msg 315 156 0 100;
#X obj 242 55 inlet;
#X obj 243 237 outlet~;
#X connect 0 0 6 0;
#X connect 1 0 0 0;
#X connect 2 0 4 0;
#X connect 3 0 1 0;
#X connect 3 1 2 0;
#X connect 4 0 0 0;
#X connect 5 0 3 0;
#X restore 249 135 pd ASD;
#X obj 400 190 vd~ syn1;
#X obj 400 159 line~;
#X msg 400 132 \$1 100;
#X floatatom 400 107 5 0 0 0 - - -, f 5;
#X obj 403 57 hsl 128 15 0 1 0 0 empty empty empty -2 -8 0 10 -262144
-1 -1 3500 1;
#X obj 400 80 * 2000;
#X connect 0 0 6 0;
#X connect 0 0 25 0;
#X connect 6 0 9 0;
#X connect 7 0 11 0;
#X connect 7 0 12 0;
#X connect 9 0 14 0;
#X connect 11 0 10 0;
#X connect 11 0 10 1;
#X connect 14 0 7 0;
#X connect 15 0 0 0;
#X connect 16 0 0 0;
#X connect 17 0 0 0;
#X connect 18 0 0 0;
#X connect 19 0 24 1;
#X connect 20 0 19 0;
#X connect 21 0 20 0;
#X connect 22 0 21 0;
#X connect 23 0 22 0;
#X connect 24 0 7 1;
#X connect 25 0 14 1;
#X connect 26 0 24 0;
#X connect 27 0 26 0;
#X connect 28 0 27 0;
#X connect 29 0 28 0;
#X connect 30 0 31 0;
#X connect 31 0 29 0;
