#N canvas 156 23 1393 910 10;
#N canvas 0 22 450 300 (subpatch) 0;
#X array \$0-soundfile 11650 float 2;
#X coords 0 1 11650 -1 140 100 1 0 0;
#X restore 105 176 graph;
#X obj 336 239 soundfiler;
#X obj 336 130 openpanel;
#X obj 105 140 bng 15 250 50 0 empty empty open 17 7 0 10 -262144 -1
-1;
#X obj 397 130 symbol \$0-soundfile;
#X obj 336 107 t b b;
#X msg 336 213 read -resize \$1 \$2;
#X obj 336 189 pack s s;
#X obj 293 524 line~;
#X obj 293 551 tabread4~ \$0-soundfile;
#X floatatom 304 266 5 0 0 0 - - -, f 5;
#X obj 348 315 / 44.1;
#X floatatom 293 443 4 0 0 0 - - -, f 4;
#X floatatom 321 443 10 0 0 0 - - -, f 10;
#X obj 293 473 pack 0 0 0;
#X floatatom 385 444 10 0 0 0 - - -, f 10;
#X msg 293 499 \$1 \, \$2 \$3;
#X msg 293 401 0;
#X obj 348 356 f;
#X obj 321 401 f;
#X obj 528 175 samplerate~;
#X obj 528 131 loadbang;
#X obj 528 200 * 0.001;
#X obj 350 401 * 1;
#X floatatom 380 356 5 0 0 1 playback_speed - -, f 5;
#X obj 348 379 f;
#X obj 380 383 t b f;
#X obj 291 26 inlet;
#X obj 528 154 bng 15 250 50 0 empty empty empty 17 7 0 10 -262144
-1 -1;
#X obj 293 579 outlet~;
#X obj 582 -35 inlet;
#X obj 638 -35 r \$1;
#X obj 676 117 pack s s;
#X obj 721 93 symbol \$0-soundfile;
#X obj 676 65 t s b;
#X obj 676 30 tosymbol;
#X floatatom 105 282 10 0 0 1 speed - -, f 10;
#X obj 582 6 route /open /speed /read;
#X obj 497 580 outlet;
#X obj 497 475 - 1, f 5;
#X msg 497 520 set \$1 \$2 \$3 \$4;
#X obj 497 496 pack f 0 1 0;
#X obj 497 554 threshold~ 10 10 10 10;
#X text 29 -23 Uses \$0 in order to avoid naming conflicts with arrays.
\; \$0 become a unique identifier so multiple versions of this abstraction
can be used in the same patch.;
#X text 552 348 Uses "graph on parent" to display only part of canvas
marked in red. This is accessible under Properties (right click in
white space of patch).;
#X text 739 6 uses [route] object to create a single inlet for abstraction
;
#X text 686 -34 uses \$1 variable so that the abstraction can have
a unique same for receiving messages;
#X connect 1 0 10 0;
#X connect 1 0 11 0;
#X connect 2 0 7 0;
#X connect 3 0 5 0;
#X connect 4 0 7 1;
#X connect 5 0 2 0;
#X connect 5 1 4 0;
#X connect 6 0 1 0;
#X connect 7 0 6 0;
#X connect 8 0 9 0;
#X connect 8 0 42 0;
#X connect 9 0 29 0;
#X connect 10 0 19 0;
#X connect 11 0 18 0;
#X connect 12 0 14 0;
#X connect 13 0 14 1;
#X connect 13 0 39 0;
#X connect 14 0 16 0;
#X connect 15 0 14 2;
#X connect 16 0 8 0;
#X connect 17 0 12 0;
#X connect 18 0 25 0;
#X connect 19 0 13 0;
#X connect 20 0 22 0;
#X connect 21 0 28 0;
#X connect 22 0 11 1;
#X connect 23 0 15 0;
#X connect 24 0 23 1;
#X connect 24 0 26 0;
#X connect 25 0 23 0;
#X connect 26 0 25 0;
#X connect 26 1 23 1;
#X connect 27 0 17 0;
#X connect 28 0 20 0;
#X connect 30 0 37 0;
#X connect 31 0 37 0;
#X connect 32 0 6 0;
#X connect 33 0 32 1;
#X connect 34 0 32 0;
#X connect 34 1 33 0;
#X connect 35 0 34 0;
#X connect 36 0 24 0;
#X connect 37 0 3 0;
#X connect 37 1 36 0;
#X connect 37 2 35 0;
#X connect 39 0 41 0;
#X connect 40 0 42 0;
#X connect 41 0 40 0;
#X connect 42 0 38 0;
#X coords 0 -1 1 1 150 240 1 100 100;
