#N canvas 127 23 1291 816 10;
#X obj 459 147 tgl 15 0 empty empty empty 17 7 0 10 -262144 -1 -1 0
1;
#X floatatom 266 346 10 0 0 0 - - -;
#X obj 180 15 motion d1;
#X obj 902 157 joystick d1;
#X obj 1089 161 light d1;
#X obj 459 9 fsr d1;
#X floatatom 180 157 5 0 0 0 - - -;
#X floatatom 241 157 5 0 0 0 - - -;
#X obj 460 367 *~;
#X obj 46 14 channel d1;
#X obj 648 412 tremolo~ d1;
#X obj 648 497 echo~ d1;
#X msg 300 171 0 0 2 3 3 5 5 7 7 8 8 8;
#X obj 460 207 fm-osc~ d1;
#X obj 646 177 env-gen~ d1;
#X floatatom 902 295 5 0 0 0 - - -;
#X floatatom 1025 294 5 0 0 0 - - -;
#X obj 647 327 filter~ d1;
#X obj 648 727 dac-out~ d1;
#X floatatom 1089 298 5 0 0 0 - - -;
#X floatatom 582 154 5 0 0 0 - - -;
#X obj 266 211 scales d1;
#X floatatom 266 186 5 0 0 0 - - -;
#X obj 794 726 ambi-out~ d1;
#X obj 648 602 reverb~ d1;
#X connect 0 0 13 0;
#X connect 0 0 14 0;
#X connect 1 0 13 1;
#X connect 2 0 6 0;
#X connect 2 1 7 0;
#X connect 2 2 22 0;
#X connect 3 0 15 0;
#X connect 3 1 16 0;
#X connect 4 0 19 0;
#X connect 5 0 0 0;
#X connect 5 1 20 0;
#X connect 8 0 17 0;
#X connect 10 0 11 0;
#X connect 11 0 24 0;
#X connect 12 0 21 1;
#X connect 13 0 8 0;
#X connect 14 0 8 1;
#X connect 15 0 17 1;
#X connect 16 0 17 2;
#X connect 17 0 10 0;
#X connect 19 0 10 1;
#X connect 20 0 13 2;
#X connect 21 0 1 0;
#X connect 22 0 21 0;
#X connect 24 0 18 0;
#X connect 24 0 23 0;
