#N canvas 283 23 1359 899 10;
#X obj 459 156 tgl 30 0 empty empty empty 17 7 0 10 -262144 -1 -1 0
1;
#X floatatom 270 346 10 0 0 0 - - -;
#X floatatom 180 157 5 0 0 0 - - -;
#X floatatom 241 157 5 0 0 0 - - -;
#X obj 460 367 *~;
#X msg 306 181 0 0 2 3 3 5 5 7 7 8 8 8;
#X floatatom 810 366 5 0 0 0 - - -;
#X floatatom 933 365 5 0 0 0 - - -;
#X floatatom 1002 365 5 0 0 0 - - -;
#X floatatom 582 154 5 0 0 0 - - -;
#X obj 180 15 motion d2;
#X obj 46 14 channel d2;
#X obj 459 9 fsr d2;
#X obj 270 211 scales d2;
#X obj 460 254 fm-osc~ d2;
#X obj 607 230 env-gen~ d2;
#X obj 810 228 joystick d2;
#X obj 1002 228 light d2;
#X obj 460 398 filter~ d2;
#X obj 460 484 tremolo~ d2;
#X obj 460 557 echo~ d2;
#X obj 460 671 freeverb~ d2;
#X obj 460 824 dac-out~ d2;
#X obj 605 823 ambi-out~ d2;
#X floatatom 302 153 5 0 0 0 - - -;
#X connect 0 0 14 0;
#X connect 0 0 15 0;
#X connect 1 0 14 1;
#X connect 4 0 18 0;
#X connect 5 0 13 1;
#X connect 6 0 18 1;
#X connect 7 0 18 2;
#X connect 8 0 19 1;
#X connect 9 0 14 2;
#X connect 10 0 2 0;
#X connect 10 1 3 0;
#X connect 10 2 24 0;
#X connect 12 0 0 0;
#X connect 12 1 9 0;
#X connect 13 0 1 0;
#X connect 14 0 4 0;
#X connect 15 0 4 1;
#X connect 16 0 6 0;
#X connect 16 1 7 0;
#X connect 17 0 8 0;
#X connect 18 0 19 0;
#X connect 19 0 20 0;
#X connect 20 0 21 0;
#X connect 21 0 22 0;
#X connect 21 0 23 0;
#X connect 24 0 13 0;
