#N canvas 0 23 1079 713 10;
#X obj 517 198 line~;
#X msg 517 168 \$1 100;
#X obj 353 91 inlet~;
#X obj 379 230 *~;
#X obj 26 47 hsl 100 15 0 127 0 0 empty empty volume 20 8 0 10 -204800
-4160 -1 0 1;
#X obj 517 142 / 127;
#X obj 631 84 receive \$1;
#X obj 586 111 route /audio-out;
#X obj 582 581 dac~ 31 32;
#X obj 672 457 *~;
#X obj 579 457 *~;
#X obj 687 428 line~;
#X obj 594 428 line~;
#X obj 687 401 pack f 60;
#X obj 594 401 pack f 60;
#X floatatom 587 215 5 0 0 0 - - -;
#X obj 587 242 select 31 32;
#X msg 588 283 1;
#X msg 623 282 0;
#X msg 670 281 1;
#X msg 705 280 0;
#X floatatom 594 358 5 0 0 0 - - -;
#X floatatom 687 360 5 0 0 0 - - -;
#X connect 0 0 3 1;
#X connect 1 0 0 0;
#X connect 2 0 3 0;
#X connect 3 0 10 0;
#X connect 3 0 9 0;
#X connect 4 0 5 0;
#X connect 5 0 1 0;
#X connect 6 0 7 0;
#X connect 7 0 15 0;
#X connect 9 0 8 1;
#X connect 10 0 8 0;
#X connect 11 0 9 1;
#X connect 12 0 10 1;
#X connect 13 0 11 0;
#X connect 14 0 12 0;
#X connect 15 0 16 0;
#X connect 16 0 17 0;
#X connect 16 0 18 0;
#X connect 16 1 19 0;
#X connect 16 1 20 0;
#X connect 17 0 21 0;
#X connect 18 0 22 0;
#X connect 19 0 22 0;
#X connect 20 0 21 0;
#X connect 21 0 14 0;
#X connect 22 0 13 0;
#X coords 0 -1 1 1 130 60 1 10 20;
