#N canvas 662 114 702 551 10;
#X obj 372 386 dac~;
#X obj 517 198 line~;
#X obj 373 287 *~ 0.5;
#X msg 517 168 \$1 100;
#X obj 353 91 inlet~;
#X obj 379 230 *~;
#X obj 26 47 hsl 100 15 0 127 0 0 empty empty volume 20 8 0 10 -204800
-4160 -1 3600 1;
#X obj 517 142 / 127;
#X obj 409 37 r \$1;
#X connect 1 0 5 1;
#X connect 2 0 0 0;
#X connect 2 0 0 1;
#X connect 3 0 1 0;
#X connect 4 0 5 0;
#X connect 5 0 2 0;
#X connect 6 0 7 0;
#X connect 7 0 3 0;
#X coords 0 -1 1 1 130 60 1 10 20;
