#N canvas 181 100 760 521 10;
#X floatatom 188 98 5 100 2000 1 frequency h-freq-d -;
#X floatatom 250 121 5 0 0 1 modulation_frequency h-mod-d -;
#X text 78 122 trigger;
#X obj 127 271 *~;
#N canvas 0 23 450 300 (subpatch) 0;
#X array array_echo 100 float 0;
#X coords 0 1 99 -1 200 140 1 0 0;
#X restore 486 289 graph;
#X obj 337 368 tgl 30 0 empty empty empty 17 7 0 10 -262144 -1 -1 0
1;
#X text 377 369 <- graph;
#X obj 337 405 metro 50;
#X obj 126 6 tgl 15 0 empty empty empty 17 7 0 10 -262144 -1 -1 0 1
;
#X text 148 6 trigger;
#X obj 337 436 tabwrite~ array_echo;
#X obj 611 24 loadbang;
#X obj 127 445 dac-out~;
#X obj 127 319 echo~;
#X obj 127 159 fm-osc~;
#X obj 318 161 env-gen~;
#X msg 611 54 \; h-freq-d 200 \; h-mod-d 1 \;;
#X connect 0 0 14 1;
#X connect 1 0 14 2;
#X connect 3 0 13 0;
#X connect 5 0 7 0;
#X connect 7 0 10 0;
#X connect 8 0 14 0;
#X connect 8 0 15 0;
#X connect 11 0 16 0;
#X connect 13 0 10 0;
#X connect 13 0 12 0;
#X connect 14 0 3 0;
#X connect 15 0 3 1;
