#N canvas 0 23 1319 638 10;
#X obj 388 323 bob~;
#X obj 398 258 nbx 5 14 -1e+37 1e+37 0 0 empty empty empty 0 -8 0 10
-262144 -1 -1 2530.71 256;
#X obj 456 259 nbx 5 14 0 4 0 0 empty empty empty 0 -8 0 10 -262144
-1 -1 1.92126 256;
#X obj 25 55 hsl 100 15 100 5000 0 0 empty cutoff frequency 20 8 0
10 -204800 -4160 -1 4911 1;
#X obj 25 75 hsl 100 15 0 4 0 0 empty Q resonance 20 8 0 10 -204800
-4160 -1 4755 1;
#X obj 729 266 line;
#X obj 809 263 line;
#X msg 725 234 \$1 300;
#X msg 805 231 \$1 300;
#X obj 386 22 inlet~;
#X obj 389 420 outlet~;
#X obj 727 34 inlet;
#X obj 804 33 inlet;
#X floatatom 729 120 5 0 0 0 - - -;
#X obj 724 150 / 127;
#X obj 726 183 * 4900;
#X obj 725 211 + 100;
#X floatatom 805 122 5 0 0 0 - - -;
#X obj 803 162 / 127;
#X obj 805 195 * 4;
#X obj 902 114 r \$1;
#X obj 526 91 loadbang;
#X msg 541 167 2000;
#X obj 539 132 t b b;
#X msg 582 168 2;
#X connect 0 0 10 0;
#X connect 1 0 0 1;
#X connect 2 0 0 2;
#X connect 3 0 1 0;
#X connect 4 0 2 0;
#X connect 5 0 3 0;
#X connect 6 0 4 0;
#X connect 7 0 5 0;
#X connect 8 0 6 0;
#X connect 9 0 0 0;
#X connect 11 0 13 0;
#X connect 12 0 17 0;
#X connect 13 0 14 0;
#X connect 14 0 15 0;
#X connect 15 0 16 0;
#X connect 16 0 7 0;
#X connect 17 0 18 0;
#X connect 18 0 19 0;
#X connect 19 0 8 0;
#X connect 21 0 23 0;
#X connect 22 0 1 0;
#X connect 23 0 22 0;
#X connect 23 1 24 0;
#X connect 24 0 2 0;
#X coords 0 -1 1 1 130 80 1 10 20;
