#N canvas 201 111 1130 694 10;
#X floatatom 358 295 5 0 0 0 - - -;
#X obj 358 407 outlet;
#X obj 445 408 outlet;
#X obj 358 269 route 1;
#X floatatom 397 248 5 0 0 0 - - -;
#X text 356 72 x;
#X floatatom 445 295 5 0 0 0 - - -;
#X obj 445 269 route 1;
#X floatatom 484 248 5 0 0 0 - - -;
#X text 443 72 x;
#X obj 444 93 ctlin 12;
#X obj 121 38 vsl 15 100 0 127 0 0 empty empty y 0 -9 0 10 -262130
-260097 -1 4755 1;
#X obj 15 79 hsl 100 15 0 127 0 0 empty empty x 20 8 0 10 -262130 -260097
-1 4911 1;
#X obj 565 57 route /chan-in;
#X obj 565 21 receive \$1;
#X obj 356 163 pack 0 0;
#X obj 357 134 swap, f 7;
#X obj 440 163 pack 0 0;
#X obj 441 134 swap, f 7;
#X obj 357 93 ctlin 11;
#X obj 358 359 line;
#X obj 445 362 line;
#X msg 358 335 \$1 100;
#X msg 445 338 \$1 100;
#X connect 0 0 22 0;
#X connect 3 0 0 0;
#X connect 4 0 3 1;
#X connect 6 0 23 0;
#X connect 7 0 6 0;
#X connect 8 0 7 1;
#X connect 10 0 18 0;
#X connect 10 1 18 1;
#X connect 13 0 4 0;
#X connect 13 0 8 0;
#X connect 14 0 13 0;
#X connect 15 0 3 0;
#X connect 16 0 15 0;
#X connect 16 1 15 1;
#X connect 17 0 7 0;
#X connect 18 0 17 0;
#X connect 18 1 17 1;
#X connect 19 0 16 0;
#X connect 19 1 16 1;
#X connect 20 0 1 0;
#X connect 20 0 12 0;
#X connect 21 0 2 0;
#X connect 21 0 11 0;
#X connect 22 0 20 0;
#X connect 23 0 21 0;
#X coords 0 -1 1 1 130 130 1 10 20;
