#N canvas 368 215 1312 694 10;
#X floatatom 356 273 5 0 0 0 - - -;
#X obj 359 622 outlet;
#X obj 356 247 route 1;
#X floatatom 395 226 5 0 0 0 - - -;
#X obj 24 39 vsl 15 100 0 127 0 0 empty empty brightness 18 12 0 10
-262130 -260097 -1 120 1;
#X obj 565 57 route /chan-in;
#X obj 357 90 ctlin 13;
#X text 356 72 light;
#X obj 565 27 receive \$1;
#X obj 356 152 pack 0 0;
#X obj 357 123 swap, f 7;
#X obj 357 392 line;
#X msg 357 368 \$1 200;
#X obj 709 129 t f f;
#X obj 710 168 +;
#X obj 710 194 t f f;
#X obj 711 233 +;
#X obj 711 258 t f f;
#X obj 712 297 +;
#X obj 712 323 t f f;
#X obj 713 362 +;
#X obj 714 393 t f f;
#X obj 715 432 +;
#X floatatom 716 479 5 0 0 0 - - -;
#X obj 717 458 / 32;
#X floatatom 358 451 5 0 0 0 - - -;
#X obj 373 491 f;
#X obj 47 79 bng 15 250 50 0 empty empty set_minimum 17 7 0 10 -262130
-260097 -1;
#X obj 358 517 - 2;
#X text 436 449 light establish min;
#X floatatom 380 566 5 0 0 0 - - -;
#X connect 0 0 13 0;
#X connect 2 0 0 0;
#X connect 3 0 2 1;
#X connect 5 0 3 0;
#X connect 6 0 10 0;
#X connect 6 1 10 1;
#X connect 8 0 5 0;
#X connect 9 0 2 0;
#X connect 10 0 9 0;
#X connect 10 1 9 1;
#X connect 11 0 25 0;
#X connect 12 0 11 0;
#X connect 13 0 14 1;
#X connect 13 1 14 0;
#X connect 14 0 15 0;
#X connect 15 0 16 1;
#X connect 15 1 16 0;
#X connect 16 0 17 0;
#X connect 17 0 18 1;
#X connect 17 1 18 0;
#X connect 18 0 19 0;
#X connect 19 0 20 1;
#X connect 19 1 20 0;
#X connect 20 0 21 0;
#X connect 21 0 22 1;
#X connect 21 1 22 0;
#X connect 22 0 24 0;
#X connect 23 0 12 0;
#X connect 24 0 23 0;
#X connect 25 0 26 1;
#X connect 25 0 28 0;
#X connect 26 0 28 1;
#X connect 27 0 26 0;
#X connect 28 0 1 0;
#X connect 28 0 4 0;
#X connect 28 0 30 0;
#X coords 0 -1 1 1 130 130 1 10 20;
