#N canvas 287 215 1305 619 10;
#X floatatom 654 236 5 0 0 0 - - -;
#X floatatom 333 165 5 0 0 0 - - -;
#X obj 355 245 f;
#X obj 355 212 bng 15 250 50 0 empty empty empty 17 7 0 10 -262144
-1 -1;
#X obj 333 298 -, f 4;
#X obj 333 360 wrap;
#X obj 333 402 * 360;
#X floatatom 333 453 5 0 0 0 - - -;
#X obj 653 354 clip 0 90;
#X floatatom 653 332 5 0 0 0 - - -;
#X obj 653 282 * 1.41732;
#X obj 653 308 - 90;
#X obj 333 329 * 0.00787402;
#X floatatom 653 378 5 0 0 0 - - -;
#X obj 289 402 * 127;
#X floatatom 289 452 5 0 0 0 - - -;
#X text 911 162 roll;
#X text 654 92 pitch;
#X text 332 5 yaw;
#X obj 378 554 outlet;
#X obj 544 554 outlet;
#X obj 915 554 outlet;
#X obj 333 139 route 1;
#X floatatom 372 118 5 0 0 0 - - -;
#X obj 333 26 ctlin 1;
#X floatatom 347 525 5 0 0 0 - - -;
#X obj 654 112 ctlin 2;
#X obj 654 211 route 1;
#X floatatom 693 190 5 0 0 0 - - -;
#X floatatom 645 525 5 0 0 0 - - -;
#X obj 556 43 route /chan-in /chan-out /correct-yaw;
#X obj 121 38 vsl 15 100 0 127 0 0 empty empty pitch -14 -9 0 10 -262130
-260097 -1 4911 1;
#X obj 15 89 hsl 100 15 0 127 0 0 empty empty yaw 20 8 0 10 -262130
-260097 -1 2884 1;
#X obj 15 125 hsl 100 15 0 127 0 0 empty empty roll 20 8 0 10 -262130
-260097 -1 4911 1;
#X obj 556 17 receive \$1;
#X obj 333 79 pack 0 0;
#X obj 333 51 swap, f 7;
#X obj 654 163 pack 0 0;
#X obj 654 135 swap, f 7;
#X floatatom 913 326 5 0 0 0 - - -;
#X obj 913 301 route 1;
#X floatatom 952 280 5 0 0 0 - - -;
#X obj 913 251 pack 0 0;
#X obj 913 223 swap, f 7;
#X obj 913 184 ctlin 3;
#X obj 289 507 line;
#X obj 542 503 line;
#X obj 915 501 line;
#X msg 289 483 \$1 10;
#X msg 542 479 \$1 10;
#X msg 915 477 \$1 10;
#X obj 290 554 ctlout 1 1;
#X obj 588 554 ctlout 2 1;
#X obj 13 55 bng 15 250 50 0 empty empty correct_yaw 17 7 0 10 -262130
-260097 -1;
#X connect 0 0 10 0;
#X connect 0 0 49 0;
#X connect 1 0 2 1;
#X connect 1 0 4 0;
#X connect 2 0 4 1;
#X connect 3 0 2 0;
#X connect 4 0 12 0;
#X connect 5 0 6 0;
#X connect 5 0 14 0;
#X connect 6 0 7 0;
#X connect 8 0 13 0;
#X connect 9 0 8 0;
#X connect 10 0 11 0;
#X connect 11 0 9 0;
#X connect 12 0 5 0;
#X connect 14 0 15 0;
#X connect 15 0 48 0;
#X connect 22 0 1 0;
#X connect 23 0 22 1;
#X connect 24 0 36 0;
#X connect 24 1 36 1;
#X connect 25 0 51 2;
#X connect 26 0 38 0;
#X connect 26 1 38 1;
#X connect 27 0 0 0;
#X connect 28 0 27 1;
#X connect 29 0 52 2;
#X connect 30 0 23 0;
#X connect 30 0 28 0;
#X connect 30 0 41 0;
#X connect 30 1 25 0;
#X connect 30 1 29 0;
#X connect 30 2 3 0;
#X connect 34 0 30 0;
#X connect 35 0 22 0;
#X connect 36 0 35 0;
#X connect 36 1 35 1;
#X connect 37 0 27 0;
#X connect 38 0 37 0;
#X connect 38 1 37 1;
#X connect 39 0 50 0;
#X connect 40 0 39 0;
#X connect 41 0 40 1;
#X connect 42 0 40 0;
#X connect 43 0 42 0;
#X connect 43 1 42 1;
#X connect 44 0 43 0;
#X connect 44 1 43 1;
#X connect 45 0 19 0;
#X connect 45 0 32 0;
#X connect 45 0 51 0;
#X connect 46 0 20 0;
#X connect 46 0 31 0;
#X connect 46 0 52 0;
#X connect 47 0 21 0;
#X connect 47 0 33 0;
#X connect 48 0 45 0;
#X connect 49 0 46 0;
#X connect 50 0 47 0;
#X connect 53 0 3 0;
#X coords 0 -1 1 1 130 130 1 10 20;
