#N canvas 99 183 1460 845 10;
#X obj 259 219 ftom;
#X floatatom 259 161 15 0 0 0 - - -;
#X obj 209 457 / 12;
#X obj 209 479 - 1;
#X floatatom 209 501 5 0 0 1 register - -;
#X floatatom 260 456 5 0 0 1 midi_note - -;
#X obj 259 139 mtof;
#X floatatom 259 117 5 0 0 0 - - -;
#X obj 209 567 * 12;
#X obj 209 604 +;
#X floatatom 209 626 5 0 0 0 - - -;
#X obj 209 645 mtof;
#X floatatom 209 667 10 0 0 0 - - -;
#X obj 209 735 outlet;
#X obj 209 712 line;
#X obj 209 543 int;
#X msg 209 688 \$1 10;
#X obj 270 276 t f f;
#X obj 532 301 % 12;
#X floatatom 532 334 5 0 0 0 pitch_class - -;
#X obj 532 355 select 0 1 2 3 4 5 6 7 8 9 10 11, f 55;
#X obj 533 414 int;
#X obj 561 414 int;
#X obj 587 414 int;
#X obj 615 414 int;
#X obj 641 414 int;
#X obj 669 414 int;
#X obj 695 414 int;
#X obj 723 414 int;
#X obj 750 414 int;
#X obj 778 414 int;
#X obj 805 413 int;
#X obj 833 411 int;
#X floatatom 661 452 5 0 0 0 mapped_pitch - -;
#X obj 656 308 unpack 0 0 0 0 0 0 0 0 0 0 0 0;
#X msg 682 46 0 1 2 3 4 5 6 7 8 9 10 11;
#X obj 259 4 inlet;
#X obj 259 61 * 0.559055;
#X obj 259 86 + 36;
#X text 849 45 chromatic;
#X msg 679 70 0 0 2 2 4 4 6 6 8 8 10 10;
#X text 865 73 whole-tone;
#X msg 1101 523 0 0 0 3 3 3 6 6 6 9 9 9;
#X text 1270 523 diminshed 7th chord;
#X msg 1100 550 0 0 0 0 4 4 4 4 8 8 8 8;
#X text 1249 553 augmented chord;
#X msg 1102 578 0 0 0 0 0 0 6 6 6 6 6 6;
#X text 1255 577 tritone;
#X msg 1122 49 0 0 2 2 4 4 5 5 7 7 9 11;
#X text 1286 48 Ionian;
#X text 1284 75 Dorian;
#X msg 1120 78 0 0 2 2 3 3 5 5 7 7 8 10;
#X msg 1122 126 0 0 1 1 3 3 5 5 7 7 8 10;
#X text 1288 130 Phrygian;
#X text 1280 158 Lydian;
#X msg 1119 169 0 0 2 2 4 4 6 6 7 7 9 11;
#X msg 1122 219 0 0 2 2 4 4 5 5 7 7 9 10;
#X msg 1119 253 0 0 2 2 3 3 5 5 7 7 8 10;
#X text 1294 219 Mixolydian;
#X text 1290 256 Aeolian;
#X msg 1116 291 0 0 1 1 3 3 5 5 6 6 8 10;
#X text 1295 292 Locrian;
#X msg 676 115 0 0 2 2 2 4 4 4 7 7 9 9;
#X text 859 119 major pentatonic;
#X msg 676 94 0 0 3 3 5 5 6 6 7 7 10 10;
#X text 839 91 blues;
#X msg 1097 495 0 0 2 2 4 4 6 6 7 7 9 9;
#X text 1263 495 acoustic;
#X text 838 135 major;
#X text 854 154 minor;
#X msg 674 136 0 2 2 4 4 5 5 7 7 9 9 11;
#X msg 675 158 0 2 2 3 3 5 5 7 7 8 8 10;
#X obj 19 40 bng 15 250 50 0 empty empty chromatic 17 7 0 10 -262130
-260097 -1;
#X obj 19 58 bng 15 250 50 0 empty empty major 17 7 0 10 -262130 -260097
-1;
#X obj 19 76 bng 15 250 50 0 empty empty minor 17 7 0 10 -262130 -260097
-1;
#X obj 19 94 bng 15 250 50 0 empty empty pentatonic 17 7 0 10 -262130
-260097 -1;
#X obj 19 130 bng 15 250 50 0 empty empty wholeTone 17 7 0 10 -262130
-260097 -1;
#X obj 19 112 bng 15 250 50 0 empty empty blues 17 7 0 10 -262130 -260097
-1;
#X obj 162 15 loadbang;
#X obj 421 6 inlet;
#X connect 0 0 5 0;
#X connect 0 0 17 0;
#X connect 1 0 0 0;
#X connect 2 0 3 0;
#X connect 3 0 4 0;
#X connect 4 0 15 0;
#X connect 6 0 1 0;
#X connect 7 0 6 0;
#X connect 8 0 9 0;
#X connect 9 0 10 0;
#X connect 10 0 11 0;
#X connect 11 0 12 0;
#X connect 12 0 16 0;
#X connect 14 0 13 0;
#X connect 15 0 8 0;
#X connect 16 0 14 0;
#X connect 17 0 2 0;
#X connect 17 1 18 0;
#X connect 18 0 19 0;
#X connect 19 0 20 0;
#X connect 20 0 21 0;
#X connect 20 1 22 0;
#X connect 20 2 23 0;
#X connect 20 3 24 0;
#X connect 20 4 25 0;
#X connect 20 5 26 0;
#X connect 20 6 27 0;
#X connect 20 7 28 0;
#X connect 20 8 29 0;
#X connect 20 9 30 0;
#X connect 20 10 31 0;
#X connect 20 11 32 0;
#X connect 21 0 33 0;
#X connect 22 0 33 0;
#X connect 23 0 33 0;
#X connect 24 0 33 0;
#X connect 25 0 33 0;
#X connect 26 0 33 0;
#X connect 27 0 33 0;
#X connect 28 0 33 0;
#X connect 29 0 33 0;
#X connect 30 0 33 0;
#X connect 31 0 33 0;
#X connect 32 0 33 0;
#X connect 33 0 9 1;
#X connect 34 0 21 1;
#X connect 34 1 22 1;
#X connect 34 2 23 1;
#X connect 34 3 24 1;
#X connect 34 4 25 1;
#X connect 34 5 26 1;
#X connect 34 6 27 1;
#X connect 34 7 28 1;
#X connect 34 8 29 1;
#X connect 34 9 30 1;
#X connect 34 10 31 1;
#X connect 34 11 32 1;
#X connect 35 0 34 0;
#X connect 36 0 37 0;
#X connect 37 0 38 0;
#X connect 38 0 7 0;
#X connect 40 0 34 0;
#X connect 42 0 34 0;
#X connect 44 0 34 0;
#X connect 46 0 34 0;
#X connect 48 0 34 0;
#X connect 51 0 34 0;
#X connect 52 0 34 0;
#X connect 55 0 34 0;
#X connect 56 0 34 0;
#X connect 57 0 34 0;
#X connect 60 0 34 0;
#X connect 62 0 34 0;
#X connect 64 0 34 0;
#X connect 66 0 34 0;
#X connect 70 0 34 0;
#X connect 71 0 34 0;
#X connect 72 0 35 0;
#X connect 73 0 70 0;
#X connect 74 0 71 0;
#X connect 75 0 62 0;
#X connect 76 0 40 0;
#X connect 77 0 64 0;
#X connect 78 0 72 0;
#X connect 79 0 34 0;
#X coords 0 -1 1 1 130 130 1 10 20;
