#N canvas 0 23 1445 743 10;
#X obj 474 237 *~;
#X obj 222 274 +~;
#X obj 489 216 *~;
#X obj 222 37 inlet~;
#X obj 223 489 outlet~;
#X obj 751 56 inlet;
#X msg 237 163 1 \$1;
#X obj 237 185 -;
#X obj 504 195 line~;
#X obj 237 227 line~;
#X obj 222 247 *~;
#X obj 489 109 osc~;
#X obj 488 7 loadbang;
#X obj 411 6 loadbang;
#X msg 411 35 0.5;
#X floatatom 411 62 5 0 0 0 - - -;
#X floatatom 489 80 5 0 0 0 - - -;
#X msg 488 36 5;
#X msg 237 206 \$1 500;
#X msg 504 172 \$1 500;
#X obj 751 78 / 127;
#X floatatom 751 103 5 0 0 0 - - -;
#X floatatom 751 179 5 0 0 0 - - -;
#X obj 751 155 * 15;
#X obj 753 227 tgl 15 0 empty empty empty 17 7 0 10 -262144 -1 -1 0
1;
#X obj 752 200 > 1;
#X obj 753 284 select 1;
#X msg 799 355 0;
#X obj 753 252 change;
#X msg 753 330 1;
#X obj 751 127 clip 0 1;
#X text 785 202 threshhold;
#X obj 846 31 r \$1;
#X connect 0 0 1 1;
#X connect 1 0 4 0;
#X connect 2 0 0 1;
#X connect 3 0 0 0;
#X connect 3 0 10 0;
#X connect 5 0 20 0;
#X connect 6 0 7 0;
#X connect 7 0 18 0;
#X connect 8 0 2 1;
#X connect 9 0 10 1;
#X connect 10 0 1 0;
#X connect 11 0 2 0;
#X connect 12 0 17 0;
#X connect 13 0 14 0;
#X connect 14 0 15 0;
#X connect 15 0 19 0;
#X connect 15 0 6 0;
#X connect 16 0 11 0;
#X connect 17 0 16 0;
#X connect 18 0 9 0;
#X connect 19 0 8 0;
#X connect 20 0 21 0;
#X connect 21 0 30 0;
#X connect 22 0 25 0;
#X connect 22 0 16 0;
#X connect 23 0 22 0;
#X connect 24 0 28 0;
#X connect 25 0 24 0;
#X connect 26 0 29 0;
#X connect 26 1 27 0;
#X connect 27 0 15 0;
#X connect 28 0 26 0;
#X connect 29 0 15 0;
#X connect 30 0 23 0;
#X coords 0 -1 1 1 130 60 1 10 20;
