#N canvas 266 23 970 650 12;
#X obj 131 138 line~;
#X obj 113 161 *~;
#X msg 131 112 \$1 20;
#X obj 131 61 tgl 40 0 empty empty empty 17 7 0 10 -258113 -1 -1 0
1;
#X obj 84 89 line~;
#X obj 17 113 *~, f 10;
#X msg 84 63 \$1 20;
#X obj 87 41 hsl 128 15 0 1 0 0 empty empty empty -2 -8 0 10 -204786
-1 -1 9650 1;
#X obj 113 188 *~ 0.1;
#X obj 71 266 dac~ 1 2 3 4 5 6 7 8 9 10 11 12;
#X obj 300 266 dac~ 13 14 15 16 17 18 19 20;
#X obj 509 266 dac~ 21 22 23 24 25;
#X obj 311 562 dac~ 26 27 28 29;
#N canvas 0 23 1083 538 snare 0;
#X obj 34 103 pink~;
#X obj 59 189 line~;
#X obj 36 215 *~;
#X obj 122 70 bng 15 250 50 0 empty empty empty 17 7 0 10 -262144 -1
-1;
#X msg 66 162 \$1 50;
#X msg 66 136 1;
#X msg 121 150 0;
#X floatatom 174 106 5 0 0 0 - - -;
#X obj 121 128 delay 50;
#X obj 122 17 tgl 15 0 empty empty empty 17 7 0 10 -262144 -1 -1 1
1;
#X obj 122 40 metro 200;
#X obj 40 246 outlet~;
#X obj 122 -6 inlet;
#X obj 180 9 inlet;
#X obj 225 17 inlet;
#X connect 0 0 2 0;
#X connect 1 0 2 1;
#X connect 2 0 11 0;
#X connect 3 0 5 0;
#X connect 3 0 8 0;
#X connect 4 0 1 0;
#X connect 5 0 4 0;
#X connect 6 0 4 0;
#X connect 7 0 8 1;
#X connect 8 0 6 0;
#X connect 9 0 10 0;
#X connect 10 0 3 0;
#X connect 12 0 9 0;
#X connect 13 0 10 1;
#X connect 14 0 7 0;
#X restore 17 38 pd snare;
#X obj 16 14 tgl 15 0 empty empty empty 17 7 0 10 -262144 -1 -1 1 1
;
#X floatatom 43 13 5 0 0 0 - - -;
#X floatatom 83 13 5 0 0 0 - - -;
#X obj 353 141 line~;
#X obj 335 164 *~;
#X msg 353 115 \$1 20;
#X obj 353 64 tgl 40 0 empty empty empty 17 7 0 10 -258113 -1 -1 0
1;
#X obj 306 92 line~;
#X obj 239 116 *~, f 10;
#X msg 306 66 \$1 20;
#X obj 309 44 hsl 128 15 0 1 0 0 empty empty empty -2 -8 0 10 -204786
-1 -1 9000 1;
#X obj 335 191 *~ 0.1;
#N canvas 0 23 1083 538 snare 0;
#X obj 34 103 pink~;
#X obj 59 189 line~;
#X obj 36 215 *~;
#X obj 122 70 bng 15 250 50 0 empty empty empty 17 7 0 10 -262144 -1
-1;
#X msg 66 162 \$1 50;
#X msg 66 136 1;
#X msg 121 150 0;
#X floatatom 174 106 5 0 0 0 - - -;
#X obj 121 128 delay 50;
#X obj 122 17 tgl 15 0 empty empty empty 17 7 0 10 -262144 -1 -1 1
1;
#X obj 122 40 metro 200;
#X obj 40 246 outlet~;
#X obj 122 -6 inlet;
#X obj 180 9 inlet;
#X obj 225 17 inlet;
#X connect 0 0 2 0;
#X connect 1 0 2 1;
#X connect 2 0 11 0;
#X connect 3 0 5 0;
#X connect 3 0 8 0;
#X connect 4 0 1 0;
#X connect 5 0 4 0;
#X connect 6 0 4 0;
#X connect 7 0 8 1;
#X connect 8 0 6 0;
#X connect 9 0 10 0;
#X connect 10 0 3 0;
#X connect 12 0 9 0;
#X connect 13 0 10 1;
#X connect 14 0 7 0;
#X restore 239 41 pd snare;
#X obj 238 17 tgl 15 0 empty empty empty 17 7 0 10 -262144 -1 -1 1
1;
#X floatatom 265 16 5 0 0 0 - - -;
#X floatatom 305 16 5 0 0 0 - - -;
#X obj 566 140 line~;
#X obj 548 163 *~;
#X msg 566 114 \$1 20;
#X obj 566 63 tgl 40 0 empty empty empty 17 7 0 10 -258113 -1 -1 0
1;
#X obj 519 91 line~;
#X obj 452 115 *~, f 10;
#X msg 519 65 \$1 20;
#X obj 522 43 hsl 128 15 0 1 0 0 empty empty empty -2 -8 0 10 -204786
-1 -1 10200 1;
#X obj 548 190 *~ 0.1;
#N canvas 0 23 1083 538 snare 0;
#X obj 34 103 pink~;
#X obj 59 189 line~;
#X obj 36 215 *~;
#X obj 122 70 bng 15 250 50 0 empty empty empty 17 7 0 10 -262144 -1
-1;
#X msg 66 162 \$1 50;
#X msg 66 136 1;
#X msg 121 150 0;
#X floatatom 174 106 5 0 0 0 - - -;
#X obj 121 128 delay 50;
#X obj 122 17 tgl 15 0 empty empty empty 17 7 0 10 -262144 -1 -1 1
1;
#X obj 122 40 metro 200;
#X obj 40 246 outlet~;
#X obj 122 -6 inlet;
#X obj 180 9 inlet;
#X obj 225 17 inlet;
#X connect 0 0 2 0;
#X connect 1 0 2 1;
#X connect 2 0 11 0;
#X connect 3 0 5 0;
#X connect 3 0 8 0;
#X connect 4 0 1 0;
#X connect 5 0 4 0;
#X connect 6 0 4 0;
#X connect 7 0 8 1;
#X connect 8 0 6 0;
#X connect 9 0 10 0;
#X connect 10 0 3 0;
#X connect 12 0 9 0;
#X connect 13 0 10 1;
#X connect 14 0 7 0;
#X restore 452 40 pd snare;
#X obj 451 16 tgl 15 0 empty empty empty 17 7 0 10 -262144 -1 -1 1
1;
#X floatatom 478 15 5 0 0 0 - - -;
#X floatatom 518 15 5 0 0 0 - - -;
#X obj 788 140 line~;
#X obj 770 163 *~;
#X msg 788 114 \$1 20;
#X obj 788 63 tgl 40 0 empty empty empty 17 7 0 10 -258113 -1 -1 0
1;
#X obj 741 91 line~;
#X obj 674 115 *~, f 10;
#X msg 741 65 \$1 20;
#X obj 744 43 hsl 128 15 0 1 0 0 empty empty empty -2 -8 0 10 -204786
-1 -1 6600 1;
#X obj 770 190 *~ 0.1;
#N canvas 0 23 1083 538 snare 0;
#X obj 34 103 pink~;
#X obj 59 189 line~;
#X obj 36 215 *~;
#X obj 122 70 bng 15 250 50 0 empty empty empty 17 7 0 10 -262144 -1
-1;
#X msg 66 162 \$1 50;
#X msg 66 136 1;
#X msg 121 150 0;
#X floatatom 174 106 5 0 0 0 - - -;
#X obj 121 128 delay 50;
#X obj 122 17 tgl 15 0 empty empty empty 17 7 0 10 -262144 -1 -1 1
1;
#X obj 122 40 metro 200;
#X obj 40 246 outlet~;
#X obj 122 -6 inlet;
#X obj 180 9 inlet;
#X obj 225 17 inlet;
#X connect 0 0 2 0;
#X connect 1 0 2 1;
#X connect 2 0 11 0;
#X connect 3 0 5 0;
#X connect 3 0 8 0;
#X connect 4 0 1 0;
#X connect 5 0 4 0;
#X connect 6 0 4 0;
#X connect 7 0 8 1;
#X connect 8 0 6 0;
#X connect 9 0 10 0;
#X connect 10 0 3 0;
#X connect 12 0 9 0;
#X connect 13 0 10 1;
#X connect 14 0 7 0;
#X restore 674 40 pd snare;
#X obj 673 16 tgl 15 0 empty empty empty 17 7 0 10 -262144 -1 -1 1
1;
#X floatatom 700 15 5 0 0 0 - - -;
#X floatatom 740 15 5 0 0 0 - - -;
#X obj 905 40 tgl 40 0 empty empty empty 17 7 0 10 -258113 -1 -1 0
1;
#X obj 769 423 line~;
#X obj 751 446 *~;
#X msg 769 397 \$1 20;
#X obj 769 346 tgl 40 0 empty empty empty 17 7 0 10 -258113 -1 -1 0
1;
#X obj 722 374 line~;
#X obj 655 398 *~, f 10;
#X msg 722 348 \$1 20;
#X obj 725 326 hsl 128 15 0 1 0 0 empty empty empty -2 -8 0 10 -204786
-1 -1 4200 1;
#X obj 751 473 *~ 0.1;
#X obj 645 357 osc~ 50;
#X floatatom 654 318 5 0 0 0 - - -;
#X obj 551 417 line~;
#X obj 533 440 *~;
#X msg 551 391 \$1 20;
#X obj 551 340 tgl 40 0 empty empty empty 17 7 0 10 -258113 -1 -1 0
1;
#X obj 504 368 line~;
#X obj 437 392 *~, f 10;
#X msg 504 342 \$1 20;
#X obj 507 320 hsl 128 15 0 1 0 0 empty empty empty -2 -8 0 10 -204786
-1 -1 6400 1;
#X obj 533 467 *~ 0.1;
#X obj 427 351 osc~ 50;
#X floatatom 436 312 5 0 0 0 - - -;
#X obj 334 413 line~;
#X obj 316 436 *~;
#X msg 334 387 \$1 20;
#X obj 334 336 tgl 40 0 empty empty empty 17 7 0 10 -258113 -1 -1 0
1;
#X obj 287 364 line~;
#X obj 220 388 *~, f 10;
#X msg 287 338 \$1 20;
#X obj 290 316 hsl 128 15 0 1 0 0 empty empty empty -2 -8 0 10 -204786
-1 -1 5900 1;
#X obj 316 463 *~ 0.1;
#X obj 210 347 osc~ 50;
#X floatatom 219 308 5 0 0 0 - - -;
#X obj 116 407 line~;
#X obj 98 430 *~;
#X msg 116 381 \$1 20;
#X obj 116 330 tgl 40 0 empty empty empty 17 7 0 10 -258113 -1 -1 0
1;
#X obj 69 358 line~;
#X obj 2 382 *~, f 10;
#X msg 69 332 \$1 20;
#X obj 72 310 hsl 128 15 0 1 0 0 empty empty empty -2 -8 0 10 -204786
-1 -1 4300 1;
#X obj 98 457 *~ 0.1;
#X obj -8 341 osc~ 50;
#X floatatom 1 302 5 0 0 0 - - -;
#X connect 0 0 1 1;
#X connect 1 0 8 0;
#X connect 2 0 0 0;
#X connect 3 0 2 0;
#X connect 4 0 5 1;
#X connect 5 0 1 0;
#X connect 6 0 4 0;
#X connect 7 0 6 0;
#X connect 8 0 9 2;
#X connect 13 0 5 0;
#X connect 14 0 13 0;
#X connect 15 0 13 1;
#X connect 16 0 13 2;
#X connect 17 0 18 1;
#X connect 18 0 25 0;
#X connect 19 0 17 0;
#X connect 20 0 19 0;
#X connect 21 0 22 1;
#X connect 22 0 18 0;
#X connect 23 0 21 0;
#X connect 24 0 23 0;
#X connect 25 0 10 5;
#X connect 26 0 22 0;
#X connect 27 0 26 0;
#X connect 28 0 26 1;
#X connect 29 0 26 2;
#X connect 30 0 31 1;
#X connect 31 0 38 0;
#X connect 32 0 30 0;
#X connect 33 0 32 0;
#X connect 34 0 35 1;
#X connect 35 0 31 0;
#X connect 36 0 34 0;
#X connect 37 0 36 0;
#X connect 38 0 11 3;
#X connect 39 0 35 0;
#X connect 40 0 39 0;
#X connect 41 0 39 1;
#X connect 42 0 39 2;
#X connect 43 0 44 1;
#X connect 44 0 51 0;
#X connect 45 0 43 0;
#X connect 46 0 45 0;
#X connect 47 0 48 1;
#X connect 48 0 44 0;
#X connect 49 0 47 0;
#X connect 50 0 49 0;
#X connect 51 0 9 7;
#X connect 52 0 48 0;
#X connect 53 0 52 0;
#X connect 54 0 52 1;
#X connect 55 0 52 2;
#X connect 56 0 3 0;
#X connect 56 0 20 0;
#X connect 56 0 33 0;
#X connect 56 0 46 0;
#X connect 57 0 58 1;
#X connect 58 0 65 0;
#X connect 59 0 57 0;
#X connect 60 0 59 0;
#X connect 61 0 62 1;
#X connect 62 0 58 0;
#X connect 63 0 61 0;
#X connect 64 0 63 0;
#X connect 65 0 12 3;
#X connect 66 0 62 0;
#X connect 67 0 66 0;
#X connect 68 0 69 1;
#X connect 69 0 76 0;
#X connect 70 0 68 0;
#X connect 71 0 70 0;
#X connect 72 0 73 1;
#X connect 73 0 69 0;
#X connect 74 0 72 0;
#X connect 75 0 74 0;
#X connect 76 0 12 2;
#X connect 77 0 73 0;
#X connect 78 0 77 0;
#X connect 79 0 80 1;
#X connect 80 0 87 0;
#X connect 81 0 79 0;
#X connect 82 0 81 0;
#X connect 83 0 84 1;
#X connect 84 0 80 0;
#X connect 85 0 83 0;
#X connect 86 0 85 0;
#X connect 87 0 12 1;
#X connect 88 0 84 0;
#X connect 89 0 88 0;
#X connect 90 0 91 1;
#X connect 91 0 98 0;
#X connect 92 0 90 0;
#X connect 93 0 92 0;
#X connect 94 0 95 1;
#X connect 95 0 91 0;
#X connect 96 0 94 0;
#X connect 97 0 96 0;
#X connect 98 0 12 0;
#X connect 99 0 95 0;
#X connect 100 0 99 0;
