#N canvas 320 23 960 684 16;
#X obj 305 310 osc~;
#X msg 88 545 \; pd dsp \$1;
#X obj 88 497 tgl 30 0 empty empty empty 17 7 0 10 -262144 -1 -1 1
1;
#X obj 303 632 dac~, f 23;
#X obj 305 250 line~;
#X floatatom 305 175 5 0 0 0 - - -, f 5;
#X obj 305 208 pack f 200;
#X obj 418 250 line~;
#X floatatom 418 175 5 0 0 0 - - -, f 5;
#X obj 418 208 pack f 200;
#X obj 418 310 osc~;
#X msg 608 250 0;
#X text 661 248 <- phase synchronize;
#X obj 305 129 r osc1;
#X msg 93 136 \; osc1 400 \; osc2 405 \;;
#X obj 418 129 r osc2;
#X msg 93 209 \; osc1 400 \; osc2 402 \;;
#X msg 93 279 \; osc1 400 \; osc2 401 \;;
#X msg 93 349 \; osc1 400 \; osc2 410 \;;
#X obj 534 132 line;
#X msg 534 96 300 \, 500 30000;
#X text 95 50 beating frequencies / amplitude modulation;
#X text 547 632 amplitude modulation in the air!;
#X obj 303 554 *~;
#X obj 530 555 *~;
#X obj 557 515 line~;
#X msg 557 473 0.2 50;
#X msg 635 473 0 50;
#X obj 330 515 line~;
#X msg 330 473 0.2 50;
#X msg 408 473 0 50;
#X connect 0 0 23 0;
#X connect 2 0 1 0;
#X connect 4 0 0 0;
#X connect 5 0 6 0;
#X connect 6 0 4 0;
#X connect 7 0 10 0;
#X connect 8 0 9 0;
#X connect 9 0 7 0;
#X connect 10 0 24 0;
#X connect 11 0 0 1;
#X connect 11 0 10 1;
#X connect 13 0 5 0;
#X connect 15 0 8 0;
#X connect 19 0 8 0;
#X connect 20 0 19 0;
#X connect 23 0 3 0;
#X connect 24 0 3 1;
#X connect 25 0 24 1;
#X connect 26 0 25 0;
#X connect 27 0 25 0;
#X connect 28 0 23 1;
#X connect 29 0 28 0;
#X connect 30 0 28 0;
