#N canvas 368 23 1158 758 10;
#N canvas 0 22 450 300 (subpatch) 0;
#X array waveform_array2 2051 float 0;
#X coords 0 1 2050 -1 200 140 1;
#X restore 281 52 graph;
#X msg 203 631 \; pd dsp \$1;
#X obj 203 583 tgl 30 0 empty empty empty 17 7 0 10 -262144 -1 -1 0
1;
#X obj 116 650 dac~;
#N canvas 0 22 771 392 vol 0;
#X obj 110 220 outlet~;
#X obj 109 36 inlet~;
#X obj 180 36 inlet;
#X obj 110 167 *~;
#X obj 137 133 line~;
#X msg 137 101 \$1 100;
#X connect 1 0 3 0;
#X connect 2 0 5 0;
#X connect 3 0 0 0;
#X connect 4 0 3 1;
#X connect 5 0 4 0;
#X restore 116 572 pd vol;
#X floatatom 179 539 5 0 1 0 - - -, f 5;
#X obj 182 491 hsl 128 30 0 1 0 0 empty empty empty -2 -8 0 10 -262144
-1 -1 4400 1;
#X text 325 495 volume;
#X obj 65 52 hsl 128 30 0 1 0 0 empty empty empty -2 -8 0 10 -262144
-1 -1 3400 1;
#X text 199 58 frequency;
#X obj 62 225 phasor~;
#X obj 62 259 *~ 2051;
#X floatatom 62 93 5 0 0 0 - - -, f 5;
#X floatatom 169 130 5 0 0 0 - - -, f 5;
#X obj 62 162 pack f 200;
#X obj 62 130 * 2000;
#X msg 492 52 \; waveform_array2 sinesum 2051 1 0.5 0.333333 0.25 0.2
0.166667 0.142857 0.125 0.111111 0.1 0.090909 0.083333 0.076923 \;
waveform_array2 normalize 1 \;;
#X obj 62 295 tabread4~ waveform_array2;
#X text 639 470 ADSR = Attack Decay Sustain Release;
#X text 639 485 Attack = time to reach loudest point;
#X text 639 501 Decay = time to reach sustain volume;
#X text 639 517 Sustain = volume of note till released;
#X text 640 532 Release = time to zero after note is released;
#X obj 116 512 *~;
#X obj 146 393 line~;
#X obj 146 428 tabread4~ adsr_envelope;
#X msg 146 351 0 \, 7 1000;
#X msg 260 351 0 \, 7 4000;
#X text 60 21 ENVELOPES (ADSR);
#X obj 62 192 sig~;
#N canvas 0 22 450 278 (subpatch) 0;
#X array adsr_envelope 8 float 1;
#A 0 0 0.551181 0.165354 0.96063 0.165354 0 0 0;
#X coords 0 1 7 0 200 140 1 0 0;
#X restore 397 453 graph;
#X text 559 160 when using messages to write an array \, the first
value is the index to begin writing \, so 0 will be following by 8
values in this case as the array size is 8;
#X msg 643 332 \; adsr_envelope 0 0 0.6 0.6 0.6 1 0 0 0 \;;
#X msg 642 389 \; adsr_envelope 0 0 1 0.6 0.6 0.6 0 0 0 \;;
#X msg 643 274 \; adsr_envelope 0 0 0 1 0.7 0.7 0 0 0 \;;
#X msg 643 233 \; adsr_envelope 0 0 0.2 0.4 0.5 0.4 0.2 0 0 \;;
#X obj 684 694 tabwrite adsr_envelope;
#X floatatom 813 668 5 0 0 0 - - -, f 5;
#X floatatom 684 656 5 0 0 0 - - -, f 5;
#X obj 687 614 hsl 128 15 0 1 0 0 empty empty empty -2 -8 0 10 -262144
-1 -1 0 1;
#X obj 813 645 hradio 15 1 0 8 empty empty empty 0 -8 0 10 -262144
-1 -1 0;
#X msg 376 352 0 \, 7 400;
#X connect 2 0 1 0;
#X connect 4 0 3 0;
#X connect 4 0 3 1;
#X connect 5 0 4 1;
#X connect 6 0 5 0;
#X connect 8 0 12 0;
#X connect 10 0 11 0;
#X connect 11 0 17 0;
#X connect 12 0 15 0;
#X connect 13 0 14 1;
#X connect 14 0 29 0;
#X connect 15 0 14 0;
#X connect 17 0 23 0;
#X connect 23 0 4 0;
#X connect 24 0 25 0;
#X connect 25 0 23 1;
#X connect 26 0 24 0;
#X connect 27 0 24 0;
#X connect 29 0 10 0;
#X connect 37 0 36 1;
#X connect 38 0 36 0;
#X connect 39 0 38 0;
#X connect 40 0 37 0;
#X connect 41 0 24 0;
