#N canvas 188 22 1349 856 10;
#X obj 237 437 dac~;
#N canvas 0 22 450 300 (subpatch) 0;
#X array soundbuffer_re 200000 float 2;
#X coords 0 1 200000 -1 200 140 1 0 0;
#X restore 350 362 graph;
#X obj 237 361 *~ 0.7;
#X floatatom 270 341 5 0 1 0 - - -;
#X obj 237 289 vline~;
#X obj 237 219 f;
#X obj 697 290 adc~;
#X msg 740 278 start;
#X msg 741 307 stop;
#X obj 238 148 bng 15 250 50 0 empty empty empty 17 7 0 10 -262144
-1 -1;
#X obj 706 143 s setBuffersize;
#X obj 693 72 r setBuffersize;
#X obj 740 257 bng 15 250 50 0 empty empty empty 17 7 0 10 -262144
-1 -1;
#X obj 740 235 r startRecording;
#X obj 238 124 r startPlaying;
#X obj 700 417 bng 15 250 50 0 empty empty empty 17 7 0 10 -262144
-1 -1;
#X obj 700 395 r normalize;
#X obj 237 405 clip~ -1 1;
#X obj 237 383 hip~ 1;
#X obj 600 208 cnv 30 500 20 empty empty empty 20 12 0 14 -204786 -66577
0;
#X obj 603 361 cnv 30 500 20 empty empty empty 20 12 0 14 -204786 -66577
0;
#X text 793 73 <- 1) resize buffer to number of samples for recording
;
#X text 850 234 <- 2) record sound into the buffer;
#X obj 605 484 cnv 30 500 20 empty empty empty 20 12 0 14 -204786 -66577
0;
#X text 802 558 <- 4) play sound in reverse;
#X obj 237 312 tabread4~ soundbuffer_re;
#X msg 694 172 \; soundbuffer_re resize \$1;
#X obj 697 334 tabwrite~ soundbuffer_re;
#X msg 700 437 \; soundbuffer_re normalize;
#X obj 149 540 tgl 40 0 empty empty empty 17 7 0 10 -262144 -1 -1 0
1;
#X obj 149 594 select 1;
#X obj 29 766 s startRecording;
#X obj 267 678 s stopRecording;
#X obj 790 279 r stopRecording;
#X obj 702 557 s startPlaying;
#X obj 267 704 s normalize;
#X obj 241 746 timer;
#X floatatom 241 768 15 0 0 0 - - -;
#X obj 702 518 bng 15 250 50 0 empty empty empty 17 7 0 10 -262144
-1 -1;
#X obj 237 245 pack f f;
#X msg 237 267 \$1 \, 0 \$2;
#X msg 61 731 \; soundbuffer_re const 0;
#X obj 74 641 t b b b;
#X obj 330 173 * 44.1;
#X floatatom 330 153 15 0 0 0 - - -;
#X floatatom 330 195 15 0 0 0 - - -;
#X obj 194 642 t b b b;
#X obj 210 540 bng 40 250 50 0 empty empty empty 17 7 0 10 -262144
-1 -1;
#X obj 210 594 s startPlaying;
#X msg 706 121 200000;
#X obj 241 795 s timeIndex;
#X obj 330 124 r timeIndex;
#X text 10 549 rec (press/release) ->;
#X text 255 550 <- play;
#X obj 706 99 loadbang;
#X obj 210 495 r play;
#X obj 149 495 r rec;
#X text 11 563 rec = 1 or 0 ->;
#X text 256 562 <- play = 1;
#X obj 210 518 sel 1;
#X msg 162 461 1;
#X obj 149 517 change;
#X msg 38 459 1;
#X msg 88 460 0;
#X msg 38 22 record;
#X msg 88 22 stopRecord;
#X msg 162 22 play;
#X obj 38 204 t b;
#X obj 88 204 t b;
#X obj 162 204 t b;
#X text 829 88 set for more time than actually needed...;
#X text 782 394 <- 3) normalize sound in the buffer;
#X text 236 19 revoicer (reverser);
#X text 236 30 record and playback in reverse / speak backwards training
;
#X text 234 42 [s3g 2014];
#X connect 2 0 18 0;
#X connect 3 0 2 1;
#X connect 4 0 25 0;
#X connect 5 0 39 0;
#X connect 6 0 27 0;
#X connect 7 0 27 0;
#X connect 8 0 27 0;
#X connect 9 0 5 0;
#X connect 11 0 26 0;
#X connect 12 0 7 0;
#X connect 13 0 12 0;
#X connect 14 0 9 0;
#X connect 15 0 28 0;
#X connect 16 0 15 0;
#X connect 17 0 0 0;
#X connect 17 0 0 1;
#X connect 18 0 17 0;
#X connect 25 0 2 0;
#X connect 29 0 30 0;
#X connect 30 0 42 0;
#X connect 30 1 46 0;
#X connect 33 0 8 0;
#X connect 36 0 37 0;
#X connect 37 0 50 0;
#X connect 38 0 34 0;
#X connect 39 0 40 0;
#X connect 40 0 4 0;
#X connect 42 0 31 0;
#X connect 42 1 41 0;
#X connect 42 2 36 0;
#X connect 43 0 45 0;
#X connect 44 0 43 0;
#X connect 44 0 39 1;
#X connect 45 0 5 1;
#X connect 46 0 35 0;
#X connect 46 1 32 0;
#X connect 46 2 36 1;
#X connect 47 0 48 0;
#X connect 49 0 10 0;
#X connect 51 0 44 0;
#X connect 54 0 49 0;
#X connect 55 0 59 0;
#X connect 56 0 61 0;
#X connect 59 0 47 0;
#X connect 60 0 59 0;
#X connect 61 0 29 0;
#X connect 62 0 61 0;
#X connect 63 0 61 0;
#X connect 64 0 67 0;
#X connect 65 0 68 0;
#X connect 66 0 69 0;
#X connect 67 0 62 0;
#X connect 68 0 63 0;
#X connect 69 0 60 0;
