#N canvas 467 270 1052 578 10;
#X obj 172 41 receive fromSystem;
#X obj 172 75 list trim;
#X obj 172 152 unpack f f f, f 14;
#X floatatom 172 346 5 0 0 0 - - -;
#X floatatom 318 346 5 0 0 0 - - -;
#X floatatom 220 346 5 0 0 0 - - -;
#X obj 171 486 send toGUI;
#X msg 172 410 list /xyslider1 \$1 \$2;
#X text 366 345 < do something with these numbers in Pd for soundmaking
;
#X obj 172 378 pack f f, f 11;
#X msg 318 410 list /slider1 \$1;
#X floatatom 172 216 5 0 0 0 - - -;
#X obj 172 239 + 1;
#X obj 172 262 * 0.5;
#X floatatom 212 216 5 0 0 0 - - -;
#X obj 212 239 + 1;
#X obj 212 262 * 0.5;
#X floatatom 253 216 5 0 0 0 - - -;
#X obj 253 239 + 1;
#X obj 253 262 * 0.5;
#X obj 172 308 line;
#X msg 172 287 \$1 100;
#X obj 220 308 line;
#X msg 220 287 \$1 100;
#X obj 318 307 line;
#X msg 318 286 \$1 100;
#X obj 172 110 route /gyro;
#X text 344 211 roll \, pitch \, yaw;
#X connect 0 0 1 0;
#X connect 1 0 26 0;
#X connect 2 0 11 0;
#X connect 2 1 14 0;
#X connect 2 2 17 0;
#X connect 3 0 9 0;
#X connect 4 0 10 0;
#X connect 5 0 9 1;
#X connect 7 0 6 0;
#X connect 9 0 7 0;
#X connect 10 0 6 0;
#X connect 11 0 12 0;
#X connect 12 0 13 0;
#X connect 13 0 21 0;
#X connect 14 0 15 0;
#X connect 15 0 16 0;
#X connect 16 0 23 0;
#X connect 17 0 18 0;
#X connect 18 0 19 0;
#X connect 19 0 25 0;
#X connect 20 0 3 0;
#X connect 21 0 20 0;
#X connect 22 0 5 0;
#X connect 23 0 22 0;
#X connect 24 0 4 0;
#X connect 25 0 24 0;
#X connect 26 0 2 0;
