#N canvas 366 88 608 496 10;
#X obj 107 471 send toGUI;
#X obj 107 69 route list;
#X obj 107 37 receive fromSystem;
#X obj 107 93 route /tilts;
#X obj 107 125 unpack f f;
#X floatatom 107 154 5 0 0 0 - - -, f 5;
#X floatatom 164 154 5 0 0 0 - - -, f 5;
#X msg 107 437 list /xyslider1 \$1 \$2;
#X obj 107 405 pack f f, f 10;
#X text 191 347 < do something with these numbers in Pd for soundmaking
;
#X obj 107 215 + 1;
#X obj 107 238 * 0.5;
#X floatatom 107 383 5 0 0 0 - - -, f 5;
#X obj 164 215 + 1;
#X obj 164 238 * 0.5;
#X floatatom 164 383 5 0 0 0 - - -, f 5;
#X obj 107 308 line;
#X msg 107 287 \$1 100;
#X obj 164 308 line;
#X msg 164 287 \$1 100;
#X connect 1 0 3 0;
#X connect 2 0 1 0;
#X connect 3 0 4 0;
#X connect 4 0 5 0;
#X connect 4 1 6 0;
#X connect 5 0 10 0;
#X connect 6 0 13 0;
#X connect 7 0 0 0;
#X connect 8 0 7 0;
#X connect 10 0 11 0;
#X connect 11 0 17 0;
#X connect 12 0 8 0;
#X connect 13 0 14 0;
#X connect 14 0 19 0;
#X connect 15 0 8 1;
#X connect 16 0 12 0;
#X connect 17 0 16 0;
#X connect 18 0 15 0;
#X connect 19 0 18 0;
