#N canvas 435 160 1245 857 10;
#X obj 389 425 osc~;
#X obj 389 623 dac~;
#X obj 390 241 line~;
#X floatatom 390 153 5 0 0 0 - - -;
#X obj 390 185 pack f 200;
#X obj 616 241 line~;
#X floatatom 616 153 5 0 0 0 - - -;
#X obj 616 185 pack f 200;
#X obj 616 301 osc~;
#X obj 389 392 +~;
#X obj 616 334 *~;
#X obj 750 286 line~;
#X msg 750 253 \$1 40;
#X floatatom 750 219 5 0 0 0 - - -;
#X obj 47 60 receive fromSystem;
#X obj 47 94 list trim;
#X obj 47 129 route /accel;
#X obj 47 171 unpack f f f, f 14;
#X floatatom 47 365 5 0 0 0 - - -;
#X floatatom 193 365 5 0 0 0 - - -;
#X floatatom 95 365 5 0 0 0 - - -;
#X obj 46 505 send toGUI;
#X msg 47 429 list /xyslider1 \$1 \$2;
#X obj 47 397 pack f f, f 11;
#X msg 193 429 list /slider1 \$1;
#X floatatom 47 235 5 0 0 0 - - -;
#X obj 47 258 + 1;
#X obj 47 281 * 0.5;
#X floatatom 87 235 5 0 0 0 - - -;
#X obj 87 258 + 1;
#X obj 87 281 * 0.5;
#X floatatom 128 235 5 0 0 0 - - -;
#X obj 128 258 + 1;
#X obj 128 281 * 0.5;
#X obj 47 327 line;
#X msg 47 306 \$1 100;
#X obj 95 327 line;
#X msg 95 306 \$1 100;
#X obj 193 326 line;
#X msg 193 305 \$1 100;
#X obj 389 545 *~ 0.8;
#X obj 390 118 * 2000;
#X text 438 151 carrier frequency;
#X text 659 151 modulation frequency;
#X text 799 216 modulation index;
#X obj 750 186 * 2000;
#X obj 616 117 * 2000;
#X obj 176 94 list trim;
#X obj 176 60 receive fromGUI;
#X obj 176 172 tgl 15 0 empty empty empty 17 7 0 10 -262144 -1 -1 0
1;
#X obj 389 490 *~;
#X obj 176 129 route /key1;
#X obj 405 457 adsr 1 100 200 75 400;
#X text 355 58 FREQUENCY MODULATION / VIBRATO;
#X connect 0 0 50 0;
#X connect 2 0 9 0;
#X connect 3 0 4 0;
#X connect 4 0 2 0;
#X connect 5 0 8 0;
#X connect 6 0 7 0;
#X connect 7 0 5 0;
#X connect 8 0 10 0;
#X connect 9 0 0 0;
#X connect 10 0 9 1;
#X connect 11 0 10 1;
#X connect 12 0 11 0;
#X connect 13 0 12 0;
#X connect 14 0 15 0;
#X connect 15 0 16 0;
#X connect 16 0 17 0;
#X connect 17 0 25 0;
#X connect 17 1 28 0;
#X connect 17 2 31 0;
#X connect 18 0 23 0;
#X connect 18 0 41 0;
#X connect 19 0 24 0;
#X connect 19 0 46 0;
#X connect 20 0 23 1;
#X connect 20 0 45 0;
#X connect 22 0 21 0;
#X connect 23 0 22 0;
#X connect 24 0 21 0;
#X connect 25 0 26 0;
#X connect 26 0 27 0;
#X connect 27 0 35 0;
#X connect 28 0 29 0;
#X connect 29 0 30 0;
#X connect 30 0 37 0;
#X connect 31 0 32 0;
#X connect 32 0 33 0;
#X connect 33 0 39 0;
#X connect 34 0 18 0;
#X connect 35 0 34 0;
#X connect 36 0 20 0;
#X connect 37 0 36 0;
#X connect 38 0 19 0;
#X connect 39 0 38 0;
#X connect 40 0 1 0;
#X connect 40 0 1 1;
#X connect 41 0 3 0;
#X connect 45 0 13 0;
#X connect 46 0 6 0;
#X connect 47 0 51 0;
#X connect 48 0 47 0;
#X connect 49 0 52 0;
#X connect 50 0 40 0;
#X connect 51 0 49 0;
#X connect 52 0 50 1;
