#N canvas 396 145 1135 754 10;
#X obj 386 703 dac~;
#X obj 517 553 line~;
#X obj 386 614 *~;
#X obj 517 484 pack f 20;
#X floatatom 517 462 5 0 0 0 - - -, f 5;
#X obj 385 362 line~;
#X floatatom 385 220 5 0 0 0 - - -, f 5;
#X obj 388 177 hsl 200 30 0 1 0 0 empty empty empty -2 -8 0 10 -262144
-1 -1 6019 1;
#X obj 385 284 * 1000;
#X floatatom 492 284 5 0 0 0 - - -, f 5;
#X text 599 176 <- hslider for a GUI;
#X text 562 283 <- adjust the glide between freq.;
#X obj 385 323 pack f 200;
#X text 463 374 <- line~ enables signal control over the osc~ freq.
;
#X floatatom 613 462 5 0 0 0 - - -, f 5;
#X text 681 480 <- adjust ramp for volume changes;
#X text 585 552 <- line~ enables signal control over volume;
#X obj 520 423 hsl 200 30 0 1 0 0 empty empty empty -2 -8 0 10 -262144
-1 -1 5813 1;
#X text 731 422 <- hslider for a GUI;
#X text 518 336 <- pack is handy for formatting a message;
#X obj 107 471 send toGUI;
#X obj 107 69 route list;
#X obj 107 37 receive fromSystem;
#X obj 107 93 route /tilts;
#X obj 107 125 unpack f f;
#X floatatom 107 154 5 0 0 0 - - -, f 5;
#X floatatom 164 154 5 0 0 0 - - -, f 5;
#X msg 107 437 list /xyslider1 \$1 \$2;
#X obj 107 405 pack f f, f 10;
#X obj 107 215 + 1;
#X obj 107 238 * 0.5;
#X floatatom 107 359 5 0 0 0 - - -, f 5;
#X obj 164 215 + 1;
#X obj 164 238 * 0.5;
#X floatatom 164 361 5 0 0 0 - - -, f 5;
#X obj 107 308 line;
#X msg 107 287 \$1 100;
#X obj 164 308 line;
#X msg 164 287 \$1 100;
#X obj 385 401 phasor~ 440;
#X connect 1 0 2 1;
#X connect 2 0 0 0;
#X connect 2 0 0 1;
#X connect 3 0 1 0;
#X connect 4 0 3 0;
#X connect 5 0 39 0;
#X connect 6 0 8 0;
#X connect 7 0 6 0;
#X connect 8 0 12 0;
#X connect 9 0 12 1;
#X connect 12 0 5 0;
#X connect 14 0 3 1;
#X connect 17 0 4 0;
#X connect 21 0 23 0;
#X connect 22 0 21 0;
#X connect 23 0 24 0;
#X connect 24 0 25 0;
#X connect 24 1 26 0;
#X connect 25 0 29 0;
#X connect 26 0 32 0;
#X connect 27 0 20 0;
#X connect 28 0 27 0;
#X connect 29 0 30 0;
#X connect 30 0 36 0;
#X connect 31 0 28 0;
#X connect 31 0 7 0;
#X connect 32 0 33 0;
#X connect 33 0 38 0;
#X connect 34 0 28 1;
#X connect 34 0 17 0;
#X connect 35 0 31 0;
#X connect 36 0 35 0;
#X connect 37 0 34 0;
#X connect 38 0 37 0;
#X connect 39 0 2 0;
