#N canvas 139 91 1330 930 10;
#X floatatom 529 148 20 0 0 0 - - -;
#X floatatom 685 553 0 0 0 0 - - -;
#X obj 685 625 line~;
#X obj 685 601 pack 0 100;
#X obj 685 577 * 0.01;
#X obj 335 380 +~;
#X obj 664 651 *~;
#X text 734 554 <-- feedback (hundredths);
#X obj 664 675 clip~ -1 1;
#X obj 323 -18 inlet~;
#X obj 40 749 outlet~;
#X obj 373 -18 inlet~;
#X obj 385 379 +~;
#X obj 236 749 outlet~;
#X obj 841 651 *~;
#X obj 841 675 clip~ -1 1;
#X floatatom 893 555 0 0 0 0 - - -;
#X obj 893 627 line~;
#X obj 893 603 pack 0 100;
#X obj 893 579 * 0.01;
#X text 937 531 <-- feedback (hundredths);
#X obj 529 240 line~;
#X floatatom 654 148 20 0 0 0 - - -;
#X obj 654 240 line~;
#X msg 529 212 \$1 100;
#X msg 654 212 \$1 100;
#X obj 529 92 r n_delayTimeL;
#X obj 654 92 r n_delayTimeR;
#X obj 529 122 * 500;
#X obj 654 122 * 500;
#X obj 529 292 vd~ \$0-l;
#X obj 664 699 delwrite~ \$0-l 1000;
#X obj 841 699 delwrite~ \$0-r 1000;
#X obj 806 125 loadbang;
#X obj 806 148 f \$0;
#X floatatom 806 173 5 0 0 0 - - -;
#X obj 423 -19 inlet;
#X obj 470 -18 r \$1;
#X obj 423 15 route /wet /ltime /rtime /lfb /rfb;
#X obj 110 174 hsl 80 15 0 1 0 0 empty empty ltime -2 -8 0 10 -262144
-1 -1 0 1;
#X obj 110 206 hsl 80 15 0 1 0 0 empty empty rtime -2 -8 0 10 -262144
-1 -1 0 1;
#X obj 110 239 hsl 80 15 0 1 0 0 empty empty lfb -2 -8 0 10 -262144
-1 -1 0 1;
#X obj 110 274 hsl 80 15 0 1 0 0 empty empty rfb -2 -8 0 10 -262144
-1 -1 0 1;
#X obj 96 404 cnv 15 75 25 empty empty empty 20 12 0 14 -262130 -66577
0;
#X text 101 408 [s3g 2014];
#X obj 110 139 hsl 80 15 0 1 0 0 empty empty wet -2 -8 0 10 -262144
-1 -1 0 1;
#X obj 133 697 *~;
#X obj 40 697 *~;
#X obj 40 727 +~;
#X obj 148 619 sin;
#X obj 55 619 cos;
#X obj 177 483 * 2;
#X obj 177 505 - 1;
#X obj 177 527 + 1;
#X obj 177 549 / 4;
#X obj 177 571 * 3.14159;
#X floatatom 177 593 5 0 0 0 - - -;
#X obj 148 668 line~;
#X obj 55 668 line~;
#X obj 148 641 pack f 60;
#X obj 55 641 pack f 60;
#X obj 329 697 *~;
#X obj 236 697 *~;
#X obj 236 727 +~;
#X obj 344 619 sin;
#X obj 251 619 cos;
#X obj 373 483 * 2;
#X obj 373 505 - 1;
#X obj 373 527 + 1;
#X obj 373 549 / 4;
#X obj 373 571 * 3.14159;
#X floatatom 373 593 5 0 0 0 - - -;
#X obj 344 668 line~;
#X obj 251 668 line~;
#X obj 344 641 pack f 60;
#X obj 251 641 pack f 60;
#X obj 654 292 vd~ \$0-r;
#X obj 685 529 * 96;
#X obj 893 532 * 96;
#X connect 0 0 24 0;
#X connect 1 0 4 0;
#X connect 2 0 6 1;
#X connect 3 0 2 0;
#X connect 4 0 3 0;
#X connect 5 0 6 0;
#X connect 5 0 46 0;
#X connect 6 0 8 0;
#X connect 8 0 31 0;
#X connect 9 0 5 0;
#X connect 9 0 47 0;
#X connect 11 0 12 0;
#X connect 11 0 62 0;
#X connect 12 0 14 0;
#X connect 12 0 61 0;
#X connect 14 0 15 0;
#X connect 15 0 32 0;
#X connect 16 0 19 0;
#X connect 17 0 14 1;
#X connect 18 0 17 0;
#X connect 19 0 18 0;
#X connect 21 0 30 0;
#X connect 22 0 25 0;
#X connect 23 0 76 0;
#X connect 24 0 21 0;
#X connect 25 0 23 0;
#X connect 26 0 28 0;
#X connect 27 0 29 0;
#X connect 28 0 0 0;
#X connect 29 0 22 0;
#X connect 30 0 5 1;
#X connect 33 0 34 0;
#X connect 34 0 35 0;
#X connect 36 0 38 0;
#X connect 37 0 38 0;
#X connect 38 0 45 0;
#X connect 38 1 39 0;
#X connect 38 2 40 0;
#X connect 38 3 41 0;
#X connect 38 4 42 0;
#X connect 39 0 28 0;
#X connect 40 0 29 0;
#X connect 41 0 77 0;
#X connect 42 0 78 0;
#X connect 45 0 51 0;
#X connect 45 0 66 0;
#X connect 46 0 48 1;
#X connect 47 0 48 0;
#X connect 48 0 10 0;
#X connect 49 0 59 0;
#X connect 50 0 60 0;
#X connect 51 0 52 0;
#X connect 52 0 53 0;
#X connect 53 0 54 0;
#X connect 54 0 55 0;
#X connect 55 0 56 0;
#X connect 56 0 49 0;
#X connect 56 0 50 0;
#X connect 57 0 46 1;
#X connect 58 0 47 1;
#X connect 59 0 57 0;
#X connect 60 0 58 0;
#X connect 61 0 63 1;
#X connect 62 0 63 0;
#X connect 63 0 13 0;
#X connect 64 0 74 0;
#X connect 65 0 75 0;
#X connect 66 0 67 0;
#X connect 67 0 68 0;
#X connect 68 0 69 0;
#X connect 69 0 70 0;
#X connect 70 0 71 0;
#X connect 71 0 64 0;
#X connect 71 0 65 0;
#X connect 72 0 61 1;
#X connect 73 0 62 1;
#X connect 74 0 72 0;
#X connect 75 0 73 0;
#X connect 76 0 12 1;
#X connect 77 0 1 0;
#X connect 78 0 16 0;
#X coords 0 -1 1 1 100 200 1 100 100;
