#N canvas 380 131 1350 976 10;
#X floatatom 43 72 5 0 0 0 - - -;
#X obj 43 45 ctlin 1;
#X obj 97 45 ctlin 33;
#X floatatom 97 72 5 0 0 0 - - -;
#X floatatom 43 176 5 0 0 0 - - -;
#X obj 43 104 << 7;
#X obj 43 140 |, f 14;
#X obj 43 199 / 16383;
#X floatatom 43 250 15 0 0 0 - - -;
#X obj 97 104 t b f;
#X floatatom 156 72 5 0 0 0 - - -;
#X floatatom 210 72 5 0 0 0 - - -;
#X floatatom 156 176 5 0 0 0 - - -;
#X obj 156 104 << 7;
#X obj 156 140 |, f 14;
#X obj 156 199 / 16383;
#X floatatom 156 250 15 0 0 0 - - -;
#X obj 210 104 t b f;
#X obj 156 45 ctlin 2;
#X obj 210 45 ctlin 34;
#X floatatom 268 72 5 0 0 0 - - -;
#X floatatom 322 72 5 0 0 0 - - -;
#X floatatom 268 176 5 0 0 0 - - -;
#X obj 268 104 << 7;
#X obj 268 140 |, f 14;
#X obj 268 199 / 16383;
#X floatatom 268 250 15 0 0 0 - - -;
#X obj 322 104 t b f;
#X floatatom 380 72 5 0 0 0 - - -;
#X floatatom 434 72 5 0 0 0 - - -;
#X floatatom 380 176 5 0 0 0 - - -;
#X obj 380 104 << 7;
#X obj 380 140 |, f 14;
#X obj 380 199 / 16383;
#X floatatom 380 250 15 0 0 0 - - -;
#X obj 434 104 t b f;
#X obj 268 45 ctlin 3;
#X obj 322 45 ctlin 35;
#X obj 380 45 ctlin 4;
#X obj 434 45 ctlin 36;
#X obj 164 601 dac~;
#X obj 823 217 adc~;
#X obj 507 328 bng 15 250 50 0 empty empty empty 17 7 0 10 -262144
-1 -1;
#X obj 43 336 vline~;
#X obj 506 245 receive fromGUI;
#X obj 506 273 list trim;
#X obj 43 280 * 88197;
#X obj 507 435 tabwrite~ vox1;
#X msg 534 401 \; vox1 normalize;
#X obj 43 365 tabread4~ vox1;
#X obj 507 360 t b b;
#X obj 506 300 route /rec1 /rec2 /rec3 /rec4;
#X obj 637 360 t b b;
#X obj 761 362 t b b;
#X obj 910 384 delay 2100;
#X obj 883 363 t b b;
#X obj 548 328 bng 15 250 50 0 empty empty empty 17 7 0 10 -262144
-1 -1;
#X obj 591 328 bng 15 250 50 0 empty empty empty 17 7 0 10 -262144
-1 -1;
#X obj 634 328 bng 15 250 50 0 empty empty empty 17 7 0 10 -262144
-1 -1;
#X obj 637 435 tabwrite~ vox2;
#X obj 761 437 tabwrite~ vox3;
#X obj 883 438 tabwrite~ vox4;
#X msg 664 401 \; vox2 normalize;
#X msg 910 404 \; vox4 normalize;
#X msg 788 403 \; vox3 normalize;
#X obj 43 393 *~ 0.6;
#X obj 156 336 vline~;
#X obj 156 280 * 88197;
#X obj 156 393 *~ 0.6;
#X obj 268 336 vline~;
#X obj 268 280 * 88197;
#X obj 268 393 *~ 0.6;
#X obj 380 336 vline~;
#X obj 380 280 * 88197;
#X obj 380 393 *~ 0.6;
#X obj 156 365 tabread4~ vox2;
#X obj 268 365 tabread4~ vox3;
#X obj 380 365 tabread4~ vox4;
#X msg 43 308 \$1 500;
#X msg 156 308 \$1 500;
#X msg 268 308 \$1 500;
#X msg 380 308 \$1 500;
#X obj 534 381 delay 2500;
#X obj 664 381 delay 2500;
#X obj 788 383 delay 2500;
#X obj 562 69 table vox1 88200;
#X obj 562 91 table vox2 88200;
#X obj 562 113 table vox3 88200;
#X obj 562 135 table vox4 88200;
#X connect 0 0 5 0;
#X connect 1 0 0 0;
#X connect 2 0 3 0;
#X connect 3 0 9 0;
#X connect 4 0 7 0;
#X connect 5 0 6 0;
#X connect 6 0 4 0;
#X connect 7 0 8 0;
#X connect 8 0 46 0;
#X connect 9 0 6 0;
#X connect 9 1 6 1;
#X connect 10 0 13 0;
#X connect 11 0 17 0;
#X connect 12 0 15 0;
#X connect 13 0 14 0;
#X connect 14 0 12 0;
#X connect 15 0 16 0;
#X connect 16 0 67 0;
#X connect 17 0 14 0;
#X connect 17 1 14 1;
#X connect 18 0 10 0;
#X connect 19 0 11 0;
#X connect 20 0 23 0;
#X connect 21 0 27 0;
#X connect 22 0 25 0;
#X connect 23 0 24 0;
#X connect 24 0 22 0;
#X connect 25 0 26 0;
#X connect 26 0 70 0;
#X connect 27 0 24 0;
#X connect 27 1 24 1;
#X connect 28 0 31 0;
#X connect 29 0 35 0;
#X connect 30 0 33 0;
#X connect 31 0 32 0;
#X connect 32 0 30 0;
#X connect 33 0 34 0;
#X connect 34 0 73 0;
#X connect 35 0 32 0;
#X connect 35 1 32 1;
#X connect 36 0 20 0;
#X connect 37 0 21 0;
#X connect 38 0 28 0;
#X connect 39 0 29 0;
#X connect 41 0 47 0;
#X connect 41 0 59 0;
#X connect 41 0 60 0;
#X connect 41 0 61 0;
#X connect 42 0 50 0;
#X connect 43 0 49 0;
#X connect 44 0 45 0;
#X connect 45 0 51 0;
#X connect 46 0 78 0;
#X connect 49 0 65 0;
#X connect 50 0 47 0;
#X connect 50 1 82 0;
#X connect 51 0 42 0;
#X connect 51 1 56 0;
#X connect 51 2 57 0;
#X connect 51 3 58 0;
#X connect 52 0 59 0;
#X connect 52 1 83 0;
#X connect 53 0 60 0;
#X connect 53 1 84 0;
#X connect 54 0 63 0;
#X connect 55 0 61 0;
#X connect 55 1 54 0;
#X connect 56 0 52 0;
#X connect 57 0 53 0;
#X connect 58 0 55 0;
#X connect 65 0 40 0;
#X connect 65 0 40 1;
#X connect 66 0 75 0;
#X connect 67 0 79 0;
#X connect 68 0 40 0;
#X connect 68 0 40 1;
#X connect 69 0 76 0;
#X connect 70 0 80 0;
#X connect 71 0 40 0;
#X connect 71 0 40 1;
#X connect 72 0 77 0;
#X connect 73 0 81 0;
#X connect 74 0 40 0;
#X connect 74 0 40 1;
#X connect 75 0 68 0;
#X connect 76 0 71 0;
#X connect 77 0 74 0;
#X connect 78 0 43 0;
#X connect 79 0 66 0;
#X connect 80 0 69 0;
#X connect 81 0 72 0;
#X connect 82 0 48 0;
#X connect 83 0 62 0;
#X connect 84 0 64 0;
