#N canvas 2 23 1284 849 10;
#X floatatom 475 -17 20 0 0 0 - - -;
#X floatatom 685 444 0 0 0 0 - - -;
#X obj 685 516 line~;
#X obj 685 492 pack 0 100;
#X obj 685 468 * 0.01;
#X obj 335 271 +~;
#X obj 664 542 *~;
#X text 734 445 <-- feedback (hundredths);
#X obj 664 566 clip~ -1 1;
#X obj 198 -113 inlet~;
#X obj 40 640 outlet~;
#X obj 475 42 line~;
#X msg 475 14 \$1 100;
#X obj 475 94 vd~ \$0-l;
#X obj 806 16 loadbang;
#X obj 806 39 f \$0;
#X floatatom 806 64 5 0 0 0 - - -;
#X obj 423 -125 r \$1;
#X obj 133 588 *~;
#X obj 40 588 *~;
#X obj 40 618 +~;
#X obj 148 510 sin;
#X obj 55 510 cos;
#X obj 177 419 * 2;
#X obj 177 440 / 4;
#X obj 177 462 * 3.14159;
#X floatatom 177 484 5 0 0 0 - - -;
#X obj 148 559 line~;
#X obj 55 559 line~;
#X obj 148 532 pack f 60;
#X obj 55 532 pack f 60;
#X obj 685 420 * 96;
#X obj 664 590 delwrite~ \$0-l 5000;
#X floatatom 685 398 5 0 0 0 - - -;
#X obj 455 -125 inlet;
#X floatatom 906 448 0 0 0 0 - - -;
#X obj 906 520 line~;
#X obj 906 496 pack 0 100;
#X obj 906 472 * 0.01;
#X obj 885 546 *~;
#X text 955 449 <-- feedback (hundredths);
#X obj 885 570 clip~ -1 1;
#X obj 906 424 * 96;
#X floatatom 906 402 5 0 0 0 - - -;
#X obj 885 594 delwrite~ \$0-r 5000;
#X obj 423 -94 route /wet /ltime /lfeedback /rtime /rfeedback;
#X floatatom 632 -20 20 0 0 0 - - -;
#X obj 632 39 line~;
#X msg 632 11 \$1 100;
#X obj 632 91 vd~ \$0-r;
#X obj 403 269 +~;
#X obj 247 -112 inlet~;
#X obj 287 633 outlet~;
#X obj 380 581 *~;
#X obj 287 581 *~;
#X obj 287 611 +~;
#X obj 395 503 sin;
#X obj 302 503 cos;
#X obj 424 412 * 2;
#X obj 424 433 / 4;
#X obj 424 455 * 3.14159;
#X floatatom 424 477 5 0 0 0 - - -;
#X obj 395 552 line~;
#X obj 302 552 line~;
#X obj 395 525 pack f 60;
#X obj 302 525 pack f 60;
#X floatatom 369 -21 5 0 0 0 - - -;
#X connect 0 0 12 0;
#X connect 1 0 4 0;
#X connect 2 0 6 1;
#X connect 3 0 2 0;
#X connect 4 0 3 0;
#X connect 5 0 6 0;
#X connect 5 0 18 0;
#X connect 6 0 8 0;
#X connect 8 0 32 0;
#X connect 9 0 5 0;
#X connect 9 0 19 0;
#X connect 11 0 13 0;
#X connect 12 0 11 0;
#X connect 13 0 5 1;
#X connect 14 0 15 0;
#X connect 15 0 16 0;
#X connect 17 0 45 0;
#X connect 18 0 20 1;
#X connect 19 0 20 0;
#X connect 20 0 10 0;
#X connect 21 0 29 0;
#X connect 22 0 30 0;
#X connect 23 0 24 0;
#X connect 24 0 25 0;
#X connect 25 0 26 0;
#X connect 26 0 21 0;
#X connect 26 0 22 0;
#X connect 27 0 18 1;
#X connect 28 0 19 1;
#X connect 29 0 27 0;
#X connect 30 0 28 0;
#X connect 31 0 1 0;
#X connect 33 0 31 0;
#X connect 34 0 45 0;
#X connect 35 0 38 0;
#X connect 36 0 39 1;
#X connect 37 0 36 0;
#X connect 38 0 37 0;
#X connect 39 0 41 0;
#X connect 41 0 44 0;
#X connect 42 0 35 0;
#X connect 43 0 42 0;
#X connect 45 0 66 0;
#X connect 45 1 0 0;
#X connect 45 2 33 0;
#X connect 45 3 46 0;
#X connect 45 4 43 0;
#X connect 46 0 48 0;
#X connect 47 0 49 0;
#X connect 48 0 47 0;
#X connect 49 0 50 1;
#X connect 50 0 39 0;
#X connect 50 0 53 0;
#X connect 51 0 50 0;
#X connect 51 0 54 0;
#X connect 53 0 55 1;
#X connect 54 0 55 0;
#X connect 55 0 52 0;
#X connect 56 0 64 0;
#X connect 57 0 65 0;
#X connect 58 0 59 0;
#X connect 59 0 60 0;
#X connect 60 0 61 0;
#X connect 61 0 56 0;
#X connect 61 0 57 0;
#X connect 62 0 53 1;
#X connect 63 0 54 1;
#X connect 64 0 62 0;
#X connect 65 0 63 0;
#X connect 66 0 23 0;
#X connect 66 0 58 0;
#X coords 0 849 1 848 130 100 0;
