#N canvas 73 23 1276 684 12;
#X msg 247 555 \; pd dsp \$1;
#X obj 247 507 tgl 30 0 empty empty empty 17 7 0 10 -262144 -1 -1 1
1;
#X obj 163 570 dac~;
#X obj 391 176 line~;
#X floatatom 391 101 5 0 0 0 - - -, f 5;
#X obj 391 134 pack f 200;
#N canvas 0 22 450 300 (subpatch) 0;
#X array array_rm 100 float 0;
#X coords 0 1 99 -1 200 140 1;
#X restore 454 455 graph;
#X obj 453 372 metro 100;
#X obj 453 335 tgl 30 0 empty empty empty 17 7 0 10 -262144 -1 -1 1
1;
#X text 493 336 <- graph;
#X obj 391 248 osc~;
#X msg 581 159 1;
#X msg 624 159 2;
#X msg 667 159 4;
#X msg 709 159 8;
#X msg 751 159 16;
#X msg 717 215 32;
#X msg 760 215 50;
#X msg 802 215 100;
#X msg 845 215 150;
#X msg 887 215 200;
#X msg 930 215 250;
#X msg 972 215 500;
#X floatatom 785 65 5 0 0 0 - - -, f 5;
#X obj 391 291 *~;
#X obj 456 247 line~;
#X msg 456 219 \$1 40;
#X text 162 99 ring modulation;
#X obj 164 339 *~;
#X obj 164 190 adc~;
#X floatatom 202 447 5 0 0 0 - - -, f 5;
#X obj 163 492 *~ 0.5;
#X obj 453 402 tabwrite~ array_rm;
#X text 109 126 PLUG IN HEADPHONES BEFORE TRYING \; risk of feedback!
;
#X obj 609 286 s mod_freq;
#X obj 391 55 r mod_freq;
#X obj 785 100 s mod_index;
#X obj 788 33 hsl 128 15 0 1 0 0 empty empty empty -2 -8 0 10 -262144
-1 -1 12700 1;
#X obj 456 191 r mod_index;
#X connect 1 0 0 0;
#X connect 3 0 10 0;
#X connect 4 0 5 0;
#X connect 5 0 3 0;
#X connect 7 0 32 0;
#X connect 8 0 7 0;
#X connect 10 0 24 0;
#X connect 11 0 34 0;
#X connect 12 0 34 0;
#X connect 13 0 34 0;
#X connect 14 0 34 0;
#X connect 15 0 34 0;
#X connect 16 0 34 0;
#X connect 17 0 34 0;
#X connect 18 0 34 0;
#X connect 19 0 34 0;
#X connect 20 0 34 0;
#X connect 21 0 34 0;
#X connect 22 0 34 0;
#X connect 23 0 36 0;
#X connect 24 0 28 1;
#X connect 25 0 24 1;
#X connect 26 0 25 0;
#X connect 28 0 31 0;
#X connect 28 0 32 0;
#X connect 29 0 28 0;
#X connect 30 0 31 1;
#X connect 31 0 2 0;
#X connect 31 0 2 1;
#X connect 35 0 4 0;
#X connect 37 0 23 0;
#X connect 38 0 26 0;
