#N canvas 371 139 1094 751 10;
#X obj 229 49 inlet;
#X text 225 24 trigger;
#X obj 229 132 sel 0;
#X obj 382 227 t b;
#X obj 563 501 line~;
#X msg 230 214 stop;
#X obj 563 538 outlet~;
#X obj 563 403 * 0.01, f 12;
#X text 576 173 attack;
#X text 672 173 decay;
#X text 782 173 sustain;
#X text 867 173 release;
#X text 327 143 attack;
#X obj 319 164 moses, f 11;
#X obj 319 194 t b b;
#X msg 346 359 0;
#X obj 563 428 * 1;
#X obj 383 337 f 1;
#X floatatom 579 150 5 0 0 0 - - -;
#X obj 383 359 pack 0 0;
#X obj 563 353 del 10;
#X floatatom 673 150 5 0 0 0 - - -;
#X obj 563 378 f 50, f 12;
#X floatatom 786 150 5 0 0 0 - - -;
#X obj 829 355 pack 0 0;
#X floatatom 870 150 5 0 0 0 - - -;
#X obj 563 452 pack 0 0, f 19;
#X obj 620 40 r \$1;
#X obj 578 40 inlet;
#X text 426 569 Arguments: level \, attack time \, decay time \, sustain
level \, release time. A \, D \, and R are in msec and S is in percent.
;
#X obj 578 73 route /attack /decay /sustain /release /on /off;
#X msg 137 75 1;
#X msg 137 98 0;
#X connect 0 0 2 0;
#X connect 2 0 5 0;
#X connect 2 0 24 0;
#X connect 2 1 13 0;
#X connect 3 0 17 0;
#X connect 3 0 20 0;
#X connect 4 0 6 0;
#X connect 5 0 20 0;
#X connect 7 0 16 0;
#X connect 13 0 14 0;
#X connect 13 1 3 0;
#X connect 14 0 3 0;
#X connect 14 1 15 0;
#X connect 15 0 4 0;
#X connect 16 0 26 0;
#X connect 17 0 19 0;
#X connect 18 0 19 1;
#X connect 18 0 20 1;
#X connect 19 0 4 0;
#X connect 20 0 22 0;
#X connect 21 0 26 1;
#X connect 22 0 7 0;
#X connect 23 0 22 1;
#X connect 24 0 4 0;
#X connect 25 0 24 1;
#X connect 26 0 4 0;
#X connect 27 0 30 0;
#X connect 28 0 30 0;
#X connect 30 0 18 0;
#X connect 30 1 21 0;
#X connect 30 2 23 0;
#X connect 30 3 25 0;
#X connect 30 4 31 0;
#X connect 30 5 32 0;
#X connect 31 0 2 0;
#X connect 32 0 2 0;
#X coords 0 751 1 750 130 130 0;
