#N canvas 431 356 947 469 10;
#X obj 75 67 openpanel;
#X msg 75 93 open \$1;
#X obj 75 44 bng 15 250 50 0 empty empty empty 17 7 0 10 -262144 -1
-1;
#X msg 139 93 1;
#X obj 20 229 dac~;
#X msg 126 285 \; pd dsp \$1;
#X obj 126 262 tgl 15 0 empty empty empty 17 7 0 10 -262144 -1 -1 1
1;
#X text 148 258 <- turn on sound;
#X msg 180 93 0;
#X obj 75 130 readsf~ 2;
#X obj 397 203 bng 15 250 50 0 empty empty empty 17 7 0 10 -262144
-1 -1;
#X text 235 31 Knowing how to play a sound file is essential. This
is the most basic way to play a sound file in Pd \, but it has some
problems. The readsf~ object only supports 1 play. The 1 message begins
the playback \, but once it reaches the end of the file the object
no longer has a record of what file it played. Therefore \, you must
open the file again prior to initiating playback. This might be fine
for in some circumstances \, but there are better solutions (as you'll
see in the next example).;
#X obj 20 179 *~ 0.5;
#X obj 71 179 *~ 0.5;
#X obj 32 129 print;
#X text 425 265 if you keep the file in a static location you can specify
the file path and use this to loop playback of the file;
#X obj 397 241 spigot;
#X obj 430 203 tgl 15 0 empty empty empty 17 7 0 10 -262144 -1 -1 0
1;
#X msg 428 298 open /Users/s3g/Desktop/sounds/freesound/209816__wikbeats__dance-beat-120.wav
\, 1;
#X connect 0 0 1 0;
#X connect 1 0 9 0;
#X connect 1 0 14 0;
#X connect 2 0 0 0;
#X connect 3 0 9 0;
#X connect 6 0 5 0;
#X connect 8 0 9 0;
#X connect 9 0 12 0;
#X connect 9 1 13 0;
#X connect 9 2 10 0;
#X connect 10 0 16 0;
#X connect 12 0 4 0;
#X connect 13 0 4 1;
#X connect 16 0 18 0;
#X connect 17 0 16 1;
#X connect 18 0 9 0;
