#N canvas 156 23 960 684 10;
#X obj 209 58 openpanel;
#X msg 209 84 open \$1;
#X obj 209 35 bng 15 250 50 0 empty empty empty 17 7 0 10 -262144 -1
-1;
#X obj 457 649 dac~;
#X msg 318 555 \; pd dsp \$1;
#X obj 318 532 tgl 15 0 empty empty empty 17 7 0 10 -262144 -1 -1 0
1;
#X text 340 528 <- turn on sound;
#X obj 209 166 soundfiler;
#N canvas 0 22 450 300 (subpatch) 0;
#X array soundbuffer1 352806 float 2;
#X coords 0 1 352806 -1 200 140 1;
#X restore 717 366 graph;
#X obj 457 585 *~ 0.7;
#X floatatom 490 558 5 0 1 0 - - -, f 5;
#X obj 209 391 line~;
#X text 288 56 < allows us to find a file;
#X text 288 80 < \$1 variable is replaced with file path;
#X text 288 32 < bang to open file;
#X text 428 105 < this message tells soundfiler to resize the array
to the size of the sound file and put in an array called "soundbuffer"
;
#X text 298 165 < soundfiler does the work of filling an array with
a sound file's values;
#X obj 113 130 print open:;
#X obj 113 212 print samples:;
#X msg 45 290 0;
#X msg 209 355 352806 8000.14;
#X text 83 288 1) set to beginning;
#X text 310 351 2) last point in array \; and milliseconds to get there.
;
#X msg 209 118 read -resize \$1 soundbuffer1;
#X obj 457 479 tabread4~ soundbuffer1;
#N canvas 538 246 658 444 sampleConversion 0;
#X obj 274 16 inlet;
#X floatatom 274 56 10 0 0 1 number_of_samples - -, f 10;
#X obj 153 159 / 44.1;
#X floatatom 153 191 10 0 0 1 milliseconds - -, f 10;
#X text 207 156 < sampling rate (by default 44.1 KHz);
#X obj 132 263 pack f f;
#X obj 153 222 t b f;
#X obj 43 202 f;
#X obj 31 120 t f f;
#X text 83 116 < using trigger to make sure order of events happens
correctly;
#X text 202 220 < using trigger to make sure order of events happens
correctly;
#X text 204 264 < pack to format message;
#X obj 87 320 outlet;
#X obj 515 331 outlet;
#X connect 0 0 1 0;
#X connect 1 0 8 0;
#X connect 1 0 13 0;
#X connect 2 0 3 0;
#X connect 3 0 6 0;
#X connect 5 0 12 0;
#X connect 6 0 7 0;
#X connect 6 1 5 1;
#X connect 7 0 5 0;
#X connect 8 0 2 0;
#X connect 8 1 7 1;
#X restore 209 247 pd sampleConversion;
#X msg 209 315 set \$1 \$2;
#X connect 0 0 1 0;
#X connect 1 0 23 0;
#X connect 1 0 17 0;
#X connect 2 0 0 0;
#X connect 5 0 4 0;
#X connect 7 0 18 0;
#X connect 7 0 25 0;
#X connect 9 0 3 0;
#X connect 9 0 3 1;
#X connect 10 0 9 1;
#X connect 11 0 24 0;
#X connect 19 0 11 0;
#X connect 20 0 11 0;
#X connect 23 0 7 0;
#X connect 24 0 9 0;
#X connect 25 0 26 0;
#X connect 26 0 20 0;
