#N canvas 748 396 735 308 10;
#X obj 77 142 ps.!- 1;
#X obj 232 27 cnv 15 300 25 empty empty empty 20 12 0 14 -262130 -66577
0;
#X text 251 32 [ps.!-] subtraction with operand reversed;
#X obj 77 115 tgl 15 0 empty empty empty 17 7 0 10 -262144 -1 -1 1
1;
#X obj 77 170 tgl 15 0 empty empty empty 17 7 0 10 -262144 -1 -1 0
1;
#X obj 140 142 ps.!- 1;
#X floatatom 140 118 5 0 0 0 - - -;
#X floatatom 140 171 5 0 0 0 - - -;
#X obj 143 92 hsl 128 15 0 1 0 0 empty empty empty -2 -8 0 10 -262144
-1 -1 3500 1;
#X obj 143 193 hsl 128 15 0 1 0 0 empty empty empty -2 -8 0 10 -262144
-1 -1 9200 1;
#X connect 0 0 4 0;
#X connect 3 0 0 0;
#X connect 5 0 7 0;
#X connect 6 0 5 0;
#X connect 7 0 9 0;
#X connect 8 0 6 0;
