#N canvas 272 105 1680 776 12;
#X floatatom 1134 521 5 0 0 0 - - -;
#X floatatom 1093 521 5 0 0 0 - - -;
#X msg 347 125 0;
#X msg 274 152 \; pd dsp \$1;
#X obj 33 90 tgl 20 0 empty empty 10_main 23 7 0 10 -262144 -1 -1 0
1;
#X obj 117 90 tgl 20 0 empty empty 2_subs 23 7 0 10 -262144 -1 -1 0
1;
#X obj 347 70 bng 40 250 50 0 empty empty panic 42 7 0 10 -258113 -262144
-258113;
#X obj 278 70 tgl 40 0 empty empty dsp 42 7 0 10 -262144 -1 -1 0 1
;
#N canvas 0 82 1900 758 clip_filter_trim_10_speakers 0;
#X obj 47 373 clip~ -1 1;
#X obj 47 317 *~ 0.1;
#X obj 47 287 *~;
#X obj 47 256 inlet~;
#X obj 47 410 outlet~;
#X obj 126 373 clip~ -1 1;
#X obj 126 317 *~ 0.1;
#X obj 126 287 *~;
#X obj 126 256 inlet~;
#X obj 126 410 outlet~;
#X obj 204 373 clip~ -1 1;
#X obj 204 317 *~ 0.1;
#X obj 204 287 *~;
#X obj 204 256 inlet~;
#X obj 204 410 outlet~;
#X obj 283 373 clip~ -1 1;
#X obj 283 317 *~ 0.1;
#X obj 283 287 *~;
#X obj 283 256 inlet~;
#X obj 283 410 outlet~;
#X obj 361 373 clip~ -1 1;
#X obj 361 317 *~ 0.1;
#X obj 361 287 *~;
#X obj 361 256 inlet~;
#X obj 361 410 outlet~;
#X obj 440 373 clip~ -1 1;
#X obj 440 317 *~ 0.1;
#X obj 440 287 *~;
#X obj 440 256 inlet~;
#X obj 440 410 outlet~;
#X obj 518 373 clip~ -1 1;
#X obj 518 317 *~ 0.1;
#X obj 518 287 *~;
#X obj 518 256 inlet~;
#X obj 518 410 outlet~;
#X obj 597 373 clip~ -1 1;
#X obj 597 317 *~ 0.1;
#X obj 597 287 *~;
#X obj 597 256 inlet~;
#X obj 597 410 outlet~;
#X obj 675 373 clip~ -1 1;
#X obj 675 317 *~ 0.1;
#X obj 675 287 *~;
#X obj 675 256 inlet~;
#X obj 675 410 outlet~;
#X obj 754 373 clip~ -1 1;
#X obj 754 317 *~ 0.1;
#X obj 754 287 *~;
#X obj 754 256 inlet~;
#X obj 754 410 outlet~;
#X obj 526 160 line~;
#X obj 830 257 inlet;
#X obj 526 134 pack 0 50;
#X obj 47 343 hip~ 30;
#X obj 126 343 hip~ 30;
#X obj 204 343 hip~ 30;
#X obj 283 343 hip~ 30;
#X obj 361 343 hip~ 30;
#X obj 440 343 hip~ 30;
#X obj 518 343 hip~ 30;
#X obj 597 343 hip~ 30;
#X obj 675 343 hip~ 30;
#X obj 754 343 hip~ 30;
#X connect 0 0 4 0;
#X connect 1 0 53 0;
#X connect 2 0 1 0;
#X connect 3 0 2 0;
#X connect 5 0 9 0;
#X connect 6 0 54 0;
#X connect 7 0 6 0;
#X connect 8 0 7 0;
#X connect 10 0 14 0;
#X connect 11 0 55 0;
#X connect 12 0 11 0;
#X connect 13 0 12 0;
#X connect 15 0 19 0;
#X connect 16 0 56 0;
#X connect 17 0 16 0;
#X connect 18 0 17 0;
#X connect 20 0 24 0;
#X connect 21 0 57 0;
#X connect 22 0 21 0;
#X connect 23 0 22 0;
#X connect 25 0 29 0;
#X connect 26 0 58 0;
#X connect 27 0 26 0;
#X connect 28 0 27 0;
#X connect 30 0 34 0;
#X connect 31 0 59 0;
#X connect 32 0 31 0;
#X connect 33 0 32 0;
#X connect 35 0 39 0;
#X connect 36 0 60 0;
#X connect 37 0 36 0;
#X connect 38 0 37 0;
#X connect 40 0 44 0;
#X connect 41 0 61 0;
#X connect 42 0 41 0;
#X connect 43 0 42 0;
#X connect 45 0 49 0;
#X connect 46 0 62 0;
#X connect 47 0 46 0;
#X connect 48 0 47 0;
#X connect 50 0 2 1;
#X connect 50 0 7 1;
#X connect 50 0 12 1;
#X connect 50 0 22 1;
#X connect 50 0 17 1;
#X connect 50 0 27 1;
#X connect 50 0 32 1;
#X connect 50 0 37 1;
#X connect 50 0 42 1;
#X connect 50 0 47 1;
#X connect 51 0 52 0;
#X connect 52 0 50 0;
#X connect 53 0 0 0;
#X connect 54 0 5 0;
#X connect 55 0 10 0;
#X connect 56 0 15 0;
#X connect 57 0 20 0;
#X connect 58 0 25 0;
#X connect 59 0 30 0;
#X connect 60 0 35 0;
#X connect 61 0 40 0;
#X connect 62 0 45 0;
#X restore 148 553 pd clip_filter_trim_10_speakers;
#X f 105;
#N canvas 712 93 707 552 clip_dcoffset_trim_2_subs 0;
#X obj 47 404 clip~ -1 1;
#X obj 47 317 *~ 0.1;
#X obj 47 287 *~;
#X obj 47 213 inlet~;
#X obj 47 441 outlet~;
#X obj 126 404 clip~ -1 1;
#X obj 126 317 *~ 0.1;
#X obj 126 287 *~;
#X obj 126 213 inlet~;
#X obj 126 441 outlet~;
#X obj 535 244 line~;
#X obj 535 186 inlet;
#X obj 535 215 pack 0 50;
#X obj 47 347 lop~ 100;
#X obj 126 347 lop~ 100;
#X obj 47 374 hip~ 20;
#X obj 126 374 hip~ 20;
#X connect 0 0 4 0;
#X connect 1 0 13 0;
#X connect 2 0 1 0;
#X connect 3 0 2 0;
#X connect 5 0 9 0;
#X connect 6 0 14 0;
#X connect 7 0 6 0;
#X connect 8 0 7 0;
#X connect 10 0 7 1;
#X connect 10 0 2 1;
#X connect 11 0 12 0;
#X connect 12 0 10 0;
#X connect 13 0 15 0;
#X connect 14 0 16 0;
#X connect 15 0 0 0;
#X connect 16 0 5 0;
#X restore 941 553 pd clip_dcoffset_trim_2_subs;
#X obj 190 295 inlet~;
#X obj 240 295 inlet~;
#X obj 290 295 inlet~;
#X obj 340 295 inlet~;
#X obj 390 295 inlet~;
#X obj 440 295 inlet~;
#X obj 490 295 inlet~;
#X obj 540 295 inlet~;
#X obj 590 295 inlet~;
#X obj 640 295 inlet~;
#X obj 690 295 inlet~;
#X obj 740 295 inlet~;
#X obj 190 417 *~;
#X obj 240 417 *~;
#X obj 290 417 *~;
#X obj 341 417 *~;
#X obj 391 417 *~;
#X obj 441 417 *~;
#X obj 491 417 *~;
#X obj 541 417 *~;
#X obj 590 417 *~;
#X obj 640 417 *~;
#X obj 690 417 *~;
#X obj 741 417 *~;
#X obj 581 161 line~, f 10;
#X obj 580 92 pack f 100;
#X obj 905 294 inlet;
#X obj 952 294 r \$1;
#X obj 33 43 hsl 200 20 0 1 0 0 empty empty gain 204 10 0 10 -262144
-1 -1 0 1;
#X obj 142 698 dac~ 1 2 3 4 5 7 8 9 10 11 26 28, f 130;
#X obj 907 345 route /gain /ramp /main /subs;
#X connect 0 0 9 2;
#X connect 1 0 8 10;
#X connect 2 0 4 0;
#X connect 2 0 5 0;
#X connect 2 0 38 0;
#X connect 4 0 1 0;
#X connect 5 0 0 0;
#X connect 6 0 2 0;
#X connect 7 0 3 0;
#X connect 8 0 39 9;
#X connect 8 1 39 0;
#X connect 8 2 39 1;
#X connect 8 3 39 2;
#X connect 8 4 39 3;
#X connect 8 5 39 4;
#X connect 8 6 39 5;
#X connect 8 7 39 6;
#X connect 8 8 39 7;
#X connect 8 9 39 8;
#X connect 9 0 39 10;
#X connect 9 1 39 11;
#X connect 10 0 22 0;
#X connect 11 0 23 0;
#X connect 12 0 24 0;
#X connect 13 0 25 0;
#X connect 14 0 26 0;
#X connect 15 0 27 0;
#X connect 16 0 28 0;
#X connect 17 0 29 0;
#X connect 18 0 30 0;
#X connect 19 0 31 0;
#X connect 20 0 32 0;
#X connect 21 0 33 0;
#X connect 22 0 8 0;
#X connect 23 0 8 1;
#X connect 24 0 8 2;
#X connect 25 0 8 3;
#X connect 26 0 8 4;
#X connect 27 0 8 5;
#X connect 28 0 8 6;
#X connect 29 0 8 7;
#X connect 30 0 8 8;
#X connect 31 0 8 9;
#X connect 32 0 9 0;
#X connect 33 0 9 1;
#X connect 34 0 33 1;
#X connect 34 0 32 1;
#X connect 34 0 31 1;
#X connect 34 0 30 1;
#X connect 34 0 29 1;
#X connect 34 0 28 1;
#X connect 34 0 27 1;
#X connect 34 0 26 1;
#X connect 34 0 25 1;
#X connect 34 0 24 1;
#X connect 34 0 23 1;
#X connect 34 0 22 1;
#X connect 35 0 34 0;
#X connect 36 0 40 0;
#X connect 37 0 40 0;
#X connect 38 0 35 0;
#X connect 40 0 38 0;
#X connect 40 1 35 1;
#X connect 40 2 4 0;
#X connect 40 3 5 0;
#X coords 0 -1 1 1 400 100 1 20 20;
