#N canvas 292 65 586 534 10;
#X obj 253 66 inlet~;
#X obj 439 22 inlet;
#X obj 439 115 sig~;
#X obj 439 138 lop~ 1;
#X obj 439 161 *~ 0.25;
#X obj 439 184 -~ 0.25;
#X obj 439 207 cos~;
#X obj 297 237 -~ 0.25;
#X obj 297 259 cos~;
#X obj 253 308 *~;
#X obj 424 308 *~;
#X obj 253 388 outlet~;
#X obj 424 388 outlet~;
#X text 89 431 Cos-sin law panner \, reference: Andy Farnell's Designing
Sound \, p. 222;
#X obj 439 68 route /pan;
#X obj 479 22 r \$1;
#X obj 111 126 hsl 80 15 0 1 0 0 empty empty empty -2 -8 0 10 -262144
-1 -1 0 1;
#X obj 108 28 loadbang;
#X msg 108 62 0.5;
#X connect 0 0 9 0;
#X connect 0 0 10 0;
#X connect 1 0 14 0;
#X connect 2 0 3 0;
#X connect 3 0 4 0;
#X connect 4 0 5 0;
#X connect 5 0 6 0;
#X connect 5 0 7 0;
#X connect 6 0 10 1;
#X connect 7 0 8 0;
#X connect 8 0 9 1;
#X connect 9 0 11 0;
#X connect 10 0 12 0;
#X connect 14 0 16 0;
#X connect 15 0 14 0;
#X connect 16 0 2 0;
#X connect 17 0 18 0;
#X connect 18 0 16 0;
#X coords 0 -1 1 1 100 50 1 100 100;
