#N canvas 207 23 1676 992 10;
#X obj 1060 222 metro 125;
#X obj 1060 180 tgl 15 0 empty empty empty 17 7 0 10 -262144 -1 -1
1 1;
#X obj 1060 254 int;
#X obj 1162 235 + 1;
#X floatatom 1111 193 5 0 0 0 - - -, f 5;
#X obj 1162 260 % 16;
#X obj 1111 169 expr 1000/($f1/60);
#X floatatom 1111 136 5 0 0 0 - - -, f 5;
#X msg 1022 104 400;
#X msg 1052 104 430;
#X msg 1082 104 460;
#X msg 1111 104 490;
#X msg 1141 104 540;
#X msg 1172 104 580;
#X floatatom 1227 146 5 0 0 0 - - -, f 5;
#X obj 1227 125 / 2;
#X obj 36 533 s sw1;
#X obj 76 533 s sw2;
#X obj 117 533 s sw3;
#X obj 157 533 s sw4;
#X obj 197 534 s sw5;
#X obj 238 534 s sw6;
#X obj 1060 351 int;
#X floatatom 1060 376 5 0 0 0 - - -, f 5;
#X obj 1060 281 tabread drums;
#X obj 1060 399 select 1 2 3 4 5 6;
#X obj 1060 304 * 5;
#X obj 1060 327 + 1;
#X obj 1060 453 s dr1;
#X obj 1097 453 s dr2;
#X obj 1136 453 s dr3;
#X obj 1175 453 s dr4;
#X obj 1214 453 s dr5;
#X obj 1253 453 s dr6;
#N canvas 252 610 759 412 routing___________________________ 0;
#X obj 103 65 r sw1;
#X obj 57 65 inlet;
#X obj 57 150 spigot;
#X obj 57 248 outlet;
#X obj 143 65 inlet;
#X obj 143 150 spigot;
#X obj 143 248 outlet;
#X obj 229 65 inlet;
#X obj 229 150 spigot;
#X obj 229 248 outlet;
#X obj 315 65 inlet;
#X obj 315 150 spigot;
#X obj 315 248 outlet;
#X obj 400 66 inlet;
#X obj 400 151 spigot;
#X obj 400 249 outlet;
#X obj 486 66 inlet;
#X obj 486 151 spigot;
#X obj 486 249 outlet;
#X obj 189 65 r sw2;
#X obj 275 65 r sw3;
#X obj 361 65 r sw4;
#X obj 446 66 r sw5;
#X obj 532 66 r sw6;
#X connect 0 0 2 1;
#X connect 1 0 2 0;
#X connect 2 0 3 0;
#X connect 4 0 5 0;
#X connect 5 0 6 0;
#X connect 7 0 8 0;
#X connect 8 0 9 0;
#X connect 10 0 11 0;
#X connect 11 0 12 0;
#X connect 13 0 14 0;
#X connect 14 0 15 0;
#X connect 16 0 17 0;
#X connect 17 0 18 0;
#X connect 19 0 5 1;
#X connect 20 0 8 1;
#X connect 21 0 11 1;
#X connect 22 0 14 1;
#X connect 23 0 17 1;
#X restore 336 -106 pd routing___________________________;
#X obj 336 -137 r dr1;
#X obj 379 -137 r dr2;
#X obj 423 -137 r dr3;
#X obj 467 -137 r dr4;
#X obj 511 -137 r dr5;
#X obj 555 -137 r dr6;
#N canvas 225 558 554 307 signalrouting___________________________
0;
#X obj 57 65 inlet~;
#X obj 147 65 inlet~;
#X obj 237 65 inlet~;
#X obj 57 184 +~;
#X obj 57 248 outlet~;
#X obj 328 64 inlet~;
#X obj 418 64 inlet~;
#X obj 508 64 inlet~;
#X connect 0 0 3 0;
#X connect 1 0 3 0;
#X connect 2 0 3 0;
#X connect 3 0 4 0;
#X connect 5 0 3 1;
#X connect 6 0 3 1;
#X connect 7 0 3 1;
#X restore 387 49 pd signalrouting___________________________;
#X msg -132 197 \; f1 /speed \$1;
#X msg 324 197 \; f6 /speed \$1;
#X obj 336 -57 t b b;
#X obj 491 -57 t b b;
#X obj 646 -57 t b b;
#X obj 801 -57 t b b;
#X obj 957 -57 t b b;
#X obj 1112 -57 t b b;
#X obj 331 591 clip~ -1 1;
#X obj 331 561 hip~ 1;
#X obj 331 637 dac~;
#X obj 36 475 tgl 15 0 empty empty empty 17 7 0 10 -262144 -1 -1 0
1;
#X obj 76 475 tgl 15 0 empty empty empty 17 7 0 10 -262144 -1 -1 0
1;
#X obj 117 475 tgl 15 0 empty empty empty 17 7 0 10 -262144 -1 -1 0
1;
#X obj 157 475 tgl 15 0 empty empty empty 17 7 0 10 -262144 -1 -1 0
1;
#X obj 197 475 tgl 15 0 empty empty empty 17 7 0 10 -262144 -1 -1 0
1;
#X obj 238 475 tgl 15 0 empty empty empty 17 7 0 10 -262144 -1 -1 0
1;
#X floatatom -132 159 5 0 0 0 - - -, f 5;
#X floatatom -46 159 5 0 0 0 - - -, f 5;
#X floatatom 43 159 5 0 0 0 - - -, f 5;
#X floatatom 131 159 5 0 0 0 - - -, f 5;
#X floatatom 225 159 5 0 0 0 - - -, f 5;
#X floatatom 324 159 5 0 0 0 - - -, f 5;
#X msg -46 197 \; f2 /speed \$1;
#X msg 43 197 \; f3 /speed \$1;
#X msg 131 197 \; f4 /speed \$1;
#X msg 225 197 \; f5 /speed \$1;
#X obj 599 99 loadbang;
#X msg 505 210 \; f1 /read ./dm_cymbal1.wav \; f2 /read ./dm_woodblock.wav
\; f3 /read ./dm_shimehi.wav \; f4 /read ./dm_shimemute.wav \; f5 /read
./dm_taiko.wav \; f6 /read ./dm_tsuzumi.wav;
#X obj 491 -6 dm_sampleplay~ f2;
#X obj 336 -6 dm_sampleplay~ f1;
#X obj 646 -6 dm_sampleplay~ f3;
#X obj 801 -6 dm_sampleplay~ f4;
#X obj 957 -6 dm_sampleplay~ f5;
#X obj 1112 -6 dm_sampleplay~ f6;
#X obj -93 -124 list split 1;
#X obj -5 -125 t l;
#X obj -93 -152 t l l;
#X obj -51 -99 list length;
#X obj -67 -49 - 1;
#X obj -67 -74 int;
#X obj -93 -98 t f b;
#X obj -91 -13 tabwrite drums;
#X obj -91 14 table drums 16;
#X obj -155 -233 receive fromGUI;
#X obj -155 -205 list trim;
#X obj -111 65 unpack f f f f f f;
#X obj 893 90 * 600;
#X obj 892 127 + 100;
#X obj -132 135 + 0.1;
#X obj -46 135 + 0.1;
#X obj 45 135 + 0.1;
#X obj 131 135 + 0.1;
#X obj 225 135 + 0.1;
#X obj 324 135 + 0.1;
#X obj -132 106 * 1;
#X obj -46 106 * 1;
#X obj 45 106 * 1;
#X obj 131 106 * 1;
#X obj 225 106 * 1;
#X obj 324 106 * 1;
#X obj 38 367 route 0 1 2 3 4 5;
#X obj 38 329 route 0;
#X obj 323 327 dm_sdelay~ sdd;
#X obj 409 592 clip~ -1 1;
#X obj 409 562 hip~ 1;
#X obj 595 396 unpack f f;
#X obj 668 397 unpack f f;
#X floatatom 592 427 5 0 0 0 - - -, f 5;
#X floatatom 652 427 5 0 0 0 - - -, f 5;
#X floatatom 694 427 5 0 0 0 - - -, f 5;
#X floatatom 736 427 5 0 0 0 - - -, f 5;
#X msg 591 463 /ltime \$1;
#X msg 663 463 /lfb \$1;
#X msg 731 462 /rtime \$1;
#X msg 803 462 /rfb \$1;
#X obj -154 -180 route /speed /pattern /tempo /switches /xy1 /xy2 /wet
;
#X msg 486 448 /wet \$1;
#X obj 698 211 t b;
#X msg 698 240 1;
#X connect 0 0 2 0;
#X connect 1 0 0 0;
#X connect 2 0 3 0;
#X connect 2 0 24 0;
#X connect 3 0 5 0;
#X connect 4 0 0 1;
#X connect 5 0 2 1;
#X connect 6 0 4 0;
#X connect 7 0 6 0;
#X connect 7 0 15 0;
#X connect 8 0 7 0;
#X connect 9 0 7 0;
#X connect 10 0 7 0;
#X connect 11 0 7 0;
#X connect 12 0 7 0;
#X connect 13 0 7 0;
#X connect 15 0 14 0;
#X connect 22 0 23 0;
#X connect 23 0 25 0;
#X connect 24 0 26 0;
#X connect 25 0 28 0;
#X connect 25 1 29 0;
#X connect 25 2 30 0;
#X connect 25 3 31 0;
#X connect 25 4 32 0;
#X connect 25 5 33 0;
#X connect 26 0 27 0;
#X connect 27 0 22 0;
#X connect 34 0 44 0;
#X connect 34 1 45 0;
#X connect 34 2 46 0;
#X connect 34 3 47 0;
#X connect 34 4 48 0;
#X connect 34 5 49 0;
#X connect 35 0 34 0;
#X connect 36 0 34 1;
#X connect 37 0 34 2;
#X connect 38 0 34 3;
#X connect 39 0 34 4;
#X connect 40 0 34 5;
#X connect 41 0 105 0;
#X connect 41 0 105 1;
#X connect 44 0 72 0;
#X connect 45 0 71 0;
#X connect 46 0 73 0;
#X connect 47 0 74 0;
#X connect 48 0 75 0;
#X connect 49 0 76 0;
#X connect 50 0 52 0;
#X connect 51 0 50 0;
#X connect 53 0 16 0;
#X connect 54 0 17 0;
#X connect 55 0 18 0;
#X connect 56 0 19 0;
#X connect 57 0 20 0;
#X connect 58 0 21 0;
#X connect 59 0 42 0;
#X connect 60 0 65 0;
#X connect 61 0 66 0;
#X connect 62 0 67 0;
#X connect 63 0 68 0;
#X connect 64 0 43 0;
#X connect 69 0 70 0;
#X connect 69 0 120 0;
#X connect 71 0 41 1;
#X connect 72 0 41 0;
#X connect 73 0 41 2;
#X connect 74 0 41 3;
#X connect 75 0 41 4;
#X connect 76 0 41 5;
#X connect 77 0 83 0;
#X connect 77 1 78 0;
#X connect 78 0 77 0;
#X connect 79 0 77 0;
#X connect 79 1 80 0;
#X connect 80 0 82 1;
#X connect 81 0 82 1;
#X connect 81 0 84 1;
#X connect 82 0 81 0;
#X connect 83 0 84 0;
#X connect 83 1 82 0;
#X connect 86 0 87 0;
#X connect 87 0 118 0;
#X connect 88 0 97 0;
#X connect 88 1 98 0;
#X connect 88 2 99 0;
#X connect 88 3 100 0;
#X connect 88 4 101 0;
#X connect 88 5 102 0;
#X connect 89 0 90 0;
#X connect 90 0 7 0;
#X connect 91 0 59 0;
#X connect 92 0 60 0;
#X connect 93 0 61 0;
#X connect 94 0 62 0;
#X connect 95 0 63 0;
#X connect 96 0 64 0;
#X connect 97 0 91 0;
#X connect 98 0 92 0;
#X connect 99 0 93 0;
#X connect 100 0 94 0;
#X connect 101 0 95 0;
#X connect 102 0 96 0;
#X connect 103 0 58 0;
#X connect 103 1 57 0;
#X connect 103 2 56 0;
#X connect 103 3 55 0;
#X connect 103 4 54 0;
#X connect 103 5 53 0;
#X connect 104 0 103 0;
#X connect 105 0 51 0;
#X connect 105 1 107 0;
#X connect 106 0 52 1;
#X connect 107 0 106 0;
#X connect 108 0 110 0;
#X connect 108 1 111 0;
#X connect 109 0 112 0;
#X connect 109 1 113 0;
#X connect 110 0 114 0;
#X connect 111 0 115 0;
#X connect 112 0 116 0;
#X connect 113 0 117 0;
#X connect 114 0 105 2;
#X connect 115 0 105 2;
#X connect 116 0 105 2;
#X connect 117 0 105 2;
#X connect 118 0 88 0;
#X connect 118 1 79 0;
#X connect 118 2 89 0;
#X connect 118 3 104 0;
#X connect 118 4 108 0;
#X connect 118 5 109 0;
#X connect 118 6 119 0;
#X connect 119 0 105 2;
#X connect 120 0 121 0;
#X connect 121 0 1 0;
