#N canvas 547 195 830 532 10;
#X obj 158 57 noise~;
#X obj 158 212 dac~;
#N canvas 0 22 450 300 (subpatch) 0;
#X array spectrum4 128 float 0;
#X coords 0 500 128 0 256 130 1 0 0;
#X restore 448 69 graph;
#N canvas 204 22 358 238 fft 0;
#X obj 46 48 inlet~;
#X obj 159 145 inlet;
#X obj 46 78 rfft~;
#X obj 46 111 *~;
#X obj 77 111 *~;
#X obj 46 141 sqrt~;
#X obj 191 45 block~ 1024 1;
#X obj 159 181 tabwrite~ spectrum4;
#X connect 0 0 2 0;
#X connect 1 0 7 0;
#X connect 2 0 3 0;
#X connect 2 0 3 1;
#X connect 2 1 4 0;
#X connect 2 1 4 1;
#X connect 3 0 5 0;
#X connect 4 0 5 0;
#X connect 5 0 7 0;
#X restore 263 220 pd fft;
#X obj 324 114 tgl 30 0 empty empty empty 17 7 0 10 -262144 -1 -1 0
1;
#X obj 324 159 metro 50;
#X obj 263 195 *~ 8;
#X obj 264 296 pink~;
#N canvas 204 22 358 238 fft 0;
#X obj 46 48 inlet~;
#X obj 159 145 inlet;
#X obj 46 78 rfft~;
#X obj 46 111 *~;
#X obj 77 111 *~;
#X obj 46 141 sqrt~;
#X obj 191 45 block~ 1024 1;
#X obj 159 181 tabwrite~ spectrum44;
#X connect 0 0 2 0;
#X connect 1 0 7 0;
#X connect 2 0 3 0;
#X connect 2 0 3 1;
#X connect 2 1 4 0;
#X connect 2 1 4 1;
#X connect 3 0 5 0;
#X connect 4 0 5 0;
#X connect 5 0 7 0;
#X restore 264 371 pd fft;
#X obj 264 346 *~ 8;
#N canvas 0 22 450 300 (subpatch) 0;
#X array spectrum44 128 float 0;
#X coords 0 500 128 0 256 130 1 0 0;
#X restore 444 225 graph;
#X text 218 401 pink noise is perceptually even across all frequencies
for human hearing;
#X obj 158 131 *~ 0.25;
#X connect 0 0 6 0;
#X connect 0 0 12 0;
#X connect 4 0 5 0;
#X connect 5 0 3 1;
#X connect 5 0 8 1;
#X connect 6 0 3 0;
#X connect 7 0 9 0;
#X connect 9 0 8 0;
#X connect 12 0 1 0;
#X connect 12 0 1 1;
