#N canvas 320 23 960 684 10;
#X obj 210 366 dac~;
#X obj 210 330 *~ 0.5;
#X obj 210 44 noise~;
#X floatatom 311 64 5 0 0 1 center_frequency - -, f 5;
#X msg 132 347 \; pd dsp \$1;
#X obj 132 299 tgl 30 0 empty empty empty 17 7 0 10 -262144 -1 -1 0
1;
#N canvas 0 22 450 300 (subpatch) 0;
#X array spectrum5 128 float 0;
#X coords 0 500 128 0 256 130 1;
#X restore 619 74 graph;
#N canvas 204 22 358 238 fft 0;
#X obj 46 48 inlet~;
#X obj 159 145 inlet;
#X obj 46 78 rfft~;
#X obj 46 111 *~;
#X obj 77 111 *~;
#X obj 46 141 sqrt~;
#X obj 191 45 block~ 1024 1;
#X obj 159 181 tabwrite~ spectrum5;
#X connect 0 0 2 0;
#X connect 1 0 7 0;
#X connect 2 0 3 0;
#X connect 2 0 3 1;
#X connect 2 1 4 0;
#X connect 2 1 4 1;
#X connect 3 0 5 0;
#X connect 4 0 5 0;
#X connect 5 0 7 0;
#X restore 452 172 pd fft;
#X obj 555 85 tgl 30 0 empty empty empty 17 7 0 10 -262144 -1 -1 1
1;
#X obj 452 147 *~ 10;
#X obj 555 130 metro 50;
#X floatatom 312 151 5 0 0 1 Q - -, f 5;
#X obj 210 152 bp~ 1220 10;
#X obj 210 183 bp~ 1220 10;
#X obj 210 213 bp~ 1220 10;
#X msg 311 39 1220;
#X msg 312 121 10;
#X msg 344 121 20;
#X msg 377 121 30;
#X connect 1 0 0 0;
#X connect 1 0 0 1;
#X connect 2 0 12 0;
#X connect 3 0 12 1;
#X connect 3 0 13 1;
#X connect 3 0 14 1;
#X connect 5 0 4 0;
#X connect 8 0 10 0;
#X connect 9 0 7 0;
#X connect 10 0 7 1;
#X connect 11 0 12 2;
#X connect 11 0 13 2;
#X connect 11 0 14 2;
#X connect 12 0 13 0;
#X connect 13 0 14 0;
#X connect 14 0 1 0;
#X connect 14 0 9 0;
#X connect 15 0 3 0;
#X connect 16 0 11 0;
#X connect 17 0 11 0;
#X connect 18 0 11 0;
