#N canvas 320 23 960 684 10;
#X obj 210 316 dac~;
#X obj 210 24 noise~;
#X floatatom 270 95 5 0 0 1 cutoff_frequency - -;
#X msg 132 297 \; pd dsp \$1;
#X obj 132 249 tgl 30 0 empty empty empty 17 7 0 10 -262144 -1 -1 1
1;
#N canvas 0 22 450 300 (subpatch) 0;
#X array spectrum6 128 float 0;
#X coords 0 500 128 0 256 130 1;
#X restore 619 74 graph;
#N canvas 204 22 358 238 fft 0;
#X obj 46 48 inlet~;
#X obj 159 145 inlet;
#X obj 46 78 rfft~;
#X obj 46 111 *~;
#X obj 77 111 *~;
#X obj 46 141 sqrt~;
#X obj 191 45 block~ 1024 1;
#X obj 159 181 tabwrite~ spectrum6;
#X connect 0 0 2 0;
#X connect 1 0 7 0;
#X connect 2 0 3 0;
#X connect 2 0 3 1;
#X connect 2 1 4 0;
#X connect 2 1 4 1;
#X connect 3 0 5 0;
#X connect 4 0 5 0;
#X connect 5 0 7 0;
#X restore 452 172 pd fft;
#X obj 555 85 tgl 30 0 empty empty empty 17 7 0 10 -262144 -1 -1 1
1;
#X obj 555 130 metro 50;
#X obj 210 123 hip~;
#X obj 452 147 *~ 10;
#X obj 210 158 hip~;
#X obj 210 188 hip~;
#X msg 270 70 5000;
#X obj 270 31 loadbang;
#X obj 210 279 *~ 0.25;
#X connect 1 0 9 0;
#X connect 2 0 9 1;
#X connect 2 0 11 1;
#X connect 2 0 12 1;
#X connect 4 0 3 0;
#X connect 7 0 8 0;
#X connect 8 0 6 1;
#X connect 9 0 11 0;
#X connect 10 0 6 0;
#X connect 11 0 12 0;
#X connect 12 0 10 0;
#X connect 12 0 15 0;
#X connect 13 0 2 0;
#X connect 14 0 13 0;
#X connect 15 0 0 0;
#X connect 15 0 0 1;
