#N canvas 320 23 1038 669 12;
#X msg 190 557 \; pd dsp \$1;
#X obj 190 509 tgl 30 0 empty empty empty 17 7 0 10 -262144 -1 -1 0
1;
#X obj 470 622 dac~;
#N canvas 0 22 914 697 wave_select 0;
#X obj 117 21 inlet;
#X obj 122 605 outlet;
#X obj 265 71 select 0 1 2 3;
#X obj 283 606 outlet;
#X obj 477 611 outlet;
#X obj 678 603 outlet;
#X obj 116 155 t b b b b;
#X msg 159 211 0;
#X msg 202 211 0;
#X msg 117 211 0;
#X msg 244 211 1;
#X obj 300 157 t b b b b;
#X msg 343 213 0;
#X msg 301 213 0;
#X msg 386 213 1;
#X msg 428 213 0;
#X obj 477 157 t b b b b;
#X msg 478 213 0;
#X msg 605 213 0;
#X msg 520 213 1;
#X msg 563 213 0;
#X obj 655 157 t b b b b;
#X msg 783 213 0;
#X msg 741 213 0;
#X msg 656 213 1;
#X msg 698 213 0;
#X connect 0 0 2 0;
#X connect 2 0 6 0;
#X connect 2 1 11 0;
#X connect 2 2 16 0;
#X connect 2 3 21 0;
#X connect 6 0 9 0;
#X connect 6 1 7 0;
#X connect 6 2 8 0;
#X connect 6 3 10 0;
#X connect 7 0 3 0;
#X connect 8 0 4 0;
#X connect 9 0 1 0;
#X connect 10 0 5 0;
#X connect 11 0 13 0;
#X connect 11 1 12 0;
#X connect 11 2 14 0;
#X connect 11 3 15 0;
#X connect 12 0 3 0;
#X connect 13 0 1 0;
#X connect 14 0 4 0;
#X connect 15 0 5 0;
#X connect 16 0 17 0;
#X connect 16 1 19 0;
#X connect 16 2 20 0;
#X connect 16 3 18 0;
#X connect 17 0 1 0;
#X connect 18 0 5 0;
#X connect 19 0 3 0;
#X connect 20 0 4 0;
#X connect 21 0 24 0;
#X connect 21 1 25 0;
#X connect 21 2 23 0;
#X connect 21 3 22 0;
#X connect 22 0 5 0;
#X connect 23 0 4 0;
#X connect 24 0 1 0;
#X connect 25 0 3 0;
#X restore 711 288 pd wave_select;
#X obj 710 120 vradio 40 1 0 3 empty empty empty 0 -8 0 10 -262144
-1 -1 0;
#N canvas 0 22 771 392 vol 0;
#X obj 110 220 outlet~;
#X obj 109 36 inlet~;
#X obj 180 36 inlet;
#X obj 110 167 *~;
#X obj 137 133 line~;
#X msg 137 101 \$1 100;
#X connect 1 0 3 0;
#X connect 2 0 5 0;
#X connect 3 0 0 0;
#X connect 4 0 3 1;
#X connect 5 0 4 0;
#X restore 470 544 pd vol;
#X floatatom 527 511 5 0 1 0 - - -, f 5;
#X obj 711 85 hsl 128 30 0 1 0 0 empty empty empty -2 -8 0 10 -262144
-1 -1 4000 1;
#N canvas 0 22 771 392 wave_gate 0;
#X obj 110 167 *~ 0;
#X obj 147 82 tgl 15 0 empty empty empty 17 7 0 10 -262144 -1 -1 0
1;
#X obj 147 136 line;
#X msg 147 106 \$1 30;
#X obj 110 220 outlet~;
#X obj 109 36 inlet~;
#X obj 180 36 inlet;
#X connect 0 0 4 0;
#X connect 1 0 3 0;
#X connect 2 0 0 1;
#X connect 3 0 2 0;
#X connect 5 0 0 0;
#X connect 6 0 1 0;
#X restore 74 312 pd wave_gate;
#N canvas 0 22 771 392 wave_gate 0;
#X obj 110 167 *~ 0;
#X obj 147 82 tgl 15 0 empty empty empty 17 7 0 10 -262144 -1 -1 0
1;
#X obj 147 136 line;
#X msg 147 106 \$1 30;
#X obj 110 220 outlet~;
#X obj 109 36 inlet~;
#X obj 180 36 inlet;
#X connect 0 0 4 0;
#X connect 1 0 3 0;
#X connect 2 0 0 1;
#X connect 3 0 2 0;
#X connect 5 0 0 0;
#X connect 6 0 1 0;
#X restore 294 407 pd wave_gate;
#N canvas 0 22 771 392 wave_gate 0;
#X obj 110 167 *~ 0;
#X obj 147 82 tgl 15 0 empty empty empty 17 7 0 10 -262144 -1 -1 1
1;
#X obj 147 136 line;
#X msg 147 106 \$1 30;
#X obj 110 220 outlet~;
#X obj 109 36 inlet~;
#X obj 180 36 inlet;
#X connect 0 0 4 0;
#X connect 1 0 3 0;
#X connect 2 0 0 1;
#X connect 3 0 2 0;
#X connect 5 0 0 0;
#X connect 6 0 1 0;
#X restore 731 407 pd wave_gate;
#X text 846 87 volume;
#X obj 445 98 noise~;
#N canvas 0 22 450 300 lowpass 0;
#X obj 152 38 inlet~;
#X obj 182 250 outlet~;
#X obj 159 133 lop~;
#X obj 268 43 inlet;
#X obj 172 170 lop~;
#X obj 191 205 lop~;
#X connect 0 0 2 0;
#X connect 2 0 4 0;
#X connect 3 0 2 1;
#X connect 3 0 4 1;
#X connect 3 0 5 1;
#X connect 4 0 5 0;
#X connect 5 0 1 0;
#X restore 731 374 pd lowpass;
#X text 756 166 high pass;
#X text 755 126 low pass;
#X text 755 205 band pass;
#X floatatom 385 340 10 0 0 0 - - -, f 10;
#N canvas 0 22 450 300 highpass 0;
#X obj 152 38 inlet~;
#X obj 182 250 outlet~;
#X obj 268 43 inlet;
#X obj 159 133 hip~;
#X obj 176 170 hip~;
#X obj 194 206 hip~;
#X connect 0 0 3 0;
#X connect 2 0 3 1;
#X connect 2 0 4 1;
#X connect 2 0 5 1;
#X connect 3 0 4 0;
#X connect 4 0 5 0;
#X connect 5 0 1 0;
#X restore 294 371 pd highpass;
#X floatatom 828 341 10 0 0 0 - - -, f 10;
#X floatatom 65 167 10 0 0 0 - - -, f 10;
#N canvas 4 23 510 353 bandpass 0;
#X obj 152 38 inlet~;
#X obj 168 281 outlet~;
#X obj 268 43 inlet;
#X obj 336 43 inlet;
#X obj 159 133 bp~ 220 20;
#X obj 169 172 bp~ 220 20;
#X obj 178 207 bp~ 220 20;
#X connect 0 0 4 0;
#X connect 2 0 4 1;
#X connect 2 0 5 1;
#X connect 2 0 6 1;
#X connect 3 0 4 2;
#X connect 3 0 5 2;
#X connect 3 0 6 2;
#X connect 4 0 5 0;
#X connect 5 0 6 0;
#X connect 6 0 1 0;
#X restore 74 282 pd bandpass;
#X floatatom 205 261 10 0 0 0 - - -, f 10;
#X text 171 52 basic filters;
#X text 153 166 <- center freq;
#X text 293 261 <- Q;
#X text 385 362 ^ cutoff freq;
#X text 833 364 ^ cutoff freq;
#X msg 385 315 1000;
#X msg 65 137 1000;
#X msg 828 311 1000;
#X msg 205 234 20;
#X obj 330 435 *~ 0.35;
#X obj 65 69 loadbang;
#X obj 65 97 t b b b b;
#X connect 1 0 0 0;
#X connect 3 1 8 1;
#X connect 3 2 9 1;
#X connect 3 3 10 1;
#X connect 4 0 3 0;
#X connect 5 0 2 0;
#X connect 5 0 2 1;
#X connect 6 0 5 1;
#X connect 7 0 6 0;
#X connect 8 0 5 0;
#X connect 9 0 32 0;
#X connect 10 0 5 0;
#X connect 12 0 13 0;
#X connect 12 0 18 0;
#X connect 12 0 21 0;
#X connect 13 0 10 0;
#X connect 17 0 18 1;
#X connect 18 0 9 0;
#X connect 19 0 13 1;
#X connect 20 0 21 1;
#X connect 21 0 8 0;
#X connect 22 0 21 2;
#X connect 28 0 17 0;
#X connect 29 0 20 0;
#X connect 30 0 19 0;
#X connect 31 0 22 0;
#X connect 32 0 5 0;
#X connect 33 0 34 0;
#X connect 34 0 29 0;
#X connect 34 1 31 0;
#X connect 34 2 28 0;
#X connect 34 3 30 0;
