#N canvas 222 23 1346 655 10;
#X obj 109 24 bng 15 250 50 0 empty empty empty 0 -6 0 8 -262144 -1
-1;
#X obj 31 140 noise~;
#X obj 30 261 bp~ 0 50;
#X obj 52 171 random 10000;
#X floatatom 52 197 5 0 0 0 - - -, f 5;
#X obj 109 140 bng 15 250 50 0 empty empty empty 0 -6 0 8 -262144 -1
-1;
#X obj 159 140 noise~;
#X obj 158 261 bp~ 0 50;
#X obj 180 171 random 10000;
#X floatatom 180 197 5 0 0 0 - - -, f 5;
#X obj 236 140 bng 15 250 50 0 empty empty empty 0 -6 0 8 -262144 -1
-1;
#X obj 287 140 noise~;
#X obj 287 261 bp~ 0 50;
#X obj 309 171 random 10000;
#X floatatom 309 197 5 0 0 0 - - -, f 5;
#X obj 363 140 bng 15 250 50 0 empty empty empty 0 -6 0 8 -262144 -1
-1;
#X obj 415 140 noise~;
#X obj 414 261 bp~ 0 50;
#X obj 436 171 random 10000;
#X floatatom 436 197 5 0 0 0 - - -, f 5;
#X obj 490 140 bng 15 250 50 0 empty empty empty 0 -6 0 8 -262144 -1
-1;
#X obj 543 140 noise~;
#X obj 542 261 bp~ 0 50;
#X obj 564 171 random 10000;
#X floatatom 564 197 5 0 0 0 - - -, f 5;
#X obj 618 140 bng 15 250 50 0 empty empty empty 0 -6 0 8 -262144 -1
-1;
#X obj 671 140 noise~;
#X obj 670 261 bp~ 0 50;
#X obj 692 171 random 10000;
#X floatatom 692 197 5 0 0 0 - - -, f 5;
#X obj 745 140 bng 15 250 50 0 empty empty empty 0 -6 0 8 -262144 -1
-1;
#X obj 799 140 noise~;
#X obj 798 261 bp~ 0 50;
#X obj 820 171 random 10000;
#X floatatom 820 197 5 0 0 0 - - -, f 5;
#X obj 872 140 bng 15 250 50 0 empty empty empty 0 -6 0 8 -262144 -1
-1;
#X obj 927 140 noise~;
#X obj 926 261 bp~ 0 50;
#X obj 948 171 random 10000;
#X floatatom 948 197 5 0 0 0 - - -, f 5;
#X obj 1000 140 bng 15 250 50 0 empty empty empty 0 -6 0 8 -262144
-1 -1;
#X obj 424 514 dac~;
#X text 134 23 new color;
#X text 739 466 www.pd-tutorial.com;
#X text 732 441 variation on patch by Johannes Kreidler;
#X obj 425 487 *~ 0.5;
#X obj 109 87 t b b b b b b b b, f 149;
#N canvas 0 22 450 300 (subpatch) 0;
#X array spectrum8 128 float 0;
#X coords 0 500 128 0 256 130 1;
#X restore 1042 286 graph;
#N canvas 204 22 358 238 fft 0;
#X obj 46 48 inlet~;
#X obj 159 145 inlet;
#X obj 46 78 rfft~;
#X obj 46 111 *~;
#X obj 77 111 *~;
#X obj 46 141 sqrt~;
#X obj 191 45 block~ 1024 1;
#X obj 159 181 tabwrite~ spectrum8;
#X connect 0 0 2 0;
#X connect 1 0 7 0;
#X connect 2 0 3 0;
#X connect 2 0 3 1;
#X connect 2 1 4 0;
#X connect 2 1 4 1;
#X connect 3 0 5 0;
#X connect 4 0 5 0;
#X connect 5 0 7 0;
#X restore 875 384 pd fft;
#X obj 978 297 tgl 30 0 empty empty empty 17 7 0 10 -262144 -1 -1 0
1;
#X obj 875 359 *~ 10;
#X obj 978 342 metro 50;
#X obj 52 240 line;
#X obj 180 239 line;
#X obj 309 239 line;
#X obj 436 238 line;
#X obj 564 238 line;
#X obj 692 237 line;
#X obj 820 239 line;
#X obj 948 238 line;
#X msg 52 217 \$1 1000;
#X msg 180 216 \$1 1000;
#X msg 309 216 \$1 1000;
#X msg 436 215 \$1 1000;
#X msg 564 215 \$1 1000;
#X msg 692 214 \$1 1000;
#X msg 820 216 \$1 1000;
#X msg 948 215 \$1 1000;
#X connect 0 0 46 0;
#X connect 1 0 2 0;
#X connect 2 0 45 0;
#X connect 3 0 4 0;
#X connect 4 0 60 0;
#X connect 5 0 3 0;
#X connect 6 0 7 0;
#X connect 7 0 45 0;
#X connect 8 0 9 0;
#X connect 9 0 61 0;
#X connect 10 0 8 0;
#X connect 11 0 12 0;
#X connect 12 0 45 0;
#X connect 13 0 14 0;
#X connect 14 0 62 0;
#X connect 15 0 13 0;
#X connect 16 0 17 0;
#X connect 17 0 45 0;
#X connect 18 0 19 0;
#X connect 19 0 63 0;
#X connect 20 0 18 0;
#X connect 21 0 22 0;
#X connect 22 0 45 0;
#X connect 23 0 24 0;
#X connect 24 0 64 0;
#X connect 25 0 23 0;
#X connect 26 0 27 0;
#X connect 27 0 45 0;
#X connect 28 0 29 0;
#X connect 29 0 65 0;
#X connect 30 0 28 0;
#X connect 31 0 32 0;
#X connect 32 0 45 0;
#X connect 33 0 34 0;
#X connect 34 0 66 0;
#X connect 35 0 33 0;
#X connect 36 0 37 0;
#X connect 37 0 45 0;
#X connect 38 0 39 0;
#X connect 39 0 67 0;
#X connect 40 0 38 0;
#X connect 45 0 41 0;
#X connect 45 0 41 1;
#X connect 45 0 50 0;
#X connect 46 0 5 0;
#X connect 46 1 10 0;
#X connect 46 2 15 0;
#X connect 46 3 20 0;
#X connect 46 4 25 0;
#X connect 46 5 30 0;
#X connect 46 6 35 0;
#X connect 46 7 40 0;
#X connect 49 0 51 0;
#X connect 50 0 48 0;
#X connect 51 0 48 1;
#X connect 52 0 2 1;
#X connect 53 0 7 1;
#X connect 54 0 12 1;
#X connect 55 0 17 1;
#X connect 56 0 22 1;
#X connect 57 0 27 1;
#X connect 58 0 32 1;
#X connect 59 0 37 1;
#X connect 60 0 52 0;
#X connect 61 0 53 0;
#X connect 62 0 54 0;
#X connect 63 0 55 0;
#X connect 64 0 56 0;
#X connect 65 0 57 0;
#X connect 66 0 58 0;
#X connect 67 0 59 0;
