#N canvas 320 23 960 684 12;
#X msg 151 541 \; pd dsp \$1;
#X obj 151 493 tgl 30 0 empty empty empty 17 7 0 10 -262144 -1 -1 0
1;
#X obj 431 606 dac~;
#N canvas 0 22 771 392 vol 0;
#X obj 110 220 outlet~;
#X obj 109 36 inlet~;
#X obj 180 36 inlet;
#X obj 110 167 *~;
#X obj 137 133 line~;
#X msg 137 101 \$1 100;
#X connect 1 0 3 0;
#X connect 2 0 5 0;
#X connect 3 0 0 0;
#X connect 4 0 3 1;
#X connect 5 0 4 0;
#X restore 431 528 pd vol;
#X floatatom 488 493 5 0 1 0 - - -, f 5;
#X obj 672 69 hsl 128 30 0 1 0 0 empty empty empty -2 -8 0 10 -262144
-1 -1 8400 1;
#X text 807 68 volume;
#X obj 406 82 noise~;
#X obj 346 215 lop~;
#X obj 346 241 lop~;
#X obj 346 267 lop~;
#X floatatom 550 150 5 0 0 0 - - -, f 5;
#X text 132 58 cascading filters (low pass);
#X obj 467 278 lop~;
#X obj 347 368 *~;
#X obj 365 330 tgl 15 0 empty empty empty 17 7 0 10 -262144 -1 -1 1
1;
#X obj 443 368 *~;
#X obj 461 330 tgl 15 0 empty empty empty 17 7 0 10 -262144 -1 -1 0
1;
#X obj 132 241 vradio 30 1 0 2 empty empty empty 0 -8 0 10 -262144
-1 -1 0;
#X text 179 247 <- cascading lop~;
#X text 179 270 <- one lop~;
#X obj 133 330 select 1;
#X obj 133 368 t b b;
#X msg 132 404 1;
#X msg 178 404 0;
#X obj 219 368 t b b;
#X msg 218 404 1;
#X msg 264 404 0;
#X obj 550 87 loadbang;
#X msg 550 119 400;
#X connect 1 0 0 0;
#X connect 3 0 2 0;
#X connect 3 0 2 1;
#X connect 4 0 3 1;
#X connect 5 0 4 0;
#X connect 7 0 8 0;
#X connect 7 0 13 0;
#X connect 8 0 9 0;
#X connect 9 0 10 0;
#X connect 10 0 14 0;
#X connect 11 0 8 1;
#X connect 11 0 9 1;
#X connect 11 0 10 1;
#X connect 11 0 13 1;
#X connect 13 0 16 0;
#X connect 14 0 3 0;
#X connect 15 0 14 1;
#X connect 16 0 3 0;
#X connect 17 0 16 1;
#X connect 18 0 21 0;
#X connect 21 0 22 0;
#X connect 21 1 25 0;
#X connect 22 0 23 0;
#X connect 22 1 24 0;
#X connect 23 0 17 0;
#X connect 24 0 15 0;
#X connect 25 0 26 0;
#X connect 25 1 27 0;
#X connect 26 0 15 0;
#X connect 27 0 17 0;
#X connect 28 0 29 0;
#X connect 29 0 11 0;
