#N canvas 320 23 960 684 12;
#X msg 212 436 \; pd dsp \$1;
#X obj 212 388 tgl 30 0 empty empty empty 17 7 0 10 -262144 -1 -1 0
1;
#X obj 468 598 dac~;
#N canvas 0 22 771 392 vol 0;
#X obj 110 220 outlet~;
#X obj 109 36 inlet~;
#X obj 180 36 inlet;
#X obj 110 167 *~;
#X obj 137 133 line~;
#X msg 137 101 \$1 100;
#X connect 1 0 3 0;
#X connect 2 0 5 0;
#X connect 3 0 0 0;
#X connect 4 0 3 1;
#X connect 5 0 4 0;
#X restore 468 520 pd vol;
#X floatatom 525 485 5 0 1 0 - - -, f 5;
#X obj 708 61 hsl 128 30 0 1 0 0 empty empty empty -2 -8 0 10 -262144
-1 -1 0 1;
#X text 843 60 volume;
#X obj 443 74 adc~;
#X obj 383 285 hip~ 300;
#X obj 383 207 lop~ 3000;
#X obj 383 233 lop~ 3000;
#X obj 383 259 hip~ 300;
#X text 38 110 reducing frequency response (telephone filter);
#X floatatom 497 151 5 0 0 0 - - -, f 5;
#X floatatom 497 226 5 0 0 0 - - -, f 5;
#X obj 497 119 r upperlim;
#X obj 497 195 r lowerlim;
#X msg 719 227 \; upperlim 300 \; lowerlim 200 \;;
#X msg 719 172 \; upperlim 3000 \; lowerlim 300 \;;
#X msg 719 283 \; upperlim 1000 \; lowerlim 600 \;;
#X msg 719 339 \; upperlim 3000 \; lowerlim 1000 \;;
#X msg 719 396 \; upperlim 15000 \; lowerlim 10000 \;;
#X text 42 78 USE HEADPHONES! FEEDBACK RISK;
#X text 39 137 passes frequencies from 300 Hz to 3000 Hz (default)
;
#X connect 1 0 0 0;
#X connect 3 0 2 0;
#X connect 3 0 2 1;
#X connect 4 0 3 1;
#X connect 5 0 4 0;
#X connect 7 0 9 0;
#X connect 8 0 3 0;
#X connect 9 0 10 0;
#X connect 10 0 11 0;
#X connect 11 0 8 0;
#X connect 13 0 9 1;
#X connect 13 0 10 1;
#X connect 14 0 11 1;
#X connect 14 0 8 1;
#X connect 15 0 13 0;
#X connect 16 0 14 0;
