#N canvas 302 23 1280 684 12;
#X msg 203 460 \; pd dsp \$1;
#X obj 203 412 tgl 30 0 empty empty empty 17 7 0 10 -262144 -1 -1 0
1;
#X obj 471 602 dac~;
#N canvas 0 22 771 392 vol 0;
#X obj 110 220 outlet~;
#X obj 109 36 inlet~;
#X obj 180 36 inlet;
#X obj 110 167 *~;
#X obj 137 133 line~;
#X msg 137 101 \$1 100;
#X connect 1 0 3 0;
#X connect 2 0 5 0;
#X connect 3 0 0 0;
#X connect 4 0 3 1;
#X connect 5 0 4 0;
#X restore 471 524 pd vol;
#X floatatom 528 491 5 0 1 0 - - -;
#X obj 531 449 hsl 128 30 0 1 0 0 empty empty empty -2 -8 0 10 -262144
-1 -1 8800 1;
#X text 666 451 volume;
#X obj 453 449 *~;
#X obj 320 270 lop~ 3000;
#X obj 320 296 lop~ 3000;
#X floatatom 466 137 15 0 0 0 - - -;
#X floatatom 490 287 15 0 0 0 - - -;
#X obj 490 261 r lowerlim;
#X obj 466 111 r upperlim;
#X msg 144 82 \; upperlim 3000 \; lowerlim 300 \;;
#X msg 144 193 \; upperlim 1000 \; lowerlim 600 \;;
#X msg 144 249 \; upperlim 3000 \; lowerlim 1000 \;;
#X msg 144 306 \; upperlim 15000 \; lowerlim 10000 \;;
#X text 495 59 combining things to get percussion sounds;
#X msg 144 137 \; upperlim 800 \; lowerlim 500 \;;
#X floatatom 906 302 5 0 0 0 - - -;
#X obj 824 301 tgl 30 0 empty empty empty 17 7 0 10 -262144 -1 -1 0
1;
#X floatatom 961 302 5 0 0 0 - - -;
#X floatatom 1016 302 5 0 0 0 - - -;
#X floatatom 1071 302 5 0 0 0 - - -;
#X text 904 269 A(ms);
#X text 961 270 D(ms);
#X text 1014 270 S(%);
#X text 1068 270 R(ms);
#X obj 824 144 tgl 15 0 empty empty empty 17 7 0 10 -262144 -1 -1 1
1;
#X floatatom 893 139 5 0 0 0 - - -;
#X obj 824 184 metro 400;
#X obj 824 351 ps_adsr 1 100 200 50 300;
#X obj 320 72 phasor~ 300;
#X obj 320 348 hip~ 300;
#X obj 320 322 hip~ 300;
#X obj 634 93 hsl 128 30 0 1 0 0 empty empty empty -2 -8 0 10 -262144
-1 -1 12000 1;
#X obj 656 225 hsl 128 30 0 1 0 0 empty empty empty -2 -8 0 10 -262144
-1 -1 11100 1;
#X obj 466 186 line;
#X obj 490 336 line;
#X msg 490 310 \$1 1000;
#X msg 466 160 \$1 1000;
#X obj 631 127 * 15000;
#X obj 653 259 * 15000;
#X obj 653 284 + 1;
#X obj 631 153 + 1;
#X connect 1 0 0 0;
#X connect 3 0 2 0;
#X connect 3 0 2 1;
#X connect 4 0 3 1;
#X connect 5 0 4 0;
#X connect 7 0 3 0;
#X connect 8 0 9 0;
#X connect 9 0 35 0;
#X connect 10 0 41 0;
#X connect 11 0 40 0;
#X connect 12 0 11 0;
#X connect 13 0 10 0;
#X connect 20 0 32 2;
#X connect 21 0 32 0;
#X connect 22 0 32 3;
#X connect 23 0 32 4;
#X connect 24 0 32 5;
#X connect 29 0 31 0;
#X connect 30 0 31 1;
#X connect 31 0 21 0;
#X connect 32 0 7 1;
#X connect 33 0 8 0;
#X connect 34 0 7 0;
#X connect 35 0 34 0;
#X connect 36 0 42 0;
#X connect 37 0 43 0;
#X connect 38 0 8 1;
#X connect 38 0 9 1;
#X connect 39 0 35 1;
#X connect 39 0 34 1;
#X connect 40 0 39 0;
#X connect 41 0 38 0;
#X connect 42 0 45 0;
#X connect 43 0 44 0;
#X connect 44 0 11 0;
#X connect 45 0 10 0;
