#N canvas 360 384 1031 702 10;
#X floatatom 56 187 5 0 0 0 - - -;
#X obj 56 98 ctlin 1;
#X obj 56 223 print;
#X floatatom 336 196 5 0 0 0 - - -;
#X obj 307 125 ps.scale 17 28 0 1;
#X obj 335 295 hsl 128 15 0 1 0 0 empty empty empty -2 -8 0 10 -262144
-1 -1 0 1;
#X obj 337 258 line 1;
#X msg 337 232 \$1 200;
#X connect 0 0 2 0;
#X connect 0 0 4 0;
#X connect 1 0 0 0;
#X connect 3 0 7 0;
#X connect 4 0 3 0;
#X connect 6 0 5 0;
#X connect 7 0 6 0;
