#N canvas 858 298 1346 743 10;
#X msg 53 172 close;
#X obj 37 14 cnv 15 440 60 empty empty empty 20 12 0 14 -200075 -66577
0;
#X msg 44 142 devices;
#X floatatom 104 150 5 0 0 0 - - -;
#X msg 104 169 open \$1;
#X obj 44 256 s;
#X obj 44 234 serial_print any;
#X obj 44 212 comport 1 9600;
#X floatatom 216 381 15 0 0 1 red - -;
#X floatatom 216 404 15 0 0 1 green - -;
#X floatatom 216 427 15 0 0 1 blue - -;
#X text 46 88 Requires [comport] object \; install under Help > Find
Externals, f 72;
#X floatatom 216 449 15 0 0 1 clear - -;
#X floatatom 213 221 15 0 0 1 color_temperature - -;
#X floatatom 214 308 15 0 0 1 lux - -;
#X floatatom 220 566 15 0 0 1 hue - -;
#X floatatom 220 600 15 0 0 1 saturation - -;
#X floatatom 220 634 15 0 0 1 lightness - -;
#X text 393 597 HSL implementation is very rough in the Teensy code
example \, and it is likely that the sensor requires some calibration
for accuracy. However this might provide some useable data;
#X text 247 475 Raw data from TCS34725 color sensor from Adafruit \;
https://www.adafruit.com/product/1334;
#X text 44 22 [serial_print]: abstraction that works with Arduinos'
Serial.print() and Serial.println() functions (with the use of [comport]).
It was written by Alexandros Drymonitis. \; See https://github.com/alexdrymonitis/Arduino_Pd
;
#X obj 213 173 r color_temp:;
#X obj 213 264 r lux:;
#X obj 107 329 r rgbc:;
#X obj 104 498 r hsl:;
#X obj 104 523 unpack f f f s;
#X obj 107 355 unpack f f f f s;
#X obj 213 285 unpack f s;
#X obj 213 197 unpack f s;
#X obj 543 143 r analog_values:;
#X floatatom 543 191 5 0 0 0 - - -;
#X floatatom 579 191 5 0 0 0 - - -;
#X floatatom 616 191 5 0 0 0 - - -;
#X floatatom 653 191 5 0 0 0 - - -;
#X floatatom 690 191 5 0 0 0 - - -;
#X floatatom 543 309 5 0 0 0 - - -;
#X obj 543 261 r digital_values:;
#X obj 543 167 unpack f f f f f, f 25;
#X text 543 121 For potentiometers and photocells;
#X floatatom 850 184 10 0 0 0 - - -;
#X floatatom 923 184 10 0 0 0 - - -;
#X floatatom 997 185 10 0 0 0 - - -;
#X obj 850 136 r acceleration:;
#X obj 850 160 unpack f f f, f 25;
#X floatatom 547 421 5 0 0 0 - - -;
#X obj 547 373 r touch_values:;
#X text 547 351 For touch pins;
#X obj 547 397 unpack f f, f 25;
#X floatatom 693 422 5 0 0 0 - - -;
#X floatatom 950 353 5 0 0 0 - - -;
#X obj 950 305 r distance:;
#X obj 950 329 unpack f, f 25;
#X text 543 239 For buttons;
#X text 951 282 For ultrasonic sensor;
#X text 846 114 For accelerometer;
#X obj 543 285 unpack f f f f f f f f f, f 51;
#X floatatom 582 309 5 0 0 0 - - -;
#X floatatom 617 309 5 0 0 0 - - -;
#X floatatom 656 309 5 0 0 0 - - -;
#X floatatom 693 309 5 0 0 0 - - -;
#X floatatom 732 309 5 0 0 0 - - -;
#X floatatom 767 309 5 0 0 0 - - -;
#X floatatom 806 309 5 0 0 0 - - -;
#X floatatom 841 309 5 0 0 0 - - -;
#X connect 0 0 7 0;
#X connect 2 0 7 0;
#X connect 3 0 4 0;
#X connect 4 0 7 0;
#X connect 6 0 5 0;
#X connect 6 1 5 1;
#X connect 7 0 6 0;
#X connect 21 0 28 0;
#X connect 22 0 27 0;
#X connect 23 0 26 0;
#X connect 24 0 25 0;
#X connect 25 0 15 0;
#X connect 25 1 16 0;
#X connect 25 2 17 0;
#X connect 26 0 8 0;
#X connect 26 1 9 0;
#X connect 26 2 10 0;
#X connect 26 3 12 0;
#X connect 27 0 14 0;
#X connect 28 0 13 0;
#X connect 29 0 37 0;
#X connect 36 0 55 0;
#X connect 37 0 30 0;
#X connect 37 1 31 0;
#X connect 37 2 32 0;
#X connect 37 3 33 0;
#X connect 37 4 34 0;
#X connect 42 0 43 0;
#X connect 43 0 39 0;
#X connect 43 1 40 0;
#X connect 43 2 41 0;
#X connect 45 0 47 0;
#X connect 47 0 44 0;
#X connect 47 1 48 0;
#X connect 50 0 51 0;
#X connect 51 0 49 0;
#X connect 55 0 35 0;
#X connect 55 1 56 0;
#X connect 55 2 57 0;
#X connect 55 3 58 0;
#X connect 55 4 59 0;
#X connect 55 5 60 0;
#X connect 55 6 61 0;
#X connect 55 7 62 0;
#X connect 55 8 63 0;
