#N canvas 238 74 1287 783 10;
#X obj 255 639 dac~;
#X obj 41 182 bng 15 250 50 0 empty empty empty 17 7 0 10 -262144 -1
-1;
#X obj 167 450 vline~;
#X obj 41 22 receive fromGUI;
#X obj 41 50 list trim;
#X obj 41 151 select 1;
#X obj 41 116 tgl 15 0 empty empty empty 17 7 0 10 -262144 -1 -1 0
1;
#X obj 100 151 select 1;
#X obj 100 116 tgl 15 0 empty empty empty 17 7 0 10 -262144 -1 -1 0
1;
#X obj 160 151 select 1;
#X obj 160 116 tgl 15 0 empty empty empty 17 7 0 10 -262144 -1 -1 0
1;
#X obj 100 182 bng 15 250 50 0 empty empty empty 17 7 0 10 -262144
-1 -1;
#X obj 160 182 bng 15 250 50 0 empty empty empty 17 7 0 10 -262144
-1 -1;
#X obj 266 450 vline~;
#X obj 366 450 vline~;
#X obj 86 276 soundfiler;
#N canvas 538 246 658 444 sampleConversion 0;
#X obj 274 16 inlet;
#X floatatom 274 56 10 0 0 1 number_of_samples - -, f 10;
#X obj 153 159 / 44.1;
#X floatatom 153 191 10 0 0 1 milliseconds - -, f 10;
#X text 207 156 < sampling rate (by default 44.1 KHz);
#X obj 132 263 pack f f;
#X obj 153 222 t b f;
#X obj 43 202 f;
#X obj 31 120 t f f;
#X text 83 116 < using trigger to make sure order of events happens
correctly;
#X text 202 220 < using trigger to make sure order of events happens
correctly;
#X text 204 264 < pack to format message;
#X obj 87 320 outlet;
#X obj 515 331 outlet;
#X obj 478 51 samplerate~;
#X obj 478 25 loadbang;
#X obj 535 25 bng 15 250 50 0 empty empty empty 17 7 0 10 -262144 -1
-1;
#X floatatom 478 71 5 0 0 0 - - -, f 5;
#X floatatom 478 110 5 0 0 0 - - -, f 5;
#X obj 478 90 * 0.001;
#X connect 0 0 1 0;
#X connect 1 0 8 0;
#X connect 1 0 13 0;
#X connect 2 0 3 0;
#X connect 3 0 6 0;
#X connect 5 0 12 0;
#X connect 6 0 7 0;
#X connect 6 1 5 1;
#X connect 7 0 5 0;
#X connect 8 0 2 0;
#X connect 8 1 7 1;
#X connect 14 0 17 0;
#X connect 15 0 14 0;
#X connect 16 0 14 0;
#X connect 17 0 19 0;
#X connect 18 0 2 1;
#X connect 19 0 18 0;
#X restore 86 299 pd sampleConversion;
#X obj 167 506 tabread4~ pl1;
#X obj 266 506 tabread4~ pl2;
#X obj 366 506 tabread4~ pl3;
#X obj 590 22 table pl1;
#X obj 591 44 table pl2;
#X obj 592 66 table pl3;
#X obj 592 87 table pl4;
#X obj 592 109 table pl5;
#X msg 86 357 4204 95.3288;
#X msg 85 328 set \$1 \$2;
#X msg 58 356 0;
#X obj 40 246 t b b;
#X obj 314 278 soundfiler;
#N canvas 538 246 658 444 sampleConversion 0;
#X obj 274 16 inlet;
#X floatatom 274 56 10 0 0 1 number_of_samples - -, f 10;
#X obj 153 159 / 44.1;
#X floatatom 153 191 10 0 0 1 milliseconds - -, f 10;
#X text 207 156 < sampling rate (by default 44.1 KHz);
#X obj 132 263 pack f f;
#X obj 153 222 t b f;
#X obj 43 202 f;
#X obj 31 120 t f f;
#X text 83 116 < using trigger to make sure order of events happens
correctly;
#X text 202 220 < using trigger to make sure order of events happens
correctly;
#X text 204 264 < pack to format message;
#X obj 87 320 outlet;
#X obj 515 331 outlet;
#X obj 478 51 samplerate~;
#X obj 478 25 loadbang;
#X obj 535 25 bng 15 250 50 0 empty empty empty 17 7 0 10 -262144 -1
-1;
#X floatatom 478 71 5 0 0 0 - - -, f 5;
#X floatatom 478 110 5 0 0 0 - - -, f 5;
#X obj 478 90 * 0.001;
#X connect 0 0 1 0;
#X connect 1 0 8 0;
#X connect 1 0 13 0;
#X connect 2 0 3 0;
#X connect 3 0 6 0;
#X connect 5 0 12 0;
#X connect 6 0 7 0;
#X connect 6 1 5 1;
#X connect 7 0 5 0;
#X connect 8 0 2 0;
#X connect 8 1 7 1;
#X connect 14 0 17 0;
#X connect 15 0 14 0;
#X connect 16 0 14 0;
#X connect 17 0 19 0;
#X connect 18 0 2 1;
#X connect 19 0 18 0;
#X restore 314 301 pd sampleConversion;
#X msg 314 359 5304 120.272;
#X msg 313 330 set \$1 \$2;
#X msg 286 358 0;
#X obj 268 248 t b b;
#X obj 540 279 soundfiler;
#N canvas 538 246 658 444 sampleConversion 0;
#X obj 274 16 inlet;
#X floatatom 274 56 10 0 0 1 number_of_samples - -, f 10;
#X obj 153 159 / 44.1;
#X floatatom 153 191 10 0 0 1 milliseconds - -, f 10;
#X text 207 156 < sampling rate (by default 44.1 KHz);
#X obj 132 263 pack f f;
#X obj 153 222 t b f;
#X obj 43 202 f;
#X obj 31 120 t f f;
#X text 83 116 < using trigger to make sure order of events happens
correctly;
#X text 202 220 < using trigger to make sure order of events happens
correctly;
#X text 204 264 < pack to format message;
#X obj 87 320 outlet;
#X obj 515 331 outlet;
#X obj 478 51 samplerate~;
#X obj 478 25 loadbang;
#X obj 535 25 bng 15 250 50 0 empty empty empty 17 7 0 10 -262144 -1
-1;
#X floatatom 478 71 5 0 0 0 - - -, f 5;
#X floatatom 478 110 5 0 0 0 - - -, f 5;
#X obj 478 90 * 0.001;
#X connect 0 0 1 0;
#X connect 1 0 8 0;
#X connect 1 0 13 0;
#X connect 2 0 3 0;
#X connect 3 0 6 0;
#X connect 5 0 12 0;
#X connect 6 0 7 0;
#X connect 6 1 5 1;
#X connect 7 0 5 0;
#X connect 8 0 2 0;
#X connect 8 1 7 1;
#X connect 14 0 17 0;
#X connect 15 0 14 0;
#X connect 16 0 14 0;
#X connect 17 0 19 0;
#X connect 18 0 2 1;
#X connect 19 0 18 0;
#X restore 540 302 pd sampleConversion;
#X msg 540 360 6839 155.079;
#X msg 539 331 set \$1 \$2;
#X msg 512 359 0;
#X obj 494 249 t b b;
#X obj 768 281 soundfiler;
#N canvas 538 246 658 444 sampleConversion 0;
#X obj 274 16 inlet;
#X floatatom 274 56 10 0 0 1 number_of_samples - -, f 10;
#X obj 153 159 / 44.1;
#X floatatom 153 191 10 0 0 1 milliseconds - -, f 10;
#X text 207 156 < sampling rate (by default 44.1 KHz);
#X obj 132 263 pack f f;
#X obj 153 222 t b f;
#X obj 43 202 f;
#X obj 31 120 t f f;
#X text 83 116 < using trigger to make sure order of events happens
correctly;
#X text 202 220 < using trigger to make sure order of events happens
correctly;
#X text 204 264 < pack to format message;
#X obj 87 320 outlet;
#X obj 515 331 outlet;
#X obj 478 51 samplerate~;
#X obj 478 25 loadbang;
#X obj 535 25 bng 15 250 50 0 empty empty empty 17 7 0 10 -262144 -1
-1;
#X floatatom 478 71 5 0 0 0 - - -, f 5;
#X floatatom 478 110 5 0 0 0 - - -, f 5;
#X obj 478 90 * 0.001;
#X connect 0 0 1 0;
#X connect 1 0 8 0;
#X connect 1 0 13 0;
#X connect 2 0 3 0;
#X connect 3 0 6 0;
#X connect 5 0 12 0;
#X connect 6 0 7 0;
#X connect 6 1 5 1;
#X connect 7 0 5 0;
#X connect 8 0 2 0;
#X connect 8 1 7 1;
#X connect 14 0 17 0;
#X connect 15 0 14 0;
#X connect 16 0 14 0;
#X connect 17 0 19 0;
#X connect 18 0 2 1;
#X connect 19 0 18 0;
#X restore 768 304 pd sampleConversion;
#X msg 768 362 7158 162.313;
#X msg 767 333 set \$1 \$2;
#X msg 740 361 0;
#X obj 722 251 t b b;
#X obj 994 281 soundfiler;
#N canvas 538 246 658 444 sampleConversion 0;
#X obj 274 16 inlet;
#X floatatom 274 56 10 0 0 1 number_of_samples - -, f 10;
#X obj 153 159 / 44.1;
#X floatatom 153 191 10 0 0 1 milliseconds - -, f 10;
#X text 207 156 < sampling rate (by default 44.1 KHz);
#X obj 132 263 pack f f;
#X obj 153 222 t b f;
#X obj 43 202 f;
#X obj 31 120 t f f;
#X text 83 116 < using trigger to make sure order of events happens
correctly;
#X text 202 220 < using trigger to make sure order of events happens
correctly;
#X text 204 264 < pack to format message;
#X obj 87 320 outlet;
#X obj 515 331 outlet;
#X obj 478 51 samplerate~;
#X obj 478 25 loadbang;
#X obj 535 25 bng 15 250 50 0 empty empty empty 17 7 0 10 -262144 -1
-1;
#X floatatom 478 71 5 0 0 0 - - -, f 5;
#X floatatom 478 110 5 0 0 0 - - -, f 5;
#X obj 478 90 * 0.001;
#X connect 0 0 1 0;
#X connect 1 0 8 0;
#X connect 1 0 13 0;
#X connect 2 0 3 0;
#X connect 3 0 6 0;
#X connect 5 0 12 0;
#X connect 6 0 7 0;
#X connect 6 1 5 1;
#X connect 7 0 5 0;
#X connect 8 0 2 0;
#X connect 8 1 7 1;
#X connect 14 0 17 0;
#X connect 15 0 14 0;
#X connect 16 0 14 0;
#X connect 17 0 19 0;
#X connect 18 0 2 1;
#X connect 19 0 18 0;
#X restore 994 304 pd sampleConversion;
#X msg 994 362 13147 298.118;
#X msg 993 333 set \$1 \$2;
#X msg 966 361 0;
#X obj 948 251 t b b;
#X obj 454 450 vline~;
#X obj 554 450 vline~;
#X obj 454 506 tabread4~ pl4;
#X obj 554 506 tabread4~ pl5;
#X obj 42 77 route /play1 /play2 /play3 /play4 /play5, f 70;
#X obj 220 151 select 1;
#X obj 220 116 tgl 15 0 empty empty empty 17 7 0 10 -262144 -1 -1 0
1;
#X obj 280 151 select 1;
#X obj 280 116 tgl 15 0 empty empty empty 17 7 0 10 -262144 -1 -1 0
1;
#X obj 220 182 bng 15 250 50 0 empty empty empty 17 7 0 10 -262144
-1 -1;
#X obj 280 182 bng 15 250 50 0 empty empty empty 17 7 0 10 -262144
-1 -1;
#X obj 734 95 loadbang;
#X obj 734 129 t b b b b b;
#X msg 86 248 read -resize Sample1.wav pl1;
#X msg 314 250 read -resize Sample2.wav pl2;
#X msg 540 251 read -resize Sample3.wav pl3;
#X msg 768 253 read -resize Sample4.wav pl4;
#X msg 994 253 read -resize Sample5.wav pl5;
#X obj 691 95 bng 15 250 50 0 empty empty empty 17 7 0 10 -262144 -1
-1;
#X connect 1 0 28 0;
#X connect 2 0 17 0;
#X connect 3 0 4 0;
#X connect 4 0 57 0;
#X connect 5 0 1 0;
#X connect 6 0 5 0;
#X connect 7 0 11 0;
#X connect 8 0 7 0;
#X connect 9 0 12 0;
#X connect 10 0 9 0;
#X connect 11 0 34 0;
#X connect 12 0 40 0;
#X connect 13 0 18 0;
#X connect 14 0 19 0;
#X connect 15 0 16 0;
#X connect 16 0 26 0;
#X connect 17 0 0 0;
#X connect 17 0 0 1;
#X connect 18 0 0 0;
#X connect 18 0 0 1;
#X connect 19 0 0 0;
#X connect 19 0 0 1;
#X connect 25 0 2 0;
#X connect 26 0 25 0;
#X connect 27 0 2 0;
#X connect 28 0 25 0;
#X connect 28 1 27 0;
#X connect 29 0 30 0;
#X connect 30 0 32 0;
#X connect 31 0 13 0;
#X connect 32 0 31 0;
#X connect 33 0 13 0;
#X connect 34 0 31 0;
#X connect 34 1 33 0;
#X connect 35 0 36 0;
#X connect 36 0 38 0;
#X connect 37 0 14 0;
#X connect 38 0 37 0;
#X connect 39 0 14 0;
#X connect 40 0 37 0;
#X connect 40 1 39 0;
#X connect 41 0 42 0;
#X connect 42 0 44 0;
#X connect 43 0 53 0;
#X connect 44 0 43 0;
#X connect 45 0 53 0;
#X connect 46 0 43 0;
#X connect 46 1 45 0;
#X connect 47 0 48 0;
#X connect 48 0 50 0;
#X connect 49 0 54 0;
#X connect 50 0 49 0;
#X connect 51 0 54 0;
#X connect 52 0 49 0;
#X connect 52 1 51 0;
#X connect 53 0 55 0;
#X connect 54 0 56 0;
#X connect 55 0 0 0;
#X connect 55 0 0 1;
#X connect 56 0 0 0;
#X connect 56 0 0 1;
#X connect 57 0 6 0;
#X connect 57 1 8 0;
#X connect 57 2 10 0;
#X connect 57 3 59 0;
#X connect 57 4 61 0;
#X connect 58 0 62 0;
#X connect 59 0 58 0;
#X connect 60 0 63 0;
#X connect 61 0 60 0;
#X connect 62 0 46 0;
#X connect 63 0 52 0;
#X connect 64 0 65 0;
#X connect 65 0 66 0;
#X connect 65 1 67 0;
#X connect 65 2 68 0;
#X connect 65 3 69 0;
#X connect 65 4 70 0;
#X connect 66 0 15 0;
#X connect 67 0 29 0;
#X connect 68 0 35 0;
#X connect 69 0 41 0;
#X connect 70 0 47 0;
#X connect 71 0 65 0;
