#N canvas 519 23 787 294 10;
#X obj 72 28 osc~ 400;
#X obj 212 34 osc~ 439;
#X obj 137 169 *~ 0.5;
#X obj 137 228 dac~;
#X text 291 93 Beating frequencies: the rate of the beating is exactly
equal to the difference between the two frequencies - in this example:
440 - 439 = 1 Hz.;
#X obj 184 169 *~ 0.5;
#X text 288 164 In this example to modulation is not happening in the
software system through addition \, instead it is happening as a result
of the two frequencies being sent to two different speakers... so it's
happening acoustically;
#X connect 0 0 2 0;
#X connect 1 0 5 0;
#X connect 2 0 3 0;
#X connect 5 0 3 1;
