#N canvas 493 23 787 294 10;
#X obj 72 28 osc~ 400;
#X obj 108 115 *~ 0.5;
#X obj 142 263 dac~;
#X text 291 93 Beating frequencies: the rate of the beating is exactly
equal to the difference between the two frequencies - in this example:
440 - 439 = 1 Hz.;
#X obj 164 112 *~ 0.5;
#X obj 150 202 +~;
#X obj 212 34 osc~ 401;
#X connect 0 0 1 0;
#X connect 1 0 5 0;
#X connect 4 0 5 1;
#X connect 5 0 2 0;
#X connect 5 0 2 1;
#X connect 6 0 4 0;
