#N canvas 315 23 1185 601 10;
#X obj 43 293 *~ 0.5;
#X obj 43 352 dac~;
#N canvas 0 22 450 300 (subpatch) 0;
#X array spectrum15 128 float 0;
#X coords 0 500 128 0 256 130 1 0 0;
#X restore 716 54 graph;
#N canvas 204 22 358 238 fft 0;
#X obj 46 48 inlet~;
#X obj 159 145 inlet;
#X obj 46 78 rfft~;
#X obj 46 111 *~;
#X obj 77 111 *~;
#X obj 46 141 sqrt~;
#X obj 191 45 block~ 1024 1;
#X obj 159 181 tabwrite~ spectrum15;
#X connect 0 0 2 0;
#X connect 1 0 7 0;
#X connect 2 0 3 0;
#X connect 2 0 3 1;
#X connect 2 1 4 0;
#X connect 2 1 4 1;
#X connect 3 0 5 0;
#X connect 4 0 5 0;
#X connect 5 0 7 0;
#X restore 355 389 pd fft;
#X obj 418 258 tgl 30 0 empty empty empty 17 7 0 10 -262144 -1 -1 1
1;
#X obj 418 303 metro 50;
#X obj 347 329 *~ 1;
#N canvas 0 22 450 300 (subpatch) 0;
#X array spectrum16 128 float 0;
#X coords 0 500 128 0 256 130 1 0 0;
#X restore 717 201 graph;
#N canvas 204 22 358 238 fft 0;
#X obj 46 48 inlet~;
#X obj 159 145 inlet;
#X obj 46 78 rfft~;
#X obj 46 111 *~;
#X obj 77 111 *~;
#X obj 46 141 sqrt~;
#X obj 191 46 block~ 1024 1;
#X obj 159 181 tabwrite~ spectrum16;
#X connect 0 0 2 0;
#X connect 1 0 7 0;
#X connect 2 0 3 0;
#X connect 2 0 3 1;
#X connect 2 1 4 0;
#X connect 2 1 4 1;
#X connect 3 0 5 0;
#X connect 4 0 5 0;
#X connect 5 0 7 0;
#X restore 300 391 pd fft;
#X obj 293 330 *~ 1;
#X text 352 44 Frequency modulation is using an oscillator to change
(modulate) another oscillator's frequency;
#X obj 43 230 osc~;
#X floatatom 17 64 5 0 0 0 - - -, f 5;
#X obj 69 161 +~;
#X obj 131 105 osc~ 1;
#X obj 149 152 *~ 140;
#X floatatom 193 125 5 0 0 0 - - -, f 5;
#X text 54 64 carrier;
#X text 180 105 modulator;
#X msg 17 29 440;
#X floatatom 131 74 5 0 0 0 - - -, f 5;
#X msg 62 27 1000;
#X connect 0 0 1 0;
#X connect 0 0 1 1;
#X connect 4 0 5 0;
#X connect 5 0 3 1;
#X connect 5 0 8 1;
#X connect 6 0 3 0;
#X connect 9 0 8 0;
#X connect 11 0 0 0;
#X connect 11 0 9 0;
#X connect 12 0 13 0;
#X connect 13 0 11 0;
#X connect 14 0 15 0;
#X connect 14 0 6 0;
#X connect 15 0 13 1;
#X connect 16 0 15 1;
#X connect 19 0 12 0;
#X connect 20 0 14 0;
#X connect 21 0 12 0;
