#N canvas 192 26 1023 789 10;
#X obj 255 625 dac~;
#N canvas 0 22 450 300 (subpatch) 0;
#X array recv 88200 float 2;
#X coords 0 1 88199 -1 400 140 1 0 0;
#X restore 581 44 graph;
#X obj 71 283 adc~;
#X obj 41 182 bng 15 250 50 0 empty empty empty 17 7 0 10 -262144 -1
-1;
#X obj 255 529 vline~;
#X obj 41 22 receive fromGUI;
#X obj 41 50 list trim;
#X obj 41 151 select 1;
#X obj 41 116 tgl 15 0 empty empty empty 17 7 0 10 -262144 -1 -1 0
1;
#X obj 100 151 select 1;
#X obj 100 116 tgl 15 0 empty empty empty 17 7 0 10 -262144 -1 -1 0
1;
#X obj 159 151 select 1;
#X obj 159 116 tgl 15 0 empty empty empty 17 7 0 10 -262144 -1 -1 0
1;
#X obj 100 182 bng 15 250 50 0 empty empty empty 17 7 0 10 -262144
-1 -1;
#X obj 159 182 bng 15 250 50 0 empty empty empty 17 7 0 10 -262144
-1 -1;
#X obj 255 489 pack f f, f 9;
#X msg 628 302 88200;
#X floatatom 306 442 5 0 0 0 - - -, f 5;
#X obj 196 216 t b b;
#X obj 309 336 hsl 128 15 0 1 0 0 empty empty empty -2 -8 0 10 -262144
-1 -1 4762 1;
#X floatatom 306 366 5 0 0 0 - - -, f 5;
#X obj 306 392 * 4000;
#X obj 306 418 + 500;
#X text 605 233 changing playback speed \, adding reverse;
#X obj 41 77 route /record /normalize /play /speed /reverse;
#X obj 399 151 select 1;
#X obj 399 116 tgl 15 0 empty empty empty 17 7 0 10 -262144 -1 -1 0
1;
#X obj 179 374 f;
#X obj 606 362 f;
#X msg 224 329 88200;
#X msg 674 301 0;
#X msg 194 329 0;
#X obj 399 181 t b b;
#X obj 477 188 t b b;
#X obj 396 13 loadbang;
#X obj 396 47 t b b;
#X msg 423 73 0;
#X msg 371 72 0.375;
#X obj 255 569 tabread4~ recv;
#X obj 71 336 tabwrite~ recv;
#X msg 99 233 \; recv normalize;
#X connect 2 0 39 0;
#X connect 3 0 39 0;
#X connect 4 0 38 0;
#X connect 5 0 6 0;
#X connect 6 0 24 0;
#X connect 7 0 3 0;
#X connect 8 0 7 0;
#X connect 9 0 13 0;
#X connect 10 0 9 0;
#X connect 11 0 14 0;
#X connect 12 0 11 0;
#X connect 13 0 40 0;
#X connect 14 0 18 0;
#X connect 15 0 4 0;
#X connect 16 0 28 1;
#X connect 17 0 15 1;
#X connect 18 0 28 0;
#X connect 18 1 27 0;
#X connect 19 0 20 0;
#X connect 20 0 21 0;
#X connect 21 0 22 0;
#X connect 22 0 17 0;
#X connect 24 0 8 0;
#X connect 24 1 10 0;
#X connect 24 2 12 0;
#X connect 24 3 19 0;
#X connect 24 4 26 0;
#X connect 25 0 32 0;
#X connect 25 1 33 0;
#X connect 26 0 25 0;
#X connect 27 0 4 0;
#X connect 28 0 15 0;
#X connect 29 0 27 1;
#X connect 30 0 28 1;
#X connect 31 0 27 1;
#X connect 32 0 29 0;
#X connect 32 1 30 0;
#X connect 33 0 31 0;
#X connect 33 1 16 0;
#X connect 34 0 35 0;
#X connect 35 0 37 0;
#X connect 35 1 36 0;
#X connect 36 0 26 0;
#X connect 37 0 19 0;
#X connect 38 0 0 0;
#X connect 38 0 0 1;
