#N canvas 192 26 1023 789 10;
#X obj 265 555 dac~;
#N canvas 0 22 450 300 (subpatch) 0;
#X array reco 88200 float 2;
#X coords 0 1 88199 -1 400 140 1 0 0;
#X restore 382 44 graph;
#X obj 71 283 adc~;
#X obj 41 182 bng 15 250 50 0 empty empty empty 17 7 0 10 -262144 -1
-1;
#X obj 265 459 vline~;
#X obj 41 22 receive fromGUI;
#X obj 41 50 list trim;
#X obj 41 151 select 1;
#X obj 41 116 tgl 15 0 empty empty empty 17 7 0 10 -262144 -1 -1 0
1;
#X obj 100 151 select 1;
#X obj 100 116 tgl 15 0 empty empty empty 17 7 0 10 -262144 -1 -1 0
1;
#X obj 159 151 select 1;
#X obj 159 116 tgl 15 0 empty empty empty 17 7 0 10 -262144 -1 -1 0
1;
#X obj 100 182 bng 15 250 50 0 empty empty empty 17 7 0 10 -262144
-1 -1;
#X obj 159 182 bng 15 250 50 0 empty empty empty 17 7 0 10 -262144
-1 -1;
#X obj 41 77 route /record /normalize /play /speed;
#X obj 265 419 pack f f, f 9;
#X msg 265 365 88200;
#X msg 218 364 0;
#X floatatom 316 364 5 0 0 0 - - -, f 5;
#X obj 217 216 t b b;
#X obj 319 223 hsl 128 15 0 1 0 0 empty empty empty -2 -8 0 10 -262144
-1 -1 0 1;
#X floatatom 316 253 5 0 0 0 - - -, f 5;
#X obj 316 279 * 4000;
#X obj 316 305 + 500;
#X text 538 256 changing playback speed;
#X obj 265 499 tabread4~ reco;
#X obj 71 336 tabwrite~ reco;
#X msg 99 233 \; reco normalize;
#X connect 2 0 27 0;
#X connect 3 0 27 0;
#X connect 4 0 26 0;
#X connect 5 0 6 0;
#X connect 6 0 15 0;
#X connect 7 0 3 0;
#X connect 8 0 7 0;
#X connect 9 0 13 0;
#X connect 10 0 9 0;
#X connect 11 0 14 0;
#X connect 12 0 11 0;
#X connect 13 0 28 0;
#X connect 14 0 20 0;
#X connect 15 0 8 0;
#X connect 15 1 10 0;
#X connect 15 2 12 0;
#X connect 15 3 21 0;
#X connect 16 0 4 0;
#X connect 17 0 16 0;
#X connect 18 0 4 0;
#X connect 19 0 16 1;
#X connect 20 0 17 0;
#X connect 20 1 18 0;
#X connect 21 0 22 0;
#X connect 22 0 23 0;
#X connect 23 0 24 0;
#X connect 24 0 19 0;
#X connect 26 0 0 0;
#X connect 26 0 0 1;
