#N canvas 320 22 960 675 10;
#X obj 100 73 bng 15 250 50 0 empty empty empty 17 7 0 10 -262144 -1
-1;
#X obj 100 148 bng 15 250 50 0 empty empty empty 17 7 0 10 -262144
-1 -1;
#X obj 100 105 delay 2000;
#X text 174 104 <- delay \, delays a bang by the argument in ms;
#X msg 656 243 hello;
#X text 293 166 pipe can do a similar thing for messages and numbers
->;
#X obj 47 74 bng 15 250 50 0 empty empty empty 17 7 0 10 -262144 -1
-1;
#X obj 47 149 bng 15 250 50 0 empty empty empty 17 7 0 10 -262144 -1
-1;
#X obj 47 105 del 200;
#X obj 840 585 line;
#X floatatom 840 622 5 0 0 0 - - -, f 5;
#X msg 840 521 0 \, 1 400;
#X msg 651 453 0 \, 100 4000;
#X msg 727 485 10 \, 0 4000;
#X obj 412 483 timer;
#X floatatom 412 546 5 0 0 0 - - -, f 5;
#X obj 412 400 bng 30 250 50 0 empty empty empty 17 7 0 10 -262144
-1 -1;
#X obj 464 439 bng 30 250 50 0 empty empty empty 17 7 0 10 -262144
-1 -1;
#X obj 76 463 metro 200;
#X obj 76 506 bng 30 250 50 0 empty empty empty 17 7 0 10 -262144 -1
-1;
#X obj 76 393 tgl 30 0 empty empty empty 17 7 0 10 -262144 -1 -1 0
1;
#X obj 172 391 expr 1000/($f1/60);
#X floatatom 172 358 5 0 0 0 - - -, f 5;
#X floatatom 172 426 5 0 0 0 - - -, f 5;
#X msg 171 318 134;
#X msg 219 318 60;
#X msg 268 318 110;
#X text 63 278 metronome w/ BPM expression;
#X text 360 357 timer is like a stopwatch;
#X text 573 396 ramp from one value to another over a specified duration
;
#X text 104 34 TIME OBJECTS;
#X floatatom 834 143 5 0 0 0 - - -, f 5;
#X floatatom 834 205 5 0 0 0 - - -, f 5;
#X obj 834 167 pipe 2000;
#X msg 634 115 symbol hello;
#X obj 646 174 pipe s 2000;
#X msg 722 115 symbol goodbye;
#X msg 656 212 set \$1;
#X connect 0 0 2 0;
#X connect 2 0 1 0;
#X connect 6 0 8 0;
#X connect 8 0 7 0;
#X connect 9 0 10 0;
#X connect 11 0 9 0;
#X connect 12 0 9 0;
#X connect 13 0 9 0;
#X connect 14 0 15 0;
#X connect 16 0 14 0;
#X connect 17 0 14 1;
#X connect 18 0 19 0;
#X connect 20 0 18 0;
#X connect 21 0 23 0;
#X connect 22 0 21 0;
#X connect 23 0 18 1;
#X connect 24 0 22 0;
#X connect 25 0 22 0;
#X connect 26 0 22 0;
#X connect 31 0 33 0;
#X connect 33 0 32 0;
#X connect 34 0 35 0;
#X connect 35 0 37 0;
#X connect 36 0 35 0;
#X connect 37 0 4 0;
