#N canvas 0 23 1280 684 10;
#X msg 161 561 \; pd dsp \$1;
#X obj 161 513 tgl 30 0 empty empty empty 17 7 0 10 -262144 -1 -1 0
1;
#X obj 319 583 dac~;
#N canvas 0 22 771 392 vol 0;
#X obj 110 220 outlet~;
#X obj 109 36 inlet~;
#X obj 180 36 inlet;
#X obj 110 167 *~;
#X obj 137 133 line~;
#X msg 137 101 \$1 100;
#X connect 1 0 3 0;
#X connect 2 0 5 0;
#X connect 3 0 0 0;
#X connect 4 0 3 1;
#X connect 5 0 4 0;
#X restore 319 505 pd vol;
#X floatatom 382 471 5 0 1 0 - - -, f 5;
#X obj 385 429 hsl 128 30 0 1 0 0 empty empty empty -2 -8 0 10 -262144
-1 -1 0 1;
#X text 518 432 volume;
#X obj 319 430 *~;
#N canvas 171 602 1180 739 (subpatch) 0;
#X array adsr_envelope 8 float 1;
#A 0 0 0 0.9 0.5 0.5 0.5 0 0;
#X coords 0 1 7 0 200 140 1 0 0;
#X restore 617 385 graph;
#X obj 46 144 line~;
#X obj 334 362 tabread4~ adsr_envelope;
#X obj 46 360 osc~;
#X obj 272 156 line~;
#X floatatom 272 74 5 0 0 0 - - -, f 5;
#X obj 272 114 pack f 200;
#X obj 272 228 osc~;
#X obj 46 319 +~;
#X obj 272 271 *~;
#X obj 407 135 line~;
#X msg 407 107 \$1 40;
#X floatatom 407 74 5 0 0 0 - - -, f 5;
#X msg 46 100 0 \, 7 200;
#X text 44 48 carrier;
#X text 270 48 modulation;
#X text 402 48 index;
#X text 45 14 FM with ADSR;
#X msg 616 139 \; adsr_envelope 1 0 1 0 0 0 0 0 \;;
#X msg 616 247 \; adsr_envelope 1 0 0.9 0.5 0.5 0.5 0 0 \;;
#X msg 616 302 \; adsr_envelope 1 0 0.3 0.5 0.7 0.9 0 0 \;;
#N canvas 171 602 1180 739 (subpatch) 0;
#X array adsr_freqenv 8 float 1;
#A 0 0 0 0.3 0.5 0.7 0.9 0 0;
#X coords 0 1 7 0 200 140 1;
#X restore 876 386 graph;
#X msg 875 140 \; adsr_freqenv 1 0 1 0 0 0 0 0 \;;
#X msg 875 194 \; adsr_freqenv 1 0 0.9 0.4 0.2 0 0 0 \;;
#X msg 875 248 \; adsr_freqenv 1 0 0.9 0.5 0.5 0.5 0 0 \;;
#X msg 875 303 \; adsr_freqenv 1 0 0.3 0.5 0.7 0.9 0 0 \;;
#X obj 46 285 *~ 1000;
#X obj 46 242 tabread4~ adsr_freqenv;
#X msg 616 193 \; adsr_envelope 1 0 0.9 0.4 0.2 0 0 \;;
#X msg 153 100 0 \, 7 8000;
#X connect 1 0 0 0;
#X connect 3 0 2 0;
#X connect 3 0 2 1;
#X connect 4 0 3 1;
#X connect 5 0 4 0;
#X connect 7 0 3 0;
#X connect 9 0 10 0;
#X connect 9 0 35 0;
#X connect 10 0 7 1;
#X connect 11 0 7 0;
#X connect 12 0 15 0;
#X connect 13 0 14 0;
#X connect 14 0 12 0;
#X connect 15 0 17 0;
#X connect 16 0 11 0;
#X connect 17 0 16 1;
#X connect 18 0 17 1;
#X connect 19 0 18 0;
#X connect 20 0 19 0;
#X connect 21 0 9 0;
#X connect 34 0 16 0;
#X connect 35 0 34 0;
#X connect 37 0 9 0;
