#N canvas 284 23 1014 766 10;
#N canvas 0 22 450 300 (subpatch) 0;
#X array waveform_array2 2051 float 0;
#X coords 0 1 2050 -1 200 140 1;
#X restore 289 59 graph;
#X msg 51 642 \; pd dsp \$1;
#X obj 51 594 tgl 30 0 empty empty empty 17 7 0 10 -262144 -1 -1 1
1;
#X obj 124 657 dac~;
#N canvas 0 22 771 392 vol 0;
#X obj 110 220 outlet~;
#X obj 109 36 inlet~;
#X obj 180 36 inlet;
#X obj 110 167 *~;
#X obj 137 133 line~;
#X msg 137 101 \$1 100;
#X connect 1 0 3 0;
#X connect 2 0 5 0;
#X connect 3 0 0 0;
#X connect 4 0 3 1;
#X connect 5 0 4 0;
#X restore 124 579 pd vol;
#X floatatom 187 546 5 0 1 0 - - -, f 5;
#X obj 190 498 hsl 128 30 0 1 0 0 empty empty empty -2 -8 0 10 -262144
-1 -1 4600 1;
#X obj 73 59 hsl 128 30 0 1 0 0 empty empty empty -2 -8 0 10 -262144
-1 -1 1900 1;
#X text 207 65 frequency;
#X obj 70 232 phasor~;
#X obj 70 266 *~ 2051;
#X floatatom 70 100 5 0 0 0 - - -, f 5;
#X floatatom 177 137 5 0 0 0 - - -, f 5;
#X obj 70 169 pack f 200;
#X obj 70 200 sig~;
#X obj 70 137 * 2000;
#X msg 500 59 \; waveform_array2 sinesum 2051 1 0.5 0.333333 0.25 0.2
0.166667 0.142857 0.125 0.111111 0.1 0.090909 0.083333 0.076923 \;
waveform_array2 normalize 1 \;;
#X obj 70 302 tabread4~ waveform_array2;
#X text 647 477 ADSR = Attack Decay Sustain Release;
#X text 647 492 Attack = time to reach loudest point;
#X text 647 508 Decay = time to reach sustain volume;
#X text 647 524 Sustain = volume of note till released;
#X text 648 539 Release = time to zero after note is released;
#X obj 124 519 *~;
#N canvas 144 31 650 375 (subpatch) 0;
#X array adsr_envelope 8 float 1;
#A 0 0 0.2 0.5 0.7 0.4 0.2 0 0;
#X coords 0 1 7 0 200 140 1;
#X restore 420 419 graph;
#X obj 154 400 line~;
#X obj 154 435 tabread4~ adsr_envelope;
#X msg 154 358 0 \, 7 1000;
#X msg 268 358 0 \, 7 4000;
#X msg 384 359 0 \, 7 400;
#X text 68 28 ENVELOPES (ADSR);
#X msg 651 280 \; adsr_envelope 1 0 0.9 0.4 0.2 0 0 0 0 \;;
#X msg 651 222 \; adsr_envelope 1 0.2 0.5 0.7 0.4 0.2 0 0 0 \;;
#X msg 651 339 \; adsr_envelope 1 0 0.6 0.6 0.6 1 0 0 \;;
#X msg 650 396 \; adsr_envelope 1 0 1 0.6 0.6 0.6 0 0 \;;
#N canvas 0 22 450 300 (subpatch) 0;
#X array array_env1 100 float 0;
#X coords 0 1 99 -1 200 140 1 0 0;
#X restore 419 590 graph;
#X obj 229 572 tgl 30 0 empty empty empty 17 7 0 10 -262144 -1 -1 1
1;
#X obj 229 609 metro 50;
#X obj 229 639 tabwrite~ array_env1;
#X connect 2 0 1 0;
#X connect 4 0 3 0;
#X connect 4 0 3 1;
#X connect 5 0 4 1;
#X connect 6 0 5 0;
#X connect 7 0 11 0;
#X connect 9 0 10 0;
#X connect 10 0 17 0;
#X connect 11 0 15 0;
#X connect 12 0 13 1;
#X connect 13 0 14 0;
#X connect 14 0 9 0;
#X connect 15 0 13 0;
#X connect 17 0 23 0;
#X connect 23 0 4 0;
#X connect 23 0 38 0;
#X connect 25 0 26 0;
#X connect 26 0 23 1;
#X connect 27 0 25 0;
#X connect 28 0 25 0;
#X connect 29 0 25 0;
#X connect 36 0 37 0;
#X connect 37 0 38 0;
