#N canvas 320 23 1021 729 10;
#N canvas 0 22 450 300 (subpatch) 0;
#X array array_add1 100 float 0;
#X coords 0 1 99 -1 200 140 1;
#X restore 150 226 graph;
#X obj 194 614 metro 100;
#X obj 194 577 tgl 30 0 empty empty empty 17 7 0 10 -262144 -1 -1 0
1;
#X obj 403 338 osc~;
#X msg 151 433 \; pd dsp \$1;
#X obj 151 385 tgl 30 0 empty empty empty 17 7 0 10 -262144 -1 -1 0
1;
#X obj 401 660 dac~;
#X obj 403 278 line~;
#X floatatom 403 123 5 0 0 0 - - -, f 5;
#X obj 403 236 pack f 200;
#X text 234 578 <- graph;
#X obj 561 278 line~;
#X floatatom 561 204 5 0 0 0 - - -, f 5;
#X obj 561 236 pack f 200;
#X obj 402 434 +~;
#X obj 561 338 osc~;
#X msg 769 298 0;
#X text 472 120 <- fundamental freq.;
#X text 805 296 <- phase synchronize;
#X obj 687 278 line~;
#X floatatom 687 204 5 0 0 0 - - -, f 5;
#X obj 687 236 pack f 200;
#X obj 687 338 osc~;
#X obj 687 169 * 3;
#X text 726 169 <- harmonics;
#X obj 401 582 *~ 0.2;
#X obj 194 644 tabwrite~ array_add1;
#X text 469 431 <- when you connect two signals to the same inlet addition
happens automatically;
#X obj 403 382 *~ 1;
#X obj 561 380 *~ 0.7;
#X obj 687 379 *~ 0.5;
#X text 99 148 ADDITIVE SYNTHESIS;
#X obj 561 169 * 2;
#X floatatom 667 80 5 0 0 0 - - -, f 5;
#X floatatom 702 80 5 0 0 0 - - -, f 5;
#X connect 1 0 26 0;
#X connect 2 0 1 0;
#X connect 3 0 28 0;
#X connect 5 0 4 0;
#X connect 7 0 3 0;
#X connect 8 0 9 0;
#X connect 8 0 32 0;
#X connect 8 0 23 0;
#X connect 9 0 7 0;
#X connect 11 0 15 0;
#X connect 12 0 13 0;
#X connect 13 0 11 0;
#X connect 14 0 25 0;
#X connect 15 0 29 0;
#X connect 16 0 3 1;
#X connect 16 0 15 1;
#X connect 16 0 22 1;
#X connect 19 0 22 0;
#X connect 20 0 21 0;
#X connect 21 0 19 0;
#X connect 22 0 30 0;
#X connect 23 0 20 0;
#X connect 25 0 6 0;
#X connect 25 0 6 1;
#X connect 25 0 26 0;
#X connect 28 0 14 0;
#X connect 29 0 14 1;
#X connect 30 0 14 1;
#X connect 32 0 12 0;
#X connect 33 0 32 1;
#X connect 34 0 23 1;
