#N canvas 588 61 799 791 10;
#X obj 32 734 dac~;
#N canvas 0 22 450 300 (subpatch) 0;
#X array sample_array 137846 float 2;
#X coords 0 1 137846 -1 400 140 1 0 0;
#X restore 362 271 graph;
#X obj 27 479 vline~;
#X obj 34 237 hsl 400 15 0 1 0 0 empty empty empty -2 -8 0 10 -262144
-1 -1 0 1;
#X floatatom 90 340 10 0 0 1 ramp_time - -;
#X obj 32 681 tabread4~ sample_array;
#X msg 516 635 \; sample_array normalize;
#X obj 30 313 *;
#X obj 28 399 pack f 1000;
#N canvas 0 22 1143 753 scrubbin 0;
#X obj 213 329 soundfiler;
#X msg 213 303 read -resize \$1 \$2;
#X obj 213 279 pack s s;
#X obj 258 214 t b;
#X obj 231 181 t a b;
#X obj 258 249 symbol sample_array;
#X floatatom 213 358 20 0 0 0 - - -;
#X obj 353 332 / 44.1;
#X floatatom 355 471 6 0 0 0 - - -;
#X obj 353 384 f;
#X obj 386 279 samplerate~;
#X obj 386 235 loadbang;
#X obj 386 304 * 0.001;
#X obj 355 429 * 1;
#X floatatom 515 356 5 0 0 1 playback_speed - -;
#X obj 353 407 f;
#X obj 385 411 t b f;
#X obj 386 258 bng 15 250 50 0 empty empty empty 17 7 0 10 -262144
-1 -1;
#X floatatom 353 357 15 0 0 0 - - -;
#X obj 232 451 pack 0 0 0;
#X msg 232 477 \$1 \, \$2 \$3;
#X msg 232 418 0;
#X obj 213 548 pack 0 0 0;
#X msg 213 574 \$1 \, \$2 \$3;
#X obj 194 521 f;
#X obj 194 493 bng 15 250 50 0 empty empty empty 17 7 0 10 -262144
-1 -1;
#X obj 241 103 inlet;
#X obj 565 63 inlet;
#X obj 816 116 inlet;
#X obj 952 133 inlet;
#X obj 333 621 outlet;
#X obj 103 617 outlet;
#X connect 0 0 6 0;
#X connect 1 0 0 0;
#X connect 2 0 1 0;
#X connect 3 0 5 0;
#X connect 4 0 2 0;
#X connect 4 1 3 0;
#X connect 5 0 2 1;
#X connect 6 0 7 0;
#X connect 6 0 19 1;
#X connect 6 0 24 1;
#X connect 6 0 31 0;
#X connect 7 0 18 0;
#X connect 8 0 19 2;
#X connect 8 0 22 2;
#X connect 9 0 15 0;
#X connect 10 0 12 0;
#X connect 11 0 17 0;
#X connect 12 0 7 1;
#X connect 13 0 8 0;
#X connect 14 0 13 1;
#X connect 14 0 16 0;
#X connect 15 0 13 0;
#X connect 16 0 15 0;
#X connect 16 1 13 1;
#X connect 17 0 10 0;
#X connect 18 0 9 0;
#X connect 19 0 20 0;
#X connect 20 0 30 0;
#X connect 21 0 19 0;
#X connect 22 0 23 0;
#X connect 23 0 30 0;
#X connect 24 0 22 0;
#X connect 25 0 24 0;
#X connect 26 0 4 0;
#X connect 27 0 14 0;
#X connect 28 0 21 0;
#X connect 29 0 25 0;
#X restore 210 595 pd scrubbin;
#X floatatom 252 513 5 0 0 1 playback_speed - -;
#X obj 259 541 bng 15 250 50 0 empty empty fwd 17 7 0 10 -262144 -1
-1;
#X obj 284 565 bng 15 250 50 0 empty empty bwd 17 7 0 10 -262144 -1
-1;
#X msg 31 177 0;
#X msg 74 174 0.02;
#X obj 32 28 hsl 400 15 0 1 0 0 empty empty empty -2 -8 0 10 -262144
-1 -1 20400 1;
#X floatatom 30 57 5 0 0 0 - - -;
#X obj 30 87 > 0.5;
#X obj 27 118 tgl 15 0 empty empty empty 17 7 0 10 -262144 -1 -1 1
1;
#X obj 29 146 select 1;
#X obj 113 116 tgl 15 0 empty empty empty 17 7 0 10 -262144 -1 -1 0
1;
#X obj 115 144 select 1;
#X obj 116 85 < 0.5;
#X text 233 436 change to name of sound file in same folder as patch
;
#X msg 232 456 ./hwl1.wav;
#X text 135 215 scrub;
#X text 135 9 emulate sensor with a threshold at midpoint;
#X msg 118 177 0.5;
#X msg 163 176 0.72;
#X text 207 177 play startpoints;
#X obj 347 466 loadbang;
#X msg 257 493 1;
#X connect 2 0 5 0;
#X connect 3 0 7 0;
#X connect 4 0 8 1;
#X connect 5 0 0 0;
#X connect 5 0 0 1;
#X connect 7 0 8 0;
#X connect 8 0 2 0;
#X connect 9 0 7 1;
#X connect 9 1 2 0;
#X connect 10 0 9 1;
#X connect 11 0 9 2;
#X connect 12 0 9 3;
#X connect 13 0 3 0;
#X connect 14 0 3 0;
#X connect 15 0 16 0;
#X connect 16 0 17 0;
#X connect 16 0 22 0;
#X connect 17 0 18 0;
#X connect 18 0 19 0;
#X connect 19 0 13 0;
#X connect 20 0 21 0;
#X connect 21 0 27 0;
#X connect 22 0 20 0;
#X connect 24 0 9 0;
#X connect 27 0 3 0;
#X connect 28 0 3 0;
#X connect 30 0 31 0;
#X connect 31 0 10 0;
