#N canvas 533 23 1093 1005 10;
#N canvas 0 22 450 300 (subpatch) 0;
#X array voicer 88200 float 2;
#X coords 0 1 88199 -1 400 140 1;
#X restore 611 33 graph;
#X obj 14 76 adc~;
#X obj 354 968 dac~;
#X obj 256 450 expr 44100 / $f1;
#X floatatom 231 678 10 0 0 0 - - -;
#X obj 231 723 phasor~;
#X obj 354 904 *~ 0.7;
#X floatatom 387 877 5 0 1 0 - - -;
#X obj 256 399 bng 15 250 50 0 empty empty empty 17 7 0 10 -262144
-1 -1;
#X msg 270 696 0;
#X text 310 680 <- playback speed;
#X text 304 697 <- cue position (phase);
#X obj 541 537 hsl 128 15 -2 2 0 0 empty empty -2_to_+2 20 -8 0 10
-262144 -1 -1 3737 1;
#X floatatom 538 561 5 0 0 0 - - -;
#X text 560 481 <- reset normal speed;
#X obj 538 505 f, f 22;
#X obj 538 481 bng 15 250 50 0 empty empty empty 17 7 0 10 -262144
-1 -1;
#X obj 101 329 tabwrite~ voicer;
#X obj 231 799 tabread4~ voicer;
#X obj 256 425 f 88200;
#X obj 231 766 *~ 88200;
#X obj 256 373 loadbang;
#X obj 477 134 tgl 15 0 empty empty empty 17 7 0 10 -262144 -1 -1 0
1;
#X obj 354 866 *~;
#X text 279 397 <- set normal speed;
#X obj 538 627 line;
#X msg 538 587 \$1 100;
#X obj 504 231 select 1;
#X obj 477 202 t f f;
#X obj 99 120 t b b;
#X obj 402 801 line~;
#X obj 402 762 pack f 50;
#X obj 99 88 bng 15 250 50 0 empty empty empty 17 7 0 10 -262144 -1
-1;
#X msg 152 220 \; voicer normalize;
#X obj 125 145 t b b;
#X obj 152 195 delay 10;
#X obj 151 170 delay 2 1 sec;
#X msg 135 271 stop;
#X msg 95 269 start;
#X text 127 89 record;
#X text 495 130 on/off;
#X text 686 538 speed and pitch change;
#X connect 1 0 17 0;
#X connect 3 0 4 0;
#X connect 3 0 15 1;
#X connect 4 0 5 0;
#X connect 5 0 20 0;
#X connect 6 0 2 0;
#X connect 6 0 2 1;
#X connect 7 0 6 1;
#X connect 8 0 19 0;
#X connect 9 0 5 1;
#X connect 12 0 13 0;
#X connect 13 0 26 0;
#X connect 15 0 12 0;
#X connect 16 0 15 0;
#X connect 18 0 23 0;
#X connect 19 0 3 0;
#X connect 20 0 18 0;
#X connect 21 0 8 0;
#X connect 22 0 28 0;
#X connect 23 0 6 0;
#X connect 25 0 4 0;
#X connect 26 0 25 0;
#X connect 27 0 9 0;
#X connect 28 0 31 0;
#X connect 28 1 27 0;
#X connect 29 0 38 0;
#X connect 29 1 34 0;
#X connect 30 0 23 1;
#X connect 31 0 30 0;
#X connect 32 0 29 0;
#X connect 34 0 37 0;
#X connect 34 1 36 0;
#X connect 35 0 33 0;
#X connect 36 0 35 0;
#X connect 37 0 17 0;
#X connect 38 0 17 0;
