#N canvas 369 268 1134 710 12;
#X obj 43 215 tgl 30 0 empty empty on/off 32 7 0 10 -257985 -1 -1 0
1;
#X obj 25 249 *~;
#X floatatom 25 147 5 0 0 0 - - -;
#X obj 415 358 /;
#X obj 415 410 *~ 0;
#X obj 415 384 phasor~ 0;
#X obj 415 437 +~ 1;
#X msg 415 331 44100;
#X obj 415 305 t b f;
#X floatatom 495 267 15 0 0 0 - - -;
#X obj 22 517 dac~;
#X obj 495 236 soundfiler;
#X obj 496 185 pack s s;
#X obj 496 156 t a b;
#X obj 415 492 delwrite~ j1-del 5000;
#N canvas 125 79 1060 788 transpose_j1 0;
#X floatatom 19 87 0 0 0 0 - - -;
#X obj 82 358 *~;
#X obj 205 295 line~;
#X floatatom 237 112 0 0 0 0 - - -;
#X obj 205 269 pack 0 200;
#X obj 19 143 exp;
#X floatatom 19 169 6 0 0 0 - - -;
#X obj 19 259 /;
#X obj 146 189 * 0.001;
#X obj 314 365 line~;
#X obj 314 340 pack 0 200;
#X floatatom 314 289 0 0 0 0 - - -;
#X obj 82 384 +~;
#X obj 19 410 cos~;
#X obj 19 437 *~;
#X obj 19 466 +~;
#X obj 106 317 wrap~;
#X obj 251 360 *~;
#X obj 251 393 +~;
#X obj 188 420 cos~;
#X obj 188 447 *~;
#X obj 146 216 t b f;
#X floatatom 19 285 6 0 0 0 - - -;
#X obj 106 290 +~ 0.5;
#X obj 19 358 -~ 0.5;
#X obj 19 384 *~ 0.5;
#X obj 188 359 -~ 0.5;
#X obj 188 392 *~ 0.5;
#X obj 19 196 - 1;
#X obj 19 117 * 0.05776;
#X obj 19 222 * -1;
#X text 71 86 <-- transposition;
#X text 112 98 (halftones);
#X text 82 163 speed;
#X text 81 177 change;
#X text 281 111 <--window (msec);
#X text 54 252 tape head;
#X obj 19 316 phasor~;
#X obj 314 316 max 1.5;
#X text 381 252 delay;
#X text 373 264 (msec);
#X obj 237 139 max 1;
#X text 55 265 rotation freq;
#X obj 237 64 loadbang;
#X msg 237 87 100;
#X obj 314 240 loadbang;
#X msg 314 263 0;
#X obj 21 36 inlet;
#X obj 19 530 outlet~;
#X obj 251 422 vd~ j1-del;
#X obj 82 410 vd~ j1-del;
#X connect 0 0 29 0;
#X connect 1 0 12 0;
#X connect 2 0 1 1;
#X connect 2 0 17 1;
#X connect 3 0 41 0;
#X connect 4 0 2 0;
#X connect 5 0 6 0;
#X connect 6 0 28 0;
#X connect 7 0 22 0;
#X connect 8 0 21 0;
#X connect 9 0 12 1;
#X connect 9 0 18 1;
#X connect 10 0 9 0;
#X connect 11 0 38 0;
#X connect 12 0 50 0;
#X connect 13 0 14 0;
#X connect 14 0 15 0;
#X connect 15 0 48 0;
#X connect 16 0 17 0;
#X connect 16 0 26 0;
#X connect 17 0 18 0;
#X connect 18 0 49 0;
#X connect 19 0 20 0;
#X connect 20 0 15 1;
#X connect 21 0 7 0;
#X connect 21 1 7 1;
#X connect 22 0 37 0;
#X connect 23 0 16 0;
#X connect 24 0 25 0;
#X connect 25 0 13 0;
#X connect 26 0 27 0;
#X connect 27 0 19 0;
#X connect 28 0 30 0;
#X connect 29 0 5 0;
#X connect 30 0 7 0;
#X connect 37 0 1 0;
#X connect 37 0 24 0;
#X connect 37 0 23 0;
#X connect 38 0 10 0;
#X connect 41 0 8 0;
#X connect 41 0 4 0;
#X connect 43 0 44 0;
#X connect 44 0 3 0;
#X connect 45 0 46 0;
#X connect 46 0 11 0;
#X connect 47 0 0 0;
#X connect 49 0 20 1;
#X connect 50 0 14 1;
#X restore 25 175 pd transpose_j1;
#X obj 157 214 tgl 30 0 empty empty on/off 32 7 0 10 -257985 -1 -1
0 1;
#X obj 139 248 *~;
#X floatatom 139 146 5 0 0 0 - - -;
#N canvas 125 79 1060 788 transpose_j1 0;
#X floatatom 19 87 0 0 0 0 - - -;
#X obj 82 358 *~;
#X obj 205 295 line~;
#X floatatom 237 112 0 0 0 0 - - -;
#X obj 205 269 pack 0 200;
#X obj 19 143 exp;
#X floatatom 19 169 6 0 0 0 - - -;
#X obj 19 259 /;
#X obj 146 189 * 0.001;
#X obj 314 365 line~;
#X obj 314 340 pack 0 200;
#X floatatom 314 289 0 0 0 0 - - -;
#X obj 82 384 +~;
#X obj 19 410 cos~;
#X obj 19 437 *~;
#X obj 19 466 +~;
#X obj 106 317 wrap~;
#X obj 251 360 *~;
#X obj 251 393 +~;
#X obj 188 420 cos~;
#X obj 188 447 *~;
#X obj 146 216 t b f;
#X floatatom 19 285 6 0 0 0 - - -;
#X obj 106 290 +~ 0.5;
#X obj 19 358 -~ 0.5;
#X obj 19 384 *~ 0.5;
#X obj 188 359 -~ 0.5;
#X obj 188 392 *~ 0.5;
#X obj 19 196 - 1;
#X obj 19 117 * 0.05776;
#X obj 19 222 * -1;
#X text 71 86 <-- transposition;
#X text 112 98 (halftones);
#X text 82 163 speed;
#X text 81 177 change;
#X text 281 111 <--window (msec);
#X text 54 252 tape head;
#X obj 19 316 phasor~;
#X obj 314 316 max 1.5;
#X text 381 252 delay;
#X text 373 264 (msec);
#X obj 237 139 max 1;
#X text 55 265 rotation freq;
#X obj 237 64 loadbang;
#X msg 237 87 100;
#X obj 314 240 loadbang;
#X msg 314 263 0;
#X obj 21 36 inlet;
#X obj 19 530 outlet~;
#X obj 251 422 vd~ j1-del;
#X obj 82 410 vd~ j1-del;
#X connect 0 0 29 0;
#X connect 1 0 12 0;
#X connect 2 0 1 1;
#X connect 2 0 17 1;
#X connect 3 0 41 0;
#X connect 4 0 2 0;
#X connect 5 0 6 0;
#X connect 6 0 28 0;
#X connect 7 0 22 0;
#X connect 8 0 21 0;
#X connect 9 0 12 1;
#X connect 9 0 18 1;
#X connect 10 0 9 0;
#X connect 11 0 38 0;
#X connect 12 0 50 0;
#X connect 13 0 14 0;
#X connect 14 0 15 0;
#X connect 15 0 48 0;
#X connect 16 0 17 0;
#X connect 16 0 26 0;
#X connect 17 0 18 0;
#X connect 18 0 49 0;
#X connect 19 0 20 0;
#X connect 20 0 15 1;
#X connect 21 0 7 0;
#X connect 21 1 7 1;
#X connect 22 0 37 0;
#X connect 23 0 16 0;
#X connect 24 0 25 0;
#X connect 25 0 13 0;
#X connect 26 0 27 0;
#X connect 27 0 19 0;
#X connect 28 0 30 0;
#X connect 29 0 5 0;
#X connect 30 0 7 0;
#X connect 37 0 1 0;
#X connect 37 0 24 0;
#X connect 37 0 23 0;
#X connect 38 0 10 0;
#X connect 41 0 8 0;
#X connect 41 0 4 0;
#X connect 43 0 44 0;
#X connect 44 0 3 0;
#X connect 45 0 46 0;
#X connect 46 0 11 0;
#X connect 47 0 0 0;
#X connect 49 0 20 1;
#X connect 50 0 14 1;
#X restore 139 174 pd transpose_j1;
#X obj 658 356 /;
#X obj 658 408 *~ 0;
#X obj 658 382 phasor~ 0;
#X obj 658 435 +~ 1;
#X msg 658 329 44100;
#X obj 658 303 t b f;
#X floatatom 738 265 15 0 0 0 - - -;
#X obj 738 234 soundfiler;
#X obj 739 183 pack s s;
#X obj 739 154 t a b;
#X obj 658 490 delwrite~ j2-del 5000;
#X obj 296 216 tgl 30 0 empty empty on/off 32 7 0 10 -257985 -1 -1
0 1;
#X obj 278 250 *~;
#X floatatom 278 148 5 0 0 0 - - -;
#N canvas 125 79 1060 788 transpose_j2 0;
#X floatatom 19 87 0 0 0 0 - - -;
#X obj 82 358 *~;
#X obj 205 295 line~;
#X floatatom 237 112 0 0 0 0 - - -;
#X obj 205 269 pack 0 200;
#X obj 19 143 exp;
#X floatatom 19 169 6 0 0 0 - - -;
#X obj 19 259 /;
#X obj 146 189 * 0.001;
#X obj 314 365 line~;
#X obj 314 340 pack 0 200;
#X floatatom 314 289 0 0 0 0 - - -;
#X obj 82 384 +~;
#X obj 19 410 cos~;
#X obj 19 437 *~;
#X obj 19 466 +~;
#X obj 106 317 wrap~;
#X obj 251 360 *~;
#X obj 251 393 +~;
#X obj 188 420 cos~;
#X obj 188 447 *~;
#X obj 146 216 t b f;
#X floatatom 19 285 6 0 0 0 - - -;
#X obj 106 290 +~ 0.5;
#X obj 19 358 -~ 0.5;
#X obj 19 384 *~ 0.5;
#X obj 188 359 -~ 0.5;
#X obj 188 392 *~ 0.5;
#X obj 19 196 - 1;
#X obj 19 117 * 0.05776;
#X obj 19 222 * -1;
#X text 71 86 <-- transposition;
#X text 112 98 (halftones);
#X text 82 163 speed;
#X text 81 177 change;
#X text 281 111 <--window (msec);
#X text 54 252 tape head;
#X obj 19 316 phasor~;
#X obj 314 316 max 1.5;
#X text 381 252 delay;
#X text 373 264 (msec);
#X obj 237 139 max 1;
#X text 55 265 rotation freq;
#X obj 237 64 loadbang;
#X msg 237 87 100;
#X obj 314 240 loadbang;
#X msg 314 263 0;
#X obj 21 36 inlet;
#X obj 19 530 outlet~;
#X obj 82 410 vd~ j2-del;
#X obj 251 422 vd~ j2-del;
#X connect 0 0 29 0;
#X connect 1 0 12 0;
#X connect 2 0 1 1;
#X connect 2 0 17 1;
#X connect 3 0 41 0;
#X connect 4 0 2 0;
#X connect 5 0 6 0;
#X connect 6 0 28 0;
#X connect 7 0 22 0;
#X connect 8 0 21 0;
#X connect 9 0 12 1;
#X connect 9 0 18 1;
#X connect 10 0 9 0;
#X connect 11 0 38 0;
#X connect 12 0 49 0;
#X connect 13 0 14 0;
#X connect 14 0 15 0;
#X connect 15 0 48 0;
#X connect 16 0 17 0;
#X connect 16 0 26 0;
#X connect 17 0 18 0;
#X connect 18 0 50 0;
#X connect 19 0 20 0;
#X connect 20 0 15 1;
#X connect 21 0 7 0;
#X connect 21 1 7 1;
#X connect 22 0 37 0;
#X connect 23 0 16 0;
#X connect 24 0 25 0;
#X connect 25 0 13 0;
#X connect 26 0 27 0;
#X connect 27 0 19 0;
#X connect 28 0 30 0;
#X connect 29 0 5 0;
#X connect 30 0 7 0;
#X connect 37 0 1 0;
#X connect 37 0 24 0;
#X connect 37 0 23 0;
#X connect 38 0 10 0;
#X connect 41 0 8 0;
#X connect 41 0 4 0;
#X connect 43 0 44 0;
#X connect 44 0 3 0;
#X connect 45 0 46 0;
#X connect 46 0 11 0;
#X connect 47 0 0 0;
#X connect 49 0 14 1;
#X connect 50 0 20 1;
#X restore 278 176 pd transpose_j2;
#X msg 497 130 ./hwl1.wav;
#X msg 740 128 ./hwl1_slow.wav;
#X obj 639 210 table ow1;
#X msg 495 210 read -resize \$1 ow1;
#X obj 415 463 tabread4~ ow1;
#X obj 882 208 table ow2;
#X msg 738 208 read -resize \$1 ow2;
#X obj 658 461 tabread4~ ow2;
#X text 704 330 sample rate;
#X text 854 265 number of samples in file;
#X connect 0 0 1 1;
#X connect 1 0 10 0;
#X connect 1 0 10 1;
#X connect 2 0 15 0;
#X connect 3 0 5 0;
#X connect 4 0 6 0;
#X connect 5 0 4 0;
#X connect 6 0 39 0;
#X connect 7 0 3 0;
#X connect 8 0 7 0;
#X connect 8 1 3 1;
#X connect 9 0 8 0;
#X connect 9 0 4 1;
#X connect 11 0 9 0;
#X connect 12 0 38 0;
#X connect 13 0 12 0;
#X connect 15 0 1 0;
#X connect 16 0 17 1;
#X connect 17 0 10 0;
#X connect 17 0 10 1;
#X connect 18 0 19 0;
#X connect 19 0 17 0;
#X connect 20 0 22 0;
#X connect 21 0 23 0;
#X connect 22 0 21 0;
#X connect 23 0 42 0;
#X connect 24 0 20 0;
#X connect 25 0 24 0;
#X connect 25 1 20 1;
#X connect 26 0 25 0;
#X connect 26 0 21 1;
#X connect 27 0 26 0;
#X connect 28 0 41 0;
#X connect 29 0 28 0;
#X connect 31 0 32 1;
#X connect 32 0 10 0;
#X connect 32 0 10 1;
#X connect 33 0 34 0;
#X connect 34 0 32 0;
#X connect 35 0 13 0;
#X connect 36 0 29 0;
#X connect 38 0 11 0;
#X connect 39 0 14 0;
#X connect 41 0 27 0;
#X connect 42 0 30 0;
